<?xml version="1.0" encoding="utf-8" standalone="no"?>
<!DOCTYPE svg PUBLIC "-//W3C//DTD SVG 1.1//EN"
  "http://www.w3.org/Graphics/SVG/1.1/DTD/svg11.dtd">
<svg xmlns:xlink="http://www.w3.org/1999/xlink" width="1578.325987pt" height="325.079996pt" viewBox="0 0 1578.325987 325.079996" xmlns="http://www.w3.org/2000/svg" version="1.1">
 <metadata>
  <rdf:RDF xmlns:dc="http://purl.org/dc/elements/1.1/" xmlns:cc="http://creativecommons.org/ns#" xmlns:rdf="http://www.w3.org/1999/02/22-rdf-syntax-ns#">
   <cc:Work>
    <dc:type rdf:resource="http://purl.org/dc/dcmitype/StillImage"/>
    <dc:date>2023-12-21T17:38:40.371192</dc:date>
    <dc:format>image/svg+xml</dc:format>
    <dc:creator>
     <cc:Agent>
      <dc:title>Matplotlib v3.8.2, https://matplotlib.org/</dc:title>
     </cc:Agent>
    </dc:creator>
   </cc:Work>
  </rdf:RDF>
 </metadata>
 <defs>
  <style type="text/css">*{stroke-linejoin: round; stroke-linecap: butt}</style>
 </defs>
 <g id="figure_1">
  <g id="patch_1">
   <path d="M 0 325.079996 
L 1578.325987 325.079996 
L 1578.325987 0 
L 0 0 
z
" style="fill: #ffffff"/>
  </g>
  <g id="axes_1">
   <g id="line2d_1">
    <path d="M 248.426789 76.092799 
L 1411.912173 76.092799 
" clip-path="url(#pbdff25c964)" style="fill: none; stroke: #000000; stroke-width: 2; stroke-linecap: square"/>
   </g>
   <g id="line2d_2">
    <path d="M 257.697589 127.082198 
L 262.332989 117.811398 
" clip-path="url(#pbdff25c964)" style="fill: none; stroke: #778899; stroke-width: 1.5; stroke-linecap: square"/>
   </g>
   <g id="line2d_3">
    <path d="M 248.426789 120.940293 
L 1411.912173 120.940293 
" clip-path="url(#pbdff25c964)" style="fill: none; stroke: #778899; stroke-width: 2; stroke-linecap: square"/>
   </g>
   <g id="line2d_4">
    <path d="M 248.426789 123.953303 
L 1411.912173 123.953303 
" clip-path="url(#pbdff25c964)" style="fill: none; stroke: #778899; stroke-width: 2; stroke-linecap: square"/>
   </g>
   <g id="line2d_5">
    <path d="M 1411.912173 76.092799 
L 1411.912173 122.446798 
" clip-path="url(#pbdff25c964)" style="fill: none; stroke: #000000; stroke-width: 1.5; stroke-linecap: square"/>
   </g>
   <g id="line2d_6">
    <path d="M 248.426789 215.154797 
L 1411.912173 215.154797 
" clip-path="url(#pbdff25c964)" style="fill: none; stroke: #000000; stroke-width: 2; stroke-linecap: square"/>
   </g>
   <g id="line2d_7">
    <path d="M 257.697589 266.144196 
L 262.332989 256.873397 
" clip-path="url(#pbdff25c964)" style="fill: none; stroke: #778899; stroke-width: 1.5; stroke-linecap: square"/>
   </g>
   <g id="line2d_8">
    <path d="M 248.426789 260.002292 
L 1411.912173 260.002292 
" clip-path="url(#pbdff25c964)" style="fill: none; stroke: #778899; stroke-width: 2; stroke-linecap: square"/>
   </g>
   <g id="line2d_9">
    <path d="M 248.426789 263.015302 
L 1411.912173 263.015302 
" clip-path="url(#pbdff25c964)" style="fill: none; stroke: #778899; stroke-width: 2; stroke-linecap: square"/>
   </g>
   <g id="line2d_10">
    <path d="M 247.963249 215.154797 
L 247.963249 261.508797 
" clip-path="url(#pbdff25c964)" style="fill: none; stroke: #000000; stroke-width: 1.5; stroke-linecap: square"/>
   </g>
   <g id="patch_2">
    <path d="M 591.909924 250.963262 
L 603.961964 250.963262 
L 597.935944 259.654637 
z
" clip-path="url(#pbdff25c964)" style="fill: #778899"/>
   </g>
   <g id="patch_3">
    <path d="M 243.791389 52.915799 
L -915.058596 52.915799 
L -915.058596 191.977797 
L 243.791389 191.977797 
z
" clip-path="url(#pbdff25c964)" style="fill: #ffffff; stroke: #ffffff; stroke-width: 1.5; stroke-linejoin: miter"/>
   </g>
   <g id="patch_4">
    <path d="M 243.791389 191.977797 
L -915.058596 191.977797 
L -915.058596 470.101794 
L 243.791389 470.101794 
z
" clip-path="url(#pbdff25c964)" style="fill: #ffffff; stroke: #ffffff; stroke-width: 1.5; stroke-linejoin: miter"/>
   </g>
   <g id="line2d_11">
    <path d="M 599.442449 215.154797 
L 599.442449 250.963262 
" clip-path="url(#pbdff25c964)" style="fill: none; stroke: #778899; stroke-width: 2; stroke-linecap: square"/>
   </g>
   <g id="line2d_12">
    <path d="M 596.429439 215.154797 
L 596.429439 250.963262 
" clip-path="url(#pbdff25c964)" style="fill: none; stroke: #778899; stroke-width: 2; stroke-linecap: square"/>
   </g>
   <g id="patch_5">
    <path d="M 310.772918 99.269799 
L 328.850978 99.269799 
L 328.850978 52.915799 
L 310.772918 52.915799 
z
" clip-path="url(#pbdff25c964)" style="fill: #bdbdbd; opacity: 0.6"/>
   </g>
   <g id="patch_6">
    <path d="M 496.188916 99.269799 
L 514.266975 99.269799 
L 514.266975 52.915799 
L 496.188916 52.915799 
z
" clip-path="url(#pbdff25c964)" style="fill: #bdbdbd; opacity: 0.6"/>
   </g>
   <g id="patch_7">
    <path d="M 635.250914 99.269799 
L 653.328973 99.269799 
L 653.328973 52.915799 
L 635.250914 52.915799 
z
" clip-path="url(#pbdff25c964)" style="fill: #bdbdbd; opacity: 0.6"/>
   </g>
   <g id="patch_8">
    <path d="M 774.312912 99.269799 
L 792.390972 99.269799 
L 792.390972 52.915799 
L 774.312912 52.915799 
z
" clip-path="url(#pbdff25c964)" style="fill: #bdbdbd; opacity: 0.6"/>
   </g>
   <g id="patch_9">
    <path d="M 913.37491 99.269799 
L 931.45297 99.269799 
L 931.45297 52.915799 
L 913.37491 52.915799 
z
" clip-path="url(#pbdff25c964)" style="fill: #bdbdbd; opacity: 0.6"/>
   </g>
   <g id="patch_10">
    <path d="M 1052.436908 99.269799 
L 1070.514968 99.269799 
L 1070.514968 52.915799 
L 1052.436908 52.915799 
z
" clip-path="url(#pbdff25c964)" style="fill: #bdbdbd; opacity: 0.6"/>
   </g>
   <g id="patch_11">
    <path d="M 1191.498906 99.269799 
L 1209.576966 99.269799 
L 1209.576966 52.915799 
L 1191.498906 52.915799 
z
" clip-path="url(#pbdff25c964)" style="fill: #bdbdbd; opacity: 0.6"/>
   </g>
   <g id="patch_12">
    <path d="M 1330.560904 99.269799 
L 1348.638964 99.269799 
L 1348.638964 52.915799 
L 1330.560904 52.915799 
z
" clip-path="url(#pbdff25c964)" style="fill: #bdbdbd; opacity: 0.6"/>
   </g>
   <g id="patch_13">
    <path d="M 310.772918 238.331797 
L 328.850978 238.331797 
L 328.850978 191.977797 
L 310.772918 191.977797 
z
" clip-path="url(#pbdff25c964)" style="fill: #bdbdbd; opacity: 0.6"/>
   </g>
   <g id="patch_14">
    <path d="M 449.834916 238.331797 
L 467.912976 238.331797 
L 467.912976 191.977797 
L 449.834916 191.977797 
z
" clip-path="url(#pbdff25c964)" style="fill: #bdbdbd; opacity: 0.6"/>
   </g>
   <g id="patch_15">
    <path d="M 542.542915 238.331797 
L 560.620975 238.331797 
L 560.620975 191.977797 
L 542.542915 191.977797 
z
" clip-path="url(#pbdff25c964)" style="fill: #bdbdbd; opacity: 0.6"/>
   </g>
   <g id="patch_16">
    <path d="M 258.392899 91.157849 
L 288.522998 91.157849 
L 288.522998 61.027749 
L 258.392899 61.027749 
z
" clip-path="url(#pbdff25c964)" style="fill: #6fa4ff; stroke: #6fa4ff; stroke-width: 1.5; stroke-linejoin: miter"/>
   </g>
   <g id="patch_17">
    <path d="M 351.100898 91.157849 
L 381.230997 91.157849 
L 381.230997 61.027749 
L 351.100898 61.027749 
z
" clip-path="url(#pbdff25c964)" style="fill: #6fa4ff; stroke: #6fa4ff; stroke-width: 1.5; stroke-linejoin: miter"/>
   </g>
   <g id="patch_18">
    <path d="M 397.454897 91.157849 
L 427.584996 91.157849 
L 427.584996 61.027749 
L 397.454897 61.027749 
z
" clip-path="url(#pbdff25c964)" style="fill: #05bab6; stroke: #05bab6; stroke-width: 1.5; stroke-linejoin: miter"/>
   </g>
   <g id="patch_19">
    <path d="M 443.808896 91.157849 
L 473.938996 91.157849 
L 473.938996 61.027749 
L 443.808896 61.027749 
z
" clip-path="url(#pbdff25c964)" style="fill: #6fa4ff; stroke: #6fa4ff; stroke-width: 1.5; stroke-linejoin: miter"/>
   </g>
   <g id="patch_20">
    <path d="M 536.516895 91.157849 
L 566.646995 91.157849 
L 566.646995 61.027749 
L 536.516895 61.027749 
z
" clip-path="url(#pbdff25c964)" style="fill: #05bab6; stroke: #05bab6; stroke-width: 1.5; stroke-linejoin: miter"/>
   </g>
   <g id="patch_21">
    <path d="M 582.870894 91.157849 
L 613.000994 91.157849 
L 613.000994 61.027749 
L 582.870894 61.027749 
z
" clip-path="url(#pbdff25c964)" style="fill: #6fa4ff; stroke: #6fa4ff; stroke-width: 1.5; stroke-linejoin: miter"/>
   </g>
   <g id="patch_22">
    <path d="M 675.578893 91.157849 
L 705.708993 91.157849 
L 705.708993 61.027749 
L 675.578893 61.027749 
z
" clip-path="url(#pbdff25c964)" style="fill: #05bab6; stroke: #05bab6; stroke-width: 1.5; stroke-linejoin: miter"/>
   </g>
   <g id="patch_23">
    <path d="M 721.932893 91.157849 
L 752.062992 91.157849 
L 752.062992 61.027749 
L 721.932893 61.027749 
z
" clip-path="url(#pbdff25c964)" style="fill: #6fa4ff; stroke: #6fa4ff; stroke-width: 1.5; stroke-linejoin: miter"/>
   </g>
   <g id="patch_24">
    <path d="M 814.640891 91.157849 
L 844.770991 91.157849 
L 844.770991 61.027749 
L 814.640891 61.027749 
z
" clip-path="url(#pbdff25c964)" style="fill: #05bab6; stroke: #05bab6; stroke-width: 1.5; stroke-linejoin: miter"/>
   </g>
   <g id="patch_25">
    <path d="M 860.994891 91.157849 
L 891.12499 91.157849 
L 891.12499 61.027749 
L 860.994891 61.027749 
z
" clip-path="url(#pbdff25c964)" style="fill: #6fa4ff; stroke: #6fa4ff; stroke-width: 1.5; stroke-linejoin: miter"/>
   </g>
   <g id="patch_26">
    <path d="M 953.70289 91.157849 
L 983.832989 91.157849 
L 983.832989 61.027749 
L 953.70289 61.027749 
z
" clip-path="url(#pbdff25c964)" style="fill: #05bab6; stroke: #05bab6; stroke-width: 1.5; stroke-linejoin: miter"/>
   </g>
   <g id="patch_27">
    <path d="M 1000.056889 91.157849 
L 1030.186988 91.157849 
L 1030.186988 61.027749 
L 1000.056889 61.027749 
z
" clip-path="url(#pbdff25c964)" style="fill: #6fa4ff; stroke: #6fa4ff; stroke-width: 1.5; stroke-linejoin: miter"/>
   </g>
   <g id="patch_28">
    <path d="M 1092.764888 91.157849 
L 1122.894987 91.157849 
L 1122.894987 61.027749 
L 1092.764888 61.027749 
z
" clip-path="url(#pbdff25c964)" style="fill: #05bab6; stroke: #05bab6; stroke-width: 1.5; stroke-linejoin: miter"/>
   </g>
   <g id="patch_29">
    <path d="M 1139.118887 91.157849 
L 1169.248987 91.157849 
L 1169.248987 61.027749 
L 1139.118887 61.027749 
z
" clip-path="url(#pbdff25c964)" style="fill: #6fa4ff; stroke: #6fa4ff; stroke-width: 1.5; stroke-linejoin: miter"/>
   </g>
   <g id="patch_30">
    <path d="M 1231.826886 91.157849 
L 1261.956985 91.157849 
L 1261.956985 61.027749 
L 1231.826886 61.027749 
z
" clip-path="url(#pbdff25c964)" style="fill: #05bab6; stroke: #05bab6; stroke-width: 1.5; stroke-linejoin: miter"/>
   </g>
   <g id="patch_31">
    <path d="M 1278.180885 91.157849 
L 1308.310985 91.157849 
L 1308.310985 61.027749 
L 1278.180885 61.027749 
z
" clip-path="url(#pbdff25c964)" style="fill: #6fa4ff; stroke: #6fa4ff; stroke-width: 1.5; stroke-linejoin: miter"/>
   </g>
   <g id="patch_32">
    <path d="M 1370.888884 91.157849 
L 1401.018984 91.157849 
L 1401.018984 61.027749 
L 1370.888884 61.027749 
z
" clip-path="url(#pbdff25c964)" style="fill: #05bab6; stroke: #05bab6; stroke-width: 1.5; stroke-linejoin: miter"/>
   </g>
   <g id="patch_33">
    <path d="M 258.392899 230.219847 
L 288.522998 230.219847 
L 288.522998 200.089747 
L 258.392899 200.089747 
z
" clip-path="url(#pbdff25c964)" style="fill: #6fa4ff; stroke: #6fa4ff; stroke-width: 1.5; stroke-linejoin: miter"/>
   </g>
   <g id="patch_34">
    <path d="M 351.100898 230.219847 
L 381.230997 230.219847 
L 381.230997 200.089747 
L 351.100898 200.089747 
z
" clip-path="url(#pbdff25c964)" style="fill: #05bab6; stroke: #05bab6; stroke-width: 1.5; stroke-linejoin: miter"/>
   </g>
   <g id="patch_35">
    <path d="M 397.454897 230.219847 
L 427.584996 230.219847 
L 427.584996 200.089747 
L 397.454897 200.089747 
z
" clip-path="url(#pbdff25c964)" style="fill: #6fa4ff; stroke: #6fa4ff; stroke-width: 1.5; stroke-linejoin: miter"/>
   </g>
   <g id="patch_36">
    <path d="M 490.162896 230.219847 
L 520.292995 230.219847 
L 520.292995 200.089747 
L 490.162896 200.089747 
z
" clip-path="url(#pbdff25c964)" style="fill: #6fa4ff; stroke: #6fa4ff; stroke-width: 1.5; stroke-linejoin: miter"/>
   </g>
   <g id="patch_37">
    <path d="M 582.870894 230.219847 
L 613.000994 230.219847 
L 613.000994 200.089747 
L 582.870894 200.089747 
z
" clip-path="url(#pbdff25c964)" style="stroke: #000000; stroke-width: 1.5; stroke-linejoin: miter"/>
   </g>
   <g id="patch_38">
    <path d="M 608.481479 219.674312 
C 608.481479 216.878535 607.369676 214.194406 605.392763 212.217493 
C 603.415851 210.24058 600.731721 209.128777 597.935944 209.128777 
C 595.140167 209.128777 592.456038 210.24058 590.479125 212.217493 
C 588.502212 214.194406 587.390409 216.878535 587.390409 219.674312 
" clip-path="url(#pbdff25c964)" style="fill: none; stroke: #ffffff; stroke-width: 2; stroke-linejoin: miter"/>
   </g>
   <g id="line2d_13">
    <path d="M 597.935944 219.674312 
L 608.481479 209.128777 
" clip-path="url(#pbdff25c964)" style="fill: none; stroke: #ffffff; stroke-width: 2; stroke-linecap: square"/>
   </g>
   <g id="text_1">
    <g clip-path="url(#pbdff25c964)">
     <!-- ${q}$ -->
     <g transform="translate(228.755989 80.543776) scale(0.1625 -0.1625)">
      <defs>
       <path id="DejaVuSans-Oblique-71" d="M 2669 525 
Q 2438 222 2123 65 
Q 1809 -91 1428 -91 
Q 897 -91 595 267 
Q 294 625 294 1253 
Q 294 1759 480 2231 
Q 666 2703 1013 3078 
Q 1238 3322 1530 3453 
Q 1822 3584 2144 3584 
Q 2531 3584 2781 3431 
Q 3031 3278 3144 2969 
L 3244 3494 
L 3822 3494 
L 2888 -1319 
L 2309 -1319 
L 2669 525 
z
M 891 1338 
Q 891 875 1084 633 
Q 1278 391 1644 391 
Q 2188 391 2572 911 
Q 2956 1431 2956 2175 
Q 2956 2625 2757 2864 
Q 2559 3103 2188 3103 
Q 1916 3103 1684 2976 
Q 1453 2850 1281 2606 
Q 1100 2350 995 2006 
Q 891 1663 891 1338 
z
" transform="scale(0.015625)"/>
      </defs>
      <use xlink:href="#DejaVuSans-Oblique-71"/>
     </g>
    </g>
   </g>
   <g id="text_2">
    <g clip-path="url(#pbdff25c964)">
     <!-- 1 -->
     <g transform="translate(253.062189 115.648523) scale(0.104 -0.104)">
      <defs>
       <path id="DejaVuSans-31" d="M 794 531 
L 1825 531 
L 1825 4091 
L 703 3866 
L 703 4441 
L 1819 4666 
L 2450 4666 
L 2450 531 
L 3481 531 
L 3481 0 
L 794 0 
L 794 531 
z
" transform="scale(0.015625)"/>
      </defs>
      <use xlink:href="#DejaVuSans-31"/>
     </g>
    </g>
   </g>
   <g id="text_3">
    <g clip-path="url(#pbdff25c964)">
     <!-- c -->
     <g transform="translate(230.221028 126.930783) scale(0.1625 -0.1625)">
      <defs>
       <path id="DejaVuSans-63" d="M 3122 3366 
L 3122 2828 
Q 2878 2963 2633 3030 
Q 2388 3097 2138 3097 
Q 1578 3097 1268 2742 
Q 959 2388 959 1747 
Q 959 1106 1268 751 
Q 1578 397 2138 397 
Q 2388 397 2633 464 
Q 2878 531 3122 666 
L 3122 134 
Q 2881 22 2623 -34 
Q 2366 -91 2075 -91 
Q 1284 -91 818 406 
Q 353 903 353 1747 
Q 353 2603 823 3093 
Q 1294 3584 2113 3584 
Q 2378 3584 2631 3529 
Q 2884 3475 3122 3366 
z
" transform="scale(0.015625)"/>
      </defs>
      <use xlink:href="#DejaVuSans-63"/>
     </g>
    </g>
   </g>
   <g id="text_4">
    <g clip-path="url(#pbdff25c964)">
     <!-- ${q}$ -->
     <g transform="translate(228.755989 219.605774) scale(0.1625 -0.1625)">
      <use xlink:href="#DejaVuSans-Oblique-71"/>
     </g>
    </g>
   </g>
   <g id="text_5">
    <g clip-path="url(#pbdff25c964)">
     <!-- 1 -->
     <g transform="translate(253.062189 254.710522) scale(0.104 -0.104)">
      <use xlink:href="#DejaVuSans-31"/>
     </g>
    </g>
   </g>
   <g id="text_6">
    <g clip-path="url(#pbdff25c964)">
     <!-- c -->
     <g transform="translate(230.221028 265.992781) scale(0.1625 -0.1625)">
      <use xlink:href="#DejaVuSans-63"/>
     </g>
    </g>
   </g>
   <g id="text_7">
    <g clip-path="url(#pbdff25c964)">
     <!-- H -->
     <g transform="translate(268.569745 79.679986) scale(0.13 -0.13)">
      <defs>
       <path id="DejaVuSans-48" d="M 628 4666 
L 1259 4666 
L 1259 2753 
L 3553 2753 
L 3553 4666 
L 4184 4666 
L 4184 0 
L 3553 0 
L 3553 2222 
L 1259 2222 
L 1259 0 
L 628 0 
L 628 4666 
z
" transform="scale(0.015625)"/>
      </defs>
      <use xlink:href="#DejaVuSans-48"/>
     </g>
    </g>
   </g>
   <g id="line2d_14">
    <path d="M 319.811948 52.915799 
L 319.811948 99.269799 
" clip-path="url(#pbdff25c964)" style="fill: none; stroke-dasharray: 3.7,1.6; stroke-dashoffset: 0; stroke: #000000"/>
   </g>
   <g id="text_8">
    <g clip-path="url(#pbdff25c964)">
     <!-- S -->
     <g transform="translate(362.039463 79.679986) scale(0.13 -0.13)">
      <defs>
       <path id="DejaVuSans-53" d="M 3425 4513 
L 3425 3897 
Q 3066 4069 2747 4153 
Q 2428 4238 2131 4238 
Q 1616 4238 1336 4038 
Q 1056 3838 1056 3469 
Q 1056 3159 1242 3001 
Q 1428 2844 1947 2747 
L 2328 2669 
Q 3034 2534 3370 2195 
Q 3706 1856 3706 1288 
Q 3706 609 3251 259 
Q 2797 -91 1919 -91 
Q 1588 -91 1214 -16 
Q 841 59 441 206 
L 441 856 
Q 825 641 1194 531 
Q 1563 422 1919 422 
Q 2459 422 2753 634 
Q 3047 847 3047 1241 
Q 3047 1584 2836 1778 
Q 2625 1972 2144 2069 
L 1759 2144 
Q 1053 2284 737 2584 
Q 422 2884 422 3419 
Q 422 4038 858 4394 
Q 1294 4750 2059 4750 
Q 2388 4750 2728 4690 
Q 3069 4631 3425 4513 
z
" transform="scale(0.015625)"/>
      </defs>
      <use xlink:href="#DejaVuSans-53"/>
     </g>
    </g>
   </g>
   <g id="text_9">
    <g clip-path="url(#pbdff25c964)">
     <!-- X -->
     <g transform="translate(408.067447 79.679986) scale(0.13 -0.13)">
      <defs>
       <path id="DejaVuSans-58" d="M 403 4666 
L 1081 4666 
L 2241 2931 
L 3406 4666 
L 4084 4666 
L 2584 2425 
L 4184 0 
L 3506 0 
L 2194 1984 
L 872 0 
L 191 0 
L 1856 2491 
L 403 4666 
z
" transform="scale(0.015625)"/>
      </defs>
      <use xlink:href="#DejaVuSans-58"/>
     </g>
    </g>
   </g>
   <g id="text_10">
    <g clip-path="url(#pbdff25c964)">
     <!-- S -->
     <g transform="translate(454.747462 79.679986) scale(0.13 -0.13)">
      <use xlink:href="#DejaVuSans-53"/>
     </g>
    </g>
   </g>
   <g id="line2d_15">
    <path d="M 505.227945 52.915799 
L 505.227945 99.269799 
" clip-path="url(#pbdff25c964)" style="fill: none; stroke-dasharray: 3.7,1.6; stroke-dashoffset: 0; stroke: #000000"/>
   </g>
   <g id="text_11">
    <g clip-path="url(#pbdff25c964)">
     <!-- X -->
     <g transform="translate(547.129445 79.679986) scale(0.13 -0.13)">
      <use xlink:href="#DejaVuSans-58"/>
     </g>
    </g>
   </g>
   <g id="text_12">
    <g clip-path="url(#pbdff25c964)">
     <!-- S -->
     <g transform="translate(593.80946 79.679986) scale(0.13 -0.13)">
      <use xlink:href="#DejaVuSans-53"/>
     </g>
    </g>
   </g>
   <g id="line2d_16">
    <path d="M 644.289944 52.915799 
L 644.289944 99.269799 
" clip-path="url(#pbdff25c964)" style="fill: none; stroke-dasharray: 3.7,1.6; stroke-dashoffset: 0; stroke: #000000"/>
   </g>
   <g id="text_13">
    <g clip-path="url(#pbdff25c964)">
     <!-- X -->
     <g transform="translate(686.191443 79.679986) scale(0.13 -0.13)">
      <use xlink:href="#DejaVuSans-58"/>
     </g>
    </g>
   </g>
   <g id="text_14">
    <g clip-path="url(#pbdff25c964)">
     <!-- S -->
     <g transform="translate(732.871458 79.679986) scale(0.13 -0.13)">
      <use xlink:href="#DejaVuSans-53"/>
     </g>
    </g>
   </g>
   <g id="line2d_17">
    <path d="M 783.351942 52.915799 
L 783.351942 99.269799 
" clip-path="url(#pbdff25c964)" style="fill: none; stroke-dasharray: 3.7,1.6; stroke-dashoffset: 0; stroke: #000000"/>
   </g>
   <g id="text_15">
    <g clip-path="url(#pbdff25c964)">
     <!-- X -->
     <g transform="translate(825.253441 79.679986) scale(0.13 -0.13)">
      <use xlink:href="#DejaVuSans-58"/>
     </g>
    </g>
   </g>
   <g id="text_16">
    <g clip-path="url(#pbdff25c964)">
     <!-- S -->
     <g transform="translate(871.933456 79.679986) scale(0.13 -0.13)">
      <use xlink:href="#DejaVuSans-53"/>
     </g>
    </g>
   </g>
   <g id="line2d_18">
    <path d="M 922.41394 52.915799 
L 922.41394 99.269799 
" clip-path="url(#pbdff25c964)" style="fill: none; stroke-dasharray: 3.7,1.6; stroke-dashoffset: 0; stroke: #000000"/>
   </g>
   <g id="text_17">
    <g clip-path="url(#pbdff25c964)">
     <!-- X -->
     <g transform="translate(964.315439 79.679986) scale(0.13 -0.13)">
      <use xlink:href="#DejaVuSans-58"/>
     </g>
    </g>
   </g>
   <g id="text_18">
    <g clip-path="url(#pbdff25c964)">
     <!-- S -->
     <g transform="translate(1010.995454 79.679986) scale(0.13 -0.13)">
      <use xlink:href="#DejaVuSans-53"/>
     </g>
    </g>
   </g>
   <g id="line2d_19">
    <path d="M 1061.475938 52.915799 
L 1061.475938 99.269799 
" clip-path="url(#pbdff25c964)" style="fill: none; stroke-dasharray: 3.7,1.6; stroke-dashoffset: 0; stroke: #000000"/>
   </g>
   <g id="text_19">
    <g clip-path="url(#pbdff25c964)">
     <!-- X -->
     <g transform="translate(1103.377437 79.679986) scale(0.13 -0.13)">
      <use xlink:href="#DejaVuSans-58"/>
     </g>
    </g>
   </g>
   <g id="text_20">
    <g clip-path="url(#pbdff25c964)">
     <!-- S -->
     <g transform="translate(1150.057452 79.679986) scale(0.13 -0.13)">
      <use xlink:href="#DejaVuSans-53"/>
     </g>
    </g>
   </g>
   <g id="line2d_20">
    <path d="M 1200.537936 52.915799 
L 1200.537936 99.269799 
" clip-path="url(#pbdff25c964)" style="fill: none; stroke-dasharray: 3.7,1.6; stroke-dashoffset: 0; stroke: #000000"/>
   </g>
   <g id="text_21">
    <g clip-path="url(#pbdff25c964)">
     <!-- X -->
     <g transform="translate(1242.439436 79.679986) scale(0.13 -0.13)">
      <use xlink:href="#DejaVuSans-58"/>
     </g>
    </g>
   </g>
   <g id="text_22">
    <g clip-path="url(#pbdff25c964)">
     <!-- S -->
     <g transform="translate(1289.119451 79.679986) scale(0.13 -0.13)">
      <use xlink:href="#DejaVuSans-53"/>
     </g>
    </g>
   </g>
   <g id="line2d_21">
    <path d="M 1339.599934 52.915799 
L 1339.599934 99.269799 
" clip-path="url(#pbdff25c964)" style="fill: none; stroke-dasharray: 3.7,1.6; stroke-dashoffset: 0; stroke: #000000"/>
   </g>
   <g id="text_23">
    <g clip-path="url(#pbdff25c964)">
     <!-- X -->
     <g transform="translate(1381.501434 79.679986) scale(0.13 -0.13)">
      <use xlink:href="#DejaVuSans-58"/>
     </g>
    </g>
   </g>
   <g id="text_24">
    <g clip-path="url(#pbdff25c964)">
     <!-- S -->
     <g transform="translate(269.331464 218.741985) scale(0.13 -0.13)">
      <use xlink:href="#DejaVuSans-53"/>
     </g>
    </g>
   </g>
   <g id="line2d_22">
    <path d="M 319.811948 191.977797 
L 319.811948 238.331797 
" clip-path="url(#pbdff25c964)" style="fill: none; stroke-dasharray: 3.7,1.6; stroke-dashoffset: 0; stroke: #000000"/>
   </g>
   <g id="text_25">
    <g clip-path="url(#pbdff25c964)">
     <!-- X -->
     <g transform="translate(361.713447 218.741985) scale(0.13 -0.13)">
      <use xlink:href="#DejaVuSans-58"/>
     </g>
    </g>
   </g>
   <g id="text_26">
    <g clip-path="url(#pbdff25c964)">
     <!-- S -->
     <g transform="translate(408.393462 218.741985) scale(0.13 -0.13)">
      <use xlink:href="#DejaVuSans-53"/>
     </g>
    </g>
   </g>
   <g id="line2d_23">
    <path d="M 458.873946 191.977797 
L 458.873946 238.331797 
" clip-path="url(#pbdff25c964)" style="fill: none; stroke-dasharray: 3.7,1.6; stroke-dashoffset: 0; stroke: #000000"/>
   </g>
   <g id="text_27">
    <g clip-path="url(#pbdff25c964)">
     <!-- H -->
     <g transform="translate(500.339742 218.741985) scale(0.13 -0.13)">
      <use xlink:href="#DejaVuSans-48"/>
     </g>
    </g>
   </g>
   <g id="line2d_24">
    <path d="M 551.581945 191.977797 
L 551.581945 238.331797 
" clip-path="url(#pbdff25c964)" style="fill: none; stroke-dasharray: 3.7,1.6; stroke-dashoffset: 0; stroke: #000000"/>
   </g>
   <g id="text_28">
    <g clip-path="url(#pbdff25c964)">
     <!-- 0 -->
     <g transform="translate(609.524444 254.710522) scale(0.104 -0.104)">
      <defs>
       <path id="DejaVuSans-30" d="M 2034 4250 
Q 1547 4250 1301 3770 
Q 1056 3291 1056 2328 
Q 1056 1369 1301 889 
Q 1547 409 2034 409 
Q 2525 409 2770 889 
Q 3016 1369 3016 2328 
Q 3016 3291 2770 3770 
Q 2525 4250 2034 4250 
z
M 2034 4750 
Q 2819 4750 3233 4129 
Q 3647 3509 3647 2328 
Q 3647 1150 3233 529 
Q 2819 -91 2034 -91 
Q 1250 -91 836 529 
Q 422 1150 422 2328 
Q 422 3509 836 4129 
Q 1250 4750 2034 4750 
z
" transform="scale(0.015625)"/>
      </defs>
      <use xlink:href="#DejaVuSans-30"/>
     </g>
    </g>
   </g>
  </g>
 </g>
 <defs>
  <clipPath id="pbdff25c964">
   <rect x="201.236563" y="39.009599" width="1215.31101" height="250.311597"/>
  </clipPath>
 </defs>
</svg>
