<?xml version="1.0" encoding="utf-8" standalone="no"?>
<!DOCTYPE svg PUBLIC "-//W3C//DTD SVG 1.1//EN"
  "http://www.w3.org/Graphics/SVG/1.1/DTD/svg11.dtd">
<svg xmlns:xlink="http://www.w3.org/1999/xlink" width="1337.52599pt" height="144.479998pt" viewBox="0 0 1337.52599 144.479998" xmlns="http://www.w3.org/2000/svg" version="1.1">
 <metadata>
  <rdf:RDF xmlns:dc="http://purl.org/dc/elements/1.1/" xmlns:cc="http://creativecommons.org/ns#" xmlns:rdf="http://www.w3.org/1999/02/22-rdf-syntax-ns#">
   <cc:Work>
    <dc:type rdf:resource="http://purl.org/dc/dcmitype/StillImage"/>
    <dc:date>2023-12-21T17:38:40.174728</dc:date>
    <dc:format>image/svg+xml</dc:format>
    <dc:creator>
     <cc:Agent>
      <dc:title>Matplotlib v3.8.2, https://matplotlib.org/</dc:title>
     </cc:Agent>
    </dc:creator>
   </cc:Work>
  </rdf:RDF>
 </metadata>
 <defs>
  <style type="text/css">*{stroke-linejoin: round; stroke-linecap: butt}</style>
 </defs>
 <g id="figure_1">
  <g id="patch_1">
   <path d="M 0 144.479998 
L 1337.52599 144.479998 
L 1337.52599 0 
L 0 0 
z
" style="fill: #ffffff"/>
  </g>
  <g id="axes_1">
   <g id="line2d_1">
    <path d="M 217.724789 54.420799 
L 1195.794176 54.420799 
" clip-path="url(#p885550d929)" style="fill: none; stroke: #000000; stroke-width: 2; stroke-linecap: square"/>
   </g>
   <g id="line2d_2">
    <path d="M 226.995589 105.410199 
L 231.630989 96.139399 
" clip-path="url(#p885550d929)" style="fill: none; stroke: #778899; stroke-width: 1.5; stroke-linecap: square"/>
   </g>
   <g id="line2d_3">
    <path d="M 217.724789 99.268294 
L 1195.794176 99.268294 
" clip-path="url(#p885550d929)" style="fill: none; stroke: #778899; stroke-width: 2; stroke-linecap: square"/>
   </g>
   <g id="line2d_4">
    <path d="M 217.724789 102.281304 
L 1195.794176 102.281304 
" clip-path="url(#p885550d929)" style="fill: none; stroke: #778899; stroke-width: 2; stroke-linecap: square"/>
   </g>
   <g id="patch_2">
    <path d="M 1163.809917 90.229264 
L 1175.861957 90.229264 
L 1169.835937 98.920639 
z
" clip-path="url(#p885550d929)" style="fill: #778899"/>
   </g>
   <g id="patch_3">
    <path d="M 213.089389 31.2438 
L -945.760595 31.2438 
L -945.760595 170.305798 
L 213.089389 170.305798 
z
" clip-path="url(#p885550d929)" style="fill: #ffffff; stroke: #ffffff; stroke-width: 1.5; stroke-linejoin: miter"/>
   </g>
   <g id="line2d_5">
    <path d="M 1171.342442 54.420799 
L 1171.342442 90.229264 
" clip-path="url(#p885550d929)" style="fill: none; stroke: #778899; stroke-width: 2; stroke-linecap: square"/>
   </g>
   <g id="line2d_6">
    <path d="M 1168.329432 54.420799 
L 1168.329432 90.229264 
" clip-path="url(#p885550d929)" style="fill: none; stroke: #778899; stroke-width: 2; stroke-linecap: square"/>
   </g>
   <g id="patch_4">
    <path d="M 280.070918 77.597799 
L 298.148978 77.597799 
L 298.148978 31.2438 
L 280.070918 31.2438 
z
" clip-path="url(#p885550d929)" style="fill: #bdbdbd; opacity: 0.6"/>
   </g>
   <g id="patch_5">
    <path d="M 465.486916 77.597799 
L 483.564976 77.597799 
L 483.564976 31.2438 
L 465.486916 31.2438 
z
" clip-path="url(#p885550d929)" style="fill: #bdbdbd; opacity: 0.6"/>
   </g>
   <g id="patch_6">
    <path d="M 604.548914 77.597799 
L 622.626974 77.597799 
L 622.626974 31.2438 
L 604.548914 31.2438 
z
" clip-path="url(#p885550d929)" style="fill: #bdbdbd; opacity: 0.6"/>
   </g>
   <g id="patch_7">
    <path d="M 743.610912 77.597799 
L 761.688972 77.597799 
L 761.688972 31.2438 
L 743.610912 31.2438 
z
" clip-path="url(#p885550d929)" style="fill: #bdbdbd; opacity: 0.6"/>
   </g>
   <g id="patch_8">
    <path d="M 882.67291 77.597799 
L 900.75097 77.597799 
L 900.75097 31.2438 
L 882.67291 31.2438 
z
" clip-path="url(#p885550d929)" style="fill: #bdbdbd; opacity: 0.6"/>
   </g>
   <g id="patch_9">
    <path d="M 1021.734909 77.597799 
L 1039.812968 77.597799 
L 1039.812968 31.2438 
L 1021.734909 31.2438 
z
" clip-path="url(#p885550d929)" style="fill: #bdbdbd; opacity: 0.6"/>
   </g>
   <g id="patch_10">
    <path d="M 1114.442907 77.597799 
L 1132.520967 77.597799 
L 1132.520967 31.2438 
L 1114.442907 31.2438 
z
" clip-path="url(#p885550d929)" style="fill: #bdbdbd; opacity: 0.6"/>
   </g>
   <g id="patch_11">
    <path d="M 227.690899 69.485849 
L 257.820999 69.485849 
L 257.820999 39.355749 
L 227.690899 39.355749 
z
" clip-path="url(#p885550d929)" style="fill: #6fa4ff; stroke: #6fa4ff; stroke-width: 1.5; stroke-linejoin: miter"/>
   </g>
   <g id="patch_12">
    <path d="M 320.398898 69.485849 
L 350.528998 69.485849 
L 350.528998 39.355749 
L 320.398898 39.355749 
z
" clip-path="url(#p885550d929)" style="fill: #6fa4ff; stroke: #6fa4ff; stroke-width: 1.5; stroke-linejoin: miter"/>
   </g>
   <g id="patch_13">
    <path d="M 366.752897 69.485849 
L 396.882997 69.485849 
L 396.882997 39.355749 
L 366.752897 39.355749 
z
" clip-path="url(#p885550d929)" style="fill: #05bab6; stroke: #05bab6; stroke-width: 1.5; stroke-linejoin: miter"/>
   </g>
   <g id="patch_14">
    <path d="M 413.106897 69.485849 
L 443.236996 69.485849 
L 443.236996 39.355749 
L 413.106897 39.355749 
z
" clip-path="url(#p885550d929)" style="fill: #6fa4ff; stroke: #6fa4ff; stroke-width: 1.5; stroke-linejoin: miter"/>
   </g>
   <g id="patch_15">
    <path d="M 505.814895 69.485849 
L 535.944995 69.485849 
L 535.944995 39.355749 
L 505.814895 39.355749 
z
" clip-path="url(#p885550d929)" style="fill: #05bab6; stroke: #05bab6; stroke-width: 1.5; stroke-linejoin: miter"/>
   </g>
   <g id="patch_16">
    <path d="M 552.168895 69.485849 
L 582.298994 69.485849 
L 582.298994 39.355749 
L 552.168895 39.355749 
z
" clip-path="url(#p885550d929)" style="fill: #6fa4ff; stroke: #6fa4ff; stroke-width: 1.5; stroke-linejoin: miter"/>
   </g>
   <g id="patch_17">
    <path d="M 644.876894 69.485849 
L 675.006993 69.485849 
L 675.006993 39.355749 
L 644.876894 39.355749 
z
" clip-path="url(#p885550d929)" style="fill: #05bab6; stroke: #05bab6; stroke-width: 1.5; stroke-linejoin: miter"/>
   </g>
   <g id="patch_18">
    <path d="M 691.230893 69.485849 
L 721.360993 69.485849 
L 721.360993 39.355749 
L 691.230893 39.355749 
z
" clip-path="url(#p885550d929)" style="fill: #6fa4ff; stroke: #6fa4ff; stroke-width: 1.5; stroke-linejoin: miter"/>
   </g>
   <g id="patch_19">
    <path d="M 783.938892 69.485849 
L 814.068991 69.485849 
L 814.068991 39.355749 
L 783.938892 39.355749 
z
" clip-path="url(#p885550d929)" style="fill: #05bab6; stroke: #05bab6; stroke-width: 1.5; stroke-linejoin: miter"/>
   </g>
   <g id="patch_20">
    <path d="M 830.292891 69.485849 
L 860.422991 69.485849 
L 860.422991 39.355749 
L 830.292891 39.355749 
z
" clip-path="url(#p885550d929)" style="fill: #6fa4ff; stroke: #6fa4ff; stroke-width: 1.5; stroke-linejoin: miter"/>
   </g>
   <g id="patch_21">
    <path d="M 923.00089 69.485849 
L 953.13099 69.485849 
L 953.13099 39.355749 
L 923.00089 39.355749 
z
" clip-path="url(#p885550d929)" style="fill: #05bab6; stroke: #05bab6; stroke-width: 1.5; stroke-linejoin: miter"/>
   </g>
   <g id="patch_22">
    <path d="M 969.354889 69.485849 
L 999.484989 69.485849 
L 999.484989 39.355749 
L 969.354889 39.355749 
z
" clip-path="url(#p885550d929)" style="fill: #6fa4ff; stroke: #6fa4ff; stroke-width: 1.5; stroke-linejoin: miter"/>
   </g>
   <g id="patch_23">
    <path d="M 1062.062888 69.485849 
L 1092.192988 69.485849 
L 1092.192988 39.355749 
L 1062.062888 39.355749 
z
" clip-path="url(#p885550d929)" style="fill: #6fa4ff; stroke: #6fa4ff; stroke-width: 1.5; stroke-linejoin: miter"/>
   </g>
   <g id="patch_24">
    <path d="M 1154.770887 69.485849 
L 1184.900986 69.485849 
L 1184.900986 39.355749 
L 1154.770887 39.355749 
z
" clip-path="url(#p885550d929)" style="stroke: #000000; stroke-width: 1.5; stroke-linejoin: miter"/>
   </g>
   <g id="patch_25">
    <path d="M 1180.381471 58.940314 
C 1180.381471 56.144537 1179.269669 53.460408 1177.292756 51.483495 
C 1175.315843 49.506582 1172.631714 48.394779 1169.835937 48.394779 
C 1167.04016 48.394779 1164.35603 49.506582 1162.379117 51.483495 
C 1160.402204 53.460408 1159.290402 56.144537 1159.290402 58.940314 
" clip-path="url(#p885550d929)" style="fill: none; stroke: #ffffff; stroke-width: 2; stroke-linejoin: miter"/>
   </g>
   <g id="line2d_7">
    <path d="M 1169.835937 58.940314 
L 1180.381471 48.394779 
" clip-path="url(#p885550d929)" style="fill: none; stroke: #ffffff; stroke-width: 2; stroke-linecap: square"/>
   </g>
   <g id="text_1">
    <g clip-path="url(#p885550d929)">
     <!-- ${q}$ -->
     <g transform="translate(198.053989 58.871776) scale(0.1625 -0.1625)">
      <defs>
       <path id="DejaVuSans-Oblique-71" d="M 2669 525 
Q 2438 222 2123 65 
Q 1809 -91 1428 -91 
Q 897 -91 595 267 
Q 294 625 294 1253 
Q 294 1759 480 2231 
Q 666 2703 1013 3078 
Q 1238 3322 1530 3453 
Q 1822 3584 2144 3584 
Q 2531 3584 2781 3431 
Q 3031 3278 3144 2969 
L 3244 3494 
L 3822 3494 
L 2888 -1319 
L 2309 -1319 
L 2669 525 
z
M 891 1338 
Q 891 875 1084 633 
Q 1278 391 1644 391 
Q 2188 391 2572 911 
Q 2956 1431 2956 2175 
Q 2956 2625 2757 2864 
Q 2559 3103 2188 3103 
Q 1916 3103 1684 2976 
Q 1453 2850 1281 2606 
Q 1100 2350 995 2006 
Q 891 1663 891 1338 
z
" transform="scale(0.015625)"/>
      </defs>
      <use xlink:href="#DejaVuSans-Oblique-71"/>
     </g>
    </g>
   </g>
   <g id="text_2">
    <g clip-path="url(#p885550d929)">
     <!-- 1 -->
     <g transform="translate(222.360189 93.976524) scale(0.104 -0.104)">
      <defs>
       <path id="DejaVuSans-31" d="M 794 531 
L 1825 531 
L 1825 4091 
L 703 3866 
L 703 4441 
L 1819 4666 
L 2450 4666 
L 2450 531 
L 3481 531 
L 3481 0 
L 794 0 
L 794 531 
z
" transform="scale(0.015625)"/>
      </defs>
      <use xlink:href="#DejaVuSans-31"/>
     </g>
    </g>
   </g>
   <g id="text_3">
    <g clip-path="url(#p885550d929)">
     <!-- c -->
     <g transform="translate(199.519028 105.258783) scale(0.1625 -0.1625)">
      <defs>
       <path id="DejaVuSans-63" d="M 3122 3366 
L 3122 2828 
Q 2878 2963 2633 3030 
Q 2388 3097 2138 3097 
Q 1578 3097 1268 2742 
Q 959 2388 959 1747 
Q 959 1106 1268 751 
Q 1578 397 2138 397 
Q 2388 397 2633 464 
Q 2878 531 3122 666 
L 3122 134 
Q 2881 22 2623 -34 
Q 2366 -91 2075 -91 
Q 1284 -91 818 406 
Q 353 903 353 1747 
Q 353 2603 823 3093 
Q 1294 3584 2113 3584 
Q 2378 3584 2631 3529 
Q 2884 3475 3122 3366 
z
" transform="scale(0.015625)"/>
      </defs>
      <use xlink:href="#DejaVuSans-63"/>
     </g>
    </g>
   </g>
   <g id="text_4">
    <g clip-path="url(#p885550d929)">
     <!-- H -->
     <g transform="translate(237.867746 58.007987) scale(0.13 -0.13)">
      <defs>
       <path id="DejaVuSans-48" d="M 628 4666 
L 1259 4666 
L 1259 2753 
L 3553 2753 
L 3553 4666 
L 4184 4666 
L 4184 0 
L 3553 0 
L 3553 2222 
L 1259 2222 
L 1259 0 
L 628 0 
L 628 4666 
z
" transform="scale(0.015625)"/>
      </defs>
      <use xlink:href="#DejaVuSans-48"/>
     </g>
    </g>
   </g>
   <g id="line2d_8">
    <path d="M 289.109948 31.2438 
L 289.109948 77.597799 
" clip-path="url(#p885550d929)" style="fill: none; stroke-dasharray: 3.7,1.6; stroke-dashoffset: 0; stroke: #000000"/>
   </g>
   <g id="text_5">
    <g clip-path="url(#p885550d929)">
     <!-- S -->
     <g transform="translate(331.337463 58.007987) scale(0.13 -0.13)">
      <defs>
       <path id="DejaVuSans-53" d="M 3425 4513 
L 3425 3897 
Q 3066 4069 2747 4153 
Q 2428 4238 2131 4238 
Q 1616 4238 1336 4038 
Q 1056 3838 1056 3469 
Q 1056 3159 1242 3001 
Q 1428 2844 1947 2747 
L 2328 2669 
Q 3034 2534 3370 2195 
Q 3706 1856 3706 1288 
Q 3706 609 3251 259 
Q 2797 -91 1919 -91 
Q 1588 -91 1214 -16 
Q 841 59 441 206 
L 441 856 
Q 825 641 1194 531 
Q 1563 422 1919 422 
Q 2459 422 2753 634 
Q 3047 847 3047 1241 
Q 3047 1584 2836 1778 
Q 2625 1972 2144 2069 
L 1759 2144 
Q 1053 2284 737 2584 
Q 422 2884 422 3419 
Q 422 4038 858 4394 
Q 1294 4750 2059 4750 
Q 2388 4750 2728 4690 
Q 3069 4631 3425 4513 
z
" transform="scale(0.015625)"/>
      </defs>
      <use xlink:href="#DejaVuSans-53"/>
     </g>
    </g>
   </g>
   <g id="text_6">
    <g clip-path="url(#p885550d929)">
     <!-- X -->
     <g transform="translate(377.365447 58.007987) scale(0.13 -0.13)">
      <defs>
       <path id="DejaVuSans-58" d="M 403 4666 
L 1081 4666 
L 2241 2931 
L 3406 4666 
L 4084 4666 
L 2584 2425 
L 4184 0 
L 3506 0 
L 2194 1984 
L 872 0 
L 191 0 
L 1856 2491 
L 403 4666 
z
" transform="scale(0.015625)"/>
      </defs>
      <use xlink:href="#DejaVuSans-58"/>
     </g>
    </g>
   </g>
   <g id="text_7">
    <g clip-path="url(#p885550d929)">
     <!-- S -->
     <g transform="translate(424.045462 58.007987) scale(0.13 -0.13)">
      <use xlink:href="#DejaVuSans-53"/>
     </g>
    </g>
   </g>
   <g id="line2d_9">
    <path d="M 474.525946 31.2438 
L 474.525946 77.597799 
" clip-path="url(#p885550d929)" style="fill: none; stroke-dasharray: 3.7,1.6; stroke-dashoffset: 0; stroke: #000000"/>
   </g>
   <g id="text_8">
    <g clip-path="url(#p885550d929)">
     <!-- X -->
     <g transform="translate(516.427445 58.007987) scale(0.13 -0.13)">
      <use xlink:href="#DejaVuSans-58"/>
     </g>
    </g>
   </g>
   <g id="text_9">
    <g clip-path="url(#p885550d929)">
     <!-- S -->
     <g transform="translate(563.10746 58.007987) scale(0.13 -0.13)">
      <use xlink:href="#DejaVuSans-53"/>
     </g>
    </g>
   </g>
   <g id="line2d_10">
    <path d="M 613.587944 31.2438 
L 613.587944 77.597799 
" clip-path="url(#p885550d929)" style="fill: none; stroke-dasharray: 3.7,1.6; stroke-dashoffset: 0; stroke: #000000"/>
   </g>
   <g id="text_10">
    <g clip-path="url(#p885550d929)">
     <!-- X -->
     <g transform="translate(655.489443 58.007987) scale(0.13 -0.13)">
      <use xlink:href="#DejaVuSans-58"/>
     </g>
    </g>
   </g>
   <g id="text_11">
    <g clip-path="url(#p885550d929)">
     <!-- S -->
     <g transform="translate(702.169458 58.007987) scale(0.13 -0.13)">
      <use xlink:href="#DejaVuSans-53"/>
     </g>
    </g>
   </g>
   <g id="line2d_11">
    <path d="M 752.649942 31.2438 
L 752.649942 77.597799 
" clip-path="url(#p885550d929)" style="fill: none; stroke-dasharray: 3.7,1.6; stroke-dashoffset: 0; stroke: #000000"/>
   </g>
   <g id="text_12">
    <g clip-path="url(#p885550d929)">
     <!-- X -->
     <g transform="translate(794.551442 58.007987) scale(0.13 -0.13)">
      <use xlink:href="#DejaVuSans-58"/>
     </g>
    </g>
   </g>
   <g id="text_13">
    <g clip-path="url(#p885550d929)">
     <!-- S -->
     <g transform="translate(841.231457 58.007987) scale(0.13 -0.13)">
      <use xlink:href="#DejaVuSans-53"/>
     </g>
    </g>
   </g>
   <g id="line2d_12">
    <path d="M 891.71194 31.2438 
L 891.71194 77.597799 
" clip-path="url(#p885550d929)" style="fill: none; stroke-dasharray: 3.7,1.6; stroke-dashoffset: 0; stroke: #000000"/>
   </g>
   <g id="text_14">
    <g clip-path="url(#p885550d929)">
     <!-- X -->
     <g transform="translate(933.61344 58.007987) scale(0.13 -0.13)">
      <use xlink:href="#DejaVuSans-58"/>
     </g>
    </g>
   </g>
   <g id="text_15">
    <g clip-path="url(#p885550d929)">
     <!-- S -->
     <g transform="translate(980.293455 58.007987) scale(0.13 -0.13)">
      <use xlink:href="#DejaVuSans-53"/>
     </g>
    </g>
   </g>
   <g id="line2d_13">
    <path d="M 1030.773938 31.2438 
L 1030.773938 77.597799 
" clip-path="url(#p885550d929)" style="fill: none; stroke-dasharray: 3.7,1.6; stroke-dashoffset: 0; stroke: #000000"/>
   </g>
   <g id="text_16">
    <g clip-path="url(#p885550d929)">
     <!-- H -->
     <g transform="translate(1072.239735 58.007987) scale(0.13 -0.13)">
      <use xlink:href="#DejaVuSans-48"/>
     </g>
    </g>
   </g>
   <g id="line2d_14">
    <path d="M 1123.481937 31.2438 
L 1123.481937 77.597799 
" clip-path="url(#p885550d929)" style="fill: none; stroke-dasharray: 3.7,1.6; stroke-dashoffset: 0; stroke: #000000"/>
   </g>
   <g id="text_17">
    <g clip-path="url(#p885550d929)">
     <!-- 0 -->
     <g transform="translate(1181.424436 93.976524) scale(0.104 -0.104)">
      <defs>
       <path id="DejaVuSans-30" d="M 2034 4250 
Q 1547 4250 1301 3770 
Q 1056 3291 1056 2328 
Q 1056 1369 1301 889 
Q 1547 409 2034 409 
Q 2525 409 2770 889 
Q 3016 1369 3016 2328 
Q 3016 3291 2770 3770 
Q 2525 4250 2034 4250 
z
M 2034 4750 
Q 2819 4750 3233 4129 
Q 3647 3509 3647 2328 
Q 3647 1150 3233 529 
Q 2819 -91 2034 -91 
Q 1250 -91 836 529 
Q 422 1150 422 2328 
Q 422 3509 836 4129 
Q 1250 4750 2034 4750 
z
" transform="scale(0.015625)"/>
      </defs>
      <use xlink:href="#DejaVuSans-30"/>
     </g>
    </g>
   </g>
  </g>
 </g>
 <defs>
  <clipPath id="p885550d929">
   <rect x="170.534564" y="17.3376" width="1029.895012" height="111.249599"/>
  </clipPath>
 </defs>
</svg>
