<?xml version="1.0" encoding="utf-8" standalone="no"?>
<!DOCTYPE svg PUBLIC "-//W3C//DTD SVG 1.1//EN"
  "http://www.w3.org/Graphics/SVG/1.1/DTD/svg11.dtd">
<svg xmlns:xlink="http://www.w3.org/1999/xlink" width="1591.597378pt" height="686.279991pt" viewBox="0 0 1591.597378 686.279991" xmlns="http://www.w3.org/2000/svg" version="1.1">
 <metadata>
  <rdf:RDF xmlns:dc="http://purl.org/dc/elements/1.1/" xmlns:cc="http://creativecommons.org/ns#" xmlns:rdf="http://www.w3.org/1999/02/22-rdf-syntax-ns#">
   <cc:Work>
    <dc:type rdf:resource="http://purl.org/dc/dcmitype/StillImage"/>
    <dc:date>2023-12-21T17:38:38.564255</dc:date>
    <dc:format>image/svg+xml</dc:format>
    <dc:creator>
     <cc:Agent>
      <dc:title>Matplotlib v3.8.2, https://matplotlib.org/</dc:title>
     </cc:Agent>
    </dc:creator>
   </cc:Work>
  </rdf:RDF>
 </metadata>
 <defs>
  <style type="text/css">*{stroke-linejoin: round; stroke-linecap: butt}</style>
 </defs>
 <g id="figure_1">
  <g id="patch_1">
   <path d="M 0 686.279991 
L 1591.597378 686.279991 
L 1591.597378 0 
L 0 0 
z
" style="fill: #ffffff"/>
  </g>
  <g id="axes_1">
   <g id="line2d_1">
    <path d="M 260.337862 119.436798 
L 1423.823247 119.436798 
" clip-path="url(#pd42ba9795f)" style="fill: none; stroke: #000000; stroke-width: 2; stroke-linecap: square"/>
   </g>
   <g id="line2d_2">
    <path d="M 260.337862 165.790798 
L 1423.823247 165.790798 
" clip-path="url(#pd42ba9795f)" style="fill: none; stroke: #000000; stroke-width: 2; stroke-linecap: square"/>
   </g>
   <g id="line2d_3">
    <path d="M 260.337862 212.144797 
L 1423.823247 212.144797 
" clip-path="url(#pd42ba9795f)" style="fill: none; stroke: #000000; stroke-width: 2; stroke-linecap: square"/>
   </g>
   <g id="line2d_4">
    <path d="M 260.337862 258.498797 
L 1423.823247 258.498797 
" clip-path="url(#pd42ba9795f)" style="fill: none; stroke: #000000; stroke-width: 2; stroke-linecap: square"/>
   </g>
   <g id="line2d_5">
    <path d="M 269.608662 309.488196 
L 274.244062 300.217396 
" clip-path="url(#pd42ba9795f)" style="fill: none; stroke: #778899; stroke-width: 1.5; stroke-linecap: square"/>
   </g>
   <g id="line2d_6">
    <path d="M 260.337862 303.346291 
L 1423.823247 303.346291 
" clip-path="url(#pd42ba9795f)" style="fill: none; stroke: #778899; stroke-width: 2; stroke-linecap: square"/>
   </g>
   <g id="line2d_7">
    <path d="M 260.337862 306.359301 
L 1423.823247 306.359301 
" clip-path="url(#pd42ba9795f)" style="fill: none; stroke: #778899; stroke-width: 2; stroke-linecap: square"/>
   </g>
   <g id="line2d_8">
    <path d="M 1423.823247 119.436798 
L 1423.823247 304.852796 
" clip-path="url(#pd42ba9795f)" style="fill: none; stroke: #000000; stroke-width: 1.5; stroke-linecap: square"/>
   </g>
   <g id="line2d_9">
    <path d="M 260.337862 397.560795 
L 1423.823247 397.560795 
" clip-path="url(#pd42ba9795f)" style="fill: none; stroke: #000000; stroke-width: 2; stroke-linecap: square"/>
   </g>
   <g id="line2d_10">
    <path d="M 260.337862 443.914794 
L 1423.823247 443.914794 
" clip-path="url(#pd42ba9795f)" style="fill: none; stroke: #000000; stroke-width: 2; stroke-linecap: square"/>
   </g>
   <g id="line2d_11">
    <path d="M 260.337862 490.268793 
L 1423.823247 490.268793 
" clip-path="url(#pd42ba9795f)" style="fill: none; stroke: #000000; stroke-width: 2; stroke-linecap: square"/>
   </g>
   <g id="line2d_12">
    <path d="M 260.337862 536.622793 
L 1423.823247 536.622793 
" clip-path="url(#pd42ba9795f)" style="fill: none; stroke: #000000; stroke-width: 2; stroke-linecap: square"/>
   </g>
   <g id="line2d_13">
    <path d="M 269.608662 587.612192 
L 274.244062 578.341392 
" clip-path="url(#pd42ba9795f)" style="fill: none; stroke: #778899; stroke-width: 1.5; stroke-linecap: square"/>
   </g>
   <g id="line2d_14">
    <path d="M 260.337862 581.470287 
L 1423.823247 581.470287 
" clip-path="url(#pd42ba9795f)" style="fill: none; stroke: #778899; stroke-width: 2; stroke-linecap: square"/>
   </g>
   <g id="line2d_15">
    <path d="M 260.337862 584.483297 
L 1423.823247 584.483297 
" clip-path="url(#pd42ba9795f)" style="fill: none; stroke: #778899; stroke-width: 2; stroke-linecap: square"/>
   </g>
   <g id="line2d_16">
    <path d="M 259.874322 397.560795 
L 259.874322 582.976792 
" clip-path="url(#pd42ba9795f)" style="fill: none; stroke: #000000; stroke-width: 1.5; stroke-linecap: square"/>
   </g>
   <g id="patch_2">
    <path d="M 1391.838987 294.307261 
L 1403.891027 294.307261 
L 1397.865007 302.998636 
z
" clip-path="url(#pd42ba9795f)" style="fill: #778899"/>
   </g>
   <g id="patch_3">
    <path d="M 279.343002 572.431257 
L 291.395042 572.431257 
L 285.369022 581.122632 
z
" clip-path="url(#pd42ba9795f)" style="fill: #778899"/>
   </g>
   <g id="patch_4">
    <path d="M 255.702462 96.259799 
L -903.147522 96.259799 
L -903.147522 374.383795 
L 255.702462 374.383795 
z
" clip-path="url(#pd42ba9795f)" style="fill: #ffffff; stroke: #ffffff; stroke-width: 1.5; stroke-linejoin: miter"/>
   </g>
   <g id="patch_5">
    <path d="M 255.702462 374.383795 
L -903.147522 374.383795 
L -903.147522 930.631788 
L 255.702462 930.631788 
z
" clip-path="url(#pd42ba9795f)" style="fill: #ffffff; stroke: #ffffff; stroke-width: 1.5; stroke-linejoin: miter"/>
   </g>
   <g id="line2d_17">
    <path d="M 331.723021 212.144797 
L 331.723021 119.436798 
" clip-path="url(#pd42ba9795f)" style="fill: none; stroke: #6fa4ff; stroke-width: 2; stroke-linecap: square"/>
   </g>
   <g id="line2d_18">
    <path d="M 424.43102 258.498797 
L 424.43102 165.790798 
" clip-path="url(#pd42ba9795f)" style="fill: none; stroke: #6fa4ff; stroke-width: 2; stroke-linecap: square"/>
   </g>
   <g id="line2d_19">
    <path d="M 563.493018 212.144797 
L 563.493018 119.436798 
" clip-path="url(#pd42ba9795f)" style="fill: none; stroke: #bb8bff; stroke-width: 2; stroke-linecap: square"/>
   </g>
   <g id="line2d_20">
    <path d="M 702.555016 212.144797 
L 702.555016 119.436798 
" clip-path="url(#pd42ba9795f)" style="fill: none; stroke: #6fa4ff; stroke-width: 2; stroke-linecap: square"/>
   </g>
   <g id="line2d_21">
    <path d="M 795.263015 258.498797 
L 795.263015 165.790798 
" clip-path="url(#pd42ba9795f)" style="fill: none; stroke: #6fa4ff; stroke-width: 2; stroke-linecap: square"/>
   </g>
   <g id="line2d_22">
    <path d="M 934.325013 212.144797 
L 934.325013 119.436798 
" clip-path="url(#pd42ba9795f)" style="fill: none; stroke: #bb8bff; stroke-width: 2; stroke-linecap: square"/>
   </g>
   <g id="line2d_23">
    <path d="M 1073.387011 212.144797 
L 1073.387011 119.436798 
" clip-path="url(#pd42ba9795f)" style="fill: none; stroke: #6fa4ff; stroke-width: 2; stroke-linecap: square"/>
   </g>
   <g id="line2d_24">
    <path d="M 1166.09501 258.498797 
L 1166.09501 165.790798 
" clip-path="url(#pd42ba9795f)" style="fill: none; stroke: #6fa4ff; stroke-width: 2; stroke-linecap: square"/>
   </g>
   <g id="line2d_25">
    <path d="M 1305.157008 212.144797 
L 1305.157008 119.436798 
" clip-path="url(#pd42ba9795f)" style="fill: none; stroke: #bb8bff; stroke-width: 2; stroke-linecap: square"/>
   </g>
   <g id="line2d_26">
    <path d="M 1399.371512 212.144797 
L 1399.371512 294.307261 
" clip-path="url(#pd42ba9795f)" style="fill: none; stroke: #778899; stroke-width: 2; stroke-linecap: square"/>
   </g>
   <g id="line2d_27">
    <path d="M 1396.358502 212.144797 
L 1396.358502 294.307261 
" clip-path="url(#pd42ba9795f)" style="fill: none; stroke: #778899; stroke-width: 2; stroke-linecap: square"/>
   </g>
   <g id="line2d_28">
    <path d="M 286.875527 536.622793 
L 286.875527 572.431257 
" clip-path="url(#pd42ba9795f)" style="fill: none; stroke: #778899; stroke-width: 2; stroke-linecap: square"/>
   </g>
   <g id="line2d_29">
    <path d="M 283.862517 536.622793 
L 283.862517 572.431257 
" clip-path="url(#pd42ba9795f)" style="fill: none; stroke: #778899; stroke-width: 2; stroke-linecap: square"/>
   </g>
   <g id="patch_6">
    <path d="M 369.037991 142.613798 
L 387.11605 142.613798 
L 387.11605 96.259799 
L 369.037991 96.259799 
z
" clip-path="url(#pd42ba9795f)" style="fill: #bdbdbd; opacity: 0.6"/>
   </g>
   <g id="patch_7">
    <path d="M 369.037991 188.967797 
L 387.11605 188.967797 
L 387.11605 142.613798 
L 369.037991 142.613798 
z
" clip-path="url(#pd42ba9795f)" style="fill: #bdbdbd; opacity: 0.6"/>
   </g>
   <g id="patch_8">
    <path d="M 369.037991 235.321797 
L 387.11605 235.321797 
L 387.11605 188.967797 
L 369.037991 188.967797 
z
" clip-path="url(#pd42ba9795f)" style="fill: #bdbdbd; opacity: 0.6"/>
   </g>
   <g id="patch_9">
    <path d="M 369.037991 281.675796 
L 387.11605 281.675796 
L 387.11605 235.321797 
L 369.037991 235.321797 
z
" clip-path="url(#pd42ba9795f)" style="fill: #bdbdbd; opacity: 0.6"/>
   </g>
   <g id="patch_10">
    <path d="M 461.745989 142.613798 
L 479.824049 142.613798 
L 479.824049 96.259799 
L 461.745989 96.259799 
z
" clip-path="url(#pd42ba9795f)" style="fill: #bdbdbd; opacity: 0.6"/>
   </g>
   <g id="patch_11">
    <path d="M 461.745989 188.967797 
L 479.824049 188.967797 
L 479.824049 142.613798 
L 461.745989 142.613798 
z
" clip-path="url(#pd42ba9795f)" style="fill: #bdbdbd; opacity: 0.6"/>
   </g>
   <g id="patch_12">
    <path d="M 461.745989 235.321797 
L 479.824049 235.321797 
L 479.824049 188.967797 
L 461.745989 188.967797 
z
" clip-path="url(#pd42ba9795f)" style="fill: #bdbdbd; opacity: 0.6"/>
   </g>
   <g id="patch_13">
    <path d="M 461.745989 281.675796 
L 479.824049 281.675796 
L 479.824049 235.321797 
L 461.745989 235.321797 
z
" clip-path="url(#pd42ba9795f)" style="fill: #bdbdbd; opacity: 0.6"/>
   </g>
   <g id="patch_14">
    <path d="M 600.807988 142.613798 
L 618.886047 142.613798 
L 618.886047 96.259799 
L 600.807988 96.259799 
z
" clip-path="url(#pd42ba9795f)" style="fill: #bdbdbd; opacity: 0.6"/>
   </g>
   <g id="patch_15">
    <path d="M 600.807988 188.967797 
L 618.886047 188.967797 
L 618.886047 142.613798 
L 600.807988 142.613798 
z
" clip-path="url(#pd42ba9795f)" style="fill: #bdbdbd; opacity: 0.6"/>
   </g>
   <g id="patch_16">
    <path d="M 600.807988 235.321797 
L 618.886047 235.321797 
L 618.886047 188.967797 
L 600.807988 188.967797 
z
" clip-path="url(#pd42ba9795f)" style="fill: #bdbdbd; opacity: 0.6"/>
   </g>
   <g id="patch_17">
    <path d="M 600.807988 281.675796 
L 618.886047 281.675796 
L 618.886047 235.321797 
L 600.807988 235.321797 
z
" clip-path="url(#pd42ba9795f)" style="fill: #bdbdbd; opacity: 0.6"/>
   </g>
   <g id="patch_18">
    <path d="M 739.869986 142.613798 
L 757.948046 142.613798 
L 757.948046 96.259799 
L 739.869986 96.259799 
z
" clip-path="url(#pd42ba9795f)" style="fill: #bdbdbd; opacity: 0.6"/>
   </g>
   <g id="patch_19">
    <path d="M 739.869986 188.967797 
L 757.948046 188.967797 
L 757.948046 142.613798 
L 739.869986 142.613798 
z
" clip-path="url(#pd42ba9795f)" style="fill: #bdbdbd; opacity: 0.6"/>
   </g>
   <g id="patch_20">
    <path d="M 739.869986 235.321797 
L 757.948046 235.321797 
L 757.948046 188.967797 
L 739.869986 188.967797 
z
" clip-path="url(#pd42ba9795f)" style="fill: #bdbdbd; opacity: 0.6"/>
   </g>
   <g id="patch_21">
    <path d="M 739.869986 281.675796 
L 757.948046 281.675796 
L 757.948046 235.321797 
L 739.869986 235.321797 
z
" clip-path="url(#pd42ba9795f)" style="fill: #bdbdbd; opacity: 0.6"/>
   </g>
   <g id="patch_22">
    <path d="M 832.577985 142.613798 
L 850.656044 142.613798 
L 850.656044 96.259799 
L 832.577985 96.259799 
z
" clip-path="url(#pd42ba9795f)" style="fill: #bdbdbd; opacity: 0.6"/>
   </g>
   <g id="patch_23">
    <path d="M 832.577985 188.967797 
L 850.656044 188.967797 
L 850.656044 142.613798 
L 832.577985 142.613798 
z
" clip-path="url(#pd42ba9795f)" style="fill: #bdbdbd; opacity: 0.6"/>
   </g>
   <g id="patch_24">
    <path d="M 832.577985 235.321797 
L 850.656044 235.321797 
L 850.656044 188.967797 
L 832.577985 188.967797 
z
" clip-path="url(#pd42ba9795f)" style="fill: #bdbdbd; opacity: 0.6"/>
   </g>
   <g id="patch_25">
    <path d="M 832.577985 281.675796 
L 850.656044 281.675796 
L 850.656044 235.321797 
L 832.577985 235.321797 
z
" clip-path="url(#pd42ba9795f)" style="fill: #bdbdbd; opacity: 0.6"/>
   </g>
   <g id="patch_26">
    <path d="M 971.639983 142.613798 
L 989.718042 142.613798 
L 989.718042 96.259799 
L 971.639983 96.259799 
z
" clip-path="url(#pd42ba9795f)" style="fill: #bdbdbd; opacity: 0.6"/>
   </g>
   <g id="patch_27">
    <path d="M 971.639983 188.967797 
L 989.718042 188.967797 
L 989.718042 142.613798 
L 971.639983 142.613798 
z
" clip-path="url(#pd42ba9795f)" style="fill: #bdbdbd; opacity: 0.6"/>
   </g>
   <g id="patch_28">
    <path d="M 971.639983 235.321797 
L 989.718042 235.321797 
L 989.718042 188.967797 
L 971.639983 188.967797 
z
" clip-path="url(#pd42ba9795f)" style="fill: #bdbdbd; opacity: 0.6"/>
   </g>
   <g id="patch_29">
    <path d="M 971.639983 281.675796 
L 989.718042 281.675796 
L 989.718042 235.321797 
L 971.639983 235.321797 
z
" clip-path="url(#pd42ba9795f)" style="fill: #bdbdbd; opacity: 0.6"/>
   </g>
   <g id="patch_30">
    <path d="M 1110.701981 142.613798 
L 1128.780041 142.613798 
L 1128.780041 96.259799 
L 1110.701981 96.259799 
z
" clip-path="url(#pd42ba9795f)" style="fill: #bdbdbd; opacity: 0.6"/>
   </g>
   <g id="patch_31">
    <path d="M 1110.701981 188.967797 
L 1128.780041 188.967797 
L 1128.780041 142.613798 
L 1110.701981 142.613798 
z
" clip-path="url(#pd42ba9795f)" style="fill: #bdbdbd; opacity: 0.6"/>
   </g>
   <g id="patch_32">
    <path d="M 1110.701981 235.321797 
L 1128.780041 235.321797 
L 1128.780041 188.967797 
L 1110.701981 188.967797 
z
" clip-path="url(#pd42ba9795f)" style="fill: #bdbdbd; opacity: 0.6"/>
   </g>
   <g id="patch_33">
    <path d="M 1110.701981 281.675796 
L 1128.780041 281.675796 
L 1128.780041 235.321797 
L 1110.701981 235.321797 
z
" clip-path="url(#pd42ba9795f)" style="fill: #bdbdbd; opacity: 0.6"/>
   </g>
   <g id="patch_34">
    <path d="M 1203.40998 142.613798 
L 1221.488039 142.613798 
L 1221.488039 96.259799 
L 1203.40998 96.259799 
z
" clip-path="url(#pd42ba9795f)" style="fill: #bdbdbd; opacity: 0.6"/>
   </g>
   <g id="patch_35">
    <path d="M 1203.40998 188.967797 
L 1221.488039 188.967797 
L 1221.488039 142.613798 
L 1203.40998 142.613798 
z
" clip-path="url(#pd42ba9795f)" style="fill: #bdbdbd; opacity: 0.6"/>
   </g>
   <g id="patch_36">
    <path d="M 1203.40998 235.321797 
L 1221.488039 235.321797 
L 1221.488039 188.967797 
L 1203.40998 188.967797 
z
" clip-path="url(#pd42ba9795f)" style="fill: #bdbdbd; opacity: 0.6"/>
   </g>
   <g id="patch_37">
    <path d="M 1203.40998 281.675796 
L 1221.488039 281.675796 
L 1221.488039 235.321797 
L 1203.40998 235.321797 
z
" clip-path="url(#pd42ba9795f)" style="fill: #bdbdbd; opacity: 0.6"/>
   </g>
   <g id="patch_38">
    <path d="M 1342.471978 142.613798 
L 1360.550038 142.613798 
L 1360.550038 96.259799 
L 1342.471978 96.259799 
z
" clip-path="url(#pd42ba9795f)" style="fill: #bdbdbd; opacity: 0.6"/>
   </g>
   <g id="patch_39">
    <path d="M 1342.471978 188.967797 
L 1360.550038 188.967797 
L 1360.550038 142.613798 
L 1342.471978 142.613798 
z
" clip-path="url(#pd42ba9795f)" style="fill: #bdbdbd; opacity: 0.6"/>
   </g>
   <g id="patch_40">
    <path d="M 1342.471978 235.321797 
L 1360.550038 235.321797 
L 1360.550038 188.967797 
L 1342.471978 188.967797 
z
" clip-path="url(#pd42ba9795f)" style="fill: #bdbdbd; opacity: 0.6"/>
   </g>
   <g id="patch_41">
    <path d="M 1342.471978 281.675796 
L 1360.550038 281.675796 
L 1360.550038 235.321797 
L 1342.471978 235.321797 
z
" clip-path="url(#pd42ba9795f)" style="fill: #bdbdbd; opacity: 0.6"/>
   </g>
   <g id="patch_42">
    <path d="M 270.303972 134.501848 
L 300.434072 134.501848 
L 300.434072 104.371749 
L 270.303972 104.371749 
z
" clip-path="url(#pd42ba9795f)" style="fill: #6fa4ff; stroke: #6fa4ff; stroke-width: 1.5; stroke-linejoin: miter"/>
   </g>
   <g id="patch_43">
    <path d="M 270.303972 180.855848 
L 300.434072 180.855848 
L 300.434072 150.725748 
L 270.303972 150.725748 
z
" clip-path="url(#pd42ba9795f)" style="fill: #6fa4ff; stroke: #6fa4ff; stroke-width: 1.5; stroke-linejoin: miter"/>
   </g>
   <g id="patch_44">
    <path d="M 331.723021 123.956313 
C 332.921611 123.956313 334.07127 123.480109 334.918801 122.632578 
C 335.766332 121.785047 336.242536 120.635388 336.242536 119.436798 
C 336.242536 118.238209 335.766332 117.088549 334.918801 116.241019 
C 334.07127 115.393488 332.921611 114.917283 331.723021 114.917283 
C 330.524432 114.917283 329.374772 115.393488 328.527242 116.241019 
C 327.679711 117.088549 327.203506 118.238209 327.203506 119.436798 
C 327.203506 120.635388 327.679711 121.785047 328.527242 122.632578 
C 329.374772 123.480109 330.524432 123.956313 331.723021 123.956313 
z
" clip-path="url(#pd42ba9795f)" style="fill: #6fa4ff; stroke: #6fa4ff; stroke-width: 1.5; stroke-linejoin: miter"/>
   </g>
   <g id="patch_45">
    <path d="M 331.723021 222.690332 
C 334.51973 222.690332 337.202269 221.579188 339.17984 219.601616 
C 341.157412 217.624045 342.268556 214.941506 342.268556 212.144797 
C 342.268556 209.348089 341.157412 206.66555 339.17984 204.687978 
C 337.202269 202.710406 334.51973 201.599262 331.723021 201.599262 
C 328.926313 201.599262 326.243774 202.710406 324.266202 204.687978 
C 322.28863 206.66555 321.177486 209.348089 321.177486 212.144797 
C 321.177486 214.941506 322.28863 217.624045 324.266202 219.601616 
C 326.243774 221.579188 328.926313 222.690332 331.723021 222.690332 
z
" clip-path="url(#pd42ba9795f)" style="fill: #6fa4ff; stroke: #6fa4ff; stroke-width: 2; stroke-linejoin: miter"/>
   </g>
   <g id="patch_46">
    <path d="M 424.43102 170.310313 
C 425.629609 170.310313 426.779269 169.834108 427.6268 168.986577 
C 428.47433 168.139047 428.950535 166.989387 428.950535 165.790798 
C 428.950535 164.592208 428.47433 163.442549 427.6268 162.595018 
C 426.779269 161.747487 425.629609 161.271283 424.43102 161.271283 
C 423.232431 161.271283 422.082771 161.747487 421.23524 162.595018 
C 420.38771 163.442549 419.911505 164.592208 419.911505 165.790798 
C 419.911505 166.989387 420.38771 168.139047 421.23524 168.986577 
C 422.082771 169.834108 423.232431 170.310313 424.43102 170.310313 
z
" clip-path="url(#pd42ba9795f)" style="fill: #6fa4ff; stroke: #6fa4ff; stroke-width: 1.5; stroke-linejoin: miter"/>
   </g>
   <g id="patch_47">
    <path d="M 424.43102 269.044331 
C 427.227728 269.044331 429.910268 267.933187 431.887839 265.955616 
C 433.865411 263.978044 434.976555 261.295505 434.976555 258.498797 
C 434.976555 255.702088 433.865411 253.019549 431.887839 251.041977 
C 429.910268 249.064406 427.227728 247.953262 424.43102 247.953262 
C 421.634311 247.953262 418.951772 249.064406 416.974201 251.041977 
C 414.996629 253.019549 413.885485 255.702088 413.885485 258.498797 
C 413.885485 261.295505 414.996629 263.978044 416.974201 265.955616 
C 418.951772 267.933187 421.634311 269.044331 424.43102 269.044331 
z
" clip-path="url(#pd42ba9795f)" style="fill: #6fa4ff; stroke: #6fa4ff; stroke-width: 2; stroke-linejoin: miter"/>
   </g>
   <g id="patch_48">
    <path d="M 409.36597 134.501848 
L 439.49607 134.501848 
L 439.49607 104.371749 
L 409.36597 104.371749 
z
" clip-path="url(#pd42ba9795f)" style="fill: #05bab6; stroke: #05bab6; stroke-width: 1.5; stroke-linejoin: miter"/>
   </g>
   <g id="patch_49">
    <path d="M 502.073969 180.855848 
L 532.204069 180.855848 
L 532.204069 150.725748 
L 502.073969 150.725748 
z
" clip-path="url(#pd42ba9795f)" style="fill: #05bab6; stroke: #05bab6; stroke-width: 1.5; stroke-linejoin: miter"/>
   </g>
   <g id="patch_50">
    <path d="M 563.493018 123.956313 
C 564.691607 123.956313 565.841267 123.480109 566.688798 122.632578 
C 567.536328 121.785047 568.012533 120.635388 568.012533 119.436798 
C 568.012533 118.238209 567.536328 117.088549 566.688798 116.241019 
C 565.841267 115.393488 564.691607 114.917283 563.493018 114.917283 
C 562.294429 114.917283 561.144769 115.393488 560.297238 116.241019 
C 559.449708 117.088549 558.973503 118.238209 558.973503 119.436798 
C 558.973503 120.635388 559.449708 121.785047 560.297238 122.632578 
C 561.144769 123.480109 562.294429 123.956313 563.493018 123.956313 
z
" clip-path="url(#pd42ba9795f)" style="fill: #bb8bff; stroke: #bb8bff; stroke-width: 1.5; stroke-linejoin: miter"/>
   </g>
   <g id="patch_51">
    <path d="M 563.493018 170.310313 
C 564.691607 170.310313 565.841267 169.834108 566.688798 168.986577 
C 567.536328 168.139047 568.012533 166.989387 568.012533 165.790798 
C 568.012533 164.592208 567.536328 163.442549 566.688798 162.595018 
C 565.841267 161.747487 564.691607 161.271283 563.493018 161.271283 
C 562.294429 161.271283 561.144769 161.747487 560.297238 162.595018 
C 559.449708 163.442549 558.973503 164.592208 558.973503 165.790798 
C 558.973503 166.989387 559.449708 168.139047 560.297238 168.986577 
C 561.144769 169.834108 562.294429 170.310313 563.493018 170.310313 
z
" clip-path="url(#pd42ba9795f)" style="fill: #bb8bff; stroke: #bb8bff; stroke-width: 1.5; stroke-linejoin: miter"/>
   </g>
   <g id="patch_52">
    <path d="M 563.493018 222.690332 
C 566.289727 222.690332 568.972266 221.579188 570.949837 219.601616 
C 572.927409 217.624045 574.038553 214.941506 574.038553 212.144797 
C 574.038553 209.348089 572.927409 206.66555 570.949837 204.687978 
C 568.972266 202.710406 566.289727 201.599262 563.493018 201.599262 
C 560.69631 201.599262 558.01377 202.710406 556.036199 204.687978 
C 554.058627 206.66555 552.947483 209.348089 552.947483 212.144797 
C 552.947483 214.941506 554.058627 217.624045 556.036199 219.601616 
C 558.01377 221.579188 560.69631 222.690332 563.493018 222.690332 
z
" clip-path="url(#pd42ba9795f)" style="fill: #bb8bff; stroke: #bb8bff; stroke-width: 2; stroke-linejoin: miter"/>
   </g>
   <g id="patch_53">
    <path d="M 641.135967 134.501848 
L 671.266067 134.501848 
L 671.266067 104.371749 
L 641.135967 104.371749 
z
" clip-path="url(#pd42ba9795f)" style="fill: #6fa4ff; stroke: #6fa4ff; stroke-width: 1.5; stroke-linejoin: miter"/>
   </g>
   <g id="patch_54">
    <path d="M 641.135967 180.855848 
L 671.266067 180.855848 
L 671.266067 150.725748 
L 641.135967 150.725748 
z
" clip-path="url(#pd42ba9795f)" style="fill: #6fa4ff; stroke: #6fa4ff; stroke-width: 1.5; stroke-linejoin: miter"/>
   </g>
   <g id="patch_55">
    <path d="M 702.555016 123.956313 
C 703.753606 123.956313 704.903265 123.480109 705.750796 122.632578 
C 706.598327 121.785047 707.074531 120.635388 707.074531 119.436798 
C 707.074531 118.238209 706.598327 117.088549 705.750796 116.241019 
C 704.903265 115.393488 703.753606 114.917283 702.555016 114.917283 
C 701.356427 114.917283 700.206767 115.393488 699.359237 116.241019 
C 698.511706 117.088549 698.035501 118.238209 698.035501 119.436798 
C 698.035501 120.635388 698.511706 121.785047 699.359237 122.632578 
C 700.206767 123.480109 701.356427 123.956313 702.555016 123.956313 
z
" clip-path="url(#pd42ba9795f)" style="fill: #6fa4ff; stroke: #6fa4ff; stroke-width: 1.5; stroke-linejoin: miter"/>
   </g>
   <g id="patch_56">
    <path d="M 702.555016 222.690332 
C 705.351725 222.690332 708.034264 221.579188 710.011835 219.601616 
C 711.989407 217.624045 713.100551 214.941506 713.100551 212.144797 
C 713.100551 209.348089 711.989407 206.66555 710.011835 204.687978 
C 708.034264 202.710406 705.351725 201.599262 702.555016 201.599262 
C 699.758308 201.599262 697.075769 202.710406 695.098197 204.687978 
C 693.120625 206.66555 692.009481 209.348089 692.009481 212.144797 
C 692.009481 214.941506 693.120625 217.624045 695.098197 219.601616 
C 697.075769 221.579188 699.758308 222.690332 702.555016 222.690332 
z
" clip-path="url(#pd42ba9795f)" style="fill: #6fa4ff; stroke: #6fa4ff; stroke-width: 2; stroke-linejoin: miter"/>
   </g>
   <g id="patch_57">
    <path d="M 795.263015 170.310313 
C 796.461604 170.310313 797.611264 169.834108 798.458795 168.986577 
C 799.306325 168.139047 799.78253 166.989387 799.78253 165.790798 
C 799.78253 164.592208 799.306325 163.442549 798.458795 162.595018 
C 797.611264 161.747487 796.461604 161.271283 795.263015 161.271283 
C 794.064426 161.271283 792.914766 161.747487 792.067235 162.595018 
C 791.219705 163.442549 790.7435 164.592208 790.7435 165.790798 
C 790.7435 166.989387 791.219705 168.139047 792.067235 168.986577 
C 792.914766 169.834108 794.064426 170.310313 795.263015 170.310313 
z
" clip-path="url(#pd42ba9795f)" style="fill: #6fa4ff; stroke: #6fa4ff; stroke-width: 1.5; stroke-linejoin: miter"/>
   </g>
   <g id="patch_58">
    <path d="M 795.263015 269.044331 
C 798.059724 269.044331 800.742263 267.933187 802.719834 265.955616 
C 804.697406 263.978044 805.80855 261.295505 805.80855 258.498797 
C 805.80855 255.702088 804.697406 253.019549 802.719834 251.041977 
C 800.742263 249.064406 798.059724 247.953262 795.263015 247.953262 
C 792.466306 247.953262 789.783767 249.064406 787.806196 251.041977 
C 785.828624 253.019549 784.71748 255.702088 784.71748 258.498797 
C 784.71748 261.295505 785.828624 263.978044 787.806196 265.955616 
C 789.783767 267.933187 792.466306 269.044331 795.263015 269.044331 
z
" clip-path="url(#pd42ba9795f)" style="fill: #6fa4ff; stroke: #6fa4ff; stroke-width: 2; stroke-linejoin: miter"/>
   </g>
   <g id="patch_59">
    <path d="M 780.197965 134.501848 
L 810.328065 134.501848 
L 810.328065 104.371749 
L 780.197965 104.371749 
z
" clip-path="url(#pd42ba9795f)" style="fill: #05bab6; stroke: #05bab6; stroke-width: 1.5; stroke-linejoin: miter"/>
   </g>
   <g id="patch_60">
    <path d="M 872.905964 180.855848 
L 903.036064 180.855848 
L 903.036064 150.725748 
L 872.905964 150.725748 
z
" clip-path="url(#pd42ba9795f)" style="fill: #05bab6; stroke: #05bab6; stroke-width: 1.5; stroke-linejoin: miter"/>
   </g>
   <g id="patch_61">
    <path d="M 934.325013 123.956313 
C 935.523603 123.956313 936.673262 123.480109 937.520793 122.632578 
C 938.368324 121.785047 938.844528 120.635388 938.844528 119.436798 
C 938.844528 118.238209 938.368324 117.088549 937.520793 116.241019 
C 936.673262 115.393488 935.523603 114.917283 934.325013 114.917283 
C 933.126424 114.917283 931.976764 115.393488 931.129234 116.241019 
C 930.281703 117.088549 929.805498 118.238209 929.805498 119.436798 
C 929.805498 120.635388 930.281703 121.785047 931.129234 122.632578 
C 931.976764 123.480109 933.126424 123.956313 934.325013 123.956313 
z
" clip-path="url(#pd42ba9795f)" style="fill: #bb8bff; stroke: #bb8bff; stroke-width: 1.5; stroke-linejoin: miter"/>
   </g>
   <g id="patch_62">
    <path d="M 934.325013 170.310313 
C 935.523603 170.310313 936.673262 169.834108 937.520793 168.986577 
C 938.368324 168.139047 938.844528 166.989387 938.844528 165.790798 
C 938.844528 164.592208 938.368324 163.442549 937.520793 162.595018 
C 936.673262 161.747487 935.523603 161.271283 934.325013 161.271283 
C 933.126424 161.271283 931.976764 161.747487 931.129234 162.595018 
C 930.281703 163.442549 929.805498 164.592208 929.805498 165.790798 
C 929.805498 166.989387 930.281703 168.139047 931.129234 168.986577 
C 931.976764 169.834108 933.126424 170.310313 934.325013 170.310313 
z
" clip-path="url(#pd42ba9795f)" style="fill: #bb8bff; stroke: #bb8bff; stroke-width: 1.5; stroke-linejoin: miter"/>
   </g>
   <g id="patch_63">
    <path d="M 934.325013 222.690332 
C 937.121722 222.690332 939.804261 221.579188 941.781832 219.601616 
C 943.759404 217.624045 944.870548 214.941506 944.870548 212.144797 
C 944.870548 209.348089 943.759404 206.66555 941.781832 204.687978 
C 939.804261 202.710406 937.121722 201.599262 934.325013 201.599262 
C 931.528305 201.599262 928.845766 202.710406 926.868194 204.687978 
C 924.890622 206.66555 923.779478 209.348089 923.779478 212.144797 
C 923.779478 214.941506 924.890622 217.624045 926.868194 219.601616 
C 928.845766 221.579188 931.528305 222.690332 934.325013 222.690332 
z
" clip-path="url(#pd42ba9795f)" style="fill: #bb8bff; stroke: #bb8bff; stroke-width: 2; stroke-linejoin: miter"/>
   </g>
   <g id="patch_64">
    <path d="M 1011.967962 134.501848 
L 1042.098062 134.501848 
L 1042.098062 104.371749 
L 1011.967962 104.371749 
z
" clip-path="url(#pd42ba9795f)" style="fill: #6fa4ff; stroke: #6fa4ff; stroke-width: 1.5; stroke-linejoin: miter"/>
   </g>
   <g id="patch_65">
    <path d="M 1011.967962 180.855848 
L 1042.098062 180.855848 
L 1042.098062 150.725748 
L 1011.967962 150.725748 
z
" clip-path="url(#pd42ba9795f)" style="fill: #6fa4ff; stroke: #6fa4ff; stroke-width: 1.5; stroke-linejoin: miter"/>
   </g>
   <g id="patch_66">
    <path d="M 1073.387011 123.956313 
C 1074.585601 123.956313 1075.73526 123.480109 1076.582791 122.632578 
C 1077.430322 121.785047 1077.906526 120.635388 1077.906526 119.436798 
C 1077.906526 118.238209 1077.430322 117.088549 1076.582791 116.241019 
C 1075.73526 115.393488 1074.585601 114.917283 1073.387011 114.917283 
C 1072.188422 114.917283 1071.038762 115.393488 1070.191232 116.241019 
C 1069.343701 117.088549 1068.867496 118.238209 1068.867496 119.436798 
C 1068.867496 120.635388 1069.343701 121.785047 1070.191232 122.632578 
C 1071.038762 123.480109 1072.188422 123.956313 1073.387011 123.956313 
z
" clip-path="url(#pd42ba9795f)" style="fill: #6fa4ff; stroke: #6fa4ff; stroke-width: 1.5; stroke-linejoin: miter"/>
   </g>
   <g id="patch_67">
    <path d="M 1073.387011 222.690332 
C 1076.18372 222.690332 1078.866259 221.579188 1080.843831 219.601616 
C 1082.821402 217.624045 1083.932546 214.941506 1083.932546 212.144797 
C 1083.932546 209.348089 1082.821402 206.66555 1080.843831 204.687978 
C 1078.866259 202.710406 1076.18372 201.599262 1073.387011 201.599262 
C 1070.590303 201.599262 1067.907764 202.710406 1065.930192 204.687978 
C 1063.952621 206.66555 1062.841476 209.348089 1062.841476 212.144797 
C 1062.841476 214.941506 1063.952621 217.624045 1065.930192 219.601616 
C 1067.907764 221.579188 1070.590303 222.690332 1073.387011 222.690332 
z
" clip-path="url(#pd42ba9795f)" style="fill: #6fa4ff; stroke: #6fa4ff; stroke-width: 2; stroke-linejoin: miter"/>
   </g>
   <g id="patch_68">
    <path d="M 1166.09501 170.310313 
C 1167.293599 170.310313 1168.443259 169.834108 1169.29079 168.986577 
C 1170.13832 168.139047 1170.614525 166.989387 1170.614525 165.790798 
C 1170.614525 164.592208 1170.13832 163.442549 1169.29079 162.595018 
C 1168.443259 161.747487 1167.293599 161.271283 1166.09501 161.271283 
C 1164.896421 161.271283 1163.746761 161.747487 1162.89923 162.595018 
C 1162.0517 163.442549 1161.575495 164.592208 1161.575495 165.790798 
C 1161.575495 166.989387 1162.0517 168.139047 1162.89923 168.986577 
C 1163.746761 169.834108 1164.896421 170.310313 1166.09501 170.310313 
z
" clip-path="url(#pd42ba9795f)" style="fill: #6fa4ff; stroke: #6fa4ff; stroke-width: 1.5; stroke-linejoin: miter"/>
   </g>
   <g id="patch_69">
    <path d="M 1166.09501 269.044331 
C 1168.891719 269.044331 1171.574258 267.933187 1173.551829 265.955616 
C 1175.529401 263.978044 1176.640545 261.295505 1176.640545 258.498797 
C 1176.640545 255.702088 1175.529401 253.019549 1173.551829 251.041977 
C 1171.574258 249.064406 1168.891719 247.953262 1166.09501 247.953262 
C 1163.298302 247.953262 1160.615762 249.064406 1158.638191 251.041977 
C 1156.660619 253.019549 1155.549475 255.702088 1155.549475 258.498797 
C 1155.549475 261.295505 1156.660619 263.978044 1158.638191 265.955616 
C 1160.615762 267.933187 1163.298302 269.044331 1166.09501 269.044331 
z
" clip-path="url(#pd42ba9795f)" style="fill: #6fa4ff; stroke: #6fa4ff; stroke-width: 2; stroke-linejoin: miter"/>
   </g>
   <g id="patch_70">
    <path d="M 1151.02996 134.501848 
L 1181.16006 134.501848 
L 1181.16006 104.371749 
L 1151.02996 104.371749 
z
" clip-path="url(#pd42ba9795f)" style="fill: #05bab6; stroke: #05bab6; stroke-width: 1.5; stroke-linejoin: miter"/>
   </g>
   <g id="patch_71">
    <path d="M 1243.737959 180.855848 
L 1273.868059 180.855848 
L 1273.868059 150.725748 
L 1243.737959 150.725748 
z
" clip-path="url(#pd42ba9795f)" style="fill: #05bab6; stroke: #05bab6; stroke-width: 1.5; stroke-linejoin: miter"/>
   </g>
   <g id="patch_72">
    <path d="M 1305.157008 123.956313 
C 1306.355598 123.956313 1307.505257 123.480109 1308.352788 122.632578 
C 1309.200319 121.785047 1309.676523 120.635388 1309.676523 119.436798 
C 1309.676523 118.238209 1309.200319 117.088549 1308.352788 116.241019 
C 1307.505257 115.393488 1306.355598 114.917283 1305.157008 114.917283 
C 1303.958419 114.917283 1302.808759 115.393488 1301.961229 116.241019 
C 1301.113698 117.088549 1300.637493 118.238209 1300.637493 119.436798 
C 1300.637493 120.635388 1301.113698 121.785047 1301.961229 122.632578 
C 1302.808759 123.480109 1303.958419 123.956313 1305.157008 123.956313 
z
" clip-path="url(#pd42ba9795f)" style="fill: #bb8bff; stroke: #bb8bff; stroke-width: 1.5; stroke-linejoin: miter"/>
   </g>
   <g id="patch_73">
    <path d="M 1305.157008 170.310313 
C 1306.355598 170.310313 1307.505257 169.834108 1308.352788 168.986577 
C 1309.200319 168.139047 1309.676523 166.989387 1309.676523 165.790798 
C 1309.676523 164.592208 1309.200319 163.442549 1308.352788 162.595018 
C 1307.505257 161.747487 1306.355598 161.271283 1305.157008 161.271283 
C 1303.958419 161.271283 1302.808759 161.747487 1301.961229 162.595018 
C 1301.113698 163.442549 1300.637493 164.592208 1300.637493 165.790798 
C 1300.637493 166.989387 1301.113698 168.139047 1301.961229 168.986577 
C 1302.808759 169.834108 1303.958419 170.310313 1305.157008 170.310313 
z
" clip-path="url(#pd42ba9795f)" style="fill: #bb8bff; stroke: #bb8bff; stroke-width: 1.5; stroke-linejoin: miter"/>
   </g>
   <g id="patch_74">
    <path d="M 1305.157008 222.690332 
C 1307.953717 222.690332 1310.636256 221.579188 1312.613827 219.601616 
C 1314.591399 217.624045 1315.702543 214.941506 1315.702543 212.144797 
C 1315.702543 209.348089 1314.591399 206.66555 1312.613827 204.687978 
C 1310.636256 202.710406 1307.953717 201.599262 1305.157008 201.599262 
C 1302.3603 201.599262 1299.677761 202.710406 1297.700189 204.687978 
C 1295.722617 206.66555 1294.611473 209.348089 1294.611473 212.144797 
C 1294.611473 214.941506 1295.722617 217.624045 1297.700189 219.601616 
C 1299.677761 221.579188 1302.3603 222.690332 1305.157008 222.690332 
z
" clip-path="url(#pd42ba9795f)" style="fill: #bb8bff; stroke: #bb8bff; stroke-width: 2; stroke-linejoin: miter"/>
   </g>
   <g id="patch_75">
    <path d="M 1382.799957 227.209847 
L 1412.930057 227.209847 
L 1412.930057 197.079747 
L 1382.799957 197.079747 
z
" clip-path="url(#pd42ba9795f)" style="stroke: #000000; stroke-width: 1.5; stroke-linejoin: miter"/>
   </g>
   <g id="patch_76">
    <path d="M 1408.410542 216.664312 
C 1408.410542 213.868535 1407.298739 211.184406 1405.321826 209.207493 
C 1403.344913 207.23058 1400.660784 206.118777 1397.865007 206.118777 
C 1395.06923 206.118777 1392.385101 207.23058 1390.408188 209.207493 
C 1388.431275 211.184406 1387.319472 213.868535 1387.319472 216.664312 
" clip-path="url(#pd42ba9795f)" style="fill: none; stroke: #ffffff; stroke-width: 2; stroke-linejoin: miter"/>
   </g>
   <g id="line2d_30">
    <path d="M 1397.865007 216.664312 
L 1408.410542 206.118777 
" clip-path="url(#pd42ba9795f)" style="fill: none; stroke: #ffffff; stroke-width: 2; stroke-linecap: square"/>
   </g>
   <g id="patch_77">
    <path d="M 270.303972 551.687843 
L 300.434072 551.687843 
L 300.434072 521.557743 
L 270.303972 521.557743 
z
" clip-path="url(#pd42ba9795f)" style="stroke: #000000; stroke-width: 1.5; stroke-linejoin: miter"/>
   </g>
   <g id="patch_78">
    <path d="M 295.914557 541.142308 
C 295.914557 538.346531 294.802754 535.662402 292.825841 533.685489 
C 290.848928 531.708576 288.164799 530.596773 285.369022 530.596773 
C 282.573245 530.596773 279.889116 531.708576 277.912203 533.685489 
C 275.93529 535.662402 274.823487 538.346531 274.823487 541.142308 
" clip-path="url(#pd42ba9795f)" style="fill: none; stroke: #ffffff; stroke-width: 2; stroke-linejoin: miter"/>
   </g>
   <g id="line2d_31">
    <path d="M 285.369022 541.142308 
L 295.914557 530.596773 
" clip-path="url(#pd42ba9795f)" style="fill: none; stroke: #ffffff; stroke-width: 2; stroke-linecap: square"/>
   </g>
   <g id="line2d_32">
    <path d="M 331.723021 218.170817 
L 331.723021 206.118777 
" clip-path="url(#pd42ba9795f)" style="fill: none; stroke: #ffffff; stroke-width: 2; stroke-linecap: square"/>
   </g>
   <g id="line2d_33">
    <path d="M 325.697001 212.144797 
L 337.749041 212.144797 
" clip-path="url(#pd42ba9795f)" style="fill: none; stroke: #ffffff; stroke-width: 2; stroke-linecap: square"/>
   </g>
   <g id="line2d_34">
    <path d="M 424.43102 264.524816 
L 424.43102 252.472777 
" clip-path="url(#pd42ba9795f)" style="fill: none; stroke: #ffffff; stroke-width: 2; stroke-linecap: square"/>
   </g>
   <g id="line2d_35">
    <path d="M 418.405 258.498797 
L 430.45704 258.498797 
" clip-path="url(#pd42ba9795f)" style="fill: none; stroke: #ffffff; stroke-width: 2; stroke-linecap: square"/>
   </g>
   <g id="line2d_36">
    <path d="M 563.493018 218.170817 
L 563.493018 206.118777 
" clip-path="url(#pd42ba9795f)" style="fill: none; stroke: #ffffff; stroke-width: 2; stroke-linecap: square"/>
   </g>
   <g id="line2d_37">
    <path d="M 557.466998 212.144797 
L 569.519038 212.144797 
" clip-path="url(#pd42ba9795f)" style="fill: none; stroke: #ffffff; stroke-width: 2; stroke-linecap: square"/>
   </g>
   <g id="line2d_38">
    <path d="M 702.555016 218.170817 
L 702.555016 206.118777 
" clip-path="url(#pd42ba9795f)" style="fill: none; stroke: #ffffff; stroke-width: 2; stroke-linecap: square"/>
   </g>
   <g id="line2d_39">
    <path d="M 696.528996 212.144797 
L 708.581036 212.144797 
" clip-path="url(#pd42ba9795f)" style="fill: none; stroke: #ffffff; stroke-width: 2; stroke-linecap: square"/>
   </g>
   <g id="line2d_40">
    <path d="M 795.263015 264.524816 
L 795.263015 252.472777 
" clip-path="url(#pd42ba9795f)" style="fill: none; stroke: #ffffff; stroke-width: 2; stroke-linecap: square"/>
   </g>
   <g id="line2d_41">
    <path d="M 789.236995 258.498797 
L 801.289035 258.498797 
" clip-path="url(#pd42ba9795f)" style="fill: none; stroke: #ffffff; stroke-width: 2; stroke-linecap: square"/>
   </g>
   <g id="line2d_42">
    <path d="M 934.325013 218.170817 
L 934.325013 206.118777 
" clip-path="url(#pd42ba9795f)" style="fill: none; stroke: #ffffff; stroke-width: 2; stroke-linecap: square"/>
   </g>
   <g id="line2d_43">
    <path d="M 928.298993 212.144797 
L 940.351033 212.144797 
" clip-path="url(#pd42ba9795f)" style="fill: none; stroke: #ffffff; stroke-width: 2; stroke-linecap: square"/>
   </g>
   <g id="line2d_44">
    <path d="M 1073.387011 218.170817 
L 1073.387011 206.118777 
" clip-path="url(#pd42ba9795f)" style="fill: none; stroke: #ffffff; stroke-width: 2; stroke-linecap: square"/>
   </g>
   <g id="line2d_45">
    <path d="M 1067.360991 212.144797 
L 1079.413031 212.144797 
" clip-path="url(#pd42ba9795f)" style="fill: none; stroke: #ffffff; stroke-width: 2; stroke-linecap: square"/>
   </g>
   <g id="line2d_46">
    <path d="M 1166.09501 264.524816 
L 1166.09501 252.472777 
" clip-path="url(#pd42ba9795f)" style="fill: none; stroke: #ffffff; stroke-width: 2; stroke-linecap: square"/>
   </g>
   <g id="line2d_47">
    <path d="M 1160.06899 258.498797 
L 1172.12103 258.498797 
" clip-path="url(#pd42ba9795f)" style="fill: none; stroke: #ffffff; stroke-width: 2; stroke-linecap: square"/>
   </g>
   <g id="line2d_48">
    <path d="M 1305.157008 218.170817 
L 1305.157008 206.118777 
" clip-path="url(#pd42ba9795f)" style="fill: none; stroke: #ffffff; stroke-width: 2; stroke-linecap: square"/>
   </g>
   <g id="line2d_49">
    <path d="M 1299.130988 212.144797 
L 1311.183028 212.144797 
" clip-path="url(#pd42ba9795f)" style="fill: none; stroke: #ffffff; stroke-width: 2; stroke-linecap: square"/>
   </g>
   <g id="text_1">
    <g clip-path="url(#pd42ba9795f)">
     <!-- ${q}_{0}$ -->
     <g transform="translate(233.029562 123.887775) scale(0.1625 -0.1625)">
      <defs>
       <path id="DejaVuSans-Oblique-71" d="M 2669 525 
Q 2438 222 2123 65 
Q 1809 -91 1428 -91 
Q 897 -91 595 267 
Q 294 625 294 1253 
Q 294 1759 480 2231 
Q 666 2703 1013 3078 
Q 1238 3322 1530 3453 
Q 1822 3584 2144 3584 
Q 2531 3584 2781 3431 
Q 3031 3278 3144 2969 
L 3244 3494 
L 3822 3494 
L 2888 -1319 
L 2309 -1319 
L 2669 525 
z
M 891 1338 
Q 891 875 1084 633 
Q 1278 391 1644 391 
Q 2188 391 2572 911 
Q 2956 1431 2956 2175 
Q 2956 2625 2757 2864 
Q 2559 3103 2188 3103 
Q 1916 3103 1684 2976 
Q 1453 2850 1281 2606 
Q 1100 2350 995 2006 
Q 891 1663 891 1338 
z
" transform="scale(0.015625)"/>
       <path id="DejaVuSans-30" d="M 2034 4250 
Q 1547 4250 1301 3770 
Q 1056 3291 1056 2328 
Q 1056 1369 1301 889 
Q 1547 409 2034 409 
Q 2525 409 2770 889 
Q 3016 1369 3016 2328 
Q 3016 3291 2770 3770 
Q 2525 4250 2034 4250 
z
M 2034 4750 
Q 2819 4750 3233 4129 
Q 3647 3509 3647 2328 
Q 3647 1150 3233 529 
Q 2819 -91 2034 -91 
Q 1250 -91 836 529 
Q 422 1150 422 2328 
Q 422 3509 836 4129 
Q 1250 4750 2034 4750 
z
" transform="scale(0.015625)"/>
      </defs>
      <use xlink:href="#DejaVuSans-Oblique-71"/>
      <use xlink:href="#DejaVuSans-30" transform="translate(63.476562 -16.40625) scale(0.7)"/>
     </g>
    </g>
   </g>
   <g id="text_2">
    <g clip-path="url(#pd42ba9795f)">
     <!-- ${q}_{1}$ -->
     <g transform="translate(233.029562 170.241774) scale(0.1625 -0.1625)">
      <defs>
       <path id="DejaVuSans-31" d="M 794 531 
L 1825 531 
L 1825 4091 
L 703 3866 
L 703 4441 
L 1819 4666 
L 2450 4666 
L 2450 531 
L 3481 531 
L 3481 0 
L 794 0 
L 794 531 
z
" transform="scale(0.015625)"/>
      </defs>
      <use xlink:href="#DejaVuSans-Oblique-71"/>
      <use xlink:href="#DejaVuSans-31" transform="translate(63.476562 -16.40625) scale(0.7)"/>
     </g>
    </g>
   </g>
   <g id="text_3">
    <g clip-path="url(#pd42ba9795f)">
     <!-- ${q}_{2}$ -->
     <g transform="translate(233.029562 216.595774) scale(0.1625 -0.1625)">
      <defs>
       <path id="DejaVuSans-32" d="M 1228 531 
L 3431 531 
L 3431 0 
L 469 0 
L 469 531 
Q 828 903 1448 1529 
Q 2069 2156 2228 2338 
Q 2531 2678 2651 2914 
Q 2772 3150 2772 3378 
Q 2772 3750 2511 3984 
Q 2250 4219 1831 4219 
Q 1534 4219 1204 4116 
Q 875 4013 500 3803 
L 500 4441 
Q 881 4594 1212 4672 
Q 1544 4750 1819 4750 
Q 2544 4750 2975 4387 
Q 3406 4025 3406 3419 
Q 3406 3131 3298 2873 
Q 3191 2616 2906 2266 
Q 2828 2175 2409 1742 
Q 1991 1309 1228 531 
z
" transform="scale(0.015625)"/>
      </defs>
      <use xlink:href="#DejaVuSans-Oblique-71"/>
      <use xlink:href="#DejaVuSans-32" transform="translate(63.476562 -16.40625) scale(0.7)"/>
     </g>
    </g>
   </g>
   <g id="text_4">
    <g clip-path="url(#pd42ba9795f)">
     <!-- ${q}_{3}$ -->
     <g transform="translate(233.029562 262.949773) scale(0.1625 -0.1625)">
      <defs>
       <path id="DejaVuSans-33" d="M 2597 2516 
Q 3050 2419 3304 2112 
Q 3559 1806 3559 1356 
Q 3559 666 3084 287 
Q 2609 -91 1734 -91 
Q 1441 -91 1130 -33 
Q 819 25 488 141 
L 488 750 
Q 750 597 1062 519 
Q 1375 441 1716 441 
Q 2309 441 2620 675 
Q 2931 909 2931 1356 
Q 2931 1769 2642 2001 
Q 2353 2234 1838 2234 
L 1294 2234 
L 1294 2753 
L 1863 2753 
Q 2328 2753 2575 2939 
Q 2822 3125 2822 3475 
Q 2822 3834 2567 4026 
Q 2313 4219 1838 4219 
Q 1578 4219 1281 4162 
Q 984 4106 628 3988 
L 628 4550 
Q 988 4650 1302 4700 
Q 1616 4750 1894 4750 
Q 2613 4750 3031 4423 
Q 3450 4097 3450 3541 
Q 3450 3153 3228 2886 
Q 3006 2619 2597 2516 
z
" transform="scale(0.015625)"/>
      </defs>
      <use xlink:href="#DejaVuSans-Oblique-71"/>
      <use xlink:href="#DejaVuSans-33" transform="translate(63.476562 -16.40625) scale(0.7)"/>
     </g>
    </g>
   </g>
   <g id="text_5">
    <g clip-path="url(#pd42ba9795f)">
     <!-- 4 -->
     <g transform="translate(264.973262 298.054521) scale(0.104 -0.104)">
      <defs>
       <path id="DejaVuSans-34" d="M 2419 4116 
L 825 1625 
L 2419 1625 
L 2419 4116 
z
M 2253 4666 
L 3047 4666 
L 3047 1625 
L 3713 1625 
L 3713 1100 
L 3047 1100 
L 3047 0 
L 2419 0 
L 2419 1100 
L 313 1100 
L 313 1709 
L 2253 4666 
z
" transform="scale(0.015625)"/>
      </defs>
      <use xlink:href="#DejaVuSans-34"/>
     </g>
    </g>
   </g>
   <g id="text_6">
    <g clip-path="url(#pd42ba9795f)">
     <!-- c -->
     <g transform="translate(242.132101 309.33678) scale(0.1625 -0.1625)">
      <defs>
       <path id="DejaVuSans-63" d="M 3122 3366 
L 3122 2828 
Q 2878 2963 2633 3030 
Q 2388 3097 2138 3097 
Q 1578 3097 1268 2742 
Q 959 2388 959 1747 
Q 959 1106 1268 751 
Q 1578 397 2138 397 
Q 2388 397 2633 464 
Q 2878 531 3122 666 
L 3122 134 
Q 2881 22 2623 -34 
Q 2366 -91 2075 -91 
Q 1284 -91 818 406 
Q 353 903 353 1747 
Q 353 2603 823 3093 
Q 1294 3584 2113 3584 
Q 2378 3584 2631 3529 
Q 2884 3475 3122 3366 
z
" transform="scale(0.015625)"/>
      </defs>
      <use xlink:href="#DejaVuSans-63"/>
     </g>
    </g>
   </g>
   <g id="text_7">
    <g clip-path="url(#pd42ba9795f)">
     <!-- ${q}_{0}$ -->
     <g transform="translate(233.029562 402.011771) scale(0.1625 -0.1625)">
      <use xlink:href="#DejaVuSans-Oblique-71"/>
      <use xlink:href="#DejaVuSans-30" transform="translate(63.476562 -16.40625) scale(0.7)"/>
     </g>
    </g>
   </g>
   <g id="text_8">
    <g clip-path="url(#pd42ba9795f)">
     <!-- ${q}_{1}$ -->
     <g transform="translate(233.029562 448.365771) scale(0.1625 -0.1625)">
      <use xlink:href="#DejaVuSans-Oblique-71"/>
      <use xlink:href="#DejaVuSans-31" transform="translate(63.476562 -16.40625) scale(0.7)"/>
     </g>
    </g>
   </g>
   <g id="text_9">
    <g clip-path="url(#pd42ba9795f)">
     <!-- ${q}_{2}$ -->
     <g transform="translate(233.029562 494.71977) scale(0.1625 -0.1625)">
      <use xlink:href="#DejaVuSans-Oblique-71"/>
      <use xlink:href="#DejaVuSans-32" transform="translate(63.476562 -16.40625) scale(0.7)"/>
     </g>
    </g>
   </g>
   <g id="text_10">
    <g clip-path="url(#pd42ba9795f)">
     <!-- ${q}_{3}$ -->
     <g transform="translate(233.029562 541.073769) scale(0.1625 -0.1625)">
      <use xlink:href="#DejaVuSans-Oblique-71"/>
      <use xlink:href="#DejaVuSans-33" transform="translate(63.476562 -16.40625) scale(0.7)"/>
     </g>
    </g>
   </g>
   <g id="text_11">
    <g clip-path="url(#pd42ba9795f)">
     <!-- 4 -->
     <g transform="translate(264.973262 576.178517) scale(0.104 -0.104)">
      <use xlink:href="#DejaVuSans-34"/>
     </g>
    </g>
   </g>
   <g id="text_12">
    <g clip-path="url(#pd42ba9795f)">
     <!-- c -->
     <g transform="translate(242.132101 587.460777) scale(0.1625 -0.1625)">
      <use xlink:href="#DejaVuSans-63"/>
     </g>
    </g>
   </g>
   <g id="text_13">
    <g clip-path="url(#pd42ba9795f)">
     <!-- H -->
     <g transform="translate(280.480819 123.023986) scale(0.13 -0.13)">
      <defs>
       <path id="DejaVuSans-48" d="M 628 4666 
L 1259 4666 
L 1259 2753 
L 3553 2753 
L 3553 4666 
L 4184 4666 
L 4184 0 
L 3553 0 
L 3553 2222 
L 1259 2222 
L 1259 0 
L 628 0 
L 628 4666 
z
" transform="scale(0.015625)"/>
      </defs>
      <use xlink:href="#DejaVuSans-48"/>
     </g>
    </g>
   </g>
   <g id="text_14">
    <g clip-path="url(#pd42ba9795f)">
     <!-- H -->
     <g transform="translate(280.480819 169.377985) scale(0.13 -0.13)">
      <use xlink:href="#DejaVuSans-48"/>
     </g>
    </g>
   </g>
   <g id="line2d_50">
    <path d="M 378.077021 96.259799 
L 378.077021 142.613798 
" clip-path="url(#pd42ba9795f)" style="fill: none; stroke-dasharray: 3.7,1.6; stroke-dashoffset: 0; stroke: #000000"/>
   </g>
   <g id="line2d_51">
    <path d="M 378.077021 142.613798 
L 378.077021 188.967797 
" clip-path="url(#pd42ba9795f)" style="fill: none; stroke-dasharray: 3.7,1.6; stroke-dashoffset: 0; stroke: #000000"/>
   </g>
   <g id="line2d_52">
    <path d="M 378.077021 188.967797 
L 378.077021 235.321797 
" clip-path="url(#pd42ba9795f)" style="fill: none; stroke-dasharray: 3.7,1.6; stroke-dashoffset: 0; stroke: #000000"/>
   </g>
   <g id="line2d_53">
    <path d="M 378.077021 235.321797 
L 378.077021 281.675796 
" clip-path="url(#pd42ba9795f)" style="fill: none; stroke-dasharray: 3.7,1.6; stroke-dashoffset: 0; stroke: #000000"/>
   </g>
   <g id="text_15">
    <g clip-path="url(#pd42ba9795f)">
     <!-- X -->
     <g transform="translate(419.97852 123.023986) scale(0.13 -0.13)">
      <defs>
       <path id="DejaVuSans-58" d="M 403 4666 
L 1081 4666 
L 2241 2931 
L 3406 4666 
L 4084 4666 
L 2584 2425 
L 4184 0 
L 3506 0 
L 2194 1984 
L 872 0 
L 191 0 
L 1856 2491 
L 403 4666 
z
" transform="scale(0.015625)"/>
      </defs>
      <use xlink:href="#DejaVuSans-58"/>
     </g>
    </g>
   </g>
   <g id="line2d_54">
    <path d="M 470.785019 96.259799 
L 470.785019 142.613798 
" clip-path="url(#pd42ba9795f)" style="fill: none; stroke-dasharray: 3.7,1.6; stroke-dashoffset: 0; stroke: #000000"/>
   </g>
   <g id="line2d_55">
    <path d="M 470.785019 142.613798 
L 470.785019 188.967797 
" clip-path="url(#pd42ba9795f)" style="fill: none; stroke-dasharray: 3.7,1.6; stroke-dashoffset: 0; stroke: #000000"/>
   </g>
   <g id="line2d_56">
    <path d="M 470.785019 188.967797 
L 470.785019 235.321797 
" clip-path="url(#pd42ba9795f)" style="fill: none; stroke-dasharray: 3.7,1.6; stroke-dashoffset: 0; stroke: #000000"/>
   </g>
   <g id="line2d_57">
    <path d="M 470.785019 235.321797 
L 470.785019 281.675796 
" clip-path="url(#pd42ba9795f)" style="fill: none; stroke-dasharray: 3.7,1.6; stroke-dashoffset: 0; stroke: #000000"/>
   </g>
   <g id="text_16">
    <g clip-path="url(#pd42ba9795f)">
     <!-- X -->
     <g transform="translate(512.686519 169.377985) scale(0.13 -0.13)">
      <use xlink:href="#DejaVuSans-58"/>
     </g>
    </g>
   </g>
   <g id="line2d_58">
    <path d="M 609.847017 96.259799 
L 609.847017 142.613798 
" clip-path="url(#pd42ba9795f)" style="fill: none; stroke-dasharray: 3.7,1.6; stroke-dashoffset: 0; stroke: #000000"/>
   </g>
   <g id="line2d_59">
    <path d="M 609.847017 142.613798 
L 609.847017 188.967797 
" clip-path="url(#pd42ba9795f)" style="fill: none; stroke-dasharray: 3.7,1.6; stroke-dashoffset: 0; stroke: #000000"/>
   </g>
   <g id="line2d_60">
    <path d="M 609.847017 188.967797 
L 609.847017 235.321797 
" clip-path="url(#pd42ba9795f)" style="fill: none; stroke-dasharray: 3.7,1.6; stroke-dashoffset: 0; stroke: #000000"/>
   </g>
   <g id="line2d_61">
    <path d="M 609.847017 235.321797 
L 609.847017 281.675796 
" clip-path="url(#pd42ba9795f)" style="fill: none; stroke-dasharray: 3.7,1.6; stroke-dashoffset: 0; stroke: #000000"/>
   </g>
   <g id="text_17">
    <g clip-path="url(#pd42ba9795f)">
     <!-- H -->
     <g transform="translate(651.312814 123.023986) scale(0.13 -0.13)">
      <use xlink:href="#DejaVuSans-48"/>
     </g>
    </g>
   </g>
   <g id="text_18">
    <g clip-path="url(#pd42ba9795f)">
     <!-- H -->
     <g transform="translate(651.312814 169.377985) scale(0.13 -0.13)">
      <use xlink:href="#DejaVuSans-48"/>
     </g>
    </g>
   </g>
   <g id="line2d_62">
    <path d="M 748.909016 96.259799 
L 748.909016 142.613798 
" clip-path="url(#pd42ba9795f)" style="fill: none; stroke-dasharray: 3.7,1.6; stroke-dashoffset: 0; stroke: #000000"/>
   </g>
   <g id="line2d_63">
    <path d="M 748.909016 142.613798 
L 748.909016 188.967797 
" clip-path="url(#pd42ba9795f)" style="fill: none; stroke-dasharray: 3.7,1.6; stroke-dashoffset: 0; stroke: #000000"/>
   </g>
   <g id="line2d_64">
    <path d="M 748.909016 188.967797 
L 748.909016 235.321797 
" clip-path="url(#pd42ba9795f)" style="fill: none; stroke-dasharray: 3.7,1.6; stroke-dashoffset: 0; stroke: #000000"/>
   </g>
   <g id="line2d_65">
    <path d="M 748.909016 235.321797 
L 748.909016 281.675796 
" clip-path="url(#pd42ba9795f)" style="fill: none; stroke-dasharray: 3.7,1.6; stroke-dashoffset: 0; stroke: #000000"/>
   </g>
   <g id="text_19">
    <g clip-path="url(#pd42ba9795f)">
     <!-- X -->
     <g transform="translate(790.810515 123.023986) scale(0.13 -0.13)">
      <use xlink:href="#DejaVuSans-58"/>
     </g>
    </g>
   </g>
   <g id="line2d_66">
    <path d="M 841.617014 96.259799 
L 841.617014 142.613798 
" clip-path="url(#pd42ba9795f)" style="fill: none; stroke-dasharray: 3.7,1.6; stroke-dashoffset: 0; stroke: #000000"/>
   </g>
   <g id="line2d_67">
    <path d="M 841.617014 142.613798 
L 841.617014 188.967797 
" clip-path="url(#pd42ba9795f)" style="fill: none; stroke-dasharray: 3.7,1.6; stroke-dashoffset: 0; stroke: #000000"/>
   </g>
   <g id="line2d_68">
    <path d="M 841.617014 188.967797 
L 841.617014 235.321797 
" clip-path="url(#pd42ba9795f)" style="fill: none; stroke-dasharray: 3.7,1.6; stroke-dashoffset: 0; stroke: #000000"/>
   </g>
   <g id="line2d_69">
    <path d="M 841.617014 235.321797 
L 841.617014 281.675796 
" clip-path="url(#pd42ba9795f)" style="fill: none; stroke-dasharray: 3.7,1.6; stroke-dashoffset: 0; stroke: #000000"/>
   </g>
   <g id="text_20">
    <g clip-path="url(#pd42ba9795f)">
     <!-- X -->
     <g transform="translate(883.518514 169.377985) scale(0.13 -0.13)">
      <use xlink:href="#DejaVuSans-58"/>
     </g>
    </g>
   </g>
   <g id="line2d_70">
    <path d="M 980.679013 96.259799 
L 980.679013 142.613798 
" clip-path="url(#pd42ba9795f)" style="fill: none; stroke-dasharray: 3.7,1.6; stroke-dashoffset: 0; stroke: #000000"/>
   </g>
   <g id="line2d_71">
    <path d="M 980.679013 142.613798 
L 980.679013 188.967797 
" clip-path="url(#pd42ba9795f)" style="fill: none; stroke-dasharray: 3.7,1.6; stroke-dashoffset: 0; stroke: #000000"/>
   </g>
   <g id="line2d_72">
    <path d="M 980.679013 188.967797 
L 980.679013 235.321797 
" clip-path="url(#pd42ba9795f)" style="fill: none; stroke-dasharray: 3.7,1.6; stroke-dashoffset: 0; stroke: #000000"/>
   </g>
   <g id="line2d_73">
    <path d="M 980.679013 235.321797 
L 980.679013 281.675796 
" clip-path="url(#pd42ba9795f)" style="fill: none; stroke-dasharray: 3.7,1.6; stroke-dashoffset: 0; stroke: #000000"/>
   </g>
   <g id="text_21">
    <g clip-path="url(#pd42ba9795f)">
     <!-- H -->
     <g transform="translate(1022.144809 123.023986) scale(0.13 -0.13)">
      <use xlink:href="#DejaVuSans-48"/>
     </g>
    </g>
   </g>
   <g id="text_22">
    <g clip-path="url(#pd42ba9795f)">
     <!-- H -->
     <g transform="translate(1022.144809 169.377985) scale(0.13 -0.13)">
      <use xlink:href="#DejaVuSans-48"/>
     </g>
    </g>
   </g>
   <g id="line2d_74">
    <path d="M 1119.741011 96.259799 
L 1119.741011 142.613798 
" clip-path="url(#pd42ba9795f)" style="fill: none; stroke-dasharray: 3.7,1.6; stroke-dashoffset: 0; stroke: #000000"/>
   </g>
   <g id="line2d_75">
    <path d="M 1119.741011 142.613798 
L 1119.741011 188.967797 
" clip-path="url(#pd42ba9795f)" style="fill: none; stroke-dasharray: 3.7,1.6; stroke-dashoffset: 0; stroke: #000000"/>
   </g>
   <g id="line2d_76">
    <path d="M 1119.741011 188.967797 
L 1119.741011 235.321797 
" clip-path="url(#pd42ba9795f)" style="fill: none; stroke-dasharray: 3.7,1.6; stroke-dashoffset: 0; stroke: #000000"/>
   </g>
   <g id="line2d_77">
    <path d="M 1119.741011 235.321797 
L 1119.741011 281.675796 
" clip-path="url(#pd42ba9795f)" style="fill: none; stroke-dasharray: 3.7,1.6; stroke-dashoffset: 0; stroke: #000000"/>
   </g>
   <g id="text_23">
    <g clip-path="url(#pd42ba9795f)">
     <!-- X -->
     <g transform="translate(1161.64251 123.023986) scale(0.13 -0.13)">
      <use xlink:href="#DejaVuSans-58"/>
     </g>
    </g>
   </g>
   <g id="line2d_78">
    <path d="M 1212.449009 96.259799 
L 1212.449009 142.613798 
" clip-path="url(#pd42ba9795f)" style="fill: none; stroke-dasharray: 3.7,1.6; stroke-dashoffset: 0; stroke: #000000"/>
   </g>
   <g id="line2d_79">
    <path d="M 1212.449009 142.613798 
L 1212.449009 188.967797 
" clip-path="url(#pd42ba9795f)" style="fill: none; stroke-dasharray: 3.7,1.6; stroke-dashoffset: 0; stroke: #000000"/>
   </g>
   <g id="line2d_80">
    <path d="M 1212.449009 188.967797 
L 1212.449009 235.321797 
" clip-path="url(#pd42ba9795f)" style="fill: none; stroke-dasharray: 3.7,1.6; stroke-dashoffset: 0; stroke: #000000"/>
   </g>
   <g id="line2d_81">
    <path d="M 1212.449009 235.321797 
L 1212.449009 281.675796 
" clip-path="url(#pd42ba9795f)" style="fill: none; stroke-dasharray: 3.7,1.6; stroke-dashoffset: 0; stroke: #000000"/>
   </g>
   <g id="text_24">
    <g clip-path="url(#pd42ba9795f)">
     <!-- X -->
     <g transform="translate(1254.350509 169.377985) scale(0.13 -0.13)">
      <use xlink:href="#DejaVuSans-58"/>
     </g>
    </g>
   </g>
   <g id="line2d_82">
    <path d="M 1351.511008 96.259799 
L 1351.511008 142.613798 
" clip-path="url(#pd42ba9795f)" style="fill: none; stroke-dasharray: 3.7,1.6; stroke-dashoffset: 0; stroke: #000000"/>
   </g>
   <g id="line2d_83">
    <path d="M 1351.511008 142.613798 
L 1351.511008 188.967797 
" clip-path="url(#pd42ba9795f)" style="fill: none; stroke-dasharray: 3.7,1.6; stroke-dashoffset: 0; stroke: #000000"/>
   </g>
   <g id="line2d_84">
    <path d="M 1351.511008 188.967797 
L 1351.511008 235.321797 
" clip-path="url(#pd42ba9795f)" style="fill: none; stroke-dasharray: 3.7,1.6; stroke-dashoffset: 0; stroke: #000000"/>
   </g>
   <g id="line2d_85">
    <path d="M 1351.511008 235.321797 
L 1351.511008 281.675796 
" clip-path="url(#pd42ba9795f)" style="fill: none; stroke-dasharray: 3.7,1.6; stroke-dashoffset: 0; stroke: #000000"/>
   </g>
   <g id="text_25">
    <g clip-path="url(#pd42ba9795f)">
     <!-- 0 -->
     <g transform="translate(1409.453507 298.054521) scale(0.104 -0.104)">
      <use xlink:href="#DejaVuSans-30"/>
     </g>
    </g>
   </g>
   <g id="text_26">
    <g clip-path="url(#pd42ba9795f)">
     <!-- 1 -->
     <g transform="translate(296.957522 576.178517) scale(0.104 -0.104)">
      <use xlink:href="#DejaVuSans-31"/>
     </g>
    </g>
   </g>
  </g>
 </g>
 <defs>
  <clipPath id="pd42ba9795f">
   <rect x="202.928666" y="82.353599" width="1225.529981" height="528.435593"/>
  </clipPath>
 </defs>
</svg>
