<?xml version="1.0" encoding="utf-8" standalone="no"?>
<!DOCTYPE svg PUBLIC "-//W3C//DTD SVG 1.1//EN"
  "http://www.w3.org/Graphics/SVG/1.1/DTD/svg11.dtd">
<svg xmlns:xlink="http://www.w3.org/1999/xlink" width="1591.597378pt" height="686.279991pt" viewBox="0 0 1591.597378 686.279991" xmlns="http://www.w3.org/2000/svg" version="1.1">
 <metadata>
  <rdf:RDF xmlns:dc="http://purl.org/dc/elements/1.1/" xmlns:cc="http://creativecommons.org/ns#" xmlns:rdf="http://www.w3.org/1999/02/22-rdf-syntax-ns#">
   <cc:Work>
    <dc:type rdf:resource="http://purl.org/dc/dcmitype/StillImage"/>
    <dc:date>2023-12-21T17:38:39.454122</dc:date>
    <dc:format>image/svg+xml</dc:format>
    <dc:creator>
     <cc:Agent>
      <dc:title>Matplotlib v3.8.2, https://matplotlib.org/</dc:title>
     </cc:Agent>
    </dc:creator>
   </cc:Work>
  </rdf:RDF>
 </metadata>
 <defs>
  <style type="text/css">*{stroke-linejoin: round; stroke-linecap: butt}</style>
 </defs>
 <g id="figure_1">
  <g id="patch_1">
   <path d="M 0 686.279991 
L 1591.597378 686.279991 
L 1591.597378 0 
L 0 0 
z
" style="fill: #ffffff"/>
  </g>
  <g id="axes_1">
   <g id="line2d_1">
    <path d="M 260.337862 119.436798 
L 1423.823247 119.436798 
" clip-path="url(#p8766158441)" style="fill: none; stroke: #000000; stroke-width: 2; stroke-linecap: square"/>
   </g>
   <g id="line2d_2">
    <path d="M 260.337862 165.790798 
L 1423.823247 165.790798 
" clip-path="url(#p8766158441)" style="fill: none; stroke: #000000; stroke-width: 2; stroke-linecap: square"/>
   </g>
   <g id="line2d_3">
    <path d="M 260.337862 212.144797 
L 1423.823247 212.144797 
" clip-path="url(#p8766158441)" style="fill: none; stroke: #000000; stroke-width: 2; stroke-linecap: square"/>
   </g>
   <g id="line2d_4">
    <path d="M 260.337862 258.498797 
L 1423.823247 258.498797 
" clip-path="url(#p8766158441)" style="fill: none; stroke: #000000; stroke-width: 2; stroke-linecap: square"/>
   </g>
   <g id="line2d_5">
    <path d="M 269.608662 309.488196 
L 274.244062 300.217396 
" clip-path="url(#p8766158441)" style="fill: none; stroke: #778899; stroke-width: 1.5; stroke-linecap: square"/>
   </g>
   <g id="line2d_6">
    <path d="M 260.337862 303.346291 
L 1423.823247 303.346291 
" clip-path="url(#p8766158441)" style="fill: none; stroke: #778899; stroke-width: 2; stroke-linecap: square"/>
   </g>
   <g id="line2d_7">
    <path d="M 260.337862 306.359301 
L 1423.823247 306.359301 
" clip-path="url(#p8766158441)" style="fill: none; stroke: #778899; stroke-width: 2; stroke-linecap: square"/>
   </g>
   <g id="line2d_8">
    <path d="M 1423.823247 119.436798 
L 1423.823247 304.852796 
" clip-path="url(#p8766158441)" style="fill: none; stroke: #000000; stroke-width: 1.5; stroke-linecap: square"/>
   </g>
   <g id="line2d_9">
    <path d="M 260.337862 397.560795 
L 1423.823247 397.560795 
" clip-path="url(#p8766158441)" style="fill: none; stroke: #000000; stroke-width: 2; stroke-linecap: square"/>
   </g>
   <g id="line2d_10">
    <path d="M 260.337862 443.914794 
L 1423.823247 443.914794 
" clip-path="url(#p8766158441)" style="fill: none; stroke: #000000; stroke-width: 2; stroke-linecap: square"/>
   </g>
   <g id="line2d_11">
    <path d="M 260.337862 490.268793 
L 1423.823247 490.268793 
" clip-path="url(#p8766158441)" style="fill: none; stroke: #000000; stroke-width: 2; stroke-linecap: square"/>
   </g>
   <g id="line2d_12">
    <path d="M 260.337862 536.622793 
L 1423.823247 536.622793 
" clip-path="url(#p8766158441)" style="fill: none; stroke: #000000; stroke-width: 2; stroke-linecap: square"/>
   </g>
   <g id="line2d_13">
    <path d="M 269.608662 587.612192 
L 274.244062 578.341392 
" clip-path="url(#p8766158441)" style="fill: none; stroke: #778899; stroke-width: 1.5; stroke-linecap: square"/>
   </g>
   <g id="line2d_14">
    <path d="M 260.337862 581.470287 
L 1423.823247 581.470287 
" clip-path="url(#p8766158441)" style="fill: none; stroke: #778899; stroke-width: 2; stroke-linecap: square"/>
   </g>
   <g id="line2d_15">
    <path d="M 260.337862 584.483297 
L 1423.823247 584.483297 
" clip-path="url(#p8766158441)" style="fill: none; stroke: #778899; stroke-width: 2; stroke-linecap: square"/>
   </g>
   <g id="line2d_16">
    <path d="M 259.874322 397.560795 
L 259.874322 582.976792 
" clip-path="url(#p8766158441)" style="fill: none; stroke: #000000; stroke-width: 1.5; stroke-linecap: square"/>
   </g>
   <g id="patch_2">
    <path d="M 372.051001 572.431257 
L 384.10304 572.431257 
L 378.077021 581.122632 
z
" clip-path="url(#p8766158441)" style="fill: #778899"/>
   </g>
   <g id="patch_3">
    <path d="M 418.405 572.431257 
L 430.45704 572.431257 
L 424.43102 581.122632 
z
" clip-path="url(#p8766158441)" style="fill: #778899"/>
   </g>
   <g id="patch_4">
    <path d="M 464.758999 572.431257 
L 476.811039 572.431257 
L 470.785019 581.122632 
z
" clip-path="url(#p8766158441)" style="fill: #778899"/>
   </g>
   <g id="patch_5">
    <path d="M 511.112999 572.431257 
L 523.165039 572.431257 
L 517.139019 581.122632 
z
" clip-path="url(#p8766158441)" style="fill: #778899"/>
   </g>
   <g id="patch_6">
    <path d="M 255.702462 96.259799 
L -903.147522 96.259799 
L -903.147522 374.383795 
L 255.702462 374.383795 
z
" clip-path="url(#p8766158441)" style="fill: #ffffff; stroke: #ffffff; stroke-width: 1.5; stroke-linejoin: miter"/>
   </g>
   <g id="patch_7">
    <path d="M 255.702462 374.383795 
L -903.147522 374.383795 
L -903.147522 930.631788 
L 255.702462 930.631788 
z
" clip-path="url(#p8766158441)" style="fill: #ffffff; stroke: #ffffff; stroke-width: 1.5; stroke-linejoin: miter"/>
   </g>
   <g id="line2d_17">
    <path d="M 331.723021 212.144797 
L 331.723021 119.436798 
" clip-path="url(#p8766158441)" style="fill: none; stroke: #6fa4ff; stroke-width: 2; stroke-linecap: square"/>
   </g>
   <g id="line2d_18">
    <path d="M 470.785019 258.498797 
L 470.785019 165.790798 
" clip-path="url(#p8766158441)" style="fill: none; stroke: #6fa4ff; stroke-width: 2; stroke-linecap: square"/>
   </g>
   <g id="line2d_19">
    <path d="M 609.847017 212.144797 
L 609.847017 119.436798 
" clip-path="url(#p8766158441)" style="fill: none; stroke: #6fa4ff; stroke-width: 2; stroke-linecap: square"/>
   </g>
   <g id="line2d_20">
    <path d="M 748.909016 258.498797 
L 748.909016 165.790798 
" clip-path="url(#p8766158441)" style="fill: none; stroke: #6fa4ff; stroke-width: 2; stroke-linecap: square"/>
   </g>
   <g id="line2d_21">
    <path d="M 887.971014 212.144797 
L 887.971014 119.436798 
" clip-path="url(#p8766158441)" style="fill: none; stroke: #6fa4ff; stroke-width: 2; stroke-linecap: square"/>
   </g>
   <g id="line2d_22">
    <path d="M 1027.033012 258.498797 
L 1027.033012 165.790798 
" clip-path="url(#p8766158441)" style="fill: none; stroke: #6fa4ff; stroke-width: 2; stroke-linecap: square"/>
   </g>
   <g id="line2d_23">
    <path d="M 1166.09501 212.144797 
L 1166.09501 119.436798 
" clip-path="url(#p8766158441)" style="fill: none; stroke: #6fa4ff; stroke-width: 2; stroke-linecap: square"/>
   </g>
   <g id="line2d_24">
    <path d="M 1305.157008 258.498797 
L 1305.157008 165.790798 
" clip-path="url(#p8766158441)" style="fill: none; stroke: #6fa4ff; stroke-width: 2; stroke-linecap: square"/>
   </g>
   <g id="line2d_25">
    <path d="M 285.369022 490.268793 
L 285.369022 397.560795 
" clip-path="url(#p8766158441)" style="fill: none; stroke: #6fa4ff; stroke-width: 2; stroke-linecap: square"/>
   </g>
   <g id="line2d_26">
    <path d="M 379.583526 397.560795 
L 379.583526 572.431257 
" clip-path="url(#p8766158441)" style="fill: none; stroke: #778899; stroke-width: 2; stroke-linecap: square"/>
   </g>
   <g id="line2d_27">
    <path d="M 376.570516 397.560795 
L 376.570516 572.431257 
" clip-path="url(#p8766158441)" style="fill: none; stroke: #778899; stroke-width: 2; stroke-linecap: square"/>
   </g>
   <g id="line2d_28">
    <path d="M 425.937525 443.914794 
L 425.937525 572.431257 
" clip-path="url(#p8766158441)" style="fill: none; stroke: #778899; stroke-width: 2; stroke-linecap: square"/>
   </g>
   <g id="line2d_29">
    <path d="M 422.924515 443.914794 
L 422.924515 572.431257 
" clip-path="url(#p8766158441)" style="fill: none; stroke: #778899; stroke-width: 2; stroke-linecap: square"/>
   </g>
   <g id="line2d_30">
    <path d="M 472.291524 490.268793 
L 472.291524 572.431257 
" clip-path="url(#p8766158441)" style="fill: none; stroke: #778899; stroke-width: 2; stroke-linecap: square"/>
   </g>
   <g id="line2d_31">
    <path d="M 469.278514 490.268793 
L 469.278514 572.431257 
" clip-path="url(#p8766158441)" style="fill: none; stroke: #778899; stroke-width: 2; stroke-linecap: square"/>
   </g>
   <g id="line2d_32">
    <path d="M 518.645524 536.622793 
L 518.645524 572.431257 
" clip-path="url(#p8766158441)" style="fill: none; stroke: #778899; stroke-width: 2; stroke-linecap: square"/>
   </g>
   <g id="line2d_33">
    <path d="M 515.632514 536.622793 
L 515.632514 572.431257 
" clip-path="url(#p8766158441)" style="fill: none; stroke: #778899; stroke-width: 2; stroke-linecap: square"/>
   </g>
   <g id="patch_8">
    <path d="M 369.037991 142.613798 
L 387.11605 142.613798 
L 387.11605 96.259799 
L 369.037991 96.259799 
z
" clip-path="url(#p8766158441)" style="fill: #bdbdbd; opacity: 0.6"/>
   </g>
   <g id="patch_9">
    <path d="M 369.037991 188.967797 
L 387.11605 188.967797 
L 387.11605 142.613798 
L 369.037991 142.613798 
z
" clip-path="url(#p8766158441)" style="fill: #bdbdbd; opacity: 0.6"/>
   </g>
   <g id="patch_10">
    <path d="M 369.037991 235.321797 
L 387.11605 235.321797 
L 387.11605 188.967797 
L 369.037991 188.967797 
z
" clip-path="url(#p8766158441)" style="fill: #bdbdbd; opacity: 0.6"/>
   </g>
   <g id="patch_11">
    <path d="M 369.037991 281.675796 
L 387.11605 281.675796 
L 387.11605 235.321797 
L 369.037991 235.321797 
z
" clip-path="url(#p8766158441)" style="fill: #bdbdbd; opacity: 0.6"/>
   </g>
   <g id="patch_12">
    <path d="M 508.099989 142.613798 
L 526.178049 142.613798 
L 526.178049 96.259799 
L 508.099989 96.259799 
z
" clip-path="url(#p8766158441)" style="fill: #bdbdbd; opacity: 0.6"/>
   </g>
   <g id="patch_13">
    <path d="M 508.099989 188.967797 
L 526.178049 188.967797 
L 526.178049 142.613798 
L 508.099989 142.613798 
z
" clip-path="url(#p8766158441)" style="fill: #bdbdbd; opacity: 0.6"/>
   </g>
   <g id="patch_14">
    <path d="M 508.099989 235.321797 
L 526.178049 235.321797 
L 526.178049 188.967797 
L 508.099989 188.967797 
z
" clip-path="url(#p8766158441)" style="fill: #bdbdbd; opacity: 0.6"/>
   </g>
   <g id="patch_15">
    <path d="M 508.099989 281.675796 
L 526.178049 281.675796 
L 526.178049 235.321797 
L 508.099989 235.321797 
z
" clip-path="url(#p8766158441)" style="fill: #bdbdbd; opacity: 0.6"/>
   </g>
   <g id="patch_16">
    <path d="M 647.161987 142.613798 
L 665.240047 142.613798 
L 665.240047 96.259799 
L 647.161987 96.259799 
z
" clip-path="url(#p8766158441)" style="fill: #bdbdbd; opacity: 0.6"/>
   </g>
   <g id="patch_17">
    <path d="M 647.161987 188.967797 
L 665.240047 188.967797 
L 665.240047 142.613798 
L 647.161987 142.613798 
z
" clip-path="url(#p8766158441)" style="fill: #bdbdbd; opacity: 0.6"/>
   </g>
   <g id="patch_18">
    <path d="M 647.161987 235.321797 
L 665.240047 235.321797 
L 665.240047 188.967797 
L 647.161987 188.967797 
z
" clip-path="url(#p8766158441)" style="fill: #bdbdbd; opacity: 0.6"/>
   </g>
   <g id="patch_19">
    <path d="M 647.161987 281.675796 
L 665.240047 281.675796 
L 665.240047 235.321797 
L 647.161987 235.321797 
z
" clip-path="url(#p8766158441)" style="fill: #bdbdbd; opacity: 0.6"/>
   </g>
   <g id="patch_20">
    <path d="M 786.223985 142.613798 
L 804.302045 142.613798 
L 804.302045 96.259799 
L 786.223985 96.259799 
z
" clip-path="url(#p8766158441)" style="fill: #bdbdbd; opacity: 0.6"/>
   </g>
   <g id="patch_21">
    <path d="M 786.223985 188.967797 
L 804.302045 188.967797 
L 804.302045 142.613798 
L 786.223985 142.613798 
z
" clip-path="url(#p8766158441)" style="fill: #bdbdbd; opacity: 0.6"/>
   </g>
   <g id="patch_22">
    <path d="M 786.223985 235.321797 
L 804.302045 235.321797 
L 804.302045 188.967797 
L 786.223985 188.967797 
z
" clip-path="url(#p8766158441)" style="fill: #bdbdbd; opacity: 0.6"/>
   </g>
   <g id="patch_23">
    <path d="M 786.223985 281.675796 
L 804.302045 281.675796 
L 804.302045 235.321797 
L 786.223985 235.321797 
z
" clip-path="url(#p8766158441)" style="fill: #bdbdbd; opacity: 0.6"/>
   </g>
   <g id="patch_24">
    <path d="M 925.285983 142.613798 
L 943.364043 142.613798 
L 943.364043 96.259799 
L 925.285983 96.259799 
z
" clip-path="url(#p8766158441)" style="fill: #bdbdbd; opacity: 0.6"/>
   </g>
   <g id="patch_25">
    <path d="M 925.285983 188.967797 
L 943.364043 188.967797 
L 943.364043 142.613798 
L 925.285983 142.613798 
z
" clip-path="url(#p8766158441)" style="fill: #bdbdbd; opacity: 0.6"/>
   </g>
   <g id="patch_26">
    <path d="M 925.285983 235.321797 
L 943.364043 235.321797 
L 943.364043 188.967797 
L 925.285983 188.967797 
z
" clip-path="url(#p8766158441)" style="fill: #bdbdbd; opacity: 0.6"/>
   </g>
   <g id="patch_27">
    <path d="M 925.285983 281.675796 
L 943.364043 281.675796 
L 943.364043 235.321797 
L 925.285983 235.321797 
z
" clip-path="url(#p8766158441)" style="fill: #bdbdbd; opacity: 0.6"/>
   </g>
   <g id="patch_28">
    <path d="M 1064.347981 142.613798 
L 1082.426041 142.613798 
L 1082.426041 96.259799 
L 1064.347981 96.259799 
z
" clip-path="url(#p8766158441)" style="fill: #bdbdbd; opacity: 0.6"/>
   </g>
   <g id="patch_29">
    <path d="M 1064.347981 188.967797 
L 1082.426041 188.967797 
L 1082.426041 142.613798 
L 1064.347981 142.613798 
z
" clip-path="url(#p8766158441)" style="fill: #bdbdbd; opacity: 0.6"/>
   </g>
   <g id="patch_30">
    <path d="M 1064.347981 235.321797 
L 1082.426041 235.321797 
L 1082.426041 188.967797 
L 1064.347981 188.967797 
z
" clip-path="url(#p8766158441)" style="fill: #bdbdbd; opacity: 0.6"/>
   </g>
   <g id="patch_31">
    <path d="M 1064.347981 281.675796 
L 1082.426041 281.675796 
L 1082.426041 235.321797 
L 1064.347981 235.321797 
z
" clip-path="url(#p8766158441)" style="fill: #bdbdbd; opacity: 0.6"/>
   </g>
   <g id="patch_32">
    <path d="M 1203.40998 142.613798 
L 1221.488039 142.613798 
L 1221.488039 96.259799 
L 1203.40998 96.259799 
z
" clip-path="url(#p8766158441)" style="fill: #bdbdbd; opacity: 0.6"/>
   </g>
   <g id="patch_33">
    <path d="M 1203.40998 188.967797 
L 1221.488039 188.967797 
L 1221.488039 142.613798 
L 1203.40998 142.613798 
z
" clip-path="url(#p8766158441)" style="fill: #bdbdbd; opacity: 0.6"/>
   </g>
   <g id="patch_34">
    <path d="M 1203.40998 235.321797 
L 1221.488039 235.321797 
L 1221.488039 188.967797 
L 1203.40998 188.967797 
z
" clip-path="url(#p8766158441)" style="fill: #bdbdbd; opacity: 0.6"/>
   </g>
   <g id="patch_35">
    <path d="M 1203.40998 281.675796 
L 1221.488039 281.675796 
L 1221.488039 235.321797 
L 1203.40998 235.321797 
z
" clip-path="url(#p8766158441)" style="fill: #bdbdbd; opacity: 0.6"/>
   </g>
   <g id="patch_36">
    <path d="M 1342.471978 142.613798 
L 1360.550038 142.613798 
L 1360.550038 96.259799 
L 1342.471978 96.259799 
z
" clip-path="url(#p8766158441)" style="fill: #bdbdbd; opacity: 0.6"/>
   </g>
   <g id="patch_37">
    <path d="M 1342.471978 188.967797 
L 1360.550038 188.967797 
L 1360.550038 142.613798 
L 1342.471978 142.613798 
z
" clip-path="url(#p8766158441)" style="fill: #bdbdbd; opacity: 0.6"/>
   </g>
   <g id="patch_38">
    <path d="M 1342.471978 235.321797 
L 1360.550038 235.321797 
L 1360.550038 188.967797 
L 1342.471978 188.967797 
z
" clip-path="url(#p8766158441)" style="fill: #bdbdbd; opacity: 0.6"/>
   </g>
   <g id="patch_39">
    <path d="M 1342.471978 281.675796 
L 1360.550038 281.675796 
L 1360.550038 235.321797 
L 1342.471978 235.321797 
z
" clip-path="url(#p8766158441)" style="fill: #bdbdbd; opacity: 0.6"/>
   </g>
   <g id="patch_40">
    <path d="M 322.683991 420.737794 
L 340.762051 420.737794 
L 340.762051 374.383795 
L 322.683991 374.383795 
z
" clip-path="url(#p8766158441)" style="fill: #bdbdbd; opacity: 0.6"/>
   </g>
   <g id="patch_41">
    <path d="M 322.683991 467.091794 
L 340.762051 467.091794 
L 340.762051 420.737794 
L 322.683991 420.737794 
z
" clip-path="url(#p8766158441)" style="fill: #bdbdbd; opacity: 0.6"/>
   </g>
   <g id="patch_42">
    <path d="M 322.683991 513.445793 
L 340.762051 513.445793 
L 340.762051 467.091794 
L 322.683991 467.091794 
z
" clip-path="url(#p8766158441)" style="fill: #bdbdbd; opacity: 0.6"/>
   </g>
   <g id="patch_43">
    <path d="M 322.683991 559.799793 
L 340.762051 559.799793 
L 340.762051 513.445793 
L 322.683991 513.445793 
z
" clip-path="url(#p8766158441)" style="fill: #bdbdbd; opacity: 0.6"/>
   </g>
   <g id="patch_44">
    <path d="M 270.303972 134.501848 
L 300.434072 134.501848 
L 300.434072 104.371749 
L 270.303972 104.371749 
z
" clip-path="url(#p8766158441)" style="fill: #6fa4ff; stroke: #6fa4ff; stroke-width: 1.5; stroke-linejoin: miter"/>
   </g>
   <g id="patch_45">
    <path d="M 331.723021 123.956313 
C 332.921611 123.956313 334.07127 123.480109 334.918801 122.632578 
C 335.766332 121.785047 336.242536 120.635388 336.242536 119.436798 
C 336.242536 118.238209 335.766332 117.088549 334.918801 116.241019 
C 334.07127 115.393488 332.921611 114.917283 331.723021 114.917283 
C 330.524432 114.917283 329.374772 115.393488 328.527242 116.241019 
C 327.679711 117.088549 327.203506 118.238209 327.203506 119.436798 
C 327.203506 120.635388 327.679711 121.785047 328.527242 122.632578 
C 329.374772 123.480109 330.524432 123.956313 331.723021 123.956313 
z
" clip-path="url(#p8766158441)" style="fill: #6fa4ff; stroke: #6fa4ff; stroke-width: 1.5; stroke-linejoin: miter"/>
   </g>
   <g id="patch_46">
    <path d="M 331.723021 222.690332 
C 334.51973 222.690332 337.202269 221.579188 339.17984 219.601616 
C 341.157412 217.624045 342.268556 214.941506 342.268556 212.144797 
C 342.268556 209.348089 341.157412 206.66555 339.17984 204.687978 
C 337.202269 202.710406 334.51973 201.599262 331.723021 201.599262 
C 328.926313 201.599262 326.243774 202.710406 324.266202 204.687978 
C 322.28863 206.66555 321.177486 209.348089 321.177486 212.144797 
C 321.177486 214.941506 322.28863 217.624045 324.266202 219.601616 
C 326.243774 221.579188 328.926313 222.690332 331.723021 222.690332 
z
" clip-path="url(#p8766158441)" style="fill: #6fa4ff; stroke: #6fa4ff; stroke-width: 2; stroke-linejoin: miter"/>
   </g>
   <g id="patch_47">
    <path d="M 409.36597 180.855848 
L 439.49607 180.855848 
L 439.49607 150.725748 
L 409.36597 150.725748 
z
" clip-path="url(#p8766158441)" style="fill: #6fa4ff; stroke: #6fa4ff; stroke-width: 1.5; stroke-linejoin: miter"/>
   </g>
   <g id="patch_48">
    <path d="M 470.785019 170.310313 
C 471.983609 170.310313 473.133268 169.834108 473.980799 168.986577 
C 474.82833 168.139047 475.304534 166.989387 475.304534 165.790798 
C 475.304534 164.592208 474.82833 163.442549 473.980799 162.595018 
C 473.133268 161.747487 471.983609 161.271283 470.785019 161.271283 
C 469.58643 161.271283 468.43677 161.747487 467.58924 162.595018 
C 466.741709 163.442549 466.265504 164.592208 466.265504 165.790798 
C 466.265504 166.989387 466.741709 168.139047 467.58924 168.986577 
C 468.43677 169.834108 469.58643 170.310313 470.785019 170.310313 
z
" clip-path="url(#p8766158441)" style="fill: #6fa4ff; stroke: #6fa4ff; stroke-width: 1.5; stroke-linejoin: miter"/>
   </g>
   <g id="patch_49">
    <path d="M 470.785019 269.044331 
C 473.581728 269.044331 476.264267 267.933187 478.241839 265.955616 
C 480.21941 263.978044 481.330554 261.295505 481.330554 258.498797 
C 481.330554 255.702088 480.21941 253.019549 478.241839 251.041977 
C 476.264267 249.064406 473.581728 247.953262 470.785019 247.953262 
C 467.988311 247.953262 465.305772 249.064406 463.3282 251.041977 
C 461.350629 253.019549 460.239484 255.702088 460.239484 258.498797 
C 460.239484 261.295505 461.350629 263.978044 463.3282 265.955616 
C 465.305772 267.933187 467.988311 269.044331 470.785019 269.044331 
z
" clip-path="url(#p8766158441)" style="fill: #6fa4ff; stroke: #6fa4ff; stroke-width: 2; stroke-linejoin: miter"/>
   </g>
   <g id="patch_50">
    <path d="M 548.427968 134.501848 
L 578.558068 134.501848 
L 578.558068 104.371749 
L 548.427968 104.371749 
z
" clip-path="url(#p8766158441)" style="fill: #6fa4ff; stroke: #6fa4ff; stroke-width: 1.5; stroke-linejoin: miter"/>
   </g>
   <g id="patch_51">
    <path d="M 609.847017 123.956313 
C 611.045607 123.956313 612.195266 123.480109 613.042797 122.632578 
C 613.890328 121.785047 614.366532 120.635388 614.366532 119.436798 
C 614.366532 118.238209 613.890328 117.088549 613.042797 116.241019 
C 612.195266 115.393488 611.045607 114.917283 609.847017 114.917283 
C 608.648428 114.917283 607.498769 115.393488 606.651238 116.241019 
C 605.803707 117.088549 605.327503 118.238209 605.327503 119.436798 
C 605.327503 120.635388 605.803707 121.785047 606.651238 122.632578 
C 607.498769 123.480109 608.648428 123.956313 609.847017 123.956313 
z
" clip-path="url(#p8766158441)" style="fill: #6fa4ff; stroke: #6fa4ff; stroke-width: 1.5; stroke-linejoin: miter"/>
   </g>
   <g id="patch_52">
    <path d="M 609.847017 222.690332 
C 612.643726 222.690332 615.326265 221.579188 617.303837 219.601616 
C 619.281408 217.624045 620.392552 214.941506 620.392552 212.144797 
C 620.392552 209.348089 619.281408 206.66555 617.303837 204.687978 
C 615.326265 202.710406 612.643726 201.599262 609.847017 201.599262 
C 607.050309 201.599262 604.36777 202.710406 602.390198 204.687978 
C 600.412627 206.66555 599.301483 209.348089 599.301483 212.144797 
C 599.301483 214.941506 600.412627 217.624045 602.390198 219.601616 
C 604.36777 221.579188 607.050309 222.690332 609.847017 222.690332 
z
" clip-path="url(#p8766158441)" style="fill: #6fa4ff; stroke: #6fa4ff; stroke-width: 2; stroke-linejoin: miter"/>
   </g>
   <g id="patch_53">
    <path d="M 687.489966 180.855848 
L 717.620066 180.855848 
L 717.620066 150.725748 
L 687.489966 150.725748 
z
" clip-path="url(#p8766158441)" style="fill: #6fa4ff; stroke: #6fa4ff; stroke-width: 1.5; stroke-linejoin: miter"/>
   </g>
   <g id="patch_54">
    <path d="M 748.909016 170.310313 
C 750.107605 170.310313 751.257265 169.834108 752.104795 168.986577 
C 752.952326 168.139047 753.428531 166.989387 753.428531 165.790798 
C 753.428531 164.592208 752.952326 163.442549 752.104795 162.595018 
C 751.257265 161.747487 750.107605 161.271283 748.909016 161.271283 
C 747.710426 161.271283 746.560767 161.747487 745.713236 162.595018 
C 744.865705 163.442549 744.389501 164.592208 744.389501 165.790798 
C 744.389501 166.989387 744.865705 168.139047 745.713236 168.986577 
C 746.560767 169.834108 747.710426 170.310313 748.909016 170.310313 
z
" clip-path="url(#p8766158441)" style="fill: #6fa4ff; stroke: #6fa4ff; stroke-width: 1.5; stroke-linejoin: miter"/>
   </g>
   <g id="patch_55">
    <path d="M 748.909016 269.044331 
C 751.705724 269.044331 754.388263 267.933187 756.365835 265.955616 
C 758.343406 263.978044 759.454551 261.295505 759.454551 258.498797 
C 759.454551 255.702088 758.343406 253.019549 756.365835 251.041977 
C 754.388263 249.064406 751.705724 247.953262 748.909016 247.953262 
C 746.112307 247.953262 743.429768 249.064406 741.452196 251.041977 
C 739.474625 253.019549 738.363481 255.702088 738.363481 258.498797 
C 738.363481 261.295505 739.474625 263.978044 741.452196 265.955616 
C 743.429768 267.933187 746.112307 269.044331 748.909016 269.044331 
z
" clip-path="url(#p8766158441)" style="fill: #6fa4ff; stroke: #6fa4ff; stroke-width: 2; stroke-linejoin: miter"/>
   </g>
   <g id="patch_56">
    <path d="M 826.551965 134.501848 
L 856.682064 134.501848 
L 856.682064 104.371749 
L 826.551965 104.371749 
z
" clip-path="url(#p8766158441)" style="fill: #6fa4ff; stroke: #6fa4ff; stroke-width: 1.5; stroke-linejoin: miter"/>
   </g>
   <g id="patch_57">
    <path d="M 887.971014 123.956313 
C 889.169603 123.956313 890.319263 123.480109 891.166793 122.632578 
C 892.014324 121.785047 892.490529 120.635388 892.490529 119.436798 
C 892.490529 118.238209 892.014324 117.088549 891.166793 116.241019 
C 890.319263 115.393488 889.169603 114.917283 887.971014 114.917283 
C 886.772424 114.917283 885.622765 115.393488 884.775234 116.241019 
C 883.927703 117.088549 883.451499 118.238209 883.451499 119.436798 
C 883.451499 120.635388 883.927703 121.785047 884.775234 122.632578 
C 885.622765 123.480109 886.772424 123.956313 887.971014 123.956313 
z
" clip-path="url(#p8766158441)" style="fill: #6fa4ff; stroke: #6fa4ff; stroke-width: 1.5; stroke-linejoin: miter"/>
   </g>
   <g id="patch_58">
    <path d="M 887.971014 222.690332 
C 890.767722 222.690332 893.450261 221.579188 895.427833 219.601616 
C 897.405405 217.624045 898.516549 214.941506 898.516549 212.144797 
C 898.516549 209.348089 897.405405 206.66555 895.427833 204.687978 
C 893.450261 202.710406 890.767722 201.599262 887.971014 201.599262 
C 885.174305 201.599262 882.491766 202.710406 880.514195 204.687978 
C 878.536623 206.66555 877.425479 209.348089 877.425479 212.144797 
C 877.425479 214.941506 878.536623 217.624045 880.514195 219.601616 
C 882.491766 221.579188 885.174305 222.690332 887.971014 222.690332 
z
" clip-path="url(#p8766158441)" style="fill: #6fa4ff; stroke: #6fa4ff; stroke-width: 2; stroke-linejoin: miter"/>
   </g>
   <g id="patch_59">
    <path d="M 965.613963 180.855848 
L 995.744062 180.855848 
L 995.744062 150.725748 
L 965.613963 150.725748 
z
" clip-path="url(#p8766158441)" style="fill: #6fa4ff; stroke: #6fa4ff; stroke-width: 1.5; stroke-linejoin: miter"/>
   </g>
   <g id="patch_60">
    <path d="M 1027.033012 170.310313 
C 1028.231601 170.310313 1029.381261 169.834108 1030.228792 168.986577 
C 1031.076322 168.139047 1031.552527 166.989387 1031.552527 165.790798 
C 1031.552527 164.592208 1031.076322 163.442549 1030.228792 162.595018 
C 1029.381261 161.747487 1028.231601 161.271283 1027.033012 161.271283 
C 1025.834423 161.271283 1024.684763 161.747487 1023.837232 162.595018 
C 1022.989702 163.442549 1022.513497 164.592208 1022.513497 165.790798 
C 1022.513497 166.989387 1022.989702 168.139047 1023.837232 168.986577 
C 1024.684763 169.834108 1025.834423 170.310313 1027.033012 170.310313 
z
" clip-path="url(#p8766158441)" style="fill: #6fa4ff; stroke: #6fa4ff; stroke-width: 1.5; stroke-linejoin: miter"/>
   </g>
   <g id="patch_61">
    <path d="M 1027.033012 269.044331 
C 1029.82972 269.044331 1032.51226 267.933187 1034.489831 265.955616 
C 1036.467403 263.978044 1037.578547 261.295505 1037.578547 258.498797 
C 1037.578547 255.702088 1036.467403 253.019549 1034.489831 251.041977 
C 1032.51226 249.064406 1029.82972 247.953262 1027.033012 247.953262 
C 1024.236303 247.953262 1021.553764 249.064406 1019.576193 251.041977 
C 1017.598621 253.019549 1016.487477 255.702088 1016.487477 258.498797 
C 1016.487477 261.295505 1017.598621 263.978044 1019.576193 265.955616 
C 1021.553764 267.933187 1024.236303 269.044331 1027.033012 269.044331 
z
" clip-path="url(#p8766158441)" style="fill: #6fa4ff; stroke: #6fa4ff; stroke-width: 2; stroke-linejoin: miter"/>
   </g>
   <g id="patch_62">
    <path d="M 1104.675961 134.501848 
L 1134.806061 134.501848 
L 1134.806061 104.371749 
L 1104.675961 104.371749 
z
" clip-path="url(#p8766158441)" style="fill: #6fa4ff; stroke: #6fa4ff; stroke-width: 1.5; stroke-linejoin: miter"/>
   </g>
   <g id="patch_63">
    <path d="M 1166.09501 123.956313 
C 1167.293599 123.956313 1168.443259 123.480109 1169.29079 122.632578 
C 1170.13832 121.785047 1170.614525 120.635388 1170.614525 119.436798 
C 1170.614525 118.238209 1170.13832 117.088549 1169.29079 116.241019 
C 1168.443259 115.393488 1167.293599 114.917283 1166.09501 114.917283 
C 1164.896421 114.917283 1163.746761 115.393488 1162.89923 116.241019 
C 1162.0517 117.088549 1161.575495 118.238209 1161.575495 119.436798 
C 1161.575495 120.635388 1162.0517 121.785047 1162.89923 122.632578 
C 1163.746761 123.480109 1164.896421 123.956313 1166.09501 123.956313 
z
" clip-path="url(#p8766158441)" style="fill: #6fa4ff; stroke: #6fa4ff; stroke-width: 1.5; stroke-linejoin: miter"/>
   </g>
   <g id="patch_64">
    <path d="M 1166.09501 222.690332 
C 1168.891719 222.690332 1171.574258 221.579188 1173.551829 219.601616 
C 1175.529401 217.624045 1176.640545 214.941506 1176.640545 212.144797 
C 1176.640545 209.348089 1175.529401 206.66555 1173.551829 204.687978 
C 1171.574258 202.710406 1168.891719 201.599262 1166.09501 201.599262 
C 1163.298302 201.599262 1160.615762 202.710406 1158.638191 204.687978 
C 1156.660619 206.66555 1155.549475 209.348089 1155.549475 212.144797 
C 1155.549475 214.941506 1156.660619 217.624045 1158.638191 219.601616 
C 1160.615762 221.579188 1163.298302 222.690332 1166.09501 222.690332 
z
" clip-path="url(#p8766158441)" style="fill: #6fa4ff; stroke: #6fa4ff; stroke-width: 2; stroke-linejoin: miter"/>
   </g>
   <g id="patch_65">
    <path d="M 1243.737959 180.855848 
L 1273.868059 180.855848 
L 1273.868059 150.725748 
L 1243.737959 150.725748 
z
" clip-path="url(#p8766158441)" style="fill: #6fa4ff; stroke: #6fa4ff; stroke-width: 1.5; stroke-linejoin: miter"/>
   </g>
   <g id="patch_66">
    <path d="M 1305.157008 170.310313 
C 1306.355598 170.310313 1307.505257 169.834108 1308.352788 168.986577 
C 1309.200319 168.139047 1309.676523 166.989387 1309.676523 165.790798 
C 1309.676523 164.592208 1309.200319 163.442549 1308.352788 162.595018 
C 1307.505257 161.747487 1306.355598 161.271283 1305.157008 161.271283 
C 1303.958419 161.271283 1302.808759 161.747487 1301.961229 162.595018 
C 1301.113698 163.442549 1300.637493 164.592208 1300.637493 165.790798 
C 1300.637493 166.989387 1301.113698 168.139047 1301.961229 168.986577 
C 1302.808759 169.834108 1303.958419 170.310313 1305.157008 170.310313 
z
" clip-path="url(#p8766158441)" style="fill: #6fa4ff; stroke: #6fa4ff; stroke-width: 1.5; stroke-linejoin: miter"/>
   </g>
   <g id="patch_67">
    <path d="M 1305.157008 269.044331 
C 1307.953717 269.044331 1310.636256 267.933187 1312.613827 265.955616 
C 1314.591399 263.978044 1315.702543 261.295505 1315.702543 258.498797 
C 1315.702543 255.702088 1314.591399 253.019549 1312.613827 251.041977 
C 1310.636256 249.064406 1307.953717 247.953262 1305.157008 247.953262 
C 1302.3603 247.953262 1299.677761 249.064406 1297.700189 251.041977 
C 1295.722617 253.019549 1294.611473 255.702088 1294.611473 258.498797 
C 1294.611473 261.295505 1295.722617 263.978044 1297.700189 265.955616 
C 1299.677761 267.933187 1302.3603 269.044331 1305.157008 269.044331 
z
" clip-path="url(#p8766158441)" style="fill: #6fa4ff; stroke: #6fa4ff; stroke-width: 2; stroke-linejoin: miter"/>
   </g>
   <g id="patch_68">
    <path d="M 1382.799957 134.501848 
L 1412.930057 134.501848 
L 1412.930057 104.371749 
L 1382.799957 104.371749 
z
" clip-path="url(#p8766158441)" style="fill: #6fa4ff; stroke: #6fa4ff; stroke-width: 1.5; stroke-linejoin: miter"/>
   </g>
   <g id="patch_69">
    <path d="M 285.369022 402.08031 
C 286.567611 402.08031 287.717271 401.604105 288.564801 400.756574 
C 289.412332 399.909044 289.888537 398.759384 289.888537 397.560795 
C 289.888537 396.362205 289.412332 395.212546 288.564801 394.365015 
C 287.717271 393.517484 286.567611 393.04128 285.369022 393.04128 
C 284.170432 393.04128 283.020773 393.517484 282.173242 394.365015 
C 281.325711 395.212546 280.849507 396.362205 280.849507 397.560795 
C 280.849507 398.759384 281.325711 399.909044 282.173242 400.756574 
C 283.020773 401.604105 284.170432 402.08031 285.369022 402.08031 
z
" clip-path="url(#p8766158441)" style="fill: #6fa4ff; stroke: #6fa4ff; stroke-width: 1.5; stroke-linejoin: miter"/>
   </g>
   <g id="patch_70">
    <path d="M 285.369022 500.814328 
C 288.16573 500.814328 290.848269 499.703184 292.825841 497.725613 
C 294.803413 495.748041 295.914557 493.065502 295.914557 490.268793 
C 295.914557 487.472085 294.803413 484.789546 292.825841 482.811974 
C 290.848269 480.834403 288.16573 479.723259 285.369022 479.723259 
C 282.572313 479.723259 279.889774 480.834403 277.912203 482.811974 
C 275.934631 484.789546 274.823487 487.472085 274.823487 490.268793 
C 274.823487 493.065502 275.934631 495.748041 277.912203 497.725613 
C 279.889774 499.703184 282.572313 500.814328 285.369022 500.814328 
z
" clip-path="url(#p8766158441)" style="fill: #6fa4ff; stroke: #6fa4ff; stroke-width: 2; stroke-linejoin: miter"/>
   </g>
   <g id="patch_71">
    <path d="M 363.011971 412.625845 
L 393.14207 412.625845 
L 393.14207 382.495745 
L 363.011971 382.495745 
z
" clip-path="url(#p8766158441)" style="stroke: #000000; stroke-width: 1.5; stroke-linejoin: miter"/>
   </g>
   <g id="patch_72">
    <path d="M 388.622555 402.08031 
C 388.622555 399.284533 387.510753 396.600403 385.53384 394.62349 
C 383.556927 392.646578 380.872798 391.534775 378.077021 391.534775 
C 375.281243 391.534775 372.597114 392.646578 370.620201 394.62349 
C 368.643288 396.600403 367.531486 399.284533 367.531486 402.08031 
" clip-path="url(#p8766158441)" style="fill: none; stroke: #ffffff; stroke-width: 2; stroke-linejoin: miter"/>
   </g>
   <g id="line2d_34">
    <path d="M 378.077021 402.08031 
L 388.622555 391.534775 
" clip-path="url(#p8766158441)" style="fill: none; stroke: #ffffff; stroke-width: 2; stroke-linecap: square"/>
   </g>
   <g id="patch_73">
    <path d="M 409.36597 458.979844 
L 439.49607 458.979844 
L 439.49607 428.849744 
L 409.36597 428.849744 
z
" clip-path="url(#p8766158441)" style="stroke: #000000; stroke-width: 1.5; stroke-linejoin: miter"/>
   </g>
   <g id="patch_74">
    <path d="M 434.976555 448.434309 
C 434.976555 445.638532 433.864752 442.954403 431.887839 440.97749 
C 429.910926 439.000577 427.226797 437.888774 424.43102 437.888774 
C 421.635243 437.888774 418.951114 439.000577 416.974201 440.97749 
C 414.997288 442.954403 413.885485 445.638532 413.885485 448.434309 
" clip-path="url(#p8766158441)" style="fill: none; stroke: #ffffff; stroke-width: 2; stroke-linejoin: miter"/>
   </g>
   <g id="line2d_35">
    <path d="M 424.43102 448.434309 
L 434.976555 437.888774 
" clip-path="url(#p8766158441)" style="fill: none; stroke: #ffffff; stroke-width: 2; stroke-linecap: square"/>
   </g>
   <g id="patch_75">
    <path d="M 455.71997 505.333843 
L 485.850069 505.333843 
L 485.850069 475.203744 
L 455.71997 475.203744 
z
" clip-path="url(#p8766158441)" style="stroke: #000000; stroke-width: 1.5; stroke-linejoin: miter"/>
   </g>
   <g id="patch_76">
    <path d="M 481.330554 494.788308 
C 481.330554 491.992531 480.218751 489.308402 478.241839 487.331489 
C 476.264926 485.354576 473.580796 484.242774 470.785019 484.242774 
C 467.989242 484.242774 465.305113 485.354576 463.3282 487.331489 
C 461.351287 489.308402 460.239484 491.992531 460.239484 494.788308 
" clip-path="url(#p8766158441)" style="fill: none; stroke: #ffffff; stroke-width: 2; stroke-linejoin: miter"/>
   </g>
   <g id="line2d_36">
    <path d="M 470.785019 494.788308 
L 481.330554 484.242774 
" clip-path="url(#p8766158441)" style="fill: none; stroke: #ffffff; stroke-width: 2; stroke-linecap: square"/>
   </g>
   <g id="patch_77">
    <path d="M 502.073969 551.687843 
L 532.204069 551.687843 
L 532.204069 521.557743 
L 502.073969 521.557743 
z
" clip-path="url(#p8766158441)" style="stroke: #000000; stroke-width: 1.5; stroke-linejoin: miter"/>
   </g>
   <g id="patch_78">
    <path d="M 527.684554 541.142308 
C 527.684554 538.346531 526.572751 535.662402 524.595838 533.685489 
C 522.618925 531.708576 519.934796 530.596773 517.139019 530.596773 
C 514.343242 530.596773 511.659112 531.708576 509.6822 533.685489 
C 507.705287 535.662402 506.593484 538.346531 506.593484 541.142308 
" clip-path="url(#p8766158441)" style="fill: none; stroke: #ffffff; stroke-width: 2; stroke-linejoin: miter"/>
   </g>
   <g id="line2d_37">
    <path d="M 517.139019 541.142308 
L 527.684554 530.596773 
" clip-path="url(#p8766158441)" style="fill: none; stroke: #ffffff; stroke-width: 2; stroke-linecap: square"/>
   </g>
   <g id="line2d_38">
    <path d="M 331.723021 218.170817 
L 331.723021 206.118777 
" clip-path="url(#p8766158441)" style="fill: none; stroke: #ffffff; stroke-width: 2; stroke-linecap: square"/>
   </g>
   <g id="line2d_39">
    <path d="M 325.697001 212.144797 
L 337.749041 212.144797 
" clip-path="url(#p8766158441)" style="fill: none; stroke: #ffffff; stroke-width: 2; stroke-linecap: square"/>
   </g>
   <g id="line2d_40">
    <path d="M 470.785019 264.524816 
L 470.785019 252.472777 
" clip-path="url(#p8766158441)" style="fill: none; stroke: #ffffff; stroke-width: 2; stroke-linecap: square"/>
   </g>
   <g id="line2d_41">
    <path d="M 464.758999 258.498797 
L 476.811039 258.498797 
" clip-path="url(#p8766158441)" style="fill: none; stroke: #ffffff; stroke-width: 2; stroke-linecap: square"/>
   </g>
   <g id="line2d_42">
    <path d="M 609.847017 218.170817 
L 609.847017 206.118777 
" clip-path="url(#p8766158441)" style="fill: none; stroke: #ffffff; stroke-width: 2; stroke-linecap: square"/>
   </g>
   <g id="line2d_43">
    <path d="M 603.820998 212.144797 
L 615.873037 212.144797 
" clip-path="url(#p8766158441)" style="fill: none; stroke: #ffffff; stroke-width: 2; stroke-linecap: square"/>
   </g>
   <g id="line2d_44">
    <path d="M 748.909016 264.524816 
L 748.909016 252.472777 
" clip-path="url(#p8766158441)" style="fill: none; stroke: #ffffff; stroke-width: 2; stroke-linecap: square"/>
   </g>
   <g id="line2d_45">
    <path d="M 742.882996 258.498797 
L 754.935036 258.498797 
" clip-path="url(#p8766158441)" style="fill: none; stroke: #ffffff; stroke-width: 2; stroke-linecap: square"/>
   </g>
   <g id="line2d_46">
    <path d="M 887.971014 218.170817 
L 887.971014 206.118777 
" clip-path="url(#p8766158441)" style="fill: none; stroke: #ffffff; stroke-width: 2; stroke-linecap: square"/>
   </g>
   <g id="line2d_47">
    <path d="M 881.944994 212.144797 
L 893.997034 212.144797 
" clip-path="url(#p8766158441)" style="fill: none; stroke: #ffffff; stroke-width: 2; stroke-linecap: square"/>
   </g>
   <g id="line2d_48">
    <path d="M 1027.033012 264.524816 
L 1027.033012 252.472777 
" clip-path="url(#p8766158441)" style="fill: none; stroke: #ffffff; stroke-width: 2; stroke-linecap: square"/>
   </g>
   <g id="line2d_49">
    <path d="M 1021.006992 258.498797 
L 1033.059032 258.498797 
" clip-path="url(#p8766158441)" style="fill: none; stroke: #ffffff; stroke-width: 2; stroke-linecap: square"/>
   </g>
   <g id="line2d_50">
    <path d="M 1166.09501 218.170817 
L 1166.09501 206.118777 
" clip-path="url(#p8766158441)" style="fill: none; stroke: #ffffff; stroke-width: 2; stroke-linecap: square"/>
   </g>
   <g id="line2d_51">
    <path d="M 1160.06899 212.144797 
L 1172.12103 212.144797 
" clip-path="url(#p8766158441)" style="fill: none; stroke: #ffffff; stroke-width: 2; stroke-linecap: square"/>
   </g>
   <g id="line2d_52">
    <path d="M 1305.157008 264.524816 
L 1305.157008 252.472777 
" clip-path="url(#p8766158441)" style="fill: none; stroke: #ffffff; stroke-width: 2; stroke-linecap: square"/>
   </g>
   <g id="line2d_53">
    <path d="M 1299.130988 258.498797 
L 1311.183028 258.498797 
" clip-path="url(#p8766158441)" style="fill: none; stroke: #ffffff; stroke-width: 2; stroke-linecap: square"/>
   </g>
   <g id="line2d_54">
    <path d="M 285.369022 496.294813 
L 285.369022 484.242774 
" clip-path="url(#p8766158441)" style="fill: none; stroke: #ffffff; stroke-width: 2; stroke-linecap: square"/>
   </g>
   <g id="line2d_55">
    <path d="M 279.343002 490.268793 
L 291.395042 490.268793 
" clip-path="url(#p8766158441)" style="fill: none; stroke: #ffffff; stroke-width: 2; stroke-linecap: square"/>
   </g>
   <g id="text_1">
    <g clip-path="url(#p8766158441)">
     <!-- ${q}_{0}$ -->
     <g transform="translate(233.029562 123.887775) scale(0.1625 -0.1625)">
      <defs>
       <path id="DejaVuSans-Oblique-71" d="M 2669 525 
Q 2438 222 2123 65 
Q 1809 -91 1428 -91 
Q 897 -91 595 267 
Q 294 625 294 1253 
Q 294 1759 480 2231 
Q 666 2703 1013 3078 
Q 1238 3322 1530 3453 
Q 1822 3584 2144 3584 
Q 2531 3584 2781 3431 
Q 3031 3278 3144 2969 
L 3244 3494 
L 3822 3494 
L 2888 -1319 
L 2309 -1319 
L 2669 525 
z
M 891 1338 
Q 891 875 1084 633 
Q 1278 391 1644 391 
Q 2188 391 2572 911 
Q 2956 1431 2956 2175 
Q 2956 2625 2757 2864 
Q 2559 3103 2188 3103 
Q 1916 3103 1684 2976 
Q 1453 2850 1281 2606 
Q 1100 2350 995 2006 
Q 891 1663 891 1338 
z
" transform="scale(0.015625)"/>
       <path id="DejaVuSans-30" d="M 2034 4250 
Q 1547 4250 1301 3770 
Q 1056 3291 1056 2328 
Q 1056 1369 1301 889 
Q 1547 409 2034 409 
Q 2525 409 2770 889 
Q 3016 1369 3016 2328 
Q 3016 3291 2770 3770 
Q 2525 4250 2034 4250 
z
M 2034 4750 
Q 2819 4750 3233 4129 
Q 3647 3509 3647 2328 
Q 3647 1150 3233 529 
Q 2819 -91 2034 -91 
Q 1250 -91 836 529 
Q 422 1150 422 2328 
Q 422 3509 836 4129 
Q 1250 4750 2034 4750 
z
" transform="scale(0.015625)"/>
      </defs>
      <use xlink:href="#DejaVuSans-Oblique-71"/>
      <use xlink:href="#DejaVuSans-30" transform="translate(63.476562 -16.40625) scale(0.7)"/>
     </g>
    </g>
   </g>
   <g id="text_2">
    <g clip-path="url(#p8766158441)">
     <!-- ${q}_{1}$ -->
     <g transform="translate(233.029562 170.241774) scale(0.1625 -0.1625)">
      <defs>
       <path id="DejaVuSans-31" d="M 794 531 
L 1825 531 
L 1825 4091 
L 703 3866 
L 703 4441 
L 1819 4666 
L 2450 4666 
L 2450 531 
L 3481 531 
L 3481 0 
L 794 0 
L 794 531 
z
" transform="scale(0.015625)"/>
      </defs>
      <use xlink:href="#DejaVuSans-Oblique-71"/>
      <use xlink:href="#DejaVuSans-31" transform="translate(63.476562 -16.40625) scale(0.7)"/>
     </g>
    </g>
   </g>
   <g id="text_3">
    <g clip-path="url(#p8766158441)">
     <!-- ${q}_{2}$ -->
     <g transform="translate(233.029562 216.595774) scale(0.1625 -0.1625)">
      <defs>
       <path id="DejaVuSans-32" d="M 1228 531 
L 3431 531 
L 3431 0 
L 469 0 
L 469 531 
Q 828 903 1448 1529 
Q 2069 2156 2228 2338 
Q 2531 2678 2651 2914 
Q 2772 3150 2772 3378 
Q 2772 3750 2511 3984 
Q 2250 4219 1831 4219 
Q 1534 4219 1204 4116 
Q 875 4013 500 3803 
L 500 4441 
Q 881 4594 1212 4672 
Q 1544 4750 1819 4750 
Q 2544 4750 2975 4387 
Q 3406 4025 3406 3419 
Q 3406 3131 3298 2873 
Q 3191 2616 2906 2266 
Q 2828 2175 2409 1742 
Q 1991 1309 1228 531 
z
" transform="scale(0.015625)"/>
      </defs>
      <use xlink:href="#DejaVuSans-Oblique-71"/>
      <use xlink:href="#DejaVuSans-32" transform="translate(63.476562 -16.40625) scale(0.7)"/>
     </g>
    </g>
   </g>
   <g id="text_4">
    <g clip-path="url(#p8766158441)">
     <!-- ${q}_{3}$ -->
     <g transform="translate(233.029562 262.949773) scale(0.1625 -0.1625)">
      <defs>
       <path id="DejaVuSans-33" d="M 2597 2516 
Q 3050 2419 3304 2112 
Q 3559 1806 3559 1356 
Q 3559 666 3084 287 
Q 2609 -91 1734 -91 
Q 1441 -91 1130 -33 
Q 819 25 488 141 
L 488 750 
Q 750 597 1062 519 
Q 1375 441 1716 441 
Q 2309 441 2620 675 
Q 2931 909 2931 1356 
Q 2931 1769 2642 2001 
Q 2353 2234 1838 2234 
L 1294 2234 
L 1294 2753 
L 1863 2753 
Q 2328 2753 2575 2939 
Q 2822 3125 2822 3475 
Q 2822 3834 2567 4026 
Q 2313 4219 1838 4219 
Q 1578 4219 1281 4162 
Q 984 4106 628 3988 
L 628 4550 
Q 988 4650 1302 4700 
Q 1616 4750 1894 4750 
Q 2613 4750 3031 4423 
Q 3450 4097 3450 3541 
Q 3450 3153 3228 2886 
Q 3006 2619 2597 2516 
z
" transform="scale(0.015625)"/>
      </defs>
      <use xlink:href="#DejaVuSans-Oblique-71"/>
      <use xlink:href="#DejaVuSans-33" transform="translate(63.476562 -16.40625) scale(0.7)"/>
     </g>
    </g>
   </g>
   <g id="text_5">
    <g clip-path="url(#p8766158441)">
     <!-- 4 -->
     <g transform="translate(264.973262 298.054521) scale(0.104 -0.104)">
      <defs>
       <path id="DejaVuSans-34" d="M 2419 4116 
L 825 1625 
L 2419 1625 
L 2419 4116 
z
M 2253 4666 
L 3047 4666 
L 3047 1625 
L 3713 1625 
L 3713 1100 
L 3047 1100 
L 3047 0 
L 2419 0 
L 2419 1100 
L 313 1100 
L 313 1709 
L 2253 4666 
z
" transform="scale(0.015625)"/>
      </defs>
      <use xlink:href="#DejaVuSans-34"/>
     </g>
    </g>
   </g>
   <g id="text_6">
    <g clip-path="url(#p8766158441)">
     <!-- c -->
     <g transform="translate(242.132101 309.33678) scale(0.1625 -0.1625)">
      <defs>
       <path id="DejaVuSans-63" d="M 3122 3366 
L 3122 2828 
Q 2878 2963 2633 3030 
Q 2388 3097 2138 3097 
Q 1578 3097 1268 2742 
Q 959 2388 959 1747 
Q 959 1106 1268 751 
Q 1578 397 2138 397 
Q 2388 397 2633 464 
Q 2878 531 3122 666 
L 3122 134 
Q 2881 22 2623 -34 
Q 2366 -91 2075 -91 
Q 1284 -91 818 406 
Q 353 903 353 1747 
Q 353 2603 823 3093 
Q 1294 3584 2113 3584 
Q 2378 3584 2631 3529 
Q 2884 3475 3122 3366 
z
" transform="scale(0.015625)"/>
      </defs>
      <use xlink:href="#DejaVuSans-63"/>
     </g>
    </g>
   </g>
   <g id="text_7">
    <g clip-path="url(#p8766158441)">
     <!-- ${q}_{0}$ -->
     <g transform="translate(233.029562 402.011771) scale(0.1625 -0.1625)">
      <use xlink:href="#DejaVuSans-Oblique-71"/>
      <use xlink:href="#DejaVuSans-30" transform="translate(63.476562 -16.40625) scale(0.7)"/>
     </g>
    </g>
   </g>
   <g id="text_8">
    <g clip-path="url(#p8766158441)">
     <!-- ${q}_{1}$ -->
     <g transform="translate(233.029562 448.365771) scale(0.1625 -0.1625)">
      <use xlink:href="#DejaVuSans-Oblique-71"/>
      <use xlink:href="#DejaVuSans-31" transform="translate(63.476562 -16.40625) scale(0.7)"/>
     </g>
    </g>
   </g>
   <g id="text_9">
    <g clip-path="url(#p8766158441)">
     <!-- ${q}_{2}$ -->
     <g transform="translate(233.029562 494.71977) scale(0.1625 -0.1625)">
      <use xlink:href="#DejaVuSans-Oblique-71"/>
      <use xlink:href="#DejaVuSans-32" transform="translate(63.476562 -16.40625) scale(0.7)"/>
     </g>
    </g>
   </g>
   <g id="text_10">
    <g clip-path="url(#p8766158441)">
     <!-- ${q}_{3}$ -->
     <g transform="translate(233.029562 541.073769) scale(0.1625 -0.1625)">
      <use xlink:href="#DejaVuSans-Oblique-71"/>
      <use xlink:href="#DejaVuSans-33" transform="translate(63.476562 -16.40625) scale(0.7)"/>
     </g>
    </g>
   </g>
   <g id="text_11">
    <g clip-path="url(#p8766158441)">
     <!-- 4 -->
     <g transform="translate(264.973262 576.178517) scale(0.104 -0.104)">
      <use xlink:href="#DejaVuSans-34"/>
     </g>
    </g>
   </g>
   <g id="text_12">
    <g clip-path="url(#p8766158441)">
     <!-- c -->
     <g transform="translate(242.132101 587.460777) scale(0.1625 -0.1625)">
      <use xlink:href="#DejaVuSans-63"/>
     </g>
    </g>
   </g>
   <g id="text_13">
    <g clip-path="url(#p8766158441)">
     <!-- H -->
     <g transform="translate(280.480819 123.023986) scale(0.13 -0.13)">
      <defs>
       <path id="DejaVuSans-48" d="M 628 4666 
L 1259 4666 
L 1259 2753 
L 3553 2753 
L 3553 4666 
L 4184 4666 
L 4184 0 
L 3553 0 
L 3553 2222 
L 1259 2222 
L 1259 0 
L 628 0 
L 628 4666 
z
" transform="scale(0.015625)"/>
      </defs>
      <use xlink:href="#DejaVuSans-48"/>
     </g>
    </g>
   </g>
   <g id="line2d_56">
    <path d="M 378.077021 96.259799 
L 378.077021 142.613798 
" clip-path="url(#p8766158441)" style="fill: none; stroke-dasharray: 3.7,1.6; stroke-dashoffset: 0; stroke: #000000"/>
   </g>
   <g id="line2d_57">
    <path d="M 378.077021 142.613798 
L 378.077021 188.967797 
" clip-path="url(#p8766158441)" style="fill: none; stroke-dasharray: 3.7,1.6; stroke-dashoffset: 0; stroke: #000000"/>
   </g>
   <g id="line2d_58">
    <path d="M 378.077021 188.967797 
L 378.077021 235.321797 
" clip-path="url(#p8766158441)" style="fill: none; stroke-dasharray: 3.7,1.6; stroke-dashoffset: 0; stroke: #000000"/>
   </g>
   <g id="line2d_59">
    <path d="M 378.077021 235.321797 
L 378.077021 281.675796 
" clip-path="url(#p8766158441)" style="fill: none; stroke-dasharray: 3.7,1.6; stroke-dashoffset: 0; stroke: #000000"/>
   </g>
   <g id="text_14">
    <g clip-path="url(#p8766158441)">
     <!-- H -->
     <g transform="translate(419.542817 169.377985) scale(0.13 -0.13)">
      <use xlink:href="#DejaVuSans-48"/>
     </g>
    </g>
   </g>
   <g id="line2d_60">
    <path d="M 517.139019 96.259799 
L 517.139019 142.613798 
" clip-path="url(#p8766158441)" style="fill: none; stroke-dasharray: 3.7,1.6; stroke-dashoffset: 0; stroke: #000000"/>
   </g>
   <g id="line2d_61">
    <path d="M 517.139019 142.613798 
L 517.139019 188.967797 
" clip-path="url(#p8766158441)" style="fill: none; stroke-dasharray: 3.7,1.6; stroke-dashoffset: 0; stroke: #000000"/>
   </g>
   <g id="line2d_62">
    <path d="M 517.139019 188.967797 
L 517.139019 235.321797 
" clip-path="url(#p8766158441)" style="fill: none; stroke-dasharray: 3.7,1.6; stroke-dashoffset: 0; stroke: #000000"/>
   </g>
   <g id="line2d_63">
    <path d="M 517.139019 235.321797 
L 517.139019 281.675796 
" clip-path="url(#p8766158441)" style="fill: none; stroke-dasharray: 3.7,1.6; stroke-dashoffset: 0; stroke: #000000"/>
   </g>
   <g id="text_15">
    <g clip-path="url(#p8766158441)">
     <!-- H -->
     <g transform="translate(558.604815 123.023986) scale(0.13 -0.13)">
      <use xlink:href="#DejaVuSans-48"/>
     </g>
    </g>
   </g>
   <g id="line2d_64">
    <path d="M 656.201017 96.259799 
L 656.201017 142.613798 
" clip-path="url(#p8766158441)" style="fill: none; stroke-dasharray: 3.7,1.6; stroke-dashoffset: 0; stroke: #000000"/>
   </g>
   <g id="line2d_65">
    <path d="M 656.201017 142.613798 
L 656.201017 188.967797 
" clip-path="url(#p8766158441)" style="fill: none; stroke-dasharray: 3.7,1.6; stroke-dashoffset: 0; stroke: #000000"/>
   </g>
   <g id="line2d_66">
    <path d="M 656.201017 188.967797 
L 656.201017 235.321797 
" clip-path="url(#p8766158441)" style="fill: none; stroke-dasharray: 3.7,1.6; stroke-dashoffset: 0; stroke: #000000"/>
   </g>
   <g id="line2d_67">
    <path d="M 656.201017 235.321797 
L 656.201017 281.675796 
" clip-path="url(#p8766158441)" style="fill: none; stroke-dasharray: 3.7,1.6; stroke-dashoffset: 0; stroke: #000000"/>
   </g>
   <g id="text_16">
    <g clip-path="url(#p8766158441)">
     <!-- H -->
     <g transform="translate(697.666813 169.377985) scale(0.13 -0.13)">
      <use xlink:href="#DejaVuSans-48"/>
     </g>
    </g>
   </g>
   <g id="line2d_68">
    <path d="M 795.263015 96.259799 
L 795.263015 142.613798 
" clip-path="url(#p8766158441)" style="fill: none; stroke-dasharray: 3.7,1.6; stroke-dashoffset: 0; stroke: #000000"/>
   </g>
   <g id="line2d_69">
    <path d="M 795.263015 142.613798 
L 795.263015 188.967797 
" clip-path="url(#p8766158441)" style="fill: none; stroke-dasharray: 3.7,1.6; stroke-dashoffset: 0; stroke: #000000"/>
   </g>
   <g id="line2d_70">
    <path d="M 795.263015 188.967797 
L 795.263015 235.321797 
" clip-path="url(#p8766158441)" style="fill: none; stroke-dasharray: 3.7,1.6; stroke-dashoffset: 0; stroke: #000000"/>
   </g>
   <g id="line2d_71">
    <path d="M 795.263015 235.321797 
L 795.263015 281.675796 
" clip-path="url(#p8766158441)" style="fill: none; stroke-dasharray: 3.7,1.6; stroke-dashoffset: 0; stroke: #000000"/>
   </g>
   <g id="text_17">
    <g clip-path="url(#p8766158441)">
     <!-- H -->
     <g transform="translate(836.728811 123.023986) scale(0.13 -0.13)">
      <use xlink:href="#DejaVuSans-48"/>
     </g>
    </g>
   </g>
   <g id="line2d_72">
    <path d="M 934.325013 96.259799 
L 934.325013 142.613798 
" clip-path="url(#p8766158441)" style="fill: none; stroke-dasharray: 3.7,1.6; stroke-dashoffset: 0; stroke: #000000"/>
   </g>
   <g id="line2d_73">
    <path d="M 934.325013 142.613798 
L 934.325013 188.967797 
" clip-path="url(#p8766158441)" style="fill: none; stroke-dasharray: 3.7,1.6; stroke-dashoffset: 0; stroke: #000000"/>
   </g>
   <g id="line2d_74">
    <path d="M 934.325013 188.967797 
L 934.325013 235.321797 
" clip-path="url(#p8766158441)" style="fill: none; stroke-dasharray: 3.7,1.6; stroke-dashoffset: 0; stroke: #000000"/>
   </g>
   <g id="line2d_75">
    <path d="M 934.325013 235.321797 
L 934.325013 281.675796 
" clip-path="url(#p8766158441)" style="fill: none; stroke-dasharray: 3.7,1.6; stroke-dashoffset: 0; stroke: #000000"/>
   </g>
   <g id="text_18">
    <g clip-path="url(#p8766158441)">
     <!-- H -->
     <g transform="translate(975.790809 169.377985) scale(0.13 -0.13)">
      <use xlink:href="#DejaVuSans-48"/>
     </g>
    </g>
   </g>
   <g id="line2d_76">
    <path d="M 1073.387011 96.259799 
L 1073.387011 142.613798 
" clip-path="url(#p8766158441)" style="fill: none; stroke-dasharray: 3.7,1.6; stroke-dashoffset: 0; stroke: #000000"/>
   </g>
   <g id="line2d_77">
    <path d="M 1073.387011 142.613798 
L 1073.387011 188.967797 
" clip-path="url(#p8766158441)" style="fill: none; stroke-dasharray: 3.7,1.6; stroke-dashoffset: 0; stroke: #000000"/>
   </g>
   <g id="line2d_78">
    <path d="M 1073.387011 188.967797 
L 1073.387011 235.321797 
" clip-path="url(#p8766158441)" style="fill: none; stroke-dasharray: 3.7,1.6; stroke-dashoffset: 0; stroke: #000000"/>
   </g>
   <g id="line2d_79">
    <path d="M 1073.387011 235.321797 
L 1073.387011 281.675796 
" clip-path="url(#p8766158441)" style="fill: none; stroke-dasharray: 3.7,1.6; stroke-dashoffset: 0; stroke: #000000"/>
   </g>
   <g id="text_19">
    <g clip-path="url(#p8766158441)">
     <!-- H -->
     <g transform="translate(1114.852808 123.023986) scale(0.13 -0.13)">
      <use xlink:href="#DejaVuSans-48"/>
     </g>
    </g>
   </g>
   <g id="line2d_80">
    <path d="M 1212.449009 96.259799 
L 1212.449009 142.613798 
" clip-path="url(#p8766158441)" style="fill: none; stroke-dasharray: 3.7,1.6; stroke-dashoffset: 0; stroke: #000000"/>
   </g>
   <g id="line2d_81">
    <path d="M 1212.449009 142.613798 
L 1212.449009 188.967797 
" clip-path="url(#p8766158441)" style="fill: none; stroke-dasharray: 3.7,1.6; stroke-dashoffset: 0; stroke: #000000"/>
   </g>
   <g id="line2d_82">
    <path d="M 1212.449009 188.967797 
L 1212.449009 235.321797 
" clip-path="url(#p8766158441)" style="fill: none; stroke-dasharray: 3.7,1.6; stroke-dashoffset: 0; stroke: #000000"/>
   </g>
   <g id="line2d_83">
    <path d="M 1212.449009 235.321797 
L 1212.449009 281.675796 
" clip-path="url(#p8766158441)" style="fill: none; stroke-dasharray: 3.7,1.6; stroke-dashoffset: 0; stroke: #000000"/>
   </g>
   <g id="text_20">
    <g clip-path="url(#p8766158441)">
     <!-- H -->
     <g transform="translate(1253.914806 169.377985) scale(0.13 -0.13)">
      <use xlink:href="#DejaVuSans-48"/>
     </g>
    </g>
   </g>
   <g id="line2d_84">
    <path d="M 1351.511008 96.259799 
L 1351.511008 142.613798 
" clip-path="url(#p8766158441)" style="fill: none; stroke-dasharray: 3.7,1.6; stroke-dashoffset: 0; stroke: #000000"/>
   </g>
   <g id="line2d_85">
    <path d="M 1351.511008 142.613798 
L 1351.511008 188.967797 
" clip-path="url(#p8766158441)" style="fill: none; stroke-dasharray: 3.7,1.6; stroke-dashoffset: 0; stroke: #000000"/>
   </g>
   <g id="line2d_86">
    <path d="M 1351.511008 188.967797 
L 1351.511008 235.321797 
" clip-path="url(#p8766158441)" style="fill: none; stroke-dasharray: 3.7,1.6; stroke-dashoffset: 0; stroke: #000000"/>
   </g>
   <g id="line2d_87">
    <path d="M 1351.511008 235.321797 
L 1351.511008 281.675796 
" clip-path="url(#p8766158441)" style="fill: none; stroke-dasharray: 3.7,1.6; stroke-dashoffset: 0; stroke: #000000"/>
   </g>
   <g id="text_21">
    <g clip-path="url(#p8766158441)">
     <!-- H -->
     <g transform="translate(1392.976804 123.023986) scale(0.13 -0.13)">
      <use xlink:href="#DejaVuSans-48"/>
     </g>
    </g>
   </g>
   <g id="line2d_88">
    <path d="M 331.723021 374.383795 
L 331.723021 420.737794 
" clip-path="url(#p8766158441)" style="fill: none; stroke-dasharray: 3.7,1.6; stroke-dashoffset: 0; stroke: #000000"/>
   </g>
   <g id="line2d_89">
    <path d="M 331.723021 420.737794 
L 331.723021 467.091794 
" clip-path="url(#p8766158441)" style="fill: none; stroke-dasharray: 3.7,1.6; stroke-dashoffset: 0; stroke: #000000"/>
   </g>
   <g id="line2d_90">
    <path d="M 331.723021 467.091794 
L 331.723021 513.445793 
" clip-path="url(#p8766158441)" style="fill: none; stroke-dasharray: 3.7,1.6; stroke-dashoffset: 0; stroke: #000000"/>
   </g>
   <g id="line2d_91">
    <path d="M 331.723021 513.445793 
L 331.723021 559.799793 
" clip-path="url(#p8766158441)" style="fill: none; stroke-dasharray: 3.7,1.6; stroke-dashoffset: 0; stroke: #000000"/>
   </g>
   <g id="text_22">
    <g clip-path="url(#p8766158441)">
     <!-- 0 -->
     <g transform="translate(389.66552 576.178517) scale(0.104 -0.104)">
      <use xlink:href="#DejaVuSans-30"/>
     </g>
    </g>
   </g>
   <g id="text_23">
    <g clip-path="url(#p8766158441)">
     <!-- 1 -->
     <g transform="translate(436.01952 576.178517) scale(0.104 -0.104)">
      <use xlink:href="#DejaVuSans-31"/>
     </g>
    </g>
   </g>
   <g id="text_24">
    <g clip-path="url(#p8766158441)">
     <!-- 2 -->
     <g transform="translate(482.373519 576.178517) scale(0.104 -0.104)">
      <use xlink:href="#DejaVuSans-32"/>
     </g>
    </g>
   </g>
   <g id="text_25">
    <g clip-path="url(#p8766158441)">
     <!-- 3 -->
     <g transform="translate(528.727519 576.178517) scale(0.104 -0.104)">
      <use xlink:href="#DejaVuSans-33"/>
     </g>
    </g>
   </g>
  </g>
 </g>
 <defs>
  <clipPath id="p8766158441">
   <rect x="202.928666" y="82.353599" width="1225.529981" height="528.435593"/>
  </clipPath>
 </defs>
</svg>
