<?xml version="1.0" encoding="utf-8" standalone="no"?>
<!DOCTYPE svg PUBLIC "-//W3C//DTD SVG 1.1//EN"
  "http://www.w3.org/Graphics/SVG/1.1/DTD/svg11.dtd">
<svg xmlns:xlink="http://www.w3.org/1999/xlink" width="1156.925993pt" height="144.479998pt" viewBox="0 0 1156.925993 144.479998" xmlns="http://www.w3.org/2000/svg" version="1.1">
 <metadata>
  <rdf:RDF xmlns:dc="http://purl.org/dc/elements/1.1/" xmlns:cc="http://creativecommons.org/ns#" xmlns:rdf="http://www.w3.org/1999/02/22-rdf-syntax-ns#">
   <cc:Work>
    <dc:type rdf:resource="http://purl.org/dc/dcmitype/StillImage"/>
    <dc:date>2023-12-21T17:38:40.134061</dc:date>
    <dc:format>image/svg+xml</dc:format>
    <dc:creator>
     <cc:Agent>
      <dc:title>Matplotlib v3.8.2, https://matplotlib.org/</dc:title>
     </cc:Agent>
    </dc:creator>
   </cc:Work>
  </rdf:RDF>
 </metadata>
 <defs>
  <style type="text/css">*{stroke-linejoin: round; stroke-linecap: butt}</style>
 </defs>
 <g id="figure_1">
  <g id="patch_1">
   <path d="M 0 144.479998 
L 1156.925993 144.479998 
L 1156.925993 0 
L 0 0 
z
" style="fill: #ffffff"/>
  </g>
  <g id="axes_1">
   <g id="line2d_1">
    <path d="M 194.69829 54.420799 
L 1033.705678 54.420799 
" clip-path="url(#pf5a57aafec)" style="fill: none; stroke: #000000; stroke-width: 2; stroke-linecap: square"/>
   </g>
   <g id="line2d_2">
    <path d="M 203.969089 105.410199 
L 208.604489 96.139399 
" clip-path="url(#pf5a57aafec)" style="fill: none; stroke: #778899; stroke-width: 1.5; stroke-linecap: square"/>
   </g>
   <g id="line2d_3">
    <path d="M 194.69829 99.268294 
L 1033.705678 99.268294 
" clip-path="url(#pf5a57aafec)" style="fill: none; stroke: #778899; stroke-width: 2; stroke-linecap: square"/>
   </g>
   <g id="line2d_4">
    <path d="M 194.69829 102.281304 
L 1033.705678 102.281304 
" clip-path="url(#pf5a57aafec)" style="fill: none; stroke: #778899; stroke-width: 2; stroke-linecap: square"/>
   </g>
   <g id="patch_2">
    <path d="M 1001.721419 90.229264 
L 1013.773459 90.229264 
L 1007.747439 98.920639 
z
" clip-path="url(#pf5a57aafec)" style="fill: #778899"/>
   </g>
   <g id="patch_3">
    <path d="M 190.06289 31.2438 
L -968.787095 31.2438 
L -968.787095 170.305798 
L 190.06289 170.305798 
z
" clip-path="url(#pf5a57aafec)" style="fill: #ffffff; stroke: #ffffff; stroke-width: 1.5; stroke-linejoin: miter"/>
   </g>
   <g id="line2d_5">
    <path d="M 1009.253944 54.420799 
L 1009.253944 90.229264 
" clip-path="url(#pf5a57aafec)" style="fill: none; stroke: #778899; stroke-width: 2; stroke-linecap: square"/>
   </g>
   <g id="line2d_6">
    <path d="M 1006.240934 54.420799 
L 1006.240934 90.229264 
" clip-path="url(#pf5a57aafec)" style="fill: none; stroke: #778899; stroke-width: 2; stroke-linecap: square"/>
   </g>
   <g id="patch_4">
    <path d="M 257.044419 77.597799 
L 275.122479 77.597799 
L 275.122479 31.2438 
L 257.044419 31.2438 
z
" clip-path="url(#pf5a57aafec)" style="fill: #bdbdbd; opacity: 0.6"/>
   </g>
   <g id="patch_5">
    <path d="M 442.460416 77.597799 
L 460.538476 77.597799 
L 460.538476 31.2438 
L 442.460416 31.2438 
z
" clip-path="url(#pf5a57aafec)" style="fill: #bdbdbd; opacity: 0.6"/>
   </g>
   <g id="patch_6">
    <path d="M 581.522414 77.597799 
L 599.600474 77.597799 
L 599.600474 31.2438 
L 581.522414 31.2438 
z
" clip-path="url(#pf5a57aafec)" style="fill: #bdbdbd; opacity: 0.6"/>
   </g>
   <g id="patch_7">
    <path d="M 720.584413 77.597799 
L 738.662472 77.597799 
L 738.662472 31.2438 
L 720.584413 31.2438 
z
" clip-path="url(#pf5a57aafec)" style="fill: #bdbdbd; opacity: 0.6"/>
   </g>
   <g id="patch_8">
    <path d="M 859.646411 77.597799 
L 877.724471 77.597799 
L 877.724471 31.2438 
L 859.646411 31.2438 
z
" clip-path="url(#pf5a57aafec)" style="fill: #bdbdbd; opacity: 0.6"/>
   </g>
   <g id="patch_9">
    <path d="M 952.35441 77.597799 
L 970.432469 77.597799 
L 970.432469 31.2438 
L 952.35441 31.2438 
z
" clip-path="url(#pf5a57aafec)" style="fill: #bdbdbd; opacity: 0.6"/>
   </g>
   <g id="patch_10">
    <path d="M 204.664399 69.485849 
L 234.794499 69.485849 
L 234.794499 39.355749 
L 204.664399 39.355749 
z
" clip-path="url(#pf5a57aafec)" style="fill: #6fa4ff; stroke: #6fa4ff; stroke-width: 1.5; stroke-linejoin: miter"/>
   </g>
   <g id="patch_11">
    <path d="M 297.372398 69.485849 
L 327.502498 69.485849 
L 327.502498 39.355749 
L 297.372398 39.355749 
z
" clip-path="url(#pf5a57aafec)" style="fill: #6fa4ff; stroke: #6fa4ff; stroke-width: 1.5; stroke-linejoin: miter"/>
   </g>
   <g id="patch_12">
    <path d="M 343.726398 69.485849 
L 373.856497 69.485849 
L 373.856497 39.355749 
L 343.726398 39.355749 
z
" clip-path="url(#pf5a57aafec)" style="fill: #05bab6; stroke: #05bab6; stroke-width: 1.5; stroke-linejoin: miter"/>
   </g>
   <g id="patch_13">
    <path d="M 390.080397 69.485849 
L 420.210497 69.485849 
L 420.210497 39.355749 
L 390.080397 39.355749 
z
" clip-path="url(#pf5a57aafec)" style="fill: #6fa4ff; stroke: #6fa4ff; stroke-width: 1.5; stroke-linejoin: miter"/>
   </g>
   <g id="patch_14">
    <path d="M 482.788396 69.485849 
L 512.918495 69.485849 
L 512.918495 39.355749 
L 482.788396 39.355749 
z
" clip-path="url(#pf5a57aafec)" style="fill: #05bab6; stroke: #05bab6; stroke-width: 1.5; stroke-linejoin: miter"/>
   </g>
   <g id="patch_15">
    <path d="M 529.142395 69.485849 
L 559.272495 69.485849 
L 559.272495 39.355749 
L 529.142395 39.355749 
z
" clip-path="url(#pf5a57aafec)" style="fill: #6fa4ff; stroke: #6fa4ff; stroke-width: 1.5; stroke-linejoin: miter"/>
   </g>
   <g id="patch_16">
    <path d="M 621.850394 69.485849 
L 651.980494 69.485849 
L 651.980494 39.355749 
L 621.850394 39.355749 
z
" clip-path="url(#pf5a57aafec)" style="fill: #05bab6; stroke: #05bab6; stroke-width: 1.5; stroke-linejoin: miter"/>
   </g>
   <g id="patch_17">
    <path d="M 668.204393 69.485849 
L 698.334493 69.485849 
L 698.334493 39.355749 
L 668.204393 39.355749 
z
" clip-path="url(#pf5a57aafec)" style="fill: #6fa4ff; stroke: #6fa4ff; stroke-width: 1.5; stroke-linejoin: miter"/>
   </g>
   <g id="patch_18">
    <path d="M 760.912392 69.485849 
L 791.042492 69.485849 
L 791.042492 39.355749 
L 760.912392 39.355749 
z
" clip-path="url(#pf5a57aafec)" style="fill: #05bab6; stroke: #05bab6; stroke-width: 1.5; stroke-linejoin: miter"/>
   </g>
   <g id="patch_19">
    <path d="M 807.266391 69.485849 
L 837.396491 69.485849 
L 837.396491 39.355749 
L 807.266391 39.355749 
z
" clip-path="url(#pf5a57aafec)" style="fill: #6fa4ff; stroke: #6fa4ff; stroke-width: 1.5; stroke-linejoin: miter"/>
   </g>
   <g id="patch_20">
    <path d="M 899.97439 69.485849 
L 930.10449 69.485849 
L 930.10449 39.355749 
L 899.97439 39.355749 
z
" clip-path="url(#pf5a57aafec)" style="fill: #6fa4ff; stroke: #6fa4ff; stroke-width: 1.5; stroke-linejoin: miter"/>
   </g>
   <g id="patch_21">
    <path d="M 992.682389 69.485849 
L 1022.812489 69.485849 
L 1022.812489 39.355749 
L 992.682389 39.355749 
z
" clip-path="url(#pf5a57aafec)" style="stroke: #000000; stroke-width: 1.5; stroke-linejoin: miter"/>
   </g>
   <g id="patch_22">
    <path d="M 1018.292974 58.940314 
C 1018.292974 56.144537 1017.181171 53.460408 1015.204258 51.483495 
C 1013.227345 49.506582 1010.543216 48.394779 1007.747439 48.394779 
C 1004.951662 48.394779 1002.267533 49.506582 1000.29062 51.483495 
C 998.313707 53.460408 997.201904 56.144537 997.201904 58.940314 
" clip-path="url(#pf5a57aafec)" style="fill: none; stroke: #ffffff; stroke-width: 2; stroke-linejoin: miter"/>
   </g>
   <g id="line2d_7">
    <path d="M 1007.747439 58.940314 
L 1018.292974 48.394779 
" clip-path="url(#pf5a57aafec)" style="fill: none; stroke: #ffffff; stroke-width: 2; stroke-linecap: square"/>
   </g>
   <g id="text_1">
    <g clip-path="url(#pf5a57aafec)">
     <!-- ${q}$ -->
     <g transform="translate(175.02749 58.871776) scale(0.1625 -0.1625)">
      <defs>
       <path id="DejaVuSans-Oblique-71" d="M 2669 525 
Q 2438 222 2123 65 
Q 1809 -91 1428 -91 
Q 897 -91 595 267 
Q 294 625 294 1253 
Q 294 1759 480 2231 
Q 666 2703 1013 3078 
Q 1238 3322 1530 3453 
Q 1822 3584 2144 3584 
Q 2531 3584 2781 3431 
Q 3031 3278 3144 2969 
L 3244 3494 
L 3822 3494 
L 2888 -1319 
L 2309 -1319 
L 2669 525 
z
M 891 1338 
Q 891 875 1084 633 
Q 1278 391 1644 391 
Q 2188 391 2572 911 
Q 2956 1431 2956 2175 
Q 2956 2625 2757 2864 
Q 2559 3103 2188 3103 
Q 1916 3103 1684 2976 
Q 1453 2850 1281 2606 
Q 1100 2350 995 2006 
Q 891 1663 891 1338 
z
" transform="scale(0.015625)"/>
      </defs>
      <use xlink:href="#DejaVuSans-Oblique-71"/>
     </g>
    </g>
   </g>
   <g id="text_2">
    <g clip-path="url(#pf5a57aafec)">
     <!-- 1 -->
     <g transform="translate(199.33369 93.976524) scale(0.104 -0.104)">
      <defs>
       <path id="DejaVuSans-31" d="M 794 531 
L 1825 531 
L 1825 4091 
L 703 3866 
L 703 4441 
L 1819 4666 
L 2450 4666 
L 2450 531 
L 3481 531 
L 3481 0 
L 794 0 
L 794 531 
z
" transform="scale(0.015625)"/>
      </defs>
      <use xlink:href="#DejaVuSans-31"/>
     </g>
    </g>
   </g>
   <g id="text_3">
    <g clip-path="url(#pf5a57aafec)">
     <!-- c -->
     <g transform="translate(176.492529 105.258783) scale(0.1625 -0.1625)">
      <defs>
       <path id="DejaVuSans-63" d="M 3122 3366 
L 3122 2828 
Q 2878 2963 2633 3030 
Q 2388 3097 2138 3097 
Q 1578 3097 1268 2742 
Q 959 2388 959 1747 
Q 959 1106 1268 751 
Q 1578 397 2138 397 
Q 2388 397 2633 464 
Q 2878 531 3122 666 
L 3122 134 
Q 2881 22 2623 -34 
Q 2366 -91 2075 -91 
Q 1284 -91 818 406 
Q 353 903 353 1747 
Q 353 2603 823 3093 
Q 1294 3584 2113 3584 
Q 2378 3584 2631 3529 
Q 2884 3475 3122 3366 
z
" transform="scale(0.015625)"/>
      </defs>
      <use xlink:href="#DejaVuSans-63"/>
     </g>
    </g>
   </g>
   <g id="text_4">
    <g clip-path="url(#pf5a57aafec)">
     <!-- H -->
     <g transform="translate(214.841246 58.007987) scale(0.13 -0.13)">
      <defs>
       <path id="DejaVuSans-48" d="M 628 4666 
L 1259 4666 
L 1259 2753 
L 3553 2753 
L 3553 4666 
L 4184 4666 
L 4184 0 
L 3553 0 
L 3553 2222 
L 1259 2222 
L 1259 0 
L 628 0 
L 628 4666 
z
" transform="scale(0.015625)"/>
      </defs>
      <use xlink:href="#DejaVuSans-48"/>
     </g>
    </g>
   </g>
   <g id="line2d_8">
    <path d="M 266.083449 31.2438 
L 266.083449 77.597799 
" clip-path="url(#pf5a57aafec)" style="fill: none; stroke-dasharray: 3.7,1.6; stroke-dashoffset: 0; stroke: #000000"/>
   </g>
   <g id="text_5">
    <g clip-path="url(#pf5a57aafec)">
     <!-- S -->
     <g transform="translate(308.310964 58.007987) scale(0.13 -0.13)">
      <defs>
       <path id="DejaVuSans-53" d="M 3425 4513 
L 3425 3897 
Q 3066 4069 2747 4153 
Q 2428 4238 2131 4238 
Q 1616 4238 1336 4038 
Q 1056 3838 1056 3469 
Q 1056 3159 1242 3001 
Q 1428 2844 1947 2747 
L 2328 2669 
Q 3034 2534 3370 2195 
Q 3706 1856 3706 1288 
Q 3706 609 3251 259 
Q 2797 -91 1919 -91 
Q 1588 -91 1214 -16 
Q 841 59 441 206 
L 441 856 
Q 825 641 1194 531 
Q 1563 422 1919 422 
Q 2459 422 2753 634 
Q 3047 847 3047 1241 
Q 3047 1584 2836 1778 
Q 2625 1972 2144 2069 
L 1759 2144 
Q 1053 2284 737 2584 
Q 422 2884 422 3419 
Q 422 4038 858 4394 
Q 1294 4750 2059 4750 
Q 2388 4750 2728 4690 
Q 3069 4631 3425 4513 
z
" transform="scale(0.015625)"/>
      </defs>
      <use xlink:href="#DejaVuSans-53"/>
     </g>
    </g>
   </g>
   <g id="text_6">
    <g clip-path="url(#pf5a57aafec)">
     <!-- X -->
     <g transform="translate(354.338947 58.007987) scale(0.13 -0.13)">
      <defs>
       <path id="DejaVuSans-58" d="M 403 4666 
L 1081 4666 
L 2241 2931 
L 3406 4666 
L 4084 4666 
L 2584 2425 
L 4184 0 
L 3506 0 
L 2194 1984 
L 872 0 
L 191 0 
L 1856 2491 
L 403 4666 
z
" transform="scale(0.015625)"/>
      </defs>
      <use xlink:href="#DejaVuSans-58"/>
     </g>
    </g>
   </g>
   <g id="text_7">
    <g clip-path="url(#pf5a57aafec)">
     <!-- S -->
     <g transform="translate(401.018962 58.007987) scale(0.13 -0.13)">
      <use xlink:href="#DejaVuSans-53"/>
     </g>
    </g>
   </g>
   <g id="line2d_9">
    <path d="M 451.499446 31.2438 
L 451.499446 77.597799 
" clip-path="url(#pf5a57aafec)" style="fill: none; stroke-dasharray: 3.7,1.6; stroke-dashoffset: 0; stroke: #000000"/>
   </g>
   <g id="text_8">
    <g clip-path="url(#pf5a57aafec)">
     <!-- X -->
     <g transform="translate(493.400946 58.007987) scale(0.13 -0.13)">
      <use xlink:href="#DejaVuSans-58"/>
     </g>
    </g>
   </g>
   <g id="text_9">
    <g clip-path="url(#pf5a57aafec)">
     <!-- S -->
     <g transform="translate(540.080961 58.007987) scale(0.13 -0.13)">
      <use xlink:href="#DejaVuSans-53"/>
     </g>
    </g>
   </g>
   <g id="line2d_10">
    <path d="M 590.561444 31.2438 
L 590.561444 77.597799 
" clip-path="url(#pf5a57aafec)" style="fill: none; stroke-dasharray: 3.7,1.6; stroke-dashoffset: 0; stroke: #000000"/>
   </g>
   <g id="text_10">
    <g clip-path="url(#pf5a57aafec)">
     <!-- X -->
     <g transform="translate(632.462944 58.007987) scale(0.13 -0.13)">
      <use xlink:href="#DejaVuSans-58"/>
     </g>
    </g>
   </g>
   <g id="text_11">
    <g clip-path="url(#pf5a57aafec)">
     <!-- S -->
     <g transform="translate(679.142959 58.007987) scale(0.13 -0.13)">
      <use xlink:href="#DejaVuSans-53"/>
     </g>
    </g>
   </g>
   <g id="line2d_11">
    <path d="M 729.623442 31.2438 
L 729.623442 77.597799 
" clip-path="url(#pf5a57aafec)" style="fill: none; stroke-dasharray: 3.7,1.6; stroke-dashoffset: 0; stroke: #000000"/>
   </g>
   <g id="text_12">
    <g clip-path="url(#pf5a57aafec)">
     <!-- X -->
     <g transform="translate(771.524942 58.007987) scale(0.13 -0.13)">
      <use xlink:href="#DejaVuSans-58"/>
     </g>
    </g>
   </g>
   <g id="text_13">
    <g clip-path="url(#pf5a57aafec)">
     <!-- S -->
     <g transform="translate(818.204957 58.007987) scale(0.13 -0.13)">
      <use xlink:href="#DejaVuSans-53"/>
     </g>
    </g>
   </g>
   <g id="line2d_12">
    <path d="M 868.685441 31.2438 
L 868.685441 77.597799 
" clip-path="url(#pf5a57aafec)" style="fill: none; stroke-dasharray: 3.7,1.6; stroke-dashoffset: 0; stroke: #000000"/>
   </g>
   <g id="text_14">
    <g clip-path="url(#pf5a57aafec)">
     <!-- H -->
     <g transform="translate(910.151237 58.007987) scale(0.13 -0.13)">
      <use xlink:href="#DejaVuSans-48"/>
     </g>
    </g>
   </g>
   <g id="line2d_13">
    <path d="M 961.393439 31.2438 
L 961.393439 77.597799 
" clip-path="url(#pf5a57aafec)" style="fill: none; stroke-dasharray: 3.7,1.6; stroke-dashoffset: 0; stroke: #000000"/>
   </g>
   <g id="text_15">
    <g clip-path="url(#pf5a57aafec)">
     <!-- 0 -->
     <g transform="translate(1019.335939 93.976524) scale(0.104 -0.104)">
      <defs>
       <path id="DejaVuSans-30" d="M 2034 4250 
Q 1547 4250 1301 3770 
Q 1056 3291 1056 2328 
Q 1056 1369 1301 889 
Q 1547 409 2034 409 
Q 2525 409 2770 889 
Q 3016 1369 3016 2328 
Q 3016 3291 2770 3770 
Q 2525 4250 2034 4250 
z
M 2034 4750 
Q 2819 4750 3233 4129 
Q 3647 3509 3647 2328 
Q 3647 1150 3233 529 
Q 2819 -91 2034 -91 
Q 1250 -91 836 529 
Q 422 1150 422 2328 
Q 422 3509 836 4129 
Q 1250 4750 2034 4750 
z
" transform="scale(0.015625)"/>
      </defs>
      <use xlink:href="#DejaVuSans-30"/>
     </g>
    </g>
   </g>
  </g>
 </g>
 <defs>
  <clipPath id="pf5a57aafec">
   <rect x="147.508064" y="17.3376" width="890.833014" height="111.249599"/>
  </clipPath>
 </defs>
</svg>
