<?xml version="1.0" encoding="UTF-8" standalone="no"?>
<svg
   width="52.989403pt"
   height="63.169056pt"
   viewBox="0 0 52.989402 63.169057"
   version="1.1"
   id="svg13"
   sodipodi:docname="cnot.svg"
   xmlns:inkscape="http://www.inkscape.org/namespaces/inkscape"
   xmlns:sodipodi="http://sodipodi.sourceforge.net/DTD/sodipodi-0.dtd"
   xmlns="http://www.w3.org/2000/svg"
   xmlns:svg="http://www.w3.org/2000/svg"
   xmlns:rdf="http://www.w3.org/1999/02/22-rdf-syntax-ns#"
   xmlns:cc="http://creativecommons.org/ns#"
   xmlns:dc="http://purl.org/dc/elements/1.1/">
  <sodipodi:namedview
     id="namedview13"
     pagecolor="#ffffff"
     bordercolor="#000000"
     borderopacity="0.25"
     inkscape:showpageshadow="2"
     inkscape:pageopacity="0.0"
     inkscape:pagecheckerboard="0"
     inkscape:deskcolor="#d1d1d1"
     inkscape:document-units="pt" />
  <metadata
     id="metadata1">
    <rdf:RDF>
      <cc:Work>
        <dc:type
           rdf:resource="http://purl.org/dc/dcmitype/StillImage" />
        <dc:date>2024-02-13T11:50:11.770199</dc:date>
        <dc:format>image/svg+xml</dc:format>
        <dc:creator>
          <cc:Agent>
            <dc:title>Matplotlib v3.8.2, https://matplotlib.org/</dc:title>
          </cc:Agent>
        </dc:creator>
      </cc:Work>
    </rdf:RDF>
  </metadata>
  <defs
     id="defs1">
    <style
       type="text/css"
       id="style1">*{stroke-linejoin: round; stroke-linecap: butt}</style>
  </defs>
  <g
     id="figure_1"
     transform="translate(-63.497252,-39.013685)">
    <g
       id="axes_1">
      <g
         id="line2d_1">
        <path
           d="M 64.497252,44.2832 H 115.48665"
           clip-path="url(#p7c5fa80891)"
           style="fill:none;stroke:#000000;stroke-width:2;stroke-linecap:square"
           id="path2" />
      </g>
      <g
         id="line2d_2">
        <path
           d="M 64.497252,90.637199 H 115.48665"
           clip-path="url(#p7c5fa80891)"
           style="fill:none;stroke:#000000;stroke-width:2;stroke-linecap:square"
           id="path3" />
      </g>
      <g
         id="patch_2" />
      <g
         id="line2d_3">
        <path
           d="M 89.528411,90.637199 V 44.2832"
           clip-path="url(#p7c5fa80891)"
           style="fill:none;stroke:#6fa4ff;stroke-width:2;stroke-linecap:square"
           id="path5" />
      </g>
      <g
         id="patch_3">
        <path
           d="m 89.528411,48.802714 c 1.19859,0 2.348249,-0.476204 3.19578,-1.323735 0.847531,-0.847531 1.323735,-1.99719 1.323735,-3.195779 0,-1.19859 -0.476204,-2.348249 -1.323735,-3.19578 -0.847531,-0.847531 -1.99719,-1.323735 -3.19578,-1.323735 -1.198589,0 -2.348249,0.476204 -3.195779,1.323735 -0.847531,0.847531 -1.323736,1.99719 -1.323736,3.19578 0,1.198589 0.476205,2.348248 1.323736,3.195779 0.84753,0.847531 1.99719,1.323735 3.195779,1.323735 z"
           clip-path="url(#p7c5fa80891)"
           style="fill:#6fa4ff;stroke:#6fa4ff;stroke-width:1.5;stroke-linejoin:miter"
           id="path6" />
      </g>
      <g
         id="patch_4">
        <path
           d="m 89.528411,101.18273 c 2.796709,0 5.479248,-1.11114 7.456819,-3.088712 1.977572,-1.977571 3.08872,-4.660111 3.08872,-7.456819 0,-2.796709 -1.111148,-5.479248 -3.08872,-7.456819 -1.977571,-1.977572 -4.66011,-3.088716 -7.456819,-3.088716 -2.796708,0 -5.479247,1.111144 -7.456819,3.088716 -1.977572,1.977571 -3.088716,4.66011 -3.088716,7.456819 0,2.796708 1.111144,5.479248 3.088716,7.456819 1.977572,1.977572 4.660111,3.088712 7.456819,3.088712 z"
           clip-path="url(#p7c5fa80891)"
           style="fill:#6fa4ff;stroke:#6fa4ff;stroke-width:2;stroke-linejoin:miter"
           id="path7" />
      </g>
      <g
         id="line2d_4">
        <path
           d="M 89.528411,96.663219 V 84.611179"
           clip-path="url(#p7c5fa80891)"
           style="fill:none;stroke:#ffffff;stroke-width:2;stroke-linecap:square"
           id="path8" />
      </g>
      <g
         id="line2d_5">
        <path
           d="m 83.502391,90.637199 h 12.05204"
           clip-path="url(#p7c5fa80891)"
           style="fill:none;stroke:#ffffff;stroke-width:2;stroke-linecap:square"
           id="path9" />
      </g>
      <g
         id="text_1">
        <g
           clip-path="url(#p7c5fa80891)"
           id="g11">
          <!-- ${q}_{0}$ -->
          <g
             transform="matrix(0.1625,0,0,-0.1625,37.188952,48.734176)"
             id="g10">
            <defs
               id="defs9" />
          </g>
        </g>
      </g>
      <g
         id="text_2">
        <g
           clip-path="url(#p7c5fa80891)"
           id="g13">
          <!-- ${q}_{1}$ -->
          <g
             transform="matrix(0.1625,0,0,-0.1625,37.188952,95.088175)"
             id="g12">
            <defs
               id="defs11" />
          </g>
        </g>
      </g>
    </g>
  </g>
  <defs
     id="defs13">
    <clipPath
       id="p7c5fa80891">
      <rect
         x="7.1999998"
         y="7.1999998"
         width="112.92205"
         height="111.2496"
         id="rect13" />
    </clipPath>
  </defs>
</svg>
