<?xml version="1.0" encoding="UTF-8" standalone="no"?>
<svg
   width="1050.431pt"
   height="432pt"
   viewBox="0 0 1050.431 432"
   version="1.1"
   id="svg218"
   sodipodi:docname="hist_walker_step_0_adversarial.svg"
   inkscape:export-filename="hist_walker_step_0_adversarial.svg"
   inkscape:export-xdpi="96"
   inkscape:export-ydpi="96"
   xmlns:inkscape="http://www.inkscape.org/namespaces/inkscape"
   xmlns:sodipodi="http://sodipodi.sourceforge.net/DTD/sodipodi-0.dtd"
   xmlns:xlink="http://www.w3.org/1999/xlink"
   xmlns="http://www.w3.org/2000/svg"
   xmlns:svg="http://www.w3.org/2000/svg"
   xmlns:rdf="http://www.w3.org/1999/02/22-rdf-syntax-ns#"
   xmlns:cc="http://creativecommons.org/ns#"
   xmlns:dc="http://purl.org/dc/elements/1.1/">
  <sodipodi:namedview
     id="namedview218"
     pagecolor="#ffffff"
     bordercolor="#000000"
     borderopacity="0.25"
     inkscape:showpageshadow="2"
     inkscape:pageopacity="0.0"
     inkscape:pagecheckerboard="0"
     inkscape:deskcolor="#d1d1d1"
     inkscape:document-units="pt" />
  <metadata
     id="metadata1">
    <rdf:RDF>
      <cc:Work>
        <dc:type
           rdf:resource="http://purl.org/dc/dcmitype/StillImage" />
        <dc:date>2024-04-02T08:39:25.838631</dc:date>
        <dc:format>image/svg+xml</dc:format>
        <dc:creator>
          <cc:Agent>
            <dc:title>Matplotlib v3.8.3, https://matplotlib.org/</dc:title>
          </cc:Agent>
        </dc:creator>
      </cc:Work>
    </rdf:RDF>
  </metadata>
  <defs
     id="defs1">
    <style
       type="text/css"
       id="style1">*{stroke-linejoin: round; stroke-linecap: butt}</style>
  </defs>
  <g
     id="figure_1"
     transform="translate(-57.524998)">
    <g
       id="patch_1">
      <path
         d="M 57.525,432 H 1107.956 V 0 H 57.525 Z"
         style="fill:#ffffff;stroke-width:1.02083"
         id="path1" />
    </g>
    <g
       id="axes_1">
      <g
         id="patch_2">
        <path
           d="M 126,384.48 H 907.2 V 51.84 H 126 Z"
           style="fill:#ffffff"
           id="path2" />
      </g>
      <g
         id="matplotlib.axis_1">
        <g
           id="xtick_1">
          <g
             id="line2d_1">
            <defs
               id="defs2">
              <path
                 id="m7a688163d6"
                 d="M 0,0 V 3.5"
                 style="stroke:#000000;stroke-width:0.8" />
            </defs>
            <g
               id="g2">
              <use
                 xlink:href="#m7a688163d6"
                 x="236.26508"
                 y="384.48001"
                 style="stroke:#000000;stroke-width:0.8"
                 id="use2" />
            </g>
          </g>
          <g
             id="text_1">
            <!-- 00 -->
            <g
               transform="matrix(0.04788282,-0.13155697,-0.13155697,-0.04788282,236.84868,411.85897)"
               id="g4">
              <defs
                 id="defs3">
                <path
                   id="DejaVuSans-30"
                   d="m 2034,4250 q -487,0 -733,-480 -245,-479 -245,-1442 0,-959 245,-1439 246,-480 733,-480 491,0 736,480 246,480 246,1439 0,963 -246,1442 -245,480 -736,480 z m 0,500 q 785,0 1199,-621 414,-620 414,-1801 0,-1178 -414,-1799 -414,-620 -1199,-620 -784,0 -1198,620 -414,621 -414,1799 0,1181 414,1801 414,621 1198,621 z"
                   transform="scale(0.015625)" />
              </defs>
              <use
                 xlink:href="#DejaVuSans-30"
                 id="use3" />
              <use
                 xlink:href="#DejaVuSans-30"
                 x="63.623047"
                 id="use4" />
            </g>
          </g>
        </g>
        <g
           id="xtick_2">
          <g
             id="line2d_2">
            <g
               id="g5">
              <use
                 xlink:href="#m7a688163d6"
                 x="423.15503"
                 y="384.48001"
                 style="stroke:#000000;stroke-width:0.8"
                 id="use5" />
            </g>
          </g>
          <g
             id="text_2">
            <!-- 01 -->
            <g
               transform="matrix(0.04788282,-0.13155697,-0.13155697,-0.04788282,423.73863,411.85897)"
               id="g7">
              <defs
                 id="defs5">
                <path
                   id="DejaVuSans-31"
                   d="M 794,531 H 1825 V 4091 L 703,3866 v 575 l 1116,225 h 631 V 531 H 3481 V 0 H 794 Z"
                   transform="scale(0.015625)" />
              </defs>
              <use
                 xlink:href="#DejaVuSans-30"
                 id="use6" />
              <use
                 xlink:href="#DejaVuSans-31"
                 x="63.623047"
                 id="use7" />
            </g>
          </g>
        </g>
        <g
           id="xtick_3">
          <g
             id="line2d_3">
            <g
               id="g8">
              <use
                 xlink:href="#m7a688163d6"
                 x="610.04498"
                 y="384.48001"
                 style="stroke:#000000;stroke-width:0.8"
                 id="use8" />
            </g>
          </g>
          <g
             id="text_3">
            <!-- 10 -->
            <g
               transform="matrix(0.04788282,-0.13155697,-0.13155697,-0.04788282,610.62858,411.85897)"
               id="g10">
              <use
                 xlink:href="#DejaVuSans-31"
                 id="use9" />
              <use
                 xlink:href="#DejaVuSans-30"
                 x="63.623047"
                 id="use10" />
            </g>
          </g>
        </g>
        <g
           id="xtick_4">
          <g
             id="line2d_4">
            <g
               id="g11">
              <use
                 xlink:href="#m7a688163d6"
                 x="796.93494"
                 y="384.48001"
                 style="stroke:#000000;stroke-width:0.8"
                 id="use11" />
            </g>
          </g>
          <g
             id="text_4">
            <!-- 11 -->
            <g
               transform="matrix(0.04788282,-0.13155697,-0.13155697,-0.04788282,797.51853,411.85897)"
               id="g13">
              <use
                 xlink:href="#DejaVuSans-31"
                 id="use12" />
              <use
                 xlink:href="#DejaVuSans-31"
                 x="63.623047"
                 id="use13" />
            </g>
          </g>
        </g>
      </g>
      <g
         id="matplotlib.axis_2">
        <g
           id="ytick_1">
          <g
             id="line2d_5">
            <path
               d="M 126,384.48 H 907.2"
               clip-path="url(#pacbbedd7bd)"
               style="fill:none;stroke:#b0b0b0;stroke-width:0.8;stroke-dasharray:2.96, 1.28;stroke-dashoffset:0"
               id="path13" />
          </g>
          <g
             id="line2d_6">
            <defs
               id="defs13">
              <path
                 id="mb338784dc2"
                 d="M 0,0 H -3.5"
                 style="stroke:#000000;stroke-width:0.8" />
            </defs>
            <g
               id="g14">
              <use
                 xlink:href="#mb338784dc2"
                 x="126"
                 y="384.48001"
                 style="stroke:#000000;stroke-width:0.8"
                 id="use14" />
            </g>
          </g>
          <g
             id="text_5">
            <!-- 0.00 -->
            <g
               transform="matrix(0.14,0,0,-0.14,87.828125,389.79891)"
               id="g18">
              <defs
                 id="defs14">
                <path
                   id="DejaVuSans-2e"
                   d="m 684,794 h 660 V 0 H 684 Z"
                   transform="scale(0.015625)" />
              </defs>
              <use
                 xlink:href="#DejaVuSans-30"
                 id="use15" />
              <use
                 xlink:href="#DejaVuSans-2e"
                 x="63.623047"
                 id="use16" />
              <use
                 xlink:href="#DejaVuSans-30"
                 x="95.410156"
                 id="use17" />
              <use
                 xlink:href="#DejaVuSans-30"
                 x="159.0332"
                 id="use18" />
            </g>
          </g>
        </g>
        <g
           id="ytick_2">
          <g
             id="line2d_7">
            <path
               d="M 126,297.93782 H 907.2"
               clip-path="url(#pacbbedd7bd)"
               style="fill:none;stroke:#b0b0b0;stroke-width:0.8;stroke-dasharray:2.96, 1.28;stroke-dashoffset:0"
               id="path18" />
          </g>
          <g
             id="line2d_8">
            <g
               id="g19">
              <use
                 xlink:href="#mb338784dc2"
                 x="126"
                 y="297.93784"
                 style="stroke:#000000;stroke-width:0.8"
                 id="use19" />
            </g>
          </g>
          <g
             id="text_6">
            <!-- 0.15 -->
            <g
               transform="matrix(0.14,0,0,-0.14,87.828125,303.25673)"
               id="g23">
              <defs
                 id="defs19">
                <path
                   id="DejaVuSans-35"
                   d="M 691,4666 H 3169 V 4134 H 1269 V 2991 q 137,47 274,70 138,23 276,23 781,0 1237,-428 457,-428 457,-1159 Q 3513,744 3044,326 2575,-91 1722,-91 1428,-91 1123,-41 819,9 494,109 v 635 q 281,-153 581,-228 300,-75 634,-75 541,0 856,284 316,284 316,772 0,487 -316,771 -315,285 -856,285 -253,0 -505,-56 -251,-56 -513,-175 z"
                   transform="scale(0.015625)" />
              </defs>
              <use
                 xlink:href="#DejaVuSans-30"
                 id="use20" />
              <use
                 xlink:href="#DejaVuSans-2e"
                 x="63.623047"
                 id="use21" />
              <use
                 xlink:href="#DejaVuSans-31"
                 x="95.410156"
                 id="use22" />
              <use
                 xlink:href="#DejaVuSans-35"
                 x="159.0332"
                 id="use23" />
            </g>
          </g>
        </g>
        <g
           id="ytick_3">
          <g
             id="line2d_9">
            <path
               d="M 126,211.39565 H 907.2"
               clip-path="url(#pacbbedd7bd)"
               style="fill:none;stroke:#b0b0b0;stroke-width:0.8;stroke-dasharray:2.96, 1.28;stroke-dashoffset:0"
               id="path23" />
          </g>
          <g
             id="line2d_10">
            <g
               id="g24">
              <use
                 xlink:href="#mb338784dc2"
                 x="126"
                 y="211.39565"
                 style="stroke:#000000;stroke-width:0.8"
                 id="use24" />
            </g>
          </g>
          <g
             id="text_7">
            <!-- 0.30 -->
            <g
               transform="matrix(0.14,0,0,-0.14,87.828125,216.71455)"
               id="g28">
              <defs
                 id="defs24">
                <path
                   id="DejaVuSans-33"
                   d="m 2597,2516 q 453,-97 707,-404 255,-306 255,-756 0,-690 -475,-1069 -475,-378 -1350,-378 -293,0 -604,58 -311,58 -642,174 v 609 q 262,-153 574,-231 313,-78 654,-78 593,0 904,234 311,234 311,681 0,413 -289,645 -289,233 -804,233 h -544 v 519 h 569 q 465,0 712,186 247,186 247,536 0,359 -255,551 -254,193 -729,193 -260,0 -557,-57 -297,-56 -653,-174 v 562 q 360,100 674,150 314,50 592,50 719,0 1137,-327 419,-326 419,-882 0,-388 -222,-655 -222,-267 -631,-370 z"
                   transform="scale(0.015625)" />
              </defs>
              <use
                 xlink:href="#DejaVuSans-30"
                 id="use25" />
              <use
                 xlink:href="#DejaVuSans-2e"
                 x="63.623047"
                 id="use26" />
              <use
                 xlink:href="#DejaVuSans-33"
                 x="95.410156"
                 id="use27" />
              <use
                 xlink:href="#DejaVuSans-30"
                 x="159.0332"
                 id="use28" />
            </g>
          </g>
        </g>
        <g
           id="ytick_4">
          <g
             id="line2d_11">
            <path
               d="M 126,124.85347 H 907.2"
               clip-path="url(#pacbbedd7bd)"
               style="fill:none;stroke:#b0b0b0;stroke-width:0.8;stroke-dasharray:2.96, 1.28;stroke-dashoffset:0"
               id="path28" />
          </g>
          <g
             id="line2d_12">
            <g
               id="g29">
              <use
                 xlink:href="#mb338784dc2"
                 x="126"
                 y="124.85347"
                 style="stroke:#000000;stroke-width:0.8"
                 id="use29" />
            </g>
          </g>
          <g
             id="text_8">
            <!-- 0.45 -->
            <g
               transform="matrix(0.14,0,0,-0.14,87.828125,130.17238)"
               id="g33">
              <defs
                 id="defs29">
                <path
                   id="DejaVuSans-34"
                   d="M 2419,4116 825,1625 h 1594 z m -166,550 h 794 V 1625 h 666 V 1100 H 3047 V 0 H 2419 V 1100 H 313 v 609 z"
                   transform="scale(0.015625)" />
              </defs>
              <use
                 xlink:href="#DejaVuSans-30"
                 id="use30" />
              <use
                 xlink:href="#DejaVuSans-2e"
                 x="63.623047"
                 id="use31" />
              <use
                 xlink:href="#DejaVuSans-34"
                 x="95.410156"
                 id="use32" />
              <use
                 xlink:href="#DejaVuSans-35"
                 x="159.0332"
                 id="use33" />
            </g>
          </g>
        </g>
        <g
           id="text_9">
          <!-- Quasi-probability -->
          <g
             transform="matrix(0,-0.14,-0.14,0,80.916562,277.85906)"
             id="g50">
            <defs
               id="defs33" />
          </g>
        </g>
      </g>
      <g
         id="patch_3">
        <path
           d="m 161.50909,384.48 h 37.37799 V 101.52035 h -37.37799 z"
           clip-path="url(#pacbbedd7bd)"
           style="fill:#648fff"
           id="path50" />
      </g>
      <g
         id="patch_4">
        <path
           d="m 348.39904,384.48 h 37.37799 V 103.25286 h -37.37799 z"
           clip-path="url(#pacbbedd7bd)"
           style="fill:#648fff"
           id="path51" />
      </g>
      <g
         id="patch_5">
        <path
           d="m 535.28899,384.48 h 37.378 v -6.38866 h -37.378 z"
           clip-path="url(#pacbbedd7bd)"
           style="fill:#648fff"
           id="path52" />
      </g>
      <g
         id="patch_6">
        <path
           d="m 722.17895,384.48 h 37.37799 v -6.37239 h -37.37799 z"
           clip-path="url(#pacbbedd7bd)"
           style="fill:#648fff"
           id="path53" />
      </g>
      <g
         id="patch_7">
        <path
           d="m 198.88708,384.48 h 37.37799 V 95.188419 h -37.37799 z"
           clip-path="url(#pacbbedd7bd)"
           style="fill:#dc267f"
           id="path54" />
      </g>
      <g
         id="patch_8">
        <path
           d="m 385.77703,384.48 h 37.37799 V 96.858398 h -37.37799 z"
           clip-path="url(#pacbbedd7bd)"
           style="fill:#dc267f"
           id="path55" />
      </g>
      <g
         id="patch_9">
        <path
           d="m 572.66699,384.48 h 37.37799 v -0.024 h -37.37799 z"
           clip-path="url(#pacbbedd7bd)"
           style="fill:#dc267f"
           id="path56" />
      </g>
      <g
         id="patch_10">
        <path
           d="m 759.55694,384.48 h 37.37799 v -0.0107 h -37.37799 z"
           clip-path="url(#pacbbedd7bd)"
           style="fill:#dc267f"
           id="path57" />
      </g>
      <g
         id="patch_11">
        <path
           d="m 236.26507,384.48 h 37.37799 V 95.216805 h -37.37799 z"
           clip-path="url(#pacbbedd7bd)"
           style="fill:#785ef0"
           id="path58" />
      </g>
      <g
         id="patch_12">
        <path
           d="m 423.15502,384.48 h 37.37799 V 96.795352 h -37.37799 z"
           clip-path="url(#pacbbedd7bd)"
           style="fill:#785ef0"
           id="path59" />
      </g>
      <g
         id="patch_13">
        <path
           d="m 273.64306,384.48 h 37.37799 V 82.08 h -37.37799 z"
           clip-path="url(#pacbbedd7bd)"
           style="fill:#ffb000"
           id="path60" />
      </g>
      <g
         id="patch_14">
        <path
           d="M 460.53301,384.48 H 497.911 V 120.95598 h -37.37799 z"
           clip-path="url(#pacbbedd7bd)"
           style="fill:#ffb000"
           id="path61" />
      </g>
      <g
         id="patch_15">
        <path
           d="m 647.42297,384.48 h 37.37799 v -6.31593 h -37.37799 z"
           clip-path="url(#pacbbedd7bd)"
           style="fill:#ffb000"
           id="path62" />
      </g>
      <g
         id="patch_16">
        <path
           d="m 834.31292,384.48 h 37.37799 v -4.70789 h -37.37799 z"
           clip-path="url(#pacbbedd7bd)"
           style="fill:#ffb000"
           id="path63" />
      </g>
      <g
         id="patch_17">
        <path
           d="M 126,384.48 V 51.84"
           style="fill:none;stroke:#000000;stroke-width:0.8;stroke-linecap:square;stroke-linejoin:miter"
           id="path64" />
      </g>
      <g
         id="patch_18">
        <path
           d="M 907.2,384.48 V 51.84"
           style="fill:none;stroke:#000000;stroke-width:0.8;stroke-linecap:square;stroke-linejoin:miter"
           id="path65" />
      </g>
      <g
         id="patch_19">
        <path
           d="M 126,384.48 H 907.2"
           style="fill:none;stroke:#000000;stroke-width:0.8;stroke-linecap:square;stroke-linejoin:miter"
           id="path66" />
      </g>
      <g
         id="patch_20">
        <path
           d="M 126,51.84 H 907.2"
           style="fill:none;stroke:#000000;stroke-width:0.8;stroke-linecap:square;stroke-linejoin:miter"
           id="path67" />
      </g>
      <g
         id="text_10">
        <!-- 0.49 -->
        <g
           transform="matrix(0.1,0,0,-0.1,169.06527,85.560647)"
           id="g70">
          <defs
             id="defs67">
            <path
               id="DejaVuSans-39"
               d="m 703,97 v 575 q 238,-113 481,-172 244,-59 479,-59 625,0 954,420 330,420 377,1277 -181,-269 -460,-413 -278,-144 -615,-144 -700,0 -1108,423 -408,424 -408,1159 0,718 425,1152 425,435 1131,435 810,0 1236,-621 427,-620 427,-1801 Q 3622,1225 3098,567 2575,-91 1691,-91 1453,-91 1209,-44 966,3 703,97 Z m 1256,1978 q 425,0 673,290 249,291 249,798 0,503 -249,795 -248,292 -673,292 -425,0 -673,-292 -248,-292 -248,-795 0,-507 248,-798 248,-290 673,-290 z"
               transform="scale(0.015625)" />
          </defs>
          <use
             xlink:href="#DejaVuSans-30"
             id="use67" />
          <use
             xlink:href="#DejaVuSans-2e"
             x="63.623047"
             id="use68" />
          <use
             xlink:href="#DejaVuSans-34"
             x="95.410156"
             id="use69" />
          <use
             xlink:href="#DejaVuSans-39"
             x="159.0332"
             id="use70" />
        </g>
      </g>
      <g
         id="text_11">
        <!-- 0.487 -->
        <g
           transform="matrix(0.1,0,0,-0.1,352.77398,87.378033)"
           id="g75">
          <defs
             id="defs70">
            <path
               id="DejaVuSans-38"
               d="m 2034,2216 q -450,0 -708,-241 -257,-241 -257,-662 0,-422 257,-663 258,-241 708,-241 450,0 709,242 260,243 260,662 0,421 -258,662 -257,241 -711,241 z m -631,268 q -406,100 -633,378 -226,279 -226,679 0,559 398,884 399,325 1092,325 697,0 1094,-325 397,-325 397,-884 0,-400 -227,-679 -226,-278 -629,-378 456,-106 710,-416 255,-309 255,-755 Q 3634,634 3220,271 2806,-91 2034,-91 1263,-91 848,271 434,634 434,1313 q 0,446 256,755 257,310 713,416 z m -231,997 q 0,-362 226,-565 227,-203 636,-203 407,0 636,203 230,203 230,565 0,363 -230,566 -229,203 -636,203 -409,0 -636,-203 -226,-203 -226,-566 z"
               transform="scale(0.015625)" />
            <path
               id="DejaVuSans-37"
               d="M 525,4666 H 3525 V 4397 L 1831,0 H 1172 L 2766,4134 H 525 Z"
               transform="scale(0.015625)" />
          </defs>
          <use
             xlink:href="#DejaVuSans-30"
             id="use71" />
          <use
             xlink:href="#DejaVuSans-2e"
             x="63.623047"
             id="use72" />
          <use
             xlink:href="#DejaVuSans-34"
             x="95.410156"
             id="use73" />
          <use
             xlink:href="#DejaVuSans-38"
             x="159.0332"
             id="use74" />
          <use
             xlink:href="#DejaVuSans-37"
             x="222.65625"
             id="use75" />
        </g>
      </g>
      <g
         id="text_12">
        <!-- 0.011 -->
        <g
           transform="matrix(0.1,0,0,-0.1,539.66393,375.73656)"
           id="g80">
          <use
             xlink:href="#DejaVuSans-30"
             id="use76" />
          <use
             xlink:href="#DejaVuSans-2e"
             x="63.623047"
             id="use77" />
          <use
             xlink:href="#DejaVuSans-30"
             x="95.410156"
             id="use78" />
          <use
             xlink:href="#DejaVuSans-31"
             x="159.0332"
             id="use79" />
          <use
             xlink:href="#DejaVuSans-31"
             x="222.65625"
             id="use80" />
        </g>
      </g>
      <g
         id="text_13">
        <!-- 0.011 -->
        <g
           transform="matrix(0.1,0,0,-0.1,726.55388,375.73656)"
           id="g85">
          <use
             xlink:href="#DejaVuSans-30"
             id="use81" />
          <use
             xlink:href="#DejaVuSans-2e"
             x="63.623047"
             id="use82" />
          <use
             xlink:href="#DejaVuSans-30"
             x="95.410156"
             id="use83" />
          <use
             xlink:href="#DejaVuSans-31"
             x="159.0332"
             id="use84" />
          <use
             xlink:href="#DejaVuSans-31"
             x="222.65625"
             id="use85" />
        </g>
      </g>
      <g
         id="text_14">
        <!-- 0.49 -->
        <g
           transform="matrix(0.1,0,0,-0.1,169.06527,85.560647)"
           id="g89">
          <use
             xlink:href="#DejaVuSans-30"
             id="use86" />
          <use
             xlink:href="#DejaVuSans-2e"
             x="63.623047"
             id="use87" />
          <use
             xlink:href="#DejaVuSans-34"
             x="95.410156"
             id="use88" />
          <use
             xlink:href="#DejaVuSans-39"
             x="159.0332"
             id="use89" />
        </g>
      </g>
      <g
         id="text_15">
        <!-- 0.487 -->
        <g
           transform="matrix(0.1,0,0,-0.1,352.77398,87.378033)"
           id="g94">
          <use
             xlink:href="#DejaVuSans-30"
             id="use90" />
          <use
             xlink:href="#DejaVuSans-2e"
             x="63.623047"
             id="use91" />
          <use
             xlink:href="#DejaVuSans-34"
             x="95.410156"
             id="use92" />
          <use
             xlink:href="#DejaVuSans-38"
             x="159.0332"
             id="use93" />
          <use
             xlink:href="#DejaVuSans-37"
             x="222.65625"
             id="use94" />
        </g>
      </g>
      <g
         id="text_16">
        <!-- 0.011 -->
        <g
           transform="matrix(0.1,0,0,-0.1,539.66393,375.73656)"
           id="g99">
          <use
             xlink:href="#DejaVuSans-30"
             id="use95" />
          <use
             xlink:href="#DejaVuSans-2e"
             x="63.623047"
             id="use96" />
          <use
             xlink:href="#DejaVuSans-30"
             x="95.410156"
             id="use97" />
          <use
             xlink:href="#DejaVuSans-31"
             x="159.0332"
             id="use98" />
          <use
             xlink:href="#DejaVuSans-31"
             x="222.65625"
             id="use99" />
        </g>
      </g>
      <g
         id="text_17">
        <!-- 0.011 -->
        <g
           transform="matrix(0.1,0,0,-0.1,726.55388,375.73656)"
           id="g104">
          <use
             xlink:href="#DejaVuSans-30"
             id="use100" />
          <use
             xlink:href="#DejaVuSans-2e"
             x="63.623047"
             id="use101" />
          <use
             xlink:href="#DejaVuSans-30"
             x="95.410156"
             id="use102" />
          <use
             xlink:href="#DejaVuSans-31"
             x="159.0332"
             id="use103" />
          <use
             xlink:href="#DejaVuSans-31"
             x="222.65625"
             id="use104" />
        </g>
      </g>
      <g
         id="text_18">
        <!-- 0.501 -->
        <g
           transform="matrix(0.1,0,0,-0.1,203.26201,78.8969)"
           id="g109">
          <use
             xlink:href="#DejaVuSans-30"
             id="use105" />
          <use
             xlink:href="#DejaVuSans-2e"
             x="63.623047"
             id="use106" />
          <use
             xlink:href="#DejaVuSans-35"
             x="95.410156"
             id="use107" />
          <use
             xlink:href="#DejaVuSans-30"
             x="159.0332"
             id="use108" />
          <use
             xlink:href="#DejaVuSans-31"
             x="222.65625"
             id="use109" />
        </g>
      </g>
      <g
         id="text_19">
        <!-- 0.499 -->
        <g
           transform="matrix(0.1,0,0,-0.1,390.15197,80.10849)"
           id="g114">
          <use
             xlink:href="#DejaVuSans-30"
             id="use110" />
          <use
             xlink:href="#DejaVuSans-2e"
             x="63.623047"
             id="use111" />
          <use
             xlink:href="#DejaVuSans-34"
             x="95.410156"
             id="use112" />
          <use
             xlink:href="#DejaVuSans-39"
             x="159.0332"
             id="use113" />
          <use
             xlink:href="#DejaVuSans-39"
             x="222.65625"
             id="use114" />
        </g>
      </g>
      <g
         id="text_20">
        <!-- 0 -->
        <g
           transform="matrix(0.1,0,0,-0.1,588.17473,382.40031)"
           id="g115">
          <use
             xlink:href="#DejaVuSans-30"
             id="use115" />
        </g>
      </g>
      <g
         id="text_21">
        <!-- 0 -->
        <g
           transform="matrix(0.1,0,0,-0.1,775.06468,382.40031)"
           id="g116">
          <use
             xlink:href="#DejaVuSans-30"
             id="use116" />
        </g>
      </g>
      <g
         id="text_22">
        <!-- 0.49 -->
        <g
           transform="matrix(0.1,0,0,-0.1,169.06527,85.560647)"
           id="g120">
          <use
             xlink:href="#DejaVuSans-30"
             id="use117" />
          <use
             xlink:href="#DejaVuSans-2e"
             x="63.623047"
             id="use118" />
          <use
             xlink:href="#DejaVuSans-34"
             x="95.410156"
             id="use119" />
          <use
             xlink:href="#DejaVuSans-39"
             x="159.0332"
             id="use120" />
        </g>
      </g>
      <g
         id="text_23">
        <!-- 0.487 -->
        <g
           transform="matrix(0.1,0,0,-0.1,352.77398,87.378033)"
           id="g125">
          <use
             xlink:href="#DejaVuSans-30"
             id="use121" />
          <use
             xlink:href="#DejaVuSans-2e"
             x="63.623047"
             id="use122" />
          <use
             xlink:href="#DejaVuSans-34"
             x="95.410156"
             id="use123" />
          <use
             xlink:href="#DejaVuSans-38"
             x="159.0332"
             id="use124" />
          <use
             xlink:href="#DejaVuSans-37"
             x="222.65625"
             id="use125" />
        </g>
      </g>
      <g
         id="text_24">
        <!-- 0.011 -->
        <g
           transform="matrix(0.1,0,0,-0.1,539.66393,375.73656)"
           id="g130">
          <use
             xlink:href="#DejaVuSans-30"
             id="use126" />
          <use
             xlink:href="#DejaVuSans-2e"
             x="63.623047"
             id="use127" />
          <use
             xlink:href="#DejaVuSans-30"
             x="95.410156"
             id="use128" />
          <use
             xlink:href="#DejaVuSans-31"
             x="159.0332"
             id="use129" />
          <use
             xlink:href="#DejaVuSans-31"
             x="222.65625"
             id="use130" />
        </g>
      </g>
      <g
         id="text_25">
        <!-- 0.011 -->
        <g
           transform="matrix(0.1,0,0,-0.1,726.55388,375.73656)"
           id="g135">
          <use
             xlink:href="#DejaVuSans-30"
             id="use131" />
          <use
             xlink:href="#DejaVuSans-2e"
             x="63.623047"
             id="use132" />
          <use
             xlink:href="#DejaVuSans-30"
             x="95.410156"
             id="use133" />
          <use
             xlink:href="#DejaVuSans-31"
             x="159.0332"
             id="use134" />
          <use
             xlink:href="#DejaVuSans-31"
             x="222.65625"
             id="use135" />
        </g>
      </g>
      <g
         id="text_26">
        <!-- 0.501 -->
        <g
           transform="matrix(0.1,0,0,-0.1,203.26201,78.8969)"
           id="g140">
          <use
             xlink:href="#DejaVuSans-30"
             id="use136" />
          <use
             xlink:href="#DejaVuSans-2e"
             x="63.623047"
             id="use137" />
          <use
             xlink:href="#DejaVuSans-35"
             x="95.410156"
             id="use138" />
          <use
             xlink:href="#DejaVuSans-30"
             x="159.0332"
             id="use139" />
          <use
             xlink:href="#DejaVuSans-31"
             x="222.65625"
             id="use140" />
        </g>
      </g>
      <g
         id="text_27">
        <!-- 0.499 -->
        <g
           transform="matrix(0.1,0,0,-0.1,390.15197,80.10849)"
           id="g145">
          <use
             xlink:href="#DejaVuSans-30"
             id="use141" />
          <use
             xlink:href="#DejaVuSans-2e"
             x="63.623047"
             id="use142" />
          <use
             xlink:href="#DejaVuSans-34"
             x="95.410156"
             id="use143" />
          <use
             xlink:href="#DejaVuSans-39"
             x="159.0332"
             id="use144" />
          <use
             xlink:href="#DejaVuSans-39"
             x="222.65625"
             id="use145" />
        </g>
      </g>
      <g
         id="text_28">
        <!-- 0 -->
        <g
           transform="matrix(0.1,0,0,-0.1,588.17473,382.40031)"
           id="g146">
          <use
             xlink:href="#DejaVuSans-30"
             id="use146" />
        </g>
      </g>
      <g
         id="text_29">
        <!-- 0 -->
        <g
           transform="matrix(0.1,0,0,-0.1,775.06468,382.40031)"
           id="g147">
          <use
             xlink:href="#DejaVuSans-30"
             id="use147" />
        </g>
      </g>
      <g
         id="text_30">
        <!-- 0.501 -->
        <g
           transform="matrix(0.1,0,0,-0.1,240.64,78.8969)"
           id="g152">
          <use
             xlink:href="#DejaVuSans-30"
             id="use148" />
          <use
             xlink:href="#DejaVuSans-2e"
             x="63.623047"
             id="use149" />
          <use
             xlink:href="#DejaVuSans-35"
             x="95.410156"
             id="use150" />
          <use
             xlink:href="#DejaVuSans-30"
             x="159.0332"
             id="use151" />
          <use
             xlink:href="#DejaVuSans-31"
             x="222.65625"
             id="use152" />
        </g>
      </g>
      <g
         id="text_31">
        <!-- 0.499 -->
        <g
           transform="matrix(0.1,0,0,-0.1,427.52996,80.10849)"
           id="g157">
          <use
             xlink:href="#DejaVuSans-30"
             id="use153" />
          <use
             xlink:href="#DejaVuSans-2e"
             x="63.623047"
             id="use154" />
          <use
             xlink:href="#DejaVuSans-34"
             x="95.410156"
             id="use155" />
          <use
             xlink:href="#DejaVuSans-39"
             x="159.0332"
             id="use156" />
          <use
             xlink:href="#DejaVuSans-39"
             x="222.65625"
             id="use157" />
        </g>
      </g>
      <g
         id="text_32">
        <!-- 0.49 -->
        <g
           transform="matrix(0.1,0,0,-0.1,169.06527,85.560647)"
           id="g161">
          <use
             xlink:href="#DejaVuSans-30"
             id="use158" />
          <use
             xlink:href="#DejaVuSans-2e"
             x="63.623047"
             id="use159" />
          <use
             xlink:href="#DejaVuSans-34"
             x="95.410156"
             id="use160" />
          <use
             xlink:href="#DejaVuSans-39"
             x="159.0332"
             id="use161" />
        </g>
      </g>
      <g
         id="text_33">
        <!-- 0.487 -->
        <g
           transform="matrix(0.1,0,0,-0.1,352.77398,87.378033)"
           id="g166">
          <use
             xlink:href="#DejaVuSans-30"
             id="use162" />
          <use
             xlink:href="#DejaVuSans-2e"
             x="63.623047"
             id="use163" />
          <use
             xlink:href="#DejaVuSans-34"
             x="95.410156"
             id="use164" />
          <use
             xlink:href="#DejaVuSans-38"
             x="159.0332"
             id="use165" />
          <use
             xlink:href="#DejaVuSans-37"
             x="222.65625"
             id="use166" />
        </g>
      </g>
      <g
         id="text_34">
        <!-- 0.011 -->
        <g
           transform="matrix(0.1,0,0,-0.1,539.66393,375.73656)"
           id="g171">
          <use
             xlink:href="#DejaVuSans-30"
             id="use167" />
          <use
             xlink:href="#DejaVuSans-2e"
             x="63.623047"
             id="use168" />
          <use
             xlink:href="#DejaVuSans-30"
             x="95.410156"
             id="use169" />
          <use
             xlink:href="#DejaVuSans-31"
             x="159.0332"
             id="use170" />
          <use
             xlink:href="#DejaVuSans-31"
             x="222.65625"
             id="use171" />
        </g>
      </g>
      <g
         id="text_35">
        <!-- 0.011 -->
        <g
           transform="matrix(0.1,0,0,-0.1,726.55388,375.73656)"
           id="g176">
          <use
             xlink:href="#DejaVuSans-30"
             id="use172" />
          <use
             xlink:href="#DejaVuSans-2e"
             x="63.623047"
             id="use173" />
          <use
             xlink:href="#DejaVuSans-30"
             x="95.410156"
             id="use174" />
          <use
             xlink:href="#DejaVuSans-31"
             x="159.0332"
             id="use175" />
          <use
             xlink:href="#DejaVuSans-31"
             x="222.65625"
             id="use176" />
        </g>
      </g>
      <g
         id="text_36">
        <!-- 0.501 -->
        <g
           transform="matrix(0.1,0,0,-0.1,203.26201,78.8969)"
           id="g181">
          <use
             xlink:href="#DejaVuSans-30"
             id="use177" />
          <use
             xlink:href="#DejaVuSans-2e"
             x="63.623047"
             id="use178" />
          <use
             xlink:href="#DejaVuSans-35"
             x="95.410156"
             id="use179" />
          <use
             xlink:href="#DejaVuSans-30"
             x="159.0332"
             id="use180" />
          <use
             xlink:href="#DejaVuSans-31"
             x="222.65625"
             id="use181" />
        </g>
      </g>
      <g
         id="text_37">
        <!-- 0.499 -->
        <g
           transform="matrix(0.1,0,0,-0.1,390.15197,80.10849)"
           id="g186">
          <use
             xlink:href="#DejaVuSans-30"
             id="use182" />
          <use
             xlink:href="#DejaVuSans-2e"
             x="63.623047"
             id="use183" />
          <use
             xlink:href="#DejaVuSans-34"
             x="95.410156"
             id="use184" />
          <use
             xlink:href="#DejaVuSans-39"
             x="159.0332"
             id="use185" />
          <use
             xlink:href="#DejaVuSans-39"
             x="222.65625"
             id="use186" />
        </g>
      </g>
      <g
         id="text_38">
        <!-- 0 -->
        <g
           transform="matrix(0.1,0,0,-0.1,588.17473,382.40031)"
           id="g187">
          <use
             xlink:href="#DejaVuSans-30"
             id="use187" />
        </g>
      </g>
      <g
         id="text_39">
        <!-- 0 -->
        <g
           transform="matrix(0.1,0,0,-0.1,775.06468,382.40031)"
           id="g188">
          <use
             xlink:href="#DejaVuSans-30"
             id="use188" />
        </g>
      </g>
      <g
         id="text_40">
        <!-- 0.501 -->
        <g
           transform="matrix(0.1,0,0,-0.1,240.64,78.8969)"
           id="g193">
          <use
             xlink:href="#DejaVuSans-30"
             id="use189" />
          <use
             xlink:href="#DejaVuSans-2e"
             x="63.623047"
             id="use190" />
          <use
             xlink:href="#DejaVuSans-35"
             x="95.410156"
             id="use191" />
          <use
             xlink:href="#DejaVuSans-30"
             x="159.0332"
             id="use192" />
          <use
             xlink:href="#DejaVuSans-31"
             x="222.65625"
             id="use193" />
        </g>
      </g>
      <g
         id="text_41">
        <!-- 0.499 -->
        <g
           transform="matrix(0.1,0,0,-0.1,427.52996,80.10849)"
           id="g198">
          <use
             xlink:href="#DejaVuSans-30"
             id="use194" />
          <use
             xlink:href="#DejaVuSans-2e"
             x="63.623047"
             id="use195" />
          <use
             xlink:href="#DejaVuSans-34"
             x="95.410156"
             id="use196" />
          <use
             xlink:href="#DejaVuSans-39"
             x="159.0332"
             id="use197" />
          <use
             xlink:href="#DejaVuSans-39"
             x="222.65625"
             id="use198" />
        </g>
      </g>
      <g
         id="text_42">
        <!-- 0.524 -->
        <g
           transform="matrix(0.1,0,0,-0.1,278.01799,64.963609)"
           id="g203">
          <defs
             id="defs198">
            <path
               id="DejaVuSans-32"
               d="M 1228,531 H 3431 V 0 H 469 v 531 q 359,372 979,998 621,627 780,809 303,340 423,576 121,236 121,464 0,372 -261,606 -261,235 -680,235 -297,0 -627,-103 -329,-103 -704,-313 v 638 q 381,153 712,231 332,78 607,78 725,0 1156,-363 431,-362 431,-968 0,-288 -108,-546 -107,-257 -392,-607 -78,-91 -497,-524 Q 1991,1309 1228,531 Z"
               transform="scale(0.015625)" />
          </defs>
          <use
             xlink:href="#DejaVuSans-30"
             id="use199" />
          <use
             xlink:href="#DejaVuSans-2e"
             x="63.623047"
             id="use200" />
          <use
             xlink:href="#DejaVuSans-35"
             x="95.410156"
             id="use201" />
          <use
             xlink:href="#DejaVuSans-32"
             x="159.0332"
             id="use202" />
          <use
             xlink:href="#DejaVuSans-34"
             x="222.65625"
             id="use203" />
        </g>
      </g>
      <g
         id="text_43">
        <!-- 0.457 -->
        <g
           transform="matrix(0.1,0,0,-0.1,464.90795,105.55189)"
           id="g208">
          <use
             xlink:href="#DejaVuSans-30"
             id="use204" />
          <use
             xlink:href="#DejaVuSans-2e"
             x="63.623047"
             id="use205" />
          <use
             xlink:href="#DejaVuSans-34"
             x="95.410156"
             id="use206" />
          <use
             xlink:href="#DejaVuSans-35"
             x="159.0332"
             id="use207" />
          <use
             xlink:href="#DejaVuSans-37"
             x="222.65625"
             id="use208" />
        </g>
      </g>
      <g
         id="text_44">
        <!-- 0.011 -->
        <g
           transform="matrix(0.1,0,0,-0.1,651.7979,375.73656)"
           id="g213">
          <use
             xlink:href="#DejaVuSans-30"
             id="use209" />
          <use
             xlink:href="#DejaVuSans-2e"
             x="63.623047"
             id="use210" />
          <use
             xlink:href="#DejaVuSans-30"
             x="95.410156"
             id="use211" />
          <use
             xlink:href="#DejaVuSans-31"
             x="159.0332"
             id="use212" />
          <use
             xlink:href="#DejaVuSans-31"
             x="222.65625"
             id="use213" />
        </g>
      </g>
      <g
         id="text_45">
        <!-- 0.008 -->
        <g
           transform="matrix(0.1,0,0,-0.1,838.68785,377.55395)"
           id="g218">
          <use
             xlink:href="#DejaVuSans-30"
             id="use214" />
          <use
             xlink:href="#DejaVuSans-2e"
             x="63.623047"
             id="use215" />
          <use
             xlink:href="#DejaVuSans-30"
             x="95.410156"
             id="use216" />
          <use
             xlink:href="#DejaVuSans-30"
             x="159.0332"
             id="use217" />
          <use
             xlink:href="#DejaVuSans-38"
             x="222.65625"
             id="use218" />
        </g>
      </g>
    </g>
  </g>
  <defs
     id="defs218">
    <clipPath
       id="pacbbedd7bd">
      <rect
         x="126"
         y="51.84"
         width="781.20001"
         height="332.64001"
         id="rect218" />
    </clipPath>
  </defs>
  <g
     id="legend_1"
     style="stroke-linecap:butt;stroke-linejoin:round"
     transform="translate(-47.196398,122.12815)">
    <g
       id="patch_21"
       style="stroke-linecap:butt;stroke-linejoin:round">
      <path
         d="m 917.412,125.895 h 160.5188 q 2.4,0 2.4,-2.4 V 54.24 q 0,-2.4 -2.4,-2.4 H 917.412 q -2.4,0 -2.4,2.4 v 69.255 q 0,2.4 2.4,2.4 z"
         style="font-variation-settings:normal;opacity:0.8;vector-effect:none;fill:#ffffff;fill-opacity:1;stroke:#cccccc;stroke-width:1;stroke-linecap:butt;stroke-linejoin:miter;stroke-miterlimit:4;stroke-dasharray:none;stroke-dashoffset:0;stroke-opacity:1;-inkscape-stroke:none;stop-color:#000000;stop-opacity:1"
         id="path222" />
    </g>
    <g
       id="patch_22"
       style="stroke-linecap:butt;stroke-linejoin:round">
      <path
         d="m 919.812,65.758125 h 24 v -8.4 h -24 z"
         style="fill:#648fff;stroke-linecap:butt;stroke-linejoin:round"
         id="path223" />
    </g>
    <g
       id="text_46"
       style="stroke-linecap:butt;stroke-linejoin:round">
      <!-- epsilon 0.00 -->
      <g
         transform="matrix(0.12,0,0,-0.12,953.412,65.758125)"
         id="g234"
         style="stroke-linecap:butt;stroke-linejoin:round">
        <defs
           id="defs223" />
        <path
           id="use223"
           d="m 56.203125,29.59375 v -4.390625 h -41.3125 q 0.59375,-9.28125 5.59375,-14.140625 5,-4.859375 13.9375,-4.859375 5.171875,0 10.03125,1.265625 4.859375,1.265625 9.65625,3.8125 v -8.5 q -4.84375,-2.046875 -9.921875,-3.125 -5.078125,-1.078125 -10.296875,-1.078125 -13.09375,0 -20.734375,7.609375 -7.640625,7.625 -7.640625,20.625 0,13.421875 7.25,21.296875 Q 20.015625,56 32.328125,56 q 11.03125,0 17.453125,-7.109375 6.421875,-7.09375 6.421875,-19.296875 z m -8.984375,2.640625 q -0.09375,7.359375 -4.125,11.75 -4.03125,4.40625 -10.671875,4.40625 -7.515625,0 -12.03125,-4.25 -4.515625,-4.25 -5.203125,-11.96875 z"
           style="stroke-width:0.015625" />
        <path
           id="use224"
           d="m 79.632812,8.203125 v -29 h -9.03125 V 54.6875 h 9.03125 v -8.296875 q 2.84375,4.875 7.15625,7.234375 Q 91.117187,56 97.117187,56 q 9.968753,0 16.187503,-7.90625 6.23437,-7.90625 6.23437,-20.796875 0,-12.890625 -6.23437,-20.8125 -6.21875,-7.90625 -16.187503,-7.90625 -6,0 -10.328125,2.375 -4.3125,2.375 -7.15625,7.25 z m 30.578128,19.09375 q 0,9.90625 -4.07813,15.546875 -4.07812,5.640625 -11.203123,5.640625 -7.140625,0 -11.21875,-5.640625 -4.078125,-5.640625 -4.078125,-15.546875 0,-9.90625 4.078125,-15.546875 4.078125,-5.640625 11.21875,-5.640625 7.125003,0 11.203123,5.640625 4.07813,5.640625 4.07813,15.546875 z"
           style="stroke-width:0.015625;stroke-linecap:butt;stroke-linejoin:round" />
        <path
           id="use225"
           d="m 169.28125,53.078125 v -8.5 Q 165.48437,46.53125 161.375,47.5 q -4.09375,0.984375 -8.5,0.984375 -6.6875,0 -10.03125,-2.046875 Q 139.5,44.390625 139.5,40.28125 q 0,-3.125 2.39062,-4.90625 2.39063,-1.78125 9.625,-3.390625 l 3.07813,-0.6875 q 9.5625,-2.046875 13.59375,-5.78125 4.03125,-3.734375 4.03125,-10.421875 0,-7.625 -6.03125,-12.078125 -6.03125,-4.4375 -16.57813,-4.4375 -4.39062,0 -9.15625,0.859375 Q 135.6875,0.296875 130.42187,2 v 9.28125 q 4.98438,-2.59375 9.8125,-3.890625 4.82813,-1.28125 9.57813,-1.28125 6.34375,0 9.75,2.171875 3.42187,2.171875 3.42187,6.125 0,3.65625 -2.46875,5.609375 -2.45312,1.953125 -10.8125,3.765625 l -3.125,0.734375 q -8.34375,1.75 -12.0625,5.390625 -3.70312,3.640625 -3.70312,9.984375 0,7.71875 5.46875,11.90625 Q 141.75,56 151.8125,56 q 4.96875,0 9.35937,-0.734375 4.40625,-0.71875 8.10938,-2.1875 z"
           style="stroke-width:0.015625;stroke-linecap:butt;stroke-linejoin:round" />
        <path
           id="use226"
           d="m 186.52148,54.6875 h 8.98438 V 0 h -8.98438 z m 0,21.296875 h 8.98438 V 64.59375 h -8.98438 z"
           style="stroke-width:0.015625;stroke-linecap:butt;stroke-linejoin:round" />
        <path
           id="use227"
           d="m 214.30469,75.984375 h 8.98437 V 0 h -8.98437 z"
           style="stroke-width:0.015625;stroke-linecap:butt;stroke-linejoin:round" />
        <path
           id="use228"
           d="m 263.27539,48.390625 q -7.21875,0 -11.42187,-5.640625 -4.20313,-5.640625 -4.20313,-15.453125 0,-9.8125 4.17188,-15.453125 4.1875,-5.640625 11.45312,-5.640625 7.1875,0 11.375,5.65625 4.20313,5.671875 4.20313,15.4375 0,9.71875 -4.20313,15.40625 -4.1875,5.6875 -11.375,5.6875 z m 0,7.609375 q 11.71875,0 18.40625,-7.625 6.70313,-7.609375 6.70313,-21.078125 0,-13.421875 -6.70313,-21.078125 -6.6875,-7.640625 -18.40625,-7.640625 -11.76562,0 -18.4375,7.640625 -6.65625,7.65625 -6.65625,21.078125 0,13.46875 6.65625,21.078125 6.67188,7.625 18.4375,7.625 z"
           style="stroke-width:0.015625;stroke-linecap:butt;stroke-linejoin:round" />
        <path
           id="use229"
           d="M 348.73828,33.015625 V 0 h -8.98437 v 32.71875 q 0,7.765625 -3.03125,11.609375 -3.03125,3.859375 -9.07813,3.859375 -7.28125,0 -11.48437,-4.640625 -4.20313,-4.625 -4.20313,-12.640625 V 0 h -9.03125 v 54.6875 h 9.03125 v -8.5 q 3.23438,4.9375 7.59375,7.375 4.375,2.4375 10.09375,2.4375 9.42188,0 14.25,-5.828125 4.84375,-5.828125 4.84375,-17.15625 z"
           style="stroke-width:0.015625" />
        <path
           id="use230"
           d=""
           style="stroke-width:0.015625" />
        <path
           id="use231"
           d="m 420.79492,66.40625 q -7.60937,0 -11.45312,-7.5 -3.82813,-7.484375 -3.82813,-22.53125 0,-14.984375 3.82813,-22.484375 3.84375,-7.5 11.45312,-7.5 7.67188,0 11.5,7.5 3.84375,7.5 3.84375,22.484375 0,15.046875 -3.84375,22.53125 -3.82812,7.5 -11.5,7.5 z m 0,7.8125 q 12.26563,0 18.73438,-9.703125 6.46875,-9.6875 6.46875,-28.140625 0,-18.40625 -6.46875,-28.109375 -6.46875,-9.6875 -18.73438,-9.6875 -12.25,0 -18.71875,9.6875 -6.46875,9.703125 -6.46875,28.109375 0,18.453125 6.46875,28.140625 6.46875,9.703125 18.71875,9.703125 z"
           style="stroke-width:0.015625;stroke-linecap:butt;stroke-linejoin:round" />
        <path
           id="use232"
           d="m 463.32422,12.40625 h 10.3125 V 0 h -10.3125 z"
           style="stroke-width:0.015625;stroke-linecap:butt;stroke-linejoin:round" />
        <path
           id="use233"
           d="m 516.20508,66.40625 q -7.60938,0 -11.45313,-7.5 -3.82812,-7.484375 -3.82812,-22.53125 0,-14.984375 3.82812,-22.484375 3.84375,-7.5 11.45313,-7.5 7.67187,0 11.5,7.5 3.84375,7.5 3.84375,22.484375 0,15.046875 -3.84375,22.53125 -3.82813,7.5 -11.5,7.5 z m 0,7.8125 q 12.26562,0 18.73437,-9.703125 6.46875,-9.6875 6.46875,-28.140625 0,-18.40625 -6.46875,-28.109375 -6.46875,-9.6875 -18.73437,-9.6875 -12.25,0 -18.71875,9.6875 -6.46875,9.703125 -6.46875,28.109375 0,18.453125 6.46875,28.140625 6.46875,9.703125 18.71875,9.703125 z"
           style="stroke-width:0.015625;stroke-linecap:butt;stroke-linejoin:round" />
        <path
           id="use234"
           d="m 579.82812,66.40625 q -7.60937,0 -11.45312,-7.5 -3.82813,-7.484375 -3.82813,-22.53125 0,-14.984375 3.82813,-22.484375 3.84375,-7.5 11.45312,-7.5 7.67188,0 11.5,7.5 3.84375,7.5 3.84375,22.484375 0,15.046875 -3.84375,22.53125 -3.82812,7.5 -11.5,7.5 z m 0,7.8125 q 12.26563,0 18.73438,-9.703125 6.46875,-9.6875 6.46875,-28.140625 0,-18.40625 -6.46875,-28.109375 -6.46875,-9.6875 -18.73438,-9.6875 -12.25,0 -18.71875,9.6875 -6.46875,9.703125 -6.46875,28.109375 0,18.453125 6.46875,28.140625 6.46875,9.703125 18.71875,9.703125 z"
           style="stroke-width:0.015625;stroke-linecap:butt;stroke-linejoin:round" />
      </g>
    </g>
    <g
       id="patch_23"
       style="stroke-linecap:butt;stroke-linejoin:round">
      <path
         d="m 919.812,83.371875 h 24 v -8.4 h -24 z"
         style="fill:#dc267f;stroke-linecap:butt;stroke-linejoin:round"
         id="path234" />
    </g>
    <g
       id="text_47"
       style="stroke-linecap:butt;stroke-linejoin:round">
      <!-- epsilon 0.03 -->
      <g
         transform="matrix(0.12,0,0,-0.12,953.412,83.371875)"
         id="g246"
         style="stroke-linecap:butt;stroke-linejoin:round">
        <path
           id="use235"
           d="m 56.203125,29.59375 v -4.390625 h -41.3125 q 0.59375,-9.28125 5.59375,-14.140625 5,-4.859375 13.9375,-4.859375 5.171875,0 10.03125,1.265625 4.859375,1.265625 9.65625,3.8125 v -8.5 q -4.84375,-2.046875 -9.921875,-3.125 -5.078125,-1.078125 -10.296875,-1.078125 -13.09375,0 -20.734375,7.609375 -7.640625,7.625 -7.640625,20.625 0,13.421875 7.25,21.296875 Q 20.015625,56 32.328125,56 q 11.03125,0 17.453125,-7.109375 6.421875,-7.09375 6.421875,-19.296875 z m -8.984375,2.640625 q -0.09375,7.359375 -4.125,11.75 -4.03125,4.40625 -10.671875,4.40625 -7.515625,0 -12.03125,-4.25 -4.515625,-4.25 -5.203125,-11.96875 z"
           style="stroke-width:0.015625" />
        <path
           id="use236"
           d="m 79.632812,8.203125 v -29 h -9.03125 V 54.6875 h 9.03125 v -8.296875 q 2.84375,4.875 7.15625,7.234375 Q 91.117187,56 97.117187,56 q 9.968753,0 16.187503,-7.90625 6.23437,-7.90625 6.23437,-20.796875 0,-12.890625 -6.23437,-20.8125 -6.21875,-7.90625 -16.187503,-7.90625 -6,0 -10.328125,2.375 -4.3125,2.375 -7.15625,7.25 z m 30.578128,19.09375 q 0,9.90625 -4.07813,15.546875 -4.07812,5.640625 -11.203123,5.640625 -7.140625,0 -11.21875,-5.640625 -4.078125,-5.640625 -4.078125,-15.546875 0,-9.90625 4.078125,-15.546875 4.078125,-5.640625 11.21875,-5.640625 7.125003,0 11.203123,5.640625 4.07813,5.640625 4.07813,15.546875 z"
           style="stroke-width:0.015625;stroke-linecap:butt;stroke-linejoin:round" />
        <path
           id="use237"
           d="m 169.28125,53.078125 v -8.5 Q 165.48437,46.53125 161.375,47.5 q -4.09375,0.984375 -8.5,0.984375 -6.6875,0 -10.03125,-2.046875 Q 139.5,44.390625 139.5,40.28125 q 0,-3.125 2.39062,-4.90625 2.39063,-1.78125 9.625,-3.390625 l 3.07813,-0.6875 q 9.5625,-2.046875 13.59375,-5.78125 4.03125,-3.734375 4.03125,-10.421875 0,-7.625 -6.03125,-12.078125 -6.03125,-4.4375 -16.57813,-4.4375 -4.39062,0 -9.15625,0.859375 Q 135.6875,0.296875 130.42187,2 v 9.28125 q 4.98438,-2.59375 9.8125,-3.890625 4.82813,-1.28125 9.57813,-1.28125 6.34375,0 9.75,2.171875 3.42187,2.171875 3.42187,6.125 0,3.65625 -2.46875,5.609375 -2.45312,1.953125 -10.8125,3.765625 l -3.125,0.734375 q -8.34375,1.75 -12.0625,5.390625 -3.70312,3.640625 -3.70312,9.984375 0,7.71875 5.46875,11.90625 Q 141.75,56 151.8125,56 q 4.96875,0 9.35937,-0.734375 4.40625,-0.71875 8.10938,-2.1875 z"
           style="stroke-width:0.015625;stroke-linecap:butt;stroke-linejoin:round" />
        <path
           id="use238"
           d="m 186.52148,54.6875 h 8.98438 V 0 h -8.98438 z m 0,21.296875 h 8.98438 V 64.59375 h -8.98438 z"
           style="stroke-width:0.015625;stroke-linecap:butt;stroke-linejoin:round" />
        <path
           id="use239"
           d="m 214.30469,75.984375 h 8.98437 V 0 h -8.98437 z"
           style="stroke-width:0.015625;stroke-linecap:butt;stroke-linejoin:round" />
        <path
           id="use240"
           d="m 263.27539,48.390625 q -7.21875,0 -11.42187,-5.640625 -4.20313,-5.640625 -4.20313,-15.453125 0,-9.8125 4.17188,-15.453125 4.1875,-5.640625 11.45312,-5.640625 7.1875,0 11.375,5.65625 4.20313,5.671875 4.20313,15.4375 0,9.71875 -4.20313,15.40625 -4.1875,5.6875 -11.375,5.6875 z m 0,7.609375 q 11.71875,0 18.40625,-7.625 6.70313,-7.609375 6.70313,-21.078125 0,-13.421875 -6.70313,-21.078125 -6.6875,-7.640625 -18.40625,-7.640625 -11.76562,0 -18.4375,7.640625 -6.65625,7.65625 -6.65625,21.078125 0,13.46875 6.65625,21.078125 6.67188,7.625 18.4375,7.625 z"
           style="stroke-width:0.015625;stroke-linecap:butt;stroke-linejoin:round" />
        <path
           id="use241"
           d="M 348.73828,33.015625 V 0 h -8.98437 v 32.71875 q 0,7.765625 -3.03125,11.609375 -3.03125,3.859375 -9.07813,3.859375 -7.28125,0 -11.48437,-4.640625 -4.20313,-4.625 -4.20313,-12.640625 V 0 h -9.03125 v 54.6875 h 9.03125 v -8.5 q 3.23438,4.9375 7.59375,7.375 4.375,2.4375 10.09375,2.4375 9.42188,0 14.25,-5.828125 4.84375,-5.828125 4.84375,-17.15625 z"
           style="stroke-width:0.015625" />
        <path
           id="use242"
           d=""
           style="stroke-width:0.015625" />
        <path
           id="use243"
           d="m 420.79492,66.40625 q -7.60937,0 -11.45312,-7.5 -3.82813,-7.484375 -3.82813,-22.53125 0,-14.984375 3.82813,-22.484375 3.84375,-7.5 11.45312,-7.5 7.67188,0 11.5,7.5 3.84375,7.5 3.84375,22.484375 0,15.046875 -3.84375,22.53125 -3.82812,7.5 -11.5,7.5 z m 0,7.8125 q 12.26563,0 18.73438,-9.703125 6.46875,-9.6875 6.46875,-28.140625 0,-18.40625 -6.46875,-28.109375 -6.46875,-9.6875 -18.73438,-9.6875 -12.25,0 -18.71875,9.6875 -6.46875,9.703125 -6.46875,28.109375 0,18.453125 6.46875,28.140625 6.46875,9.703125 18.71875,9.703125 z"
           style="stroke-width:0.015625;stroke-linecap:butt;stroke-linejoin:round" />
        <path
           id="use244"
           d="m 463.32422,12.40625 h 10.3125 V 0 h -10.3125 z"
           style="stroke-width:0.015625;stroke-linecap:butt;stroke-linejoin:round" />
        <path
           id="use245"
           d="m 516.20508,66.40625 q -7.60938,0 -11.45313,-7.5 -3.82812,-7.484375 -3.82812,-22.53125 0,-14.984375 3.82812,-22.484375 3.84375,-7.5 11.45313,-7.5 7.67187,0 11.5,7.5 3.84375,7.5 3.84375,22.484375 0,15.046875 -3.84375,22.53125 -3.82813,7.5 -11.5,7.5 z m 0,7.8125 q 12.26562,0 18.73437,-9.703125 6.46875,-9.6875 6.46875,-28.140625 0,-18.40625 -6.46875,-28.109375 -6.46875,-9.6875 -18.73437,-9.6875 -12.25,0 -18.71875,9.6875 -6.46875,9.703125 -6.46875,28.109375 0,18.453125 6.46875,28.140625 6.46875,9.703125 18.71875,9.703125 z"
           style="stroke-width:0.015625;stroke-linecap:butt;stroke-linejoin:round" />
        <path
           id="use246"
           d="m 588.625,39.3125 q 7.07812,-1.515625 11.04687,-6.3125 3.98438,-4.78125 3.98438,-11.8125 0,-10.78125 -7.42188,-16.703125 -7.42187,-5.90625 -21.09375,-5.90625 -4.57812,0 -9.4375,0.90625 -4.85937,0.90625 -10.03125,2.71875 v 9.515625 q 4.09375,-2.390625 8.96875,-3.609375 4.89063,-1.21875 10.21875,-1.21875 9.26563,0 14.125,3.65625 4.85938,3.65625 4.85938,10.640625 0,6.453125 -4.51563,10.078125 -4.51562,3.640625 -12.5625,3.640625 h -8.5 v 8.109375 h 8.89063 q 7.26562,0 11.125,2.90625 3.85937,2.90625 3.85937,8.375 0,5.609375 -3.98437,8.609375 -3.96875,3.015625 -11.39063,3.015625 -4.0625,0 -8.70312,-0.890625 -4.64063,-0.875 -10.20313,-2.71875 v 8.78125 q 5.625,1.5625 10.53125,2.34375 4.90625,0.78125 9.25,0.78125 11.23438,0 17.76563,-5.109375 6.54687,-5.09375 6.54687,-13.78125 0,-6.0625 -3.46875,-10.234375 -3.46875,-4.171875 -9.85937,-5.78125 z"
           style="stroke-width:0.015625;stroke-linecap:butt;stroke-linejoin:round" />
      </g>
    </g>
    <g
       id="patch_24"
       style="stroke-linecap:butt;stroke-linejoin:round">
      <path
         d="m 919.812,100.98563 h 24 v -8.400005 h -24 z"
         style="fill:#785ef0;stroke-linecap:butt;stroke-linejoin:round"
         id="path246" />
    </g>
    <g
       id="text_48"
       style="stroke-linecap:butt;stroke-linejoin:round">
      <!-- epsilon 0.06 -->
      <g
         transform="matrix(0.12,0,0,-0.12,953.412,100.98563)"
         id="g258"
         style="stroke-linecap:butt;stroke-linejoin:round">
        <defs
           id="defs246" />
        <path
           id="use247"
           d="m 56.203125,29.59375 v -4.390625 h -41.3125 q 0.59375,-9.28125 5.59375,-14.140625 5,-4.859375 13.9375,-4.859375 5.171875,0 10.03125,1.265625 4.859375,1.265625 9.65625,3.8125 v -8.5 q -4.84375,-2.046875 -9.921875,-3.125 -5.078125,-1.078125 -10.296875,-1.078125 -13.09375,0 -20.734375,7.609375 -7.640625,7.625 -7.640625,20.625 0,13.421875 7.25,21.296875 Q 20.015625,56 32.328125,56 q 11.03125,0 17.453125,-7.109375 6.421875,-7.09375 6.421875,-19.296875 z m -8.984375,2.640625 q -0.09375,7.359375 -4.125,11.75 -4.03125,4.40625 -10.671875,4.40625 -7.515625,0 -12.03125,-4.25 -4.515625,-4.25 -5.203125,-11.96875 z"
           style="stroke-width:0.015625" />
        <path
           id="use248"
           d="m 79.632812,8.203125 v -29 h -9.03125 V 54.6875 h 9.03125 v -8.296875 q 2.84375,4.875 7.15625,7.234375 Q 91.117187,56 97.117187,56 q 9.968753,0 16.187503,-7.90625 6.23437,-7.90625 6.23437,-20.796875 0,-12.890625 -6.23437,-20.8125 -6.21875,-7.90625 -16.187503,-7.90625 -6,0 -10.328125,2.375 -4.3125,2.375 -7.15625,7.25 z m 30.578128,19.09375 q 0,9.90625 -4.07813,15.546875 -4.07812,5.640625 -11.203123,5.640625 -7.140625,0 -11.21875,-5.640625 -4.078125,-5.640625 -4.078125,-15.546875 0,-9.90625 4.078125,-15.546875 4.078125,-5.640625 11.21875,-5.640625 7.125003,0 11.203123,5.640625 4.07813,5.640625 4.07813,15.546875 z"
           style="stroke-width:0.015625;stroke-linecap:butt;stroke-linejoin:round" />
        <path
           id="use249"
           d="m 169.28125,53.078125 v -8.5 Q 165.48437,46.53125 161.375,47.5 q -4.09375,0.984375 -8.5,0.984375 -6.6875,0 -10.03125,-2.046875 Q 139.5,44.390625 139.5,40.28125 q 0,-3.125 2.39062,-4.90625 2.39063,-1.78125 9.625,-3.390625 l 3.07813,-0.6875 q 9.5625,-2.046875 13.59375,-5.78125 4.03125,-3.734375 4.03125,-10.421875 0,-7.625 -6.03125,-12.078125 -6.03125,-4.4375 -16.57813,-4.4375 -4.39062,0 -9.15625,0.859375 Q 135.6875,0.296875 130.42187,2 v 9.28125 q 4.98438,-2.59375 9.8125,-3.890625 4.82813,-1.28125 9.57813,-1.28125 6.34375,0 9.75,2.171875 3.42187,2.171875 3.42187,6.125 0,3.65625 -2.46875,5.609375 -2.45312,1.953125 -10.8125,3.765625 l -3.125,0.734375 q -8.34375,1.75 -12.0625,5.390625 -3.70312,3.640625 -3.70312,9.984375 0,7.71875 5.46875,11.90625 Q 141.75,56 151.8125,56 q 4.96875,0 9.35937,-0.734375 4.40625,-0.71875 8.10938,-2.1875 z"
           style="stroke-width:0.015625;stroke-linecap:butt;stroke-linejoin:round" />
        <path
           id="use250"
           d="m 186.52148,54.6875 h 8.98438 V 0 h -8.98438 z m 0,21.296875 h 8.98438 V 64.59375 h -8.98438 z"
           style="stroke-width:0.015625;stroke-linecap:butt;stroke-linejoin:round" />
        <path
           id="use251"
           d="m 214.30469,75.984375 h 8.98437 V 0 h -8.98437 z"
           style="stroke-width:0.015625;stroke-linecap:butt;stroke-linejoin:round" />
        <path
           id="use252"
           d="m 263.27539,48.390625 q -7.21875,0 -11.42187,-5.640625 -4.20313,-5.640625 -4.20313,-15.453125 0,-9.8125 4.17188,-15.453125 4.1875,-5.640625 11.45312,-5.640625 7.1875,0 11.375,5.65625 4.20313,5.671875 4.20313,15.4375 0,9.71875 -4.20313,15.40625 -4.1875,5.6875 -11.375,5.6875 z m 0,7.609375 q 11.71875,0 18.40625,-7.625 6.70313,-7.609375 6.70313,-21.078125 0,-13.421875 -6.70313,-21.078125 -6.6875,-7.640625 -18.40625,-7.640625 -11.76562,0 -18.4375,7.640625 -6.65625,7.65625 -6.65625,21.078125 0,13.46875 6.65625,21.078125 6.67188,7.625 18.4375,7.625 z"
           style="stroke-width:0.015625;stroke-linecap:butt;stroke-linejoin:round" />
        <path
           id="use253"
           d="M 348.73828,33.015625 V 0 h -8.98437 v 32.71875 q 0,7.765625 -3.03125,11.609375 -3.03125,3.859375 -9.07813,3.859375 -7.28125,0 -11.48437,-4.640625 -4.20313,-4.625 -4.20313,-12.640625 V 0 h -9.03125 v 54.6875 h 9.03125 v -8.5 q 3.23438,4.9375 7.59375,7.375 4.375,2.4375 10.09375,2.4375 9.42188,0 14.25,-5.828125 4.84375,-5.828125 4.84375,-17.15625 z"
           style="stroke-width:0.015625" />
        <path
           id="use254"
           d=""
           style="stroke-width:0.015625" />
        <path
           id="use255"
           d="m 420.79492,66.40625 q -7.60937,0 -11.45312,-7.5 -3.82813,-7.484375 -3.82813,-22.53125 0,-14.984375 3.82813,-22.484375 3.84375,-7.5 11.45312,-7.5 7.67188,0 11.5,7.5 3.84375,7.5 3.84375,22.484375 0,15.046875 -3.84375,22.53125 -3.82812,7.5 -11.5,7.5 z m 0,7.8125 q 12.26563,0 18.73438,-9.703125 6.46875,-9.6875 6.46875,-28.140625 0,-18.40625 -6.46875,-28.109375 -6.46875,-9.6875 -18.73438,-9.6875 -12.25,0 -18.71875,9.6875 -6.46875,9.703125 -6.46875,28.109375 0,18.453125 6.46875,28.140625 6.46875,9.703125 18.71875,9.703125 z"
           style="stroke-width:0.015625;stroke-linecap:butt;stroke-linejoin:round" />
        <path
           id="use256"
           d="m 463.32422,12.40625 h 10.3125 V 0 h -10.3125 z"
           style="stroke-width:0.015625;stroke-linecap:butt;stroke-linejoin:round" />
        <path
           id="use257"
           d="m 516.20508,66.40625 q -7.60938,0 -11.45313,-7.5 -3.82812,-7.484375 -3.82812,-22.53125 0,-14.984375 3.82812,-22.484375 3.84375,-7.5 11.45313,-7.5 7.67187,0 11.5,7.5 3.84375,7.5 3.84375,22.484375 0,15.046875 -3.84375,22.53125 -3.82813,7.5 -11.5,7.5 z m 0,7.8125 q 12.26562,0 18.73437,-9.703125 6.46875,-9.6875 6.46875,-28.140625 0,-18.40625 -6.46875,-28.109375 -6.46875,-9.6875 -18.73437,-9.6875 -12.25,0 -18.71875,9.6875 -6.46875,9.703125 -6.46875,28.109375 0,18.453125 6.46875,28.140625 6.46875,9.703125 18.71875,9.703125 z"
           style="stroke-width:0.015625;stroke-linecap:butt;stroke-linejoin:round" />
        <path
           id="use258"
           d="m 581.0625,40.375 q -6.64063,0 -10.53125,-4.546875 -3.875,-4.53125 -3.875,-12.4375 0,-7.859375 3.875,-12.4375 3.89062,-4.5625 10.53125,-4.5625 6.64062,0 10.51562,4.5625 3.875,4.578125 3.875,12.4375 0,7.90625 -3.875,12.4375 -3.875,4.546875 -10.51562,4.546875 z m 19.57812,30.921875 V 62.3125 q -3.71875,1.75 -7.5,2.671875 -3.78125,0.9375 -7.5,0.9375 -9.76562,0 -14.92187,-6.59375 -5.14063,-6.59375 -5.875,-19.921875 2.875,4.25 7.21875,6.515625 4.35937,2.265625 9.57812,2.265625 10.98438,0 17.35938,-6.671875 6.375,-6.65625 6.375,-18.125 0,-11.234375 -6.64063,-18.03125 -6.64062,-6.78125 -17.67187,-6.78125 -12.65625,0 -19.34375,9.6875 -6.6875,9.703125 -6.6875,28.109375 0,17.28125 8.20312,27.5625 8.20313,10.28125 22.01563,10.28125 3.71875,0 7.5,-0.734375 3.78125,-0.734375 7.89062,-2.1875 z"
           style="stroke-width:0.015625" />
      </g>
    </g>
    <g
       id="patch_25"
       style="stroke-linecap:butt;stroke-linejoin:round">
      <path
         d="m 919.812,118.59937 h 24 v -8.39999 h -24 z"
         style="fill:#ffb000;stroke-linecap:butt;stroke-linejoin:round"
         id="path258" />
    </g>
    <g
       id="text_49"
       style="stroke-linecap:butt;stroke-linejoin:round">
      <!-- quantum computers -->
      <g
         transform="matrix(0.12,0,0,-0.12,953.412,118.59937)"
         id="g275"
         style="stroke-linecap:butt;stroke-linejoin:round">
        <defs
           id="defs258" />
        <path
           id="use259"
           d="m 14.796875,27.296875 q 0,-9.90625 4.078125,-15.546875 4.078125,-5.640625 11.203125,-5.640625 7.125,0 11.21875,5.640625 4.109375,5.640625 4.109375,15.546875 0,9.90625 -4.109375,15.546875 -4.09375,5.640625 -11.21875,5.640625 -7.125,0 -11.203125,-5.640625 -4.078125,-5.640625 -4.078125,-15.546875 z M 45.40625,8.203125 q -2.828125,-4.875 -7.15625,-7.25 -4.3125,-2.375 -10.375,-2.375 -9.90625,0 -16.140625,7.90625 -6.21875,7.921875 -6.21875,20.8125 0,12.890625 6.21875,20.796875 Q 17.96875,56 27.875,56 q 6.0625,0 10.375,-2.375 4.328125,-2.359375 7.15625,-7.234375 V 54.6875 h 8.984375 V -20.796875 H 45.40625 Z"
           style="stroke-width:0.015625" />
        <path
           id="use260"
           d="M 71.976562,21.578125 V 54.6875 h 8.984375 V 21.921875 q 0,-7.765625 3.015625,-11.65625 3.03125,-3.875 9.09375,-3.875 7.265628,0 11.484378,4.640625 4.23437,4.640625 4.23437,12.65625 v 31 h 8.98438 V 0 h -8.98438 V 8.40625 Q 105.52344,3.421875 101.19531,1 96.882812,-1.421875 91.164062,-1.421875 q -9.421875,0 -14.3125,5.859375 -4.875,5.859375 -4.875,17.140625 z M 94.585937,56 Z"
           style="stroke-width:0.015625;stroke-linecap:butt;stroke-linejoin:round" />
        <path
           id="use261"
           d="m 161.13672,27.484375 q -10.89063,0 -15.09375,-2.484375 -4.20313,-2.484375 -4.20313,-8.5 0,-4.78125 3.15625,-7.59375 3.15625,-2.796875 8.5625,-2.796875 7.48438,0 12,5.296875 4.51563,5.296875 4.51563,14.078125 v 2 z m 17.92187,3.71875 V 0 h -8.98437 v 8.296875 q -3.07813,-4.96875 -7.67188,-7.34375 -4.59375,-2.375 -11.23437,-2.375 -8.39063,0 -13.35938,4.71875 -4.95312,4.71875 -4.95312,12.625 0,9.21875 6.17187,13.90625 6.1875,4.6875 18.4375,4.6875 h 12.60938 v 0.890625 q 0,6.203125 -4.07813,9.59375 -4.07812,3.390625 -11.45312,3.390625 -4.6875,0 -9.14063,-1.125 -4.4375,-1.125 -8.53125,-3.375 v 8.3125 q 4.92188,1.90625 9.5625,2.84375 Q 151.07422,56 155.46484,56 q 11.875,0 17.73438,-6.15625 5.85937,-6.140625 5.85937,-18.640625 z"
           style="stroke-width:0.015625;stroke-linecap:butt;stroke-linejoin:round" />
        <path
           id="use262"
           d="M 243.02539,33.015625 V 0 h -8.98437 v 32.71875 q 0,7.765625 -3.03125,11.609375 -3.03125,3.859375 -9.07813,3.859375 -7.28125,0 -11.48437,-4.640625 -4.20313,-4.625 -4.20313,-12.640625 V 0 h -9.03125 v 54.6875 h 9.03125 v -8.5 q 3.23438,4.9375 7.59375,7.375 4.375,2.4375 10.09375,2.4375 9.42188,0 14.25,-5.828125 4.84375,-5.828125 4.84375,-17.15625 z"
           style="stroke-width:0.015625" />
        <path
           id="use263"
           d="M 269.82617,70.21875 V 54.6875 h 18.5 v -6.984375 h -18.5 v -29.6875 q 0,-6.6875 1.82813,-8.59375 1.82812,-1.90625 7.45312,-1.90625 h 9.21875 V 0 h -9.21875 q -10.40625,0 -14.35937,3.875 -3.95313,3.890625 -3.95313,14.140625 v 29.6875 h -6.59375 V 54.6875 h 6.59375 v 15.53125 z"
           style="stroke-width:0.015625;stroke-linecap:butt;stroke-linejoin:round" />
        <path
           id="use264"
           d="M 299.22266,21.578125 V 54.6875 h 8.98437 V 21.921875 q 0,-7.765625 3.01563,-11.65625 3.03125,-3.875 9.09375,-3.875 7.26562,0 11.48437,4.640625 4.23438,4.640625 4.23438,12.65625 v 31 h 8.98437 V 0 h -8.98437 V 8.40625 Q 332.76953,3.421875 328.44141,1 q -4.3125,-2.421875 -10.03125,-2.421875 -9.42188,0 -14.3125,5.859375 -4.875,5.859375 -4.875,17.140625 z M 321.83203,56 Z"
           style="stroke-width:0.015625;stroke-linecap:butt;stroke-linejoin:round" />
        <path
           id="use265"
           d="m 406.10156,44.1875 q 3.375,6.0625 8.0625,8.9375 4.6875,2.875 11.03125,2.875 8.54688,0 13.1875,-5.984375 4.64063,-5.96875 4.64063,-17 V 0 h -9.03125 v 32.71875 q 0,7.859375 -2.79688,11.65625 -2.78125,3.8125 -8.48437,3.8125 -6.98438,0 -11.04688,-4.640625 -4.04687,-4.625 -4.04687,-12.640625 V 0 h -9.03125 v 32.71875 q 0,7.90625 -2.78125,11.6875 -2.78125,3.78125 -8.59375,3.78125 -6.89063,0 -10.95313,-4.65625 -4.04687,-4.65625 -4.04687,-12.625 V 0 h -9.03125 v 54.6875 h 9.03125 v -8.5 q 3.07812,5.03125 7.375,7.421875 Q 383.88281,56 389.78906,56 q 5.96875,0 10.14063,-3.03125 4.17187,-3.015625 6.17187,-8.78125 z"
           style="stroke-width:0.015625" />
        <path
           id="use266"
           d=""
           style="stroke-width:0.015625" />
        <path
           id="use267"
           d="M 532.08203,52.59375 V 44.1875 q -3.8125,2.109375 -7.64062,3.15625 -3.82813,1.046875 -7.73438,1.046875 -8.75,0 -13.59375,-5.546875 -4.82812,-5.53125 -4.82812,-15.546875 0,-10.015625 4.82812,-15.5625 4.84375,-5.53125 13.59375,-5.53125 3.90625,0 7.73438,1.046875 3.82812,1.046875 7.64062,3.15625 v -8.3125 q -3.76562,-1.75 -7.79687,-2.625 -4.01563,-0.890625 -8.5625,-0.890625 -12.35938,0 -19.64063,7.765625 -7.26562,7.765625 -7.26562,20.953125 0,13.375 7.34375,21.03125 Q 503.51953,56 516.31641,56 q 4.14062,0 8.09375,-0.859375 3.95312,-0.84375 7.67187,-2.546875 z"
           style="stroke-width:0.015625" />
        <path
           id="use268"
           d="m 568.89062,48.390625 q -7.21875,0 -11.42187,-5.640625 -4.20313,-5.640625 -4.20313,-15.453125 0,-9.8125 4.17188,-15.453125 4.1875,-5.640625 11.45312,-5.640625 7.1875,0 11.375,5.65625 4.20313,5.671875 4.20313,15.4375 0,9.71875 -4.20313,15.40625 -4.1875,5.6875 -11.375,5.6875 z m 0,7.609375 q 11.71875,0 18.40625,-7.625 Q 594,40.765625 594,27.296875 594,13.875 587.29687,6.21875 q -6.6875,-7.640625 -18.40625,-7.640625 -11.76562,0 -18.4375,7.640625 -6.65625,7.65625 -6.65625,21.078125 0,13.46875 6.65625,21.078125 Q 557.125,56 568.89062,56 Z"
           style="stroke-width:0.015625;stroke-linecap:butt;stroke-linejoin:round" />
        <path
           id="use269"
           d="m 651.46289,44.1875 q 3.375,6.0625 8.0625,8.9375 4.6875,2.875 11.03125,2.875 8.54688,0 13.1875,-5.984375 4.64063,-5.96875 4.64063,-17 V 0 h -9.03125 v 32.71875 q 0,7.859375 -2.79688,11.65625 -2.78125,3.8125 -8.48437,3.8125 -6.98438,0 -11.04688,-4.640625 -4.04687,-4.625 -4.04687,-12.640625 V 0 h -9.03125 v 32.71875 q 0,7.90625 -2.78125,11.6875 -2.78125,3.78125 -8.59375,3.78125 -6.89063,0 -10.95313,-4.65625 -4.04687,-4.65625 -4.04687,-12.625 V 0 h -9.03125 v 54.6875 h 9.03125 v -8.5 q 3.07812,5.03125 7.375,7.421875 Q 629.24414,56 635.15039,56 q 5.96875,0 10.14063,-3.03125 4.17187,-3.015625 6.17187,-8.78125 z"
           style="stroke-width:0.015625" />
        <path
           id="use270"
           d="m 714.98437,8.203125 v -29 h -9.03125 V 54.6875 h 9.03125 v -8.296875 q 2.84375,4.875 7.15625,7.234375 4.32813,2.375 10.32813,2.375 9.96875,0 16.1875,-7.90625 6.23437,-7.90625 6.23437,-20.796875 0,-12.890625 -6.23437,-20.8125 -6.21875,-7.90625 -16.1875,-7.90625 -6,0 -10.32813,2.375 -4.3125,2.375 -7.15625,7.25 z m 30.57813,19.09375 q 0,9.90625 -4.07813,15.546875 -4.07812,5.640625 -11.20312,5.640625 -7.14063,0 -11.21875,-5.640625 -4.07813,-5.640625 -4.07813,-15.546875 0,-9.90625 4.07813,-15.546875 4.07812,-5.640625 11.21875,-5.640625 7.125,0 11.20312,5.640625 4.07813,5.640625 4.07813,15.546875 z"
           style="stroke-width:0.015625;stroke-linecap:butt;stroke-linejoin:round" />
        <path
           id="use271"
           d="M 768.85156,21.578125 V 54.6875 h 8.98438 V 21.921875 q 0,-7.765625 3.01562,-11.65625 3.03125,-3.875 9.09375,-3.875 7.26563,0 11.48438,4.640625 4.23437,4.640625 4.23437,12.65625 v 31 h 8.98438 V 0 h -8.98438 V 8.40625 Q 802.39844,3.421875 798.07031,1 q -4.3125,-2.421875 -10.03125,-2.421875 -9.42187,0 -14.3125,5.859375 -4.875,5.859375 -4.875,17.140625 z M 791.46094,56 Z"
           style="stroke-width:0.015625;stroke-linecap:butt;stroke-linejoin:round" />
        <path
           id="use272"
           d="M 842.04297,70.21875 V 54.6875 h 18.5 v -6.984375 h -18.5 v -29.6875 q 0,-6.6875 1.82812,-8.59375 1.82813,-1.90625 7.45313,-1.90625 h 9.21875 V 0 h -9.21875 q -10.40625,0 -14.35938,3.875 -3.95312,3.890625 -3.95312,14.140625 v 29.6875 h -6.59375 V 54.6875 h 6.59375 v 15.53125 z"
           style="stroke-width:0.015625;stroke-linecap:butt;stroke-linejoin:round" />
        <path
           id="use273"
           d="m 919.14258,29.59375 v -4.390625 h -41.3125 q 0.59375,-9.28125 5.59375,-14.140625 5,-4.859375 13.9375,-4.859375 5.17187,0 10.03125,1.265625 4.85937,1.265625 9.65625,3.8125 v -8.5 q -4.84375,-2.046875 -9.92188,-3.125 -5.07812,-1.078125 -10.29687,-1.078125 -13.09375,0 -20.73438,7.609375 -7.64062,7.625 -7.64062,20.625 0,13.421875 7.25,21.296875 Q 882.95508,56 895.26758,56 q 11.03125,0 17.45312,-7.109375 6.42188,-7.09375 6.42188,-19.296875 z m -8.98438,2.640625 q -0.0937,7.359375 -4.125,11.75 -4.03125,4.40625 -10.67187,4.40625 -7.51563,0 -12.03125,-4.25 -4.51563,-4.25 -5.20313,-11.96875 z"
           style="stroke-width:0.015625" />
        <path
           id="use274"
           d="m 965.57227,46.296875 q -1.51563,0.875 -3.29688,1.28125 Q 960.49414,48 958.35352,48 950.72852,48 946.65039,43.046875 942.57227,38.09375 942.57227,28.8125 V 0 h -9.03125 v 54.6875 h 9.03125 v -8.5 q 2.84375,4.984375 7.375,7.390625 Q 954.49414,56 960.99414,56 q 0.92188,0 2.04688,-0.125 1.125,-0.109375 2.48437,-0.359375 z"
           style="stroke-width:0.015625;stroke-linecap:butt;stroke-linejoin:round" />
        <path
           id="use275"
           d="m 1009.8574,53.078125 v -8.5 q -3.7969,1.953125 -7.9062,2.921875 -4.09378,0.984375 -8.50003,0.984375 -6.6875,0 -10.03125,-2.046875 -3.34375,-2.046875 -3.34375,-6.15625 0,-3.125 2.39063,-4.90625 2.39062,-1.78125 9.625,-3.390625 l 3.07812,-0.6875 q 9.56248,-2.046875 13.59378,-5.78125 4.0312,-3.734375 4.0312,-10.421875 0,-7.625 -6.0312,-12.078125 -6.0313,-4.4375 -16.57815,-4.4375 -4.39063,0 -9.15625,0.859375 Q 976.26367,0.296875 970.99805,2 v 9.28125 q 4.98437,-2.59375 9.8125,-3.890625 4.82812,-1.28125 9.57812,-1.28125 6.34375,0 9.75003,2.171875 3.4218,2.171875 3.4218,6.125 0,3.65625 -2.4687,5.609375 -2.45313,1.953125 -10.8125,3.765625 l -3.125,0.734375 q -8.34375,1.75 -12.0625,5.390625 -3.70313,3.640625 -3.70313,9.984375 0,7.71875 5.46875,11.90625 Q 982.32617,56 992.38867,56 q 4.96875,0 9.35933,-0.734375 4.4063,-0.71875 8.1094,-2.1875 z"
           style="stroke-width:0.015625;stroke-linecap:butt;stroke-linejoin:round" />
      </g>
    </g>
  </g>
  <text
     xml:space="preserve"
     style="font-size:12px;font-family:Sans;-inkscape-font-specification:'Sans, Normal';text-align:center;text-anchor:middle;opacity:0.8;fill:#000000;fill-opacity:1;stroke:none;stroke-width:1.001;stroke-linecap:butt;stroke-linejoin:round;stroke-dasharray:none"
     x="-216.552"
     y="22.114002"
     id="text272"
     transform="rotate(-90)"><tspan
       sodipodi:role="line"
       id="tspan272"
       style="font-style:normal;font-variant:normal;font-weight:normal;font-stretch:normal;font-size:16px;font-family:Sans;-inkscape-font-specification:'Sans, Normal';font-variant-ligatures:normal;font-variant-caps:normal;font-variant-numeric:normal;font-variant-east-asian:normal;fill:#000000;fill-opacity:1;stroke:none;stroke-width:1.001;stroke-dasharray:none;stroke-opacity:1"
       x="-216.552"
       y="22.114002">Probability</tspan></text>
</svg>
