<?xml version="1.0" encoding="UTF-8" standalone="no"?>
<!-- Created with Inkscape (http://www.inkscape.org/) -->

<svg
   width="58.673573mm"
   height="26.47773mm"
   viewBox="0 0 58.673573 26.47773"
   version="1.1"
   id="svg1"
   xmlns:inkscape="http://www.inkscape.org/namespaces/inkscape"
   xmlns:sodipodi="http://sodipodi.sourceforge.net/DTD/sodipodi-0.dtd"
   xmlns:xlink="http://www.w3.org/1999/xlink"
   xmlns="http://www.w3.org/2000/svg"
   xmlns:svg="http://www.w3.org/2000/svg">
  <sodipodi:namedview
     id="namedview1"
     pagecolor="#ffffff"
     bordercolor="#000000"
     borderopacity="0.25"
     inkscape:showpageshadow="2"
     inkscape:pageopacity="0.0"
     inkscape:pagecheckerboard="0"
     inkscape:deskcolor="#d1d1d1"
     inkscape:document-units="mm" />
  <defs
     id="defs1">
    <path
       id="DejaVuSans-65"
       d="M 3597,1894 V 1613 H 953 q 38,-594 358,-905 320,-311 892,-311 331,0 642,81 311,81 618,244 V 178 Q 3153,47 2828,-22 2503,-91 2169,-91 1331,-91 842,396 353,884 353,1716 q 0,859 464,1363 464,505 1252,505 706,0 1117,-455 411,-454 411,-1235 z m -575,169 q -6,471 -264,752 -258,282 -683,282 -481,0 -770,-272 -289,-272 -333,-766 z"
       transform="scale(0.015625)" />
    <path
       id="DejaVuSans-6e"
       d="M 3513,2113 V 0 h -575 v 2094 q 0,497 -194,743 -194,247 -581,247 -466,0 -735,-297 -269,-296 -269,-809 V 0 H 581 v 3500 h 578 v -544 q 207,316 486,472 280,156 646,156 603,0 912,-373 310,-373 310,-1098 z"
       transform="scale(0.015625)" />
    <path
       id="DejaVuSans-20"
       transform="scale(0.015625)"
       d="" />
    <path
       id="DejaVuSans-36"
       d="m 2113,2584 q -425,0 -674,-291 -248,-290 -248,-796 0,-503 248,-796 249,-292 674,-292 425,0 673,292 248,293 248,796 0,506 -248,796 -248,291 -673,291 z m 1253,1979 v -575 q -238,112 -480,171 -242,60 -480,60 -625,0 -955,-422 -329,-422 -376,-1275 184,272 462,417 279,145 613,145 703,0 1111,-427 408,-426 408,-1160 0,-719 -425,-1154 -425,-434 -1131,-434 -810,0 -1238,620 -428,621 -428,1799 0,1106 525,1764 525,658 1409,658 238,0 480,-47 242,-47 505,-140 z"
       transform="scale(0.015625)" />
    <path
       id="DejaVuSans-71"
       d="m 947,1747 q 0,-634 261,-995 261,-361 717,-361 456,0 718,361 263,361 263,995 0,634 -263,995 -262,361 -718,361 -456,0 -717,-361 Q 947,2381 947,1747 Z M 2906,525 Q 2725,213 2448,61 2172,-91 1784,-91 1150,-91 751,415 353,922 353,1747 q 0,825 398,1331 399,506 1033,506 388,0 664,-152 277,-151 458,-463 v 531 h 575 v -4831 h -575 z"
       transform="scale(0.015625)" />
    <path
       id="DejaVuSans-6d"
       d="m 3328,2828 q 216,388 516,572 300,184 706,184 547,0 844,-383 297,-382 297,-1088 V 0 h -578 v 2094 q 0,503 -179,746 -178,244 -543,244 -447,0 -707,-297 -259,-296 -259,-809 V 0 h -578 v 2094 q 0,506 -178,748 -178,242 -550,242 -441,0 -701,-298 -259,-298 -259,-808 V 0 H 581 v 3500 h 578 v -544 q 197,322 472,475 275,153 653,153 382,0 649,-194 267,-193 395,-562 z"
       transform="scale(0.015625)" />
    <path
       id="DejaVuSans-63"
       d="m 3122,3366 v -538 q -244,135 -489,202 -245,67 -495,67 -560,0 -870,-355 -309,-354 -309,-995 0,-641 309,-996 310,-354 870,-354 250,0 495,67 245,67 489,202 V 134 Q 2881,22 2623,-34 2366,-91 2075,-91 1284,-91 818,406 353,903 353,1747 q 0,856 470,1346 471,491 1290,491 265,0 518,-55 253,-54 491,-163 z"
       transform="scale(0.015625)" />
  </defs>
  <g
     inkscape:label="Layer 1"
     inkscape:groupmode="layer"
     id="layer1"
     transform="translate(-129.91042,-118.00417)">
    <g
       id="legend_1"
       style="stroke-linecap:butt;stroke-linejoin:round"
       transform="matrix(0.35277777,0,0,0.35277777,-192.70908,99.892556)">
      <g
         id="patch_21"
         style="stroke-linecap:butt;stroke-linejoin:round">
        <path
           d="m 917.412,125.895 h 160.5188 q 2.4,0 2.4,-2.4 V 54.24 q 0,-2.4 -2.4,-2.4 H 917.412 q -2.4,0 -2.4,2.4 v 69.255 q 0,2.4 2.4,2.4 z"
           style="font-variation-settings:normal;opacity:0.8;vector-effect:none;fill:#ffffff;fill-opacity:1;stroke:#cccccc;stroke-width:1;stroke-linecap:butt;stroke-linejoin:miter;stroke-miterlimit:4;stroke-dasharray:none;stroke-dashoffset:0;stroke-opacity:1;-inkscape-stroke:none;stop-color:#000000;stop-opacity:1"
           id="path222" />
      </g>
      <g
         id="patch_22"
         style="stroke-linecap:butt;stroke-linejoin:round">
        <path
           d="m 919.812,65.758125 h 24 v -8.4 h -24 z"
           style="fill:#648fff;stroke-linecap:butt;stroke-linejoin:round"
           id="path223" />
      </g>
      <g
         id="text_46"
         style="stroke-linecap:butt;stroke-linejoin:round">
        <!-- epsilon 0.00 -->
        <g
           transform="matrix(0.12,0,0,-0.12,953.412,65.758125)"
           id="g234"
           style="stroke-linecap:butt;stroke-linejoin:round">
          <defs
             id="defs223" />
          <use
             xlink:href="#DejaVuSans-65"
             id="use223"
             style="stroke-linecap:butt;stroke-linejoin:round" />
          <path
             id="use224"
             d="m 79.632812,8.203125 v -29 h -9.03125 V 54.6875 h 9.03125 v -8.296875 q 2.84375,4.875 7.15625,7.234375 Q 91.117187,56 97.117187,56 q 9.968753,0 16.187503,-7.90625 6.23437,-7.90625 6.23437,-20.796875 0,-12.890625 -6.23437,-20.8125 -6.21875,-7.90625 -16.187503,-7.90625 -6,0 -10.328125,2.375 -4.3125,2.375 -7.15625,7.25 z m 30.578128,19.09375 q 0,9.90625 -4.07813,15.546875 -4.07812,5.640625 -11.203123,5.640625 -7.140625,0 -11.21875,-5.640625 -4.078125,-5.640625 -4.078125,-15.546875 0,-9.90625 4.078125,-15.546875 4.078125,-5.640625 11.21875,-5.640625 7.125003,0 11.203123,5.640625 4.07813,5.640625 4.07813,15.546875 z"
             style="stroke-width:0.015625;stroke-linecap:butt;stroke-linejoin:round" />
          <path
             id="use225"
             d="m 169.28125,53.078125 v -8.5 Q 165.48437,46.53125 161.375,47.5 q -4.09375,0.984375 -8.5,0.984375 -6.6875,0 -10.03125,-2.046875 Q 139.5,44.390625 139.5,40.28125 q 0,-3.125 2.39062,-4.90625 2.39063,-1.78125 9.625,-3.390625 l 3.07813,-0.6875 q 9.5625,-2.046875 13.59375,-5.78125 4.03125,-3.734375 4.03125,-10.421875 0,-7.625 -6.03125,-12.078125 -6.03125,-4.4375 -16.57813,-4.4375 -4.39062,0 -9.15625,0.859375 Q 135.6875,0.296875 130.42187,2 v 9.28125 q 4.98438,-2.59375 9.8125,-3.890625 4.82813,-1.28125 9.57813,-1.28125 6.34375,0 9.75,2.171875 3.42187,2.171875 3.42187,6.125 0,3.65625 -2.46875,5.609375 -2.45312,1.953125 -10.8125,3.765625 l -3.125,0.734375 q -8.34375,1.75 -12.0625,5.390625 -3.70312,3.640625 -3.70312,9.984375 0,7.71875 5.46875,11.90625 Q 141.75,56 151.8125,56 q 4.96875,0 9.35937,-0.734375 4.40625,-0.71875 8.10938,-2.1875 z"
             style="stroke-width:0.015625;stroke-linecap:butt;stroke-linejoin:round" />
          <path
             id="use226"
             d="m 186.52148,54.6875 h 8.98438 V 0 h -8.98438 z m 0,21.296875 h 8.98438 V 64.59375 h -8.98438 z"
             style="stroke-width:0.015625;stroke-linecap:butt;stroke-linejoin:round" />
          <path
             id="use227"
             d="m 214.30469,75.984375 h 8.98437 V 0 h -8.98437 z"
             style="stroke-width:0.015625;stroke-linecap:butt;stroke-linejoin:round" />
          <path
             id="use228"
             d="m 263.27539,48.390625 q -7.21875,0 -11.42187,-5.640625 -4.20313,-5.640625 -4.20313,-15.453125 0,-9.8125 4.17188,-15.453125 4.1875,-5.640625 11.45312,-5.640625 7.1875,0 11.375,5.65625 4.20313,5.671875 4.20313,15.4375 0,9.71875 -4.20313,15.40625 -4.1875,5.6875 -11.375,5.6875 z m 0,7.609375 q 11.71875,0 18.40625,-7.625 6.70313,-7.609375 6.70313,-21.078125 0,-13.421875 -6.70313,-21.078125 -6.6875,-7.640625 -18.40625,-7.640625 -11.76562,0 -18.4375,7.640625 -6.65625,7.65625 -6.65625,21.078125 0,13.46875 6.65625,21.078125 6.67188,7.625 18.4375,7.625 z"
             style="stroke-width:0.015625;stroke-linecap:butt;stroke-linejoin:round" />
          <use
             xlink:href="#DejaVuSans-6e"
             x="293.84766"
             id="use229"
             style="stroke-linecap:butt;stroke-linejoin:round" />
          <use
             xlink:href="#DejaVuSans-20"
             x="357.22656"
             id="use230"
             style="stroke-linecap:butt;stroke-linejoin:round" />
          <path
             id="use231"
             d="m 420.79492,66.40625 q -7.60937,0 -11.45312,-7.5 -3.82813,-7.484375 -3.82813,-22.53125 0,-14.984375 3.82813,-22.484375 3.84375,-7.5 11.45312,-7.5 7.67188,0 11.5,7.5 3.84375,7.5 3.84375,22.484375 0,15.046875 -3.84375,22.53125 -3.82812,7.5 -11.5,7.5 z m 0,7.8125 q 12.26563,0 18.73438,-9.703125 6.46875,-9.6875 6.46875,-28.140625 0,-18.40625 -6.46875,-28.109375 -6.46875,-9.6875 -18.73438,-9.6875 -12.25,0 -18.71875,9.6875 -6.46875,9.703125 -6.46875,28.109375 0,18.453125 6.46875,28.140625 6.46875,9.703125 18.71875,9.703125 z"
             style="stroke-width:0.015625;stroke-linecap:butt;stroke-linejoin:round" />
          <path
             id="use232"
             d="m 463.32422,12.40625 h 10.3125 V 0 h -10.3125 z"
             style="stroke-width:0.015625;stroke-linecap:butt;stroke-linejoin:round" />
          <path
             id="use233"
             d="m 516.20508,66.40625 q -7.60938,0 -11.45313,-7.5 -3.82812,-7.484375 -3.82812,-22.53125 0,-14.984375 3.82812,-22.484375 3.84375,-7.5 11.45313,-7.5 7.67187,0 11.5,7.5 3.84375,7.5 3.84375,22.484375 0,15.046875 -3.84375,22.53125 -3.82813,7.5 -11.5,7.5 z m 0,7.8125 q 12.26562,0 18.73437,-9.703125 6.46875,-9.6875 6.46875,-28.140625 0,-18.40625 -6.46875,-28.109375 -6.46875,-9.6875 -18.73437,-9.6875 -12.25,0 -18.71875,9.6875 -6.46875,9.703125 -6.46875,28.109375 0,18.453125 6.46875,28.140625 6.46875,9.703125 18.71875,9.703125 z"
             style="stroke-width:0.015625;stroke-linecap:butt;stroke-linejoin:round" />
          <path
             id="use234"
             d="m 579.82812,66.40625 q -7.60937,0 -11.45312,-7.5 -3.82813,-7.484375 -3.82813,-22.53125 0,-14.984375 3.82813,-22.484375 3.84375,-7.5 11.45312,-7.5 7.67188,0 11.5,7.5 3.84375,7.5 3.84375,22.484375 0,15.046875 -3.84375,22.53125 -3.82812,7.5 -11.5,7.5 z m 0,7.8125 q 12.26563,0 18.73438,-9.703125 6.46875,-9.6875 6.46875,-28.140625 0,-18.40625 -6.46875,-28.109375 -6.46875,-9.6875 -18.73438,-9.6875 -12.25,0 -18.71875,9.6875 -6.46875,9.703125 -6.46875,28.109375 0,18.453125 6.46875,28.140625 6.46875,9.703125 18.71875,9.703125 z"
             style="stroke-width:0.015625;stroke-linecap:butt;stroke-linejoin:round" />
        </g>
      </g>
      <g
         id="patch_23"
         style="stroke-linecap:butt;stroke-linejoin:round">
        <path
           d="m 919.812,83.371875 h 24 v -8.4 h -24 z"
           style="fill:#dc267f;stroke-linecap:butt;stroke-linejoin:round"
           id="path234" />
      </g>
      <g
         id="text_47"
         style="stroke-linecap:butt;stroke-linejoin:round">
        <!-- epsilon 0.03 -->
        <g
           transform="matrix(0.12,0,0,-0.12,953.412,83.371875)"
           id="g246"
           style="stroke-linecap:butt;stroke-linejoin:round">
          <use
             xlink:href="#DejaVuSans-65"
             id="use235"
             style="stroke-linecap:butt;stroke-linejoin:round" />
          <path
             id="use236"
             d="m 79.632812,8.203125 v -29 h -9.03125 V 54.6875 h 9.03125 v -8.296875 q 2.84375,4.875 7.15625,7.234375 Q 91.117187,56 97.117187,56 q 9.968753,0 16.187503,-7.90625 6.23437,-7.90625 6.23437,-20.796875 0,-12.890625 -6.23437,-20.8125 -6.21875,-7.90625 -16.187503,-7.90625 -6,0 -10.328125,2.375 -4.3125,2.375 -7.15625,7.25 z m 30.578128,19.09375 q 0,9.90625 -4.07813,15.546875 -4.07812,5.640625 -11.203123,5.640625 -7.140625,0 -11.21875,-5.640625 -4.078125,-5.640625 -4.078125,-15.546875 0,-9.90625 4.078125,-15.546875 4.078125,-5.640625 11.21875,-5.640625 7.125003,0 11.203123,5.640625 4.07813,5.640625 4.07813,15.546875 z"
             style="stroke-width:0.015625;stroke-linecap:butt;stroke-linejoin:round" />
          <path
             id="use237"
             d="m 169.28125,53.078125 v -8.5 Q 165.48437,46.53125 161.375,47.5 q -4.09375,0.984375 -8.5,0.984375 -6.6875,0 -10.03125,-2.046875 Q 139.5,44.390625 139.5,40.28125 q 0,-3.125 2.39062,-4.90625 2.39063,-1.78125 9.625,-3.390625 l 3.07813,-0.6875 q 9.5625,-2.046875 13.59375,-5.78125 4.03125,-3.734375 4.03125,-10.421875 0,-7.625 -6.03125,-12.078125 -6.03125,-4.4375 -16.57813,-4.4375 -4.39062,0 -9.15625,0.859375 Q 135.6875,0.296875 130.42187,2 v 9.28125 q 4.98438,-2.59375 9.8125,-3.890625 4.82813,-1.28125 9.57813,-1.28125 6.34375,0 9.75,2.171875 3.42187,2.171875 3.42187,6.125 0,3.65625 -2.46875,5.609375 -2.45312,1.953125 -10.8125,3.765625 l -3.125,0.734375 q -8.34375,1.75 -12.0625,5.390625 -3.70312,3.640625 -3.70312,9.984375 0,7.71875 5.46875,11.90625 Q 141.75,56 151.8125,56 q 4.96875,0 9.35937,-0.734375 4.40625,-0.71875 8.10938,-2.1875 z"
             style="stroke-width:0.015625;stroke-linecap:butt;stroke-linejoin:round" />
          <path
             id="use238"
             d="m 186.52148,54.6875 h 8.98438 V 0 h -8.98438 z m 0,21.296875 h 8.98438 V 64.59375 h -8.98438 z"
             style="stroke-width:0.015625;stroke-linecap:butt;stroke-linejoin:round" />
          <path
             id="use239"
             d="m 214.30469,75.984375 h 8.98437 V 0 h -8.98437 z"
             style="stroke-width:0.015625;stroke-linecap:butt;stroke-linejoin:round" />
          <path
             id="use240"
             d="m 263.27539,48.390625 q -7.21875,0 -11.42187,-5.640625 -4.20313,-5.640625 -4.20313,-15.453125 0,-9.8125 4.17188,-15.453125 4.1875,-5.640625 11.45312,-5.640625 7.1875,0 11.375,5.65625 4.20313,5.671875 4.20313,15.4375 0,9.71875 -4.20313,15.40625 -4.1875,5.6875 -11.375,5.6875 z m 0,7.609375 q 11.71875,0 18.40625,-7.625 6.70313,-7.609375 6.70313,-21.078125 0,-13.421875 -6.70313,-21.078125 -6.6875,-7.640625 -18.40625,-7.640625 -11.76562,0 -18.4375,7.640625 -6.65625,7.65625 -6.65625,21.078125 0,13.46875 6.65625,21.078125 6.67188,7.625 18.4375,7.625 z"
             style="stroke-width:0.015625;stroke-linecap:butt;stroke-linejoin:round" />
          <use
             xlink:href="#DejaVuSans-6e"
             x="293.84766"
             id="use241"
             style="stroke-linecap:butt;stroke-linejoin:round" />
          <use
             xlink:href="#DejaVuSans-20"
             x="357.22656"
             id="use242"
             style="stroke-linecap:butt;stroke-linejoin:round" />
          <path
             id="use243"
             d="m 420.79492,66.40625 q -7.60937,0 -11.45312,-7.5 -3.82813,-7.484375 -3.82813,-22.53125 0,-14.984375 3.82813,-22.484375 3.84375,-7.5 11.45312,-7.5 7.67188,0 11.5,7.5 3.84375,7.5 3.84375,22.484375 0,15.046875 -3.84375,22.53125 -3.82812,7.5 -11.5,7.5 z m 0,7.8125 q 12.26563,0 18.73438,-9.703125 6.46875,-9.6875 6.46875,-28.140625 0,-18.40625 -6.46875,-28.109375 -6.46875,-9.6875 -18.73438,-9.6875 -12.25,0 -18.71875,9.6875 -6.46875,9.703125 -6.46875,28.109375 0,18.453125 6.46875,28.140625 6.46875,9.703125 18.71875,9.703125 z"
             style="stroke-width:0.015625;stroke-linecap:butt;stroke-linejoin:round" />
          <path
             id="use244"
             d="m 463.32422,12.40625 h 10.3125 V 0 h -10.3125 z"
             style="stroke-width:0.015625;stroke-linecap:butt;stroke-linejoin:round" />
          <path
             id="use245"
             d="m 516.20508,66.40625 q -7.60938,0 -11.45313,-7.5 -3.82812,-7.484375 -3.82812,-22.53125 0,-14.984375 3.82812,-22.484375 3.84375,-7.5 11.45313,-7.5 7.67187,0 11.5,7.5 3.84375,7.5 3.84375,22.484375 0,15.046875 -3.84375,22.53125 -3.82813,7.5 -11.5,7.5 z m 0,7.8125 q 12.26562,0 18.73437,-9.703125 6.46875,-9.6875 6.46875,-28.140625 0,-18.40625 -6.46875,-28.109375 -6.46875,-9.6875 -18.73437,-9.6875 -12.25,0 -18.71875,9.6875 -6.46875,9.703125 -6.46875,28.109375 0,18.453125 6.46875,28.140625 6.46875,9.703125 18.71875,9.703125 z"
             style="stroke-width:0.015625;stroke-linecap:butt;stroke-linejoin:round" />
          <path
             id="use246"
             d="m 588.625,39.3125 q 7.07812,-1.515625 11.04687,-6.3125 3.98438,-4.78125 3.98438,-11.8125 0,-10.78125 -7.42188,-16.703125 -7.42187,-5.90625 -21.09375,-5.90625 -4.57812,0 -9.4375,0.90625 -4.85937,0.90625 -10.03125,2.71875 v 9.515625 q 4.09375,-2.390625 8.96875,-3.609375 4.89063,-1.21875 10.21875,-1.21875 9.26563,0 14.125,3.65625 4.85938,3.65625 4.85938,10.640625 0,6.453125 -4.51563,10.078125 -4.51562,3.640625 -12.5625,3.640625 h -8.5 v 8.109375 h 8.89063 q 7.26562,0 11.125,2.90625 3.85937,2.90625 3.85937,8.375 0,5.609375 -3.98437,8.609375 -3.96875,3.015625 -11.39063,3.015625 -4.0625,0 -8.70312,-0.890625 -4.64063,-0.875 -10.20313,-2.71875 v 8.78125 q 5.625,1.5625 10.53125,2.34375 4.90625,0.78125 9.25,0.78125 11.23438,0 17.76563,-5.109375 6.54687,-5.09375 6.54687,-13.78125 0,-6.0625 -3.46875,-10.234375 -3.46875,-4.171875 -9.85937,-5.78125 z"
             style="stroke-width:0.015625;stroke-linecap:butt;stroke-linejoin:round" />
        </g>
      </g>
      <g
         id="patch_24"
         style="stroke-linecap:butt;stroke-linejoin:round">
        <path
           d="m 919.812,100.98563 h 24 v -8.400005 h -24 z"
           style="fill:#785ef0;stroke-linecap:butt;stroke-linejoin:round"
           id="path246" />
      </g>
      <g
         id="text_48"
         style="stroke-linecap:butt;stroke-linejoin:round">
        <!-- epsilon 0.06 -->
        <g
           transform="matrix(0.12,0,0,-0.12,953.412,100.98563)"
           id="g258"
           style="stroke-linecap:butt;stroke-linejoin:round">
          <defs
             id="defs246" />
          <use
             xlink:href="#DejaVuSans-65"
             id="use247"
             style="stroke-linecap:butt;stroke-linejoin:round" />
          <path
             id="use248"
             d="m 79.632812,8.203125 v -29 h -9.03125 V 54.6875 h 9.03125 v -8.296875 q 2.84375,4.875 7.15625,7.234375 Q 91.117187,56 97.117187,56 q 9.968753,0 16.187503,-7.90625 6.23437,-7.90625 6.23437,-20.796875 0,-12.890625 -6.23437,-20.8125 -6.21875,-7.90625 -16.187503,-7.90625 -6,0 -10.328125,2.375 -4.3125,2.375 -7.15625,7.25 z m 30.578128,19.09375 q 0,9.90625 -4.07813,15.546875 -4.07812,5.640625 -11.203123,5.640625 -7.140625,0 -11.21875,-5.640625 -4.078125,-5.640625 -4.078125,-15.546875 0,-9.90625 4.078125,-15.546875 4.078125,-5.640625 11.21875,-5.640625 7.125003,0 11.203123,5.640625 4.07813,5.640625 4.07813,15.546875 z"
             style="stroke-width:0.015625;stroke-linecap:butt;stroke-linejoin:round" />
          <path
             id="use249"
             d="m 169.28125,53.078125 v -8.5 Q 165.48437,46.53125 161.375,47.5 q -4.09375,0.984375 -8.5,0.984375 -6.6875,0 -10.03125,-2.046875 Q 139.5,44.390625 139.5,40.28125 q 0,-3.125 2.39062,-4.90625 2.39063,-1.78125 9.625,-3.390625 l 3.07813,-0.6875 q 9.5625,-2.046875 13.59375,-5.78125 4.03125,-3.734375 4.03125,-10.421875 0,-7.625 -6.03125,-12.078125 -6.03125,-4.4375 -16.57813,-4.4375 -4.39062,0 -9.15625,0.859375 Q 135.6875,0.296875 130.42187,2 v 9.28125 q 4.98438,-2.59375 9.8125,-3.890625 4.82813,-1.28125 9.57813,-1.28125 6.34375,0 9.75,2.171875 3.42187,2.171875 3.42187,6.125 0,3.65625 -2.46875,5.609375 -2.45312,1.953125 -10.8125,3.765625 l -3.125,0.734375 q -8.34375,1.75 -12.0625,5.390625 -3.70312,3.640625 -3.70312,9.984375 0,7.71875 5.46875,11.90625 Q 141.75,56 151.8125,56 q 4.96875,0 9.35937,-0.734375 4.40625,-0.71875 8.10938,-2.1875 z"
             style="stroke-width:0.015625;stroke-linecap:butt;stroke-linejoin:round" />
          <path
             id="use250"
             d="m 186.52148,54.6875 h 8.98438 V 0 h -8.98438 z m 0,21.296875 h 8.98438 V 64.59375 h -8.98438 z"
             style="stroke-width:0.015625;stroke-linecap:butt;stroke-linejoin:round" />
          <path
             id="use251"
             d="m 214.30469,75.984375 h 8.98437 V 0 h -8.98437 z"
             style="stroke-width:0.015625;stroke-linecap:butt;stroke-linejoin:round" />
          <path
             id="use252"
             d="m 263.27539,48.390625 q -7.21875,0 -11.42187,-5.640625 -4.20313,-5.640625 -4.20313,-15.453125 0,-9.8125 4.17188,-15.453125 4.1875,-5.640625 11.45312,-5.640625 7.1875,0 11.375,5.65625 4.20313,5.671875 4.20313,15.4375 0,9.71875 -4.20313,15.40625 -4.1875,5.6875 -11.375,5.6875 z m 0,7.609375 q 11.71875,0 18.40625,-7.625 6.70313,-7.609375 6.70313,-21.078125 0,-13.421875 -6.70313,-21.078125 -6.6875,-7.640625 -18.40625,-7.640625 -11.76562,0 -18.4375,7.640625 -6.65625,7.65625 -6.65625,21.078125 0,13.46875 6.65625,21.078125 6.67188,7.625 18.4375,7.625 z"
             style="stroke-width:0.015625;stroke-linecap:butt;stroke-linejoin:round" />
          <use
             xlink:href="#DejaVuSans-6e"
             x="293.84766"
             id="use253"
             style="stroke-linecap:butt;stroke-linejoin:round" />
          <use
             xlink:href="#DejaVuSans-20"
             x="357.22656"
             id="use254"
             style="stroke-linecap:butt;stroke-linejoin:round" />
          <path
             id="use255"
             d="m 420.79492,66.40625 q -7.60937,0 -11.45312,-7.5 -3.82813,-7.484375 -3.82813,-22.53125 0,-14.984375 3.82813,-22.484375 3.84375,-7.5 11.45312,-7.5 7.67188,0 11.5,7.5 3.84375,7.5 3.84375,22.484375 0,15.046875 -3.84375,22.53125 -3.82812,7.5 -11.5,7.5 z m 0,7.8125 q 12.26563,0 18.73438,-9.703125 6.46875,-9.6875 6.46875,-28.140625 0,-18.40625 -6.46875,-28.109375 -6.46875,-9.6875 -18.73438,-9.6875 -12.25,0 -18.71875,9.6875 -6.46875,9.703125 -6.46875,28.109375 0,18.453125 6.46875,28.140625 6.46875,9.703125 18.71875,9.703125 z"
             style="stroke-width:0.015625;stroke-linecap:butt;stroke-linejoin:round" />
          <path
             id="use256"
             d="m 463.32422,12.40625 h 10.3125 V 0 h -10.3125 z"
             style="stroke-width:0.015625;stroke-linecap:butt;stroke-linejoin:round" />
          <path
             id="use257"
             d="m 516.20508,66.40625 q -7.60938,0 -11.45313,-7.5 -3.82812,-7.484375 -3.82812,-22.53125 0,-14.984375 3.82812,-22.484375 3.84375,-7.5 11.45313,-7.5 7.67187,0 11.5,7.5 3.84375,7.5 3.84375,22.484375 0,15.046875 -3.84375,22.53125 -3.82813,7.5 -11.5,7.5 z m 0,7.8125 q 12.26562,0 18.73437,-9.703125 6.46875,-9.6875 6.46875,-28.140625 0,-18.40625 -6.46875,-28.109375 -6.46875,-9.6875 -18.73437,-9.6875 -12.25,0 -18.71875,9.6875 -6.46875,9.703125 -6.46875,28.109375 0,18.453125 6.46875,28.140625 6.46875,9.703125 18.71875,9.703125 z"
             style="stroke-width:0.015625;stroke-linecap:butt;stroke-linejoin:round" />
          <use
             xlink:href="#DejaVuSans-36"
             x="548.04688"
             id="use258"
             style="stroke-linecap:butt;stroke-linejoin:round" />
        </g>
      </g>
      <g
         id="patch_25"
         style="stroke-linecap:butt;stroke-linejoin:round">
        <path
           d="m 919.812,118.59937 h 24 v -8.39999 h -24 z"
           style="fill:#ffb000;stroke-linecap:butt;stroke-linejoin:round"
           id="path258" />
      </g>
      <g
         id="text_49"
         style="stroke-linecap:butt;stroke-linejoin:round">
        <!-- quantum computers -->
        <g
           transform="matrix(0.12,0,0,-0.12,953.412,118.59937)"
           id="g275"
           style="stroke-linecap:butt;stroke-linejoin:round">
          <defs
             id="defs258" />
          <use
             xlink:href="#DejaVuSans-71"
             id="use259"
             style="stroke-linecap:butt;stroke-linejoin:round" />
          <path
             id="use260"
             d="M 71.976562,21.578125 V 54.6875 h 8.984375 V 21.921875 q 0,-7.765625 3.015625,-11.65625 3.03125,-3.875 9.09375,-3.875 7.265628,0 11.484378,4.640625 4.23437,4.640625 4.23437,12.65625 v 31 h 8.98438 V 0 h -8.98438 V 8.40625 Q 105.52344,3.421875 101.19531,1 96.882812,-1.421875 91.164062,-1.421875 q -9.421875,0 -14.3125,5.859375 -4.875,5.859375 -4.875,17.140625 z M 94.585937,56 Z"
             style="stroke-width:0.015625;stroke-linecap:butt;stroke-linejoin:round" />
          <path
             id="use261"
             d="m 161.13672,27.484375 q -10.89063,0 -15.09375,-2.484375 -4.20313,-2.484375 -4.20313,-8.5 0,-4.78125 3.15625,-7.59375 3.15625,-2.796875 8.5625,-2.796875 7.48438,0 12,5.296875 4.51563,5.296875 4.51563,14.078125 v 2 z m 17.92187,3.71875 V 0 h -8.98437 v 8.296875 q -3.07813,-4.96875 -7.67188,-7.34375 -4.59375,-2.375 -11.23437,-2.375 -8.39063,0 -13.35938,4.71875 -4.95312,4.71875 -4.95312,12.625 0,9.21875 6.17187,13.90625 6.1875,4.6875 18.4375,4.6875 h 12.60938 v 0.890625 q 0,6.203125 -4.07813,9.59375 -4.07812,3.390625 -11.45312,3.390625 -4.6875,0 -9.14063,-1.125 -4.4375,-1.125 -8.53125,-3.375 v 8.3125 q 4.92188,1.90625 9.5625,2.84375 Q 151.07422,56 155.46484,56 q 11.875,0 17.73438,-6.15625 5.85937,-6.140625 5.85937,-18.640625 z"
             style="stroke-width:0.015625;stroke-linecap:butt;stroke-linejoin:round" />
          <use
             xlink:href="#DejaVuSans-6e"
             x="188.13477"
             id="use262"
             style="stroke-linecap:butt;stroke-linejoin:round" />
          <path
             id="use263"
             d="M 269.82617,70.21875 V 54.6875 h 18.5 v -6.984375 h -18.5 v -29.6875 q 0,-6.6875 1.82813,-8.59375 1.82812,-1.90625 7.45312,-1.90625 h 9.21875 V 0 h -9.21875 q -10.40625,0 -14.35937,3.875 -3.95313,3.890625 -3.95313,14.140625 v 29.6875 h -6.59375 V 54.6875 h 6.59375 v 15.53125 z"
             style="stroke-width:0.015625;stroke-linecap:butt;stroke-linejoin:round" />
          <path
             id="use264"
             d="M 299.22266,21.578125 V 54.6875 h 8.98437 V 21.921875 q 0,-7.765625 3.01563,-11.65625 3.03125,-3.875 9.09375,-3.875 7.26562,0 11.48437,4.640625 4.23438,4.640625 4.23438,12.65625 v 31 h 8.98437 V 0 h -8.98437 V 8.40625 Q 332.76953,3.421875 328.44141,1 q -4.3125,-2.421875 -10.03125,-2.421875 -9.42188,0 -14.3125,5.859375 -4.875,5.859375 -4.875,17.140625 z M 321.83203,56 Z"
             style="stroke-width:0.015625;stroke-linecap:butt;stroke-linejoin:round" />
          <use
             xlink:href="#DejaVuSans-6d"
             x="354.10156"
             id="use265"
             style="stroke-linecap:butt;stroke-linejoin:round" />
          <use
             xlink:href="#DejaVuSans-20"
             x="451.51367"
             id="use266"
             style="stroke-linecap:butt;stroke-linejoin:round" />
          <use
             xlink:href="#DejaVuSans-63"
             x="483.30078"
             id="use267"
             style="stroke-linecap:butt;stroke-linejoin:round" />
          <path
             id="use268"
             d="m 568.89062,48.390625 q -7.21875,0 -11.42187,-5.640625 -4.20313,-5.640625 -4.20313,-15.453125 0,-9.8125 4.17188,-15.453125 4.1875,-5.640625 11.45312,-5.640625 7.1875,0 11.375,5.65625 4.20313,5.671875 4.20313,15.4375 0,9.71875 -4.20313,15.40625 -4.1875,5.6875 -11.375,5.6875 z m 0,7.609375 q 11.71875,0 18.40625,-7.625 Q 594,40.765625 594,27.296875 594,13.875 587.29687,6.21875 q -6.6875,-7.640625 -18.40625,-7.640625 -11.76562,0 -18.4375,7.640625 -6.65625,7.65625 -6.65625,21.078125 0,13.46875 6.65625,21.078125 Q 557.125,56 568.89062,56 Z"
             style="stroke-width:0.015625;stroke-linecap:butt;stroke-linejoin:round" />
          <use
             xlink:href="#DejaVuSans-6d"
             x="599.46289"
             id="use269"
             style="stroke-linecap:butt;stroke-linejoin:round" />
          <path
             id="use270"
             d="m 714.98437,8.203125 v -29 h -9.03125 V 54.6875 h 9.03125 v -8.296875 q 2.84375,4.875 7.15625,7.234375 4.32813,2.375 10.32813,2.375 9.96875,0 16.1875,-7.90625 6.23437,-7.90625 6.23437,-20.796875 0,-12.890625 -6.23437,-20.8125 -6.21875,-7.90625 -16.1875,-7.90625 -6,0 -10.32813,2.375 -4.3125,2.375 -7.15625,7.25 z m 30.57813,19.09375 q 0,9.90625 -4.07813,15.546875 -4.07812,5.640625 -11.20312,5.640625 -7.14063,0 -11.21875,-5.640625 -4.07813,-5.640625 -4.07813,-15.546875 0,-9.90625 4.07813,-15.546875 4.07812,-5.640625 11.21875,-5.640625 7.125,0 11.20312,5.640625 4.07813,5.640625 4.07813,15.546875 z"
             style="stroke-width:0.015625;stroke-linecap:butt;stroke-linejoin:round" />
          <path
             id="use271"
             d="M 768.85156,21.578125 V 54.6875 h 8.98438 V 21.921875 q 0,-7.765625 3.01562,-11.65625 3.03125,-3.875 9.09375,-3.875 7.26563,0 11.48438,4.640625 4.23437,4.640625 4.23437,12.65625 v 31 h 8.98438 V 0 h -8.98438 V 8.40625 Q 802.39844,3.421875 798.07031,1 q -4.3125,-2.421875 -10.03125,-2.421875 -9.42187,0 -14.3125,5.859375 -4.875,5.859375 -4.875,17.140625 z M 791.46094,56 Z"
             style="stroke-width:0.015625;stroke-linecap:butt;stroke-linejoin:round" />
          <path
             id="use272"
             d="M 842.04297,70.21875 V 54.6875 h 18.5 v -6.984375 h -18.5 v -29.6875 q 0,-6.6875 1.82812,-8.59375 1.82813,-1.90625 7.45313,-1.90625 h 9.21875 V 0 h -9.21875 q -10.40625,0 -14.35938,3.875 -3.95312,3.890625 -3.95312,14.140625 v 29.6875 h -6.59375 V 54.6875 h 6.59375 v 15.53125 z"
             style="stroke-width:0.015625;stroke-linecap:butt;stroke-linejoin:round" />
          <use
             xlink:href="#DejaVuSans-65"
             x="862.93945"
             id="use273"
             style="stroke-linecap:butt;stroke-linejoin:round" />
          <path
             id="use274"
             d="m 965.57227,46.296875 q -1.51563,0.875 -3.29688,1.28125 Q 960.49414,48 958.35352,48 950.72852,48 946.65039,43.046875 942.57227,38.09375 942.57227,28.8125 V 0 h -9.03125 v 54.6875 h 9.03125 v -8.5 q 2.84375,4.984375 7.375,7.390625 Q 954.49414,56 960.99414,56 q 0.92188,0 2.04688,-0.125 1.125,-0.109375 2.48437,-0.359375 z"
             style="stroke-width:0.015625;stroke-linecap:butt;stroke-linejoin:round" />
          <path
             id="use275"
             d="m 1009.8574,53.078125 v -8.5 q -3.7969,1.953125 -7.9062,2.921875 -4.09378,0.984375 -8.50003,0.984375 -6.6875,0 -10.03125,-2.046875 -3.34375,-2.046875 -3.34375,-6.15625 0,-3.125 2.39063,-4.90625 2.39062,-1.78125 9.625,-3.390625 l 3.07812,-0.6875 q 9.56248,-2.046875 13.59378,-5.78125 4.0312,-3.734375 4.0312,-10.421875 0,-7.625 -6.0312,-12.078125 -6.0313,-4.4375 -16.57815,-4.4375 -4.39063,0 -9.15625,0.859375 Q 976.26367,0.296875 970.99805,2 v 9.28125 q 4.98437,-2.59375 9.8125,-3.890625 4.82812,-1.28125 9.57812,-1.28125 6.34375,0 9.75003,2.171875 3.4218,2.171875 3.4218,6.125 0,3.65625 -2.4687,5.609375 -2.45313,1.953125 -10.8125,3.765625 l -3.125,0.734375 q -8.34375,1.75 -12.0625,5.390625 -3.70313,3.640625 -3.70313,9.984375 0,7.71875 5.46875,11.90625 Q 982.32617,56 992.38867,56 q 4.96875,0 9.35933,-0.734375 4.4063,-0.71875 8.1094,-2.1875 z"
             style="stroke-width:0.015625;stroke-linecap:butt;stroke-linejoin:round" />
        </g>
      </g>
    </g>
  </g>
</svg>
