<?xml version="1.0" encoding="utf-8" standalone="no"?>
<!DOCTYPE svg PUBLIC "-//W3C//DTD SVG 1.1//EN"
  "http://www.w3.org/Graphics/SVG/1.1/DTD/svg11.dtd">
<svg xmlns:xlink="http://www.w3.org/1999/xlink" width="1471.197379pt" height="325.079996pt" viewBox="0 0 1471.197379 325.079996" xmlns="http://www.w3.org/2000/svg" version="1.1">
 <metadata>
  <rdf:RDF xmlns:dc="http://purl.org/dc/elements/1.1/" xmlns:cc="http://creativecommons.org/ns#" xmlns:rdf="http://www.w3.org/1999/02/22-rdf-syntax-ns#">
   <cc:Work>
    <dc:type rdf:resource="http://purl.org/dc/dcmitype/StillImage"/>
    <dc:date>2024-02-05T14:30:41.290001</dc:date>
    <dc:format>image/svg+xml</dc:format>
    <dc:creator>
     <cc:Agent>
      <dc:title>Matplotlib v3.8.2, https://matplotlib.org/</dc:title>
     </cc:Agent>
    </dc:creator>
   </cc:Work>
  </rdf:RDF>
 </metadata>
 <defs>
  <style type="text/css">*{stroke-linejoin: round; stroke-linecap: butt}</style>
 </defs>
 <g id="figure_1">
  <g id="patch_1">
   <path d="M 0 325.079996 
L 1471.197379 325.079996 
L 1471.197379 0 
L 0 0 
z
" style="fill: #ffffff"/>
  </g>
  <g id="axes_1">
   <g id="line2d_1">
    <path d="M 244.986862 76.092799 
L 1315.764248 76.092799 
" clip-path="url(#p1c06a01f48)" style="fill: none; stroke: #000000; stroke-width: 2; stroke-linecap: square"/>
   </g>
   <g id="line2d_2">
    <path d="M 244.986862 122.446798 
L 1315.764248 122.446798 
" clip-path="url(#p1c06a01f48)" style="fill: none; stroke: #000000; stroke-width: 2; stroke-linecap: square"/>
   </g>
   <g id="line2d_3">
    <path d="M 244.986862 168.800798 
L 1315.764248 168.800798 
" clip-path="url(#p1c06a01f48)" style="fill: none; stroke: #000000; stroke-width: 2; stroke-linecap: square"/>
   </g>
   <g id="line2d_4">
    <path d="M 244.986862 215.154797 
L 1315.764248 215.154797 
" clip-path="url(#p1c06a01f48)" style="fill: none; stroke: #000000; stroke-width: 2; stroke-linecap: square"/>
   </g>
   <g id="line2d_5">
    <path d="M 254.257662 266.144196 
L 258.893062 256.873397 
" clip-path="url(#p1c06a01f48)" style="fill: none; stroke: #778899; stroke-width: 1.5; stroke-linecap: square"/>
   </g>
   <g id="line2d_6">
    <path d="M 244.986862 260.002292 
L 1315.764248 260.002292 
" clip-path="url(#p1c06a01f48)" style="fill: none; stroke: #778899; stroke-width: 2; stroke-linecap: square"/>
   </g>
   <g id="line2d_7">
    <path d="M 244.986862 263.015302 
L 1315.764248 263.015302 
" clip-path="url(#p1c06a01f48)" style="fill: none; stroke: #778899; stroke-width: 2; stroke-linecap: square"/>
   </g>
   <g id="patch_2">
    <path d="M 1237.425989 250.963262 
L 1249.478029 250.963262 
L 1243.452009 259.654637 
z
" clip-path="url(#p1c06a01f48)" style="fill: #778899"/>
   </g>
   <g id="patch_3">
    <path d="M 1283.779989 250.963262 
L 1295.832028 250.963262 
L 1289.806008 259.654637 
z
" clip-path="url(#p1c06a01f48)" style="fill: #778899"/>
   </g>
   <g id="patch_4">
    <path d="M 240.351462 52.915799 
L -918.498522 52.915799 
L -918.498522 331.039796 
L 240.351462 331.039796 
z
" clip-path="url(#p1c06a01f48)" style="fill: #ffffff; stroke: #ffffff; stroke-width: 1.5; stroke-linejoin: miter"/>
   </g>
   <g id="line2d_8">
    <path d="M 316.372021 168.800798 
L 316.372021 76.092799 
" clip-path="url(#p1c06a01f48)" style="fill: none; stroke: #6fa4ff; stroke-width: 2; stroke-linecap: square"/>
   </g>
   <g id="line2d_9">
    <path d="M 409.08002 215.154797 
L 409.08002 122.446798 
" clip-path="url(#p1c06a01f48)" style="fill: none; stroke: #6fa4ff; stroke-width: 2; stroke-linecap: square"/>
   </g>
   <g id="line2d_10">
    <path d="M 548.142018 168.800798 
L 548.142018 76.092799 
" clip-path="url(#p1c06a01f48)" style="fill: none; stroke: #bb8bff; stroke-width: 2; stroke-linecap: square"/>
   </g>
   <g id="line2d_11">
    <path d="M 687.204016 168.800798 
L 687.204016 76.092799 
" clip-path="url(#p1c06a01f48)" style="fill: none; stroke: #6fa4ff; stroke-width: 2; stroke-linecap: square"/>
   </g>
   <g id="line2d_12">
    <path d="M 779.912015 215.154797 
L 779.912015 122.446798 
" clip-path="url(#p1c06a01f48)" style="fill: none; stroke: #6fa4ff; stroke-width: 2; stroke-linecap: square"/>
   </g>
   <g id="line2d_13">
    <path d="M 918.974013 168.800798 
L 918.974013 76.092799 
" clip-path="url(#p1c06a01f48)" style="fill: none; stroke: #bb8bff; stroke-width: 2; stroke-linecap: square"/>
   </g>
   <g id="line2d_14">
    <path d="M 1058.036012 168.800798 
L 1058.036012 76.092799 
" clip-path="url(#p1c06a01f48)" style="fill: none; stroke: #6fa4ff; stroke-width: 2; stroke-linecap: square"/>
   </g>
   <g id="line2d_15">
    <path d="M 1150.74401 215.154797 
L 1150.74401 122.446798 
" clip-path="url(#p1c06a01f48)" style="fill: none; stroke: #6fa4ff; stroke-width: 2; stroke-linecap: square"/>
   </g>
   <g id="line2d_16">
    <path d="M 1244.958514 168.800798 
L 1244.958514 250.963262 
" clip-path="url(#p1c06a01f48)" style="fill: none; stroke: #778899; stroke-width: 2; stroke-linecap: square"/>
   </g>
   <g id="line2d_17">
    <path d="M 1241.945504 168.800798 
L 1241.945504 250.963262 
" clip-path="url(#p1c06a01f48)" style="fill: none; stroke: #778899; stroke-width: 2; stroke-linecap: square"/>
   </g>
   <g id="line2d_18">
    <path d="M 1291.312513 215.154797 
L 1291.312513 250.963262 
" clip-path="url(#p1c06a01f48)" style="fill: none; stroke: #778899; stroke-width: 2; stroke-linecap: square"/>
   </g>
   <g id="line2d_19">
    <path d="M 1288.299503 215.154797 
L 1288.299503 250.963262 
" clip-path="url(#p1c06a01f48)" style="fill: none; stroke: #778899; stroke-width: 2; stroke-linecap: square"/>
   </g>
   <g id="patch_5">
    <path d="M 353.686991 99.269799 
L 371.765051 99.269799 
L 371.765051 52.915799 
L 353.686991 52.915799 
z
" clip-path="url(#p1c06a01f48)" style="fill: #bdbdbd; opacity: 0.6"/>
   </g>
   <g id="patch_6">
    <path d="M 353.686991 145.623798 
L 371.765051 145.623798 
L 371.765051 99.269799 
L 353.686991 99.269799 
z
" clip-path="url(#p1c06a01f48)" style="fill: #bdbdbd; opacity: 0.6"/>
   </g>
   <g id="patch_7">
    <path d="M 353.686991 191.977797 
L 371.765051 191.977797 
L 371.765051 145.623798 
L 353.686991 145.623798 
z
" clip-path="url(#p1c06a01f48)" style="fill: #bdbdbd; opacity: 0.6"/>
   </g>
   <g id="patch_8">
    <path d="M 353.686991 238.331797 
L 371.765051 238.331797 
L 371.765051 191.977797 
L 353.686991 191.977797 
z
" clip-path="url(#p1c06a01f48)" style="fill: #bdbdbd; opacity: 0.6"/>
   </g>
   <g id="patch_9">
    <path d="M 446.39499 99.269799 
L 464.473049 99.269799 
L 464.473049 52.915799 
L 446.39499 52.915799 
z
" clip-path="url(#p1c06a01f48)" style="fill: #bdbdbd; opacity: 0.6"/>
   </g>
   <g id="patch_10">
    <path d="M 446.39499 145.623798 
L 464.473049 145.623798 
L 464.473049 99.269799 
L 446.39499 99.269799 
z
" clip-path="url(#p1c06a01f48)" style="fill: #bdbdbd; opacity: 0.6"/>
   </g>
   <g id="patch_11">
    <path d="M 446.39499 191.977797 
L 464.473049 191.977797 
L 464.473049 145.623798 
L 446.39499 145.623798 
z
" clip-path="url(#p1c06a01f48)" style="fill: #bdbdbd; opacity: 0.6"/>
   </g>
   <g id="patch_12">
    <path d="M 446.39499 238.331797 
L 464.473049 238.331797 
L 464.473049 191.977797 
L 446.39499 191.977797 
z
" clip-path="url(#p1c06a01f48)" style="fill: #bdbdbd; opacity: 0.6"/>
   </g>
   <g id="patch_13">
    <path d="M 585.456988 99.269799 
L 603.535048 99.269799 
L 603.535048 52.915799 
L 585.456988 52.915799 
z
" clip-path="url(#p1c06a01f48)" style="fill: #bdbdbd; opacity: 0.6"/>
   </g>
   <g id="patch_14">
    <path d="M 585.456988 145.623798 
L 603.535048 145.623798 
L 603.535048 99.269799 
L 585.456988 99.269799 
z
" clip-path="url(#p1c06a01f48)" style="fill: #bdbdbd; opacity: 0.6"/>
   </g>
   <g id="patch_15">
    <path d="M 585.456988 191.977797 
L 603.535048 191.977797 
L 603.535048 145.623798 
L 585.456988 145.623798 
z
" clip-path="url(#p1c06a01f48)" style="fill: #bdbdbd; opacity: 0.6"/>
   </g>
   <g id="patch_16">
    <path d="M 585.456988 238.331797 
L 603.535048 238.331797 
L 603.535048 191.977797 
L 585.456988 191.977797 
z
" clip-path="url(#p1c06a01f48)" style="fill: #bdbdbd; opacity: 0.6"/>
   </g>
   <g id="patch_17">
    <path d="M 724.518986 99.269799 
L 742.597046 99.269799 
L 742.597046 52.915799 
L 724.518986 52.915799 
z
" clip-path="url(#p1c06a01f48)" style="fill: #bdbdbd; opacity: 0.6"/>
   </g>
   <g id="patch_18">
    <path d="M 724.518986 145.623798 
L 742.597046 145.623798 
L 742.597046 99.269799 
L 724.518986 99.269799 
z
" clip-path="url(#p1c06a01f48)" style="fill: #bdbdbd; opacity: 0.6"/>
   </g>
   <g id="patch_19">
    <path d="M 724.518986 191.977797 
L 742.597046 191.977797 
L 742.597046 145.623798 
L 724.518986 145.623798 
z
" clip-path="url(#p1c06a01f48)" style="fill: #bdbdbd; opacity: 0.6"/>
   </g>
   <g id="patch_20">
    <path d="M 724.518986 238.331797 
L 742.597046 238.331797 
L 742.597046 191.977797 
L 724.518986 191.977797 
z
" clip-path="url(#p1c06a01f48)" style="fill: #bdbdbd; opacity: 0.6"/>
   </g>
   <g id="patch_21">
    <path d="M 817.226985 99.269799 
L 835.305045 99.269799 
L 835.305045 52.915799 
L 817.226985 52.915799 
z
" clip-path="url(#p1c06a01f48)" style="fill: #bdbdbd; opacity: 0.6"/>
   </g>
   <g id="patch_22">
    <path d="M 817.226985 145.623798 
L 835.305045 145.623798 
L 835.305045 99.269799 
L 817.226985 99.269799 
z
" clip-path="url(#p1c06a01f48)" style="fill: #bdbdbd; opacity: 0.6"/>
   </g>
   <g id="patch_23">
    <path d="M 817.226985 191.977797 
L 835.305045 191.977797 
L 835.305045 145.623798 
L 817.226985 145.623798 
z
" clip-path="url(#p1c06a01f48)" style="fill: #bdbdbd; opacity: 0.6"/>
   </g>
   <g id="patch_24">
    <path d="M 817.226985 238.331797 
L 835.305045 238.331797 
L 835.305045 191.977797 
L 817.226985 191.977797 
z
" clip-path="url(#p1c06a01f48)" style="fill: #bdbdbd; opacity: 0.6"/>
   </g>
   <g id="patch_25">
    <path d="M 956.288983 99.269799 
L 974.367043 99.269799 
L 974.367043 52.915799 
L 956.288983 52.915799 
z
" clip-path="url(#p1c06a01f48)" style="fill: #bdbdbd; opacity: 0.6"/>
   </g>
   <g id="patch_26">
    <path d="M 956.288983 145.623798 
L 974.367043 145.623798 
L 974.367043 99.269799 
L 956.288983 99.269799 
z
" clip-path="url(#p1c06a01f48)" style="fill: #bdbdbd; opacity: 0.6"/>
   </g>
   <g id="patch_27">
    <path d="M 956.288983 191.977797 
L 974.367043 191.977797 
L 974.367043 145.623798 
L 956.288983 145.623798 
z
" clip-path="url(#p1c06a01f48)" style="fill: #bdbdbd; opacity: 0.6"/>
   </g>
   <g id="patch_28">
    <path d="M 956.288983 238.331797 
L 974.367043 238.331797 
L 974.367043 191.977797 
L 956.288983 191.977797 
z
" clip-path="url(#p1c06a01f48)" style="fill: #bdbdbd; opacity: 0.6"/>
   </g>
   <g id="patch_29">
    <path d="M 1095.350981 99.269799 
L 1113.429041 99.269799 
L 1113.429041 52.915799 
L 1095.350981 52.915799 
z
" clip-path="url(#p1c06a01f48)" style="fill: #bdbdbd; opacity: 0.6"/>
   </g>
   <g id="patch_30">
    <path d="M 1095.350981 145.623798 
L 1113.429041 145.623798 
L 1113.429041 99.269799 
L 1095.350981 99.269799 
z
" clip-path="url(#p1c06a01f48)" style="fill: #bdbdbd; opacity: 0.6"/>
   </g>
   <g id="patch_31">
    <path d="M 1095.350981 191.977797 
L 1113.429041 191.977797 
L 1113.429041 145.623798 
L 1095.350981 145.623798 
z
" clip-path="url(#p1c06a01f48)" style="fill: #bdbdbd; opacity: 0.6"/>
   </g>
   <g id="patch_32">
    <path d="M 1095.350981 238.331797 
L 1113.429041 238.331797 
L 1113.429041 191.977797 
L 1095.350981 191.977797 
z
" clip-path="url(#p1c06a01f48)" style="fill: #bdbdbd; opacity: 0.6"/>
   </g>
   <g id="patch_33">
    <path d="M 1188.05898 99.269799 
L 1206.13704 99.269799 
L 1206.13704 52.915799 
L 1188.05898 52.915799 
z
" clip-path="url(#p1c06a01f48)" style="fill: #bdbdbd; opacity: 0.6"/>
   </g>
   <g id="patch_34">
    <path d="M 1188.05898 145.623798 
L 1206.13704 145.623798 
L 1206.13704 99.269799 
L 1188.05898 99.269799 
z
" clip-path="url(#p1c06a01f48)" style="fill: #bdbdbd; opacity: 0.6"/>
   </g>
   <g id="patch_35">
    <path d="M 1188.05898 191.977797 
L 1206.13704 191.977797 
L 1206.13704 145.623798 
L 1188.05898 145.623798 
z
" clip-path="url(#p1c06a01f48)" style="fill: #bdbdbd; opacity: 0.6"/>
   </g>
   <g id="patch_36">
    <path d="M 1188.05898 238.331797 
L 1206.13704 238.331797 
L 1206.13704 191.977797 
L 1188.05898 191.977797 
z
" clip-path="url(#p1c06a01f48)" style="fill: #bdbdbd; opacity: 0.6"/>
   </g>
   <g id="patch_37">
    <path d="M 254.952972 91.157849 
L 285.083072 91.157849 
L 285.083072 61.027749 
L 254.952972 61.027749 
z
" clip-path="url(#p1c06a01f48)" style="fill: #6fa4ff; stroke: #6fa4ff; stroke-width: 1.5; stroke-linejoin: miter"/>
   </g>
   <g id="patch_38">
    <path d="M 254.952972 137.511848 
L 285.083072 137.511848 
L 285.083072 107.381749 
L 254.952972 107.381749 
z
" clip-path="url(#p1c06a01f48)" style="fill: #6fa4ff; stroke: #6fa4ff; stroke-width: 1.5; stroke-linejoin: miter"/>
   </g>
   <g id="patch_39">
    <path d="M 316.372021 80.612314 
C 317.570611 80.612314 318.72027 80.136109 319.567801 79.288579 
C 320.415332 78.441048 320.891536 77.291388 320.891536 76.092799 
C 320.891536 74.89421 320.415332 73.74455 319.567801 72.897019 
C 318.72027 72.049489 317.570611 71.573284 316.372021 71.573284 
C 315.173432 71.573284 314.023772 72.049489 313.176242 72.897019 
C 312.328711 73.74455 311.852506 74.89421 311.852506 76.092799 
C 311.852506 77.291388 312.328711 78.441048 313.176242 79.288579 
C 314.023772 80.136109 315.173432 80.612314 316.372021 80.612314 
z
" clip-path="url(#p1c06a01f48)" style="fill: #6fa4ff; stroke: #6fa4ff; stroke-width: 1.5; stroke-linejoin: miter"/>
   </g>
   <g id="patch_40">
    <path d="M 316.372021 179.346333 
C 319.16873 179.346333 321.851269 178.235189 323.828841 176.257617 
C 325.806412 174.280045 326.917556 171.597506 326.917556 168.800798 
C 326.917556 166.004089 325.806412 163.32155 323.828841 161.343979 
C 321.851269 159.366407 319.16873 158.255263 316.372021 158.255263 
C 313.575313 158.255263 310.892774 159.366407 308.915202 161.343979 
C 306.937631 163.32155 305.826487 166.004089 305.826487 168.800798 
C 305.826487 171.597506 306.937631 174.280045 308.915202 176.257617 
C 310.892774 178.235189 313.575313 179.346333 316.372021 179.346333 
z
" clip-path="url(#p1c06a01f48)" style="fill: #6fa4ff; stroke: #6fa4ff; stroke-width: 2; stroke-linejoin: miter"/>
   </g>
   <g id="patch_41">
    <path d="M 409.08002 126.966313 
C 410.27861 126.966313 411.428269 126.490109 412.2758 125.642578 
C 413.123331 124.795047 413.599535 123.645388 413.599535 122.446798 
C 413.599535 121.248209 413.123331 120.098549 412.2758 119.251019 
C 411.428269 118.403488 410.27861 117.927283 409.08002 117.927283 
C 407.881431 117.927283 406.731771 118.403488 405.884241 119.251019 
C 405.03671 120.098549 404.560505 121.248209 404.560505 122.446798 
C 404.560505 123.645388 405.03671 124.795047 405.884241 125.642578 
C 406.731771 126.490109 407.881431 126.966313 409.08002 126.966313 
z
" clip-path="url(#p1c06a01f48)" style="fill: #6fa4ff; stroke: #6fa4ff; stroke-width: 1.5; stroke-linejoin: miter"/>
   </g>
   <g id="patch_42">
    <path d="M 409.08002 225.700332 
C 411.876729 225.700332 414.559268 224.589188 416.536839 222.611616 
C 418.514411 220.634045 419.625555 217.951506 419.625555 215.154797 
C 419.625555 212.358089 418.514411 209.67555 416.536839 207.697978 
C 414.559268 205.720406 411.876729 204.609262 409.08002 204.609262 
C 406.283312 204.609262 403.600773 205.720406 401.623201 207.697978 
C 399.645629 209.67555 398.534485 212.358089 398.534485 215.154797 
C 398.534485 217.951506 399.645629 220.634045 401.623201 222.611616 
C 403.600773 224.589188 406.283312 225.700332 409.08002 225.700332 
z
" clip-path="url(#p1c06a01f48)" style="fill: #6fa4ff; stroke: #6fa4ff; stroke-width: 2; stroke-linejoin: miter"/>
   </g>
   <g id="patch_43">
    <path d="M 394.01497 91.157849 
L 424.14507 91.157849 
L 424.14507 61.027749 
L 394.01497 61.027749 
z
" clip-path="url(#p1c06a01f48)" style="fill: #05bab6; stroke: #05bab6; stroke-width: 1.5; stroke-linejoin: miter"/>
   </g>
   <g id="patch_44">
    <path d="M 486.722969 137.511848 
L 516.853069 137.511848 
L 516.853069 107.381749 
L 486.722969 107.381749 
z
" clip-path="url(#p1c06a01f48)" style="fill: #05bab6; stroke: #05bab6; stroke-width: 1.5; stroke-linejoin: miter"/>
   </g>
   <g id="patch_45">
    <path d="M 548.142018 80.612314 
C 549.340608 80.612314 550.490267 80.136109 551.337798 79.288579 
C 552.185329 78.441048 552.661533 77.291388 552.661533 76.092799 
C 552.661533 74.89421 552.185329 73.74455 551.337798 72.897019 
C 550.490267 72.049489 549.340608 71.573284 548.142018 71.573284 
C 546.943429 71.573284 545.793769 72.049489 544.946239 72.897019 
C 544.098708 73.74455 543.622503 74.89421 543.622503 76.092799 
C 543.622503 77.291388 544.098708 78.441048 544.946239 79.288579 
C 545.793769 80.136109 546.943429 80.612314 548.142018 80.612314 
z
" clip-path="url(#p1c06a01f48)" style="fill: #bb8bff; stroke: #bb8bff; stroke-width: 1.5; stroke-linejoin: miter"/>
   </g>
   <g id="patch_46">
    <path d="M 548.142018 126.966313 
C 549.340608 126.966313 550.490267 126.490109 551.337798 125.642578 
C 552.185329 124.795047 552.661533 123.645388 552.661533 122.446798 
C 552.661533 121.248209 552.185329 120.098549 551.337798 119.251019 
C 550.490267 118.403488 549.340608 117.927283 548.142018 117.927283 
C 546.943429 117.927283 545.793769 118.403488 544.946239 119.251019 
C 544.098708 120.098549 543.622503 121.248209 543.622503 122.446798 
C 543.622503 123.645388 544.098708 124.795047 544.946239 125.642578 
C 545.793769 126.490109 546.943429 126.966313 548.142018 126.966313 
z
" clip-path="url(#p1c06a01f48)" style="fill: #bb8bff; stroke: #bb8bff; stroke-width: 1.5; stroke-linejoin: miter"/>
   </g>
   <g id="patch_47">
    <path d="M 548.142018 179.346333 
C 550.938727 179.346333 553.621266 178.235189 555.598838 176.257617 
C 557.576409 174.280045 558.687553 171.597506 558.687553 168.800798 
C 558.687553 166.004089 557.576409 163.32155 555.598838 161.343979 
C 553.621266 159.366407 550.938727 158.255263 548.142018 158.255263 
C 545.34531 158.255263 542.662771 159.366407 540.685199 161.343979 
C 538.707628 163.32155 537.596483 166.004089 537.596483 168.800798 
C 537.596483 171.597506 538.707628 174.280045 540.685199 176.257617 
C 542.662771 178.235189 545.34531 179.346333 548.142018 179.346333 
z
" clip-path="url(#p1c06a01f48)" style="fill: #bb8bff; stroke: #bb8bff; stroke-width: 2; stroke-linejoin: miter"/>
   </g>
   <g id="patch_48">
    <path d="M 625.784967 91.157849 
L 655.915067 91.157849 
L 655.915067 61.027749 
L 625.784967 61.027749 
z
" clip-path="url(#p1c06a01f48)" style="fill: #6fa4ff; stroke: #6fa4ff; stroke-width: 1.5; stroke-linejoin: miter"/>
   </g>
   <g id="patch_49">
    <path d="M 625.784967 137.511848 
L 655.915067 137.511848 
L 655.915067 107.381749 
L 625.784967 107.381749 
z
" clip-path="url(#p1c06a01f48)" style="fill: #6fa4ff; stroke: #6fa4ff; stroke-width: 1.5; stroke-linejoin: miter"/>
   </g>
   <g id="patch_50">
    <path d="M 687.204016 80.612314 
C 688.402606 80.612314 689.552265 80.136109 690.399796 79.288579 
C 691.247327 78.441048 691.723531 77.291388 691.723531 76.092799 
C 691.723531 74.89421 691.247327 73.74455 690.399796 72.897019 
C 689.552265 72.049489 688.402606 71.573284 687.204016 71.573284 
C 686.005427 71.573284 684.855767 72.049489 684.008237 72.897019 
C 683.160706 73.74455 682.684502 74.89421 682.684502 76.092799 
C 682.684502 77.291388 683.160706 78.441048 684.008237 79.288579 
C 684.855767 80.136109 686.005427 80.612314 687.204016 80.612314 
z
" clip-path="url(#p1c06a01f48)" style="fill: #6fa4ff; stroke: #6fa4ff; stroke-width: 1.5; stroke-linejoin: miter"/>
   </g>
   <g id="patch_51">
    <path d="M 687.204016 179.346333 
C 690.000725 179.346333 692.683264 178.235189 694.660836 176.257617 
C 696.638407 174.280045 697.749551 171.597506 697.749551 168.800798 
C 697.749551 166.004089 696.638407 163.32155 694.660836 161.343979 
C 692.683264 159.366407 690.000725 158.255263 687.204016 158.255263 
C 684.407308 158.255263 681.724769 159.366407 679.747197 161.343979 
C 677.769626 163.32155 676.658482 166.004089 676.658482 168.800798 
C 676.658482 171.597506 677.769626 174.280045 679.747197 176.257617 
C 681.724769 178.235189 684.407308 179.346333 687.204016 179.346333 
z
" clip-path="url(#p1c06a01f48)" style="fill: #6fa4ff; stroke: #6fa4ff; stroke-width: 2; stroke-linejoin: miter"/>
   </g>
   <g id="patch_52">
    <path d="M 779.912015 126.966313 
C 781.110605 126.966313 782.260264 126.490109 783.107795 125.642578 
C 783.955326 124.795047 784.43153 123.645388 784.43153 122.446798 
C 784.43153 121.248209 783.955326 120.098549 783.107795 119.251019 
C 782.260264 118.403488 781.110605 117.927283 779.912015 117.927283 
C 778.713426 117.927283 777.563766 118.403488 776.716236 119.251019 
C 775.868705 120.098549 775.3925 121.248209 775.3925 122.446798 
C 775.3925 123.645388 775.868705 124.795047 776.716236 125.642578 
C 777.563766 126.490109 778.713426 126.966313 779.912015 126.966313 
z
" clip-path="url(#p1c06a01f48)" style="fill: #6fa4ff; stroke: #6fa4ff; stroke-width: 1.5; stroke-linejoin: miter"/>
   </g>
   <g id="patch_53">
    <path d="M 779.912015 225.700332 
C 782.708724 225.700332 785.391263 224.589188 787.368834 222.611616 
C 789.346406 220.634045 790.45755 217.951506 790.45755 215.154797 
C 790.45755 212.358089 789.346406 209.67555 787.368834 207.697978 
C 785.391263 205.720406 782.708724 204.609262 779.912015 204.609262 
C 777.115307 204.609262 774.432768 205.720406 772.455196 207.697978 
C 770.477624 209.67555 769.36648 212.358089 769.36648 215.154797 
C 769.36648 217.951506 770.477624 220.634045 772.455196 222.611616 
C 774.432768 224.589188 777.115307 225.700332 779.912015 225.700332 
z
" clip-path="url(#p1c06a01f48)" style="fill: #6fa4ff; stroke: #6fa4ff; stroke-width: 2; stroke-linejoin: miter"/>
   </g>
   <g id="patch_54">
    <path d="M 764.846965 91.157849 
L 794.977065 91.157849 
L 794.977065 61.027749 
L 764.846965 61.027749 
z
" clip-path="url(#p1c06a01f48)" style="fill: #05bab6; stroke: #05bab6; stroke-width: 1.5; stroke-linejoin: miter"/>
   </g>
   <g id="patch_55">
    <path d="M 857.554964 137.511848 
L 887.685064 137.511848 
L 887.685064 107.381749 
L 857.554964 107.381749 
z
" clip-path="url(#p1c06a01f48)" style="fill: #05bab6; stroke: #05bab6; stroke-width: 1.5; stroke-linejoin: miter"/>
   </g>
   <g id="patch_56">
    <path d="M 918.974013 80.612314 
C 920.172603 80.612314 921.322262 80.136109 922.169793 79.288579 
C 923.017324 78.441048 923.493528 77.291388 923.493528 76.092799 
C 923.493528 74.89421 923.017324 73.74455 922.169793 72.897019 
C 921.322262 72.049489 920.172603 71.573284 918.974013 71.573284 
C 917.775424 71.573284 916.625764 72.049489 915.778234 72.897019 
C 914.930703 73.74455 914.454498 74.89421 914.454498 76.092799 
C 914.454498 77.291388 914.930703 78.441048 915.778234 79.288579 
C 916.625764 80.136109 917.775424 80.612314 918.974013 80.612314 
z
" clip-path="url(#p1c06a01f48)" style="fill: #bb8bff; stroke: #bb8bff; stroke-width: 1.5; stroke-linejoin: miter"/>
   </g>
   <g id="patch_57">
    <path d="M 918.974013 126.966313 
C 920.172603 126.966313 921.322262 126.490109 922.169793 125.642578 
C 923.017324 124.795047 923.493528 123.645388 923.493528 122.446798 
C 923.493528 121.248209 923.017324 120.098549 922.169793 119.251019 
C 921.322262 118.403488 920.172603 117.927283 918.974013 117.927283 
C 917.775424 117.927283 916.625764 118.403488 915.778234 119.251019 
C 914.930703 120.098549 914.454498 121.248209 914.454498 122.446798 
C 914.454498 123.645388 914.930703 124.795047 915.778234 125.642578 
C 916.625764 126.490109 917.775424 126.966313 918.974013 126.966313 
z
" clip-path="url(#p1c06a01f48)" style="fill: #bb8bff; stroke: #bb8bff; stroke-width: 1.5; stroke-linejoin: miter"/>
   </g>
   <g id="patch_58">
    <path d="M 918.974013 179.346333 
C 921.770722 179.346333 924.453261 178.235189 926.430833 176.257617 
C 928.408404 174.280045 929.519548 171.597506 929.519548 168.800798 
C 929.519548 166.004089 928.408404 163.32155 926.430833 161.343979 
C 924.453261 159.366407 921.770722 158.255263 918.974013 158.255263 
C 916.177305 158.255263 913.494766 159.366407 911.517194 161.343979 
C 909.539623 163.32155 908.428479 166.004089 908.428479 168.800798 
C 908.428479 171.597506 909.539623 174.280045 911.517194 176.257617 
C 913.494766 178.235189 916.177305 179.346333 918.974013 179.346333 
z
" clip-path="url(#p1c06a01f48)" style="fill: #bb8bff; stroke: #bb8bff; stroke-width: 2; stroke-linejoin: miter"/>
   </g>
   <g id="patch_59">
    <path d="M 996.616962 91.157849 
L 1026.747062 91.157849 
L 1026.747062 61.027749 
L 996.616962 61.027749 
z
" clip-path="url(#p1c06a01f48)" style="fill: #6fa4ff; stroke: #6fa4ff; stroke-width: 1.5; stroke-linejoin: miter"/>
   </g>
   <g id="patch_60">
    <path d="M 996.616962 137.511848 
L 1026.747062 137.511848 
L 1026.747062 107.381749 
L 996.616962 107.381749 
z
" clip-path="url(#p1c06a01f48)" style="fill: #6fa4ff; stroke: #6fa4ff; stroke-width: 1.5; stroke-linejoin: miter"/>
   </g>
   <g id="patch_61">
    <path d="M 1058.036012 80.612314 
C 1059.234601 80.612314 1060.384261 80.136109 1061.231791 79.288579 
C 1062.079322 78.441048 1062.555526 77.291388 1062.555526 76.092799 
C 1062.555526 74.89421 1062.079322 73.74455 1061.231791 72.897019 
C 1060.384261 72.049489 1059.234601 71.573284 1058.036012 71.573284 
C 1056.837422 71.573284 1055.687763 72.049489 1054.840232 72.897019 
C 1053.992701 73.74455 1053.516497 74.89421 1053.516497 76.092799 
C 1053.516497 77.291388 1053.992701 78.441048 1054.840232 79.288579 
C 1055.687763 80.136109 1056.837422 80.612314 1058.036012 80.612314 
z
" clip-path="url(#p1c06a01f48)" style="fill: #6fa4ff; stroke: #6fa4ff; stroke-width: 1.5; stroke-linejoin: miter"/>
   </g>
   <g id="patch_62">
    <path d="M 1058.036012 179.346333 
C 1060.83272 179.346333 1063.515259 178.235189 1065.492831 176.257617 
C 1067.470402 174.280045 1068.581546 171.597506 1068.581546 168.800798 
C 1068.581546 166.004089 1067.470402 163.32155 1065.492831 161.343979 
C 1063.515259 159.366407 1060.83272 158.255263 1058.036012 158.255263 
C 1055.239303 158.255263 1052.556764 159.366407 1050.579192 161.343979 
C 1048.601621 163.32155 1047.490477 166.004089 1047.490477 168.800798 
C 1047.490477 171.597506 1048.601621 174.280045 1050.579192 176.257617 
C 1052.556764 178.235189 1055.239303 179.346333 1058.036012 179.346333 
z
" clip-path="url(#p1c06a01f48)" style="fill: #6fa4ff; stroke: #6fa4ff; stroke-width: 2; stroke-linejoin: miter"/>
   </g>
   <g id="patch_63">
    <path d="M 1150.74401 126.966313 
C 1151.9426 126.966313 1153.092259 126.490109 1153.93979 125.642578 
C 1154.787321 124.795047 1155.263525 123.645388 1155.263525 122.446798 
C 1155.263525 121.248209 1154.787321 120.098549 1153.93979 119.251019 
C 1153.092259 118.403488 1151.9426 117.927283 1150.74401 117.927283 
C 1149.545421 117.927283 1148.395761 118.403488 1147.548231 119.251019 
C 1146.7007 120.098549 1146.224495 121.248209 1146.224495 122.446798 
C 1146.224495 123.645388 1146.7007 124.795047 1147.548231 125.642578 
C 1148.395761 126.490109 1149.545421 126.966313 1150.74401 126.966313 
z
" clip-path="url(#p1c06a01f48)" style="fill: #6fa4ff; stroke: #6fa4ff; stroke-width: 1.5; stroke-linejoin: miter"/>
   </g>
   <g id="patch_64">
    <path d="M 1150.74401 225.700332 
C 1153.540719 225.700332 1156.223258 224.589188 1158.20083 222.611616 
C 1160.178401 220.634045 1161.289545 217.951506 1161.289545 215.154797 
C 1161.289545 212.358089 1160.178401 209.67555 1158.20083 207.697978 
C 1156.223258 205.720406 1153.540719 204.609262 1150.74401 204.609262 
C 1147.947302 204.609262 1145.264763 205.720406 1143.287191 207.697978 
C 1141.30962 209.67555 1140.198475 212.358089 1140.198475 215.154797 
C 1140.198475 217.951506 1141.30962 220.634045 1143.287191 222.611616 
C 1145.264763 224.589188 1147.947302 225.700332 1150.74401 225.700332 
z
" clip-path="url(#p1c06a01f48)" style="fill: #6fa4ff; stroke: #6fa4ff; stroke-width: 2; stroke-linejoin: miter"/>
   </g>
   <g id="patch_65">
    <path d="M 1135.678961 91.157849 
L 1165.80906 91.157849 
L 1165.80906 61.027749 
L 1135.678961 61.027749 
z
" clip-path="url(#p1c06a01f48)" style="fill: #05bab6; stroke: #05bab6; stroke-width: 1.5; stroke-linejoin: miter"/>
   </g>
   <g id="patch_66">
    <path d="M 1228.386959 183.865848 
L 1258.517059 183.865848 
L 1258.517059 153.735748 
L 1228.386959 153.735748 
z
" clip-path="url(#p1c06a01f48)" style="stroke: #000000; stroke-width: 1.5; stroke-linejoin: miter"/>
   </g>
   <g id="patch_67">
    <path d="M 1253.997544 173.320313 
C 1253.997544 170.524536 1252.885741 167.840406 1250.908828 165.863493 
C 1248.931915 163.886581 1246.247786 162.774778 1243.452009 162.774778 
C 1240.656232 162.774778 1237.972103 163.886581 1235.99519 165.863493 
C 1234.018277 167.840406 1232.906474 170.524536 1232.906474 173.320313 
" clip-path="url(#p1c06a01f48)" style="fill: none; stroke: #ffffff; stroke-width: 2; stroke-linejoin: miter"/>
   </g>
   <g id="line2d_20">
    <path d="M 1243.452009 173.320313 
L 1253.997544 162.774778 
" clip-path="url(#p1c06a01f48)" style="fill: none; stroke: #ffffff; stroke-width: 2; stroke-linecap: square"/>
   </g>
   <g id="patch_68">
    <path d="M 1274.740959 230.219847 
L 1304.871058 230.219847 
L 1304.871058 200.089747 
L 1274.740959 200.089747 
z
" clip-path="url(#p1c06a01f48)" style="stroke: #000000; stroke-width: 1.5; stroke-linejoin: miter"/>
   </g>
   <g id="patch_69">
    <path d="M 1300.351543 219.674312 
C 1300.351543 216.878535 1299.239741 214.194406 1297.262828 212.217493 
C 1295.285915 210.24058 1292.601786 209.128777 1289.806008 209.128777 
C 1287.010231 209.128777 1284.326102 210.24058 1282.349189 212.217493 
C 1280.372276 214.194406 1279.260474 216.878535 1279.260474 219.674312 
" clip-path="url(#p1c06a01f48)" style="fill: none; stroke: #ffffff; stroke-width: 2; stroke-linejoin: miter"/>
   </g>
   <g id="line2d_21">
    <path d="M 1289.806008 219.674312 
L 1300.351543 209.128777 
" clip-path="url(#p1c06a01f48)" style="fill: none; stroke: #ffffff; stroke-width: 2; stroke-linecap: square"/>
   </g>
   <g id="line2d_22">
    <path d="M 316.372021 174.826818 
L 316.372021 162.774778 
" clip-path="url(#p1c06a01f48)" style="fill: none; stroke: #ffffff; stroke-width: 2; stroke-linecap: square"/>
   </g>
   <g id="line2d_23">
    <path d="M 310.346001 168.800798 
L 322.398041 168.800798 
" clip-path="url(#p1c06a01f48)" style="fill: none; stroke: #ffffff; stroke-width: 2; stroke-linecap: square"/>
   </g>
   <g id="line2d_24">
    <path d="M 409.08002 221.180817 
L 409.08002 209.128777 
" clip-path="url(#p1c06a01f48)" style="fill: none; stroke: #ffffff; stroke-width: 2; stroke-linecap: square"/>
   </g>
   <g id="line2d_25">
    <path d="M 403.054 215.154797 
L 415.10604 215.154797 
" clip-path="url(#p1c06a01f48)" style="fill: none; stroke: #ffffff; stroke-width: 2; stroke-linecap: square"/>
   </g>
   <g id="line2d_26">
    <path d="M 548.142018 174.826818 
L 548.142018 162.774778 
" clip-path="url(#p1c06a01f48)" style="fill: none; stroke: #ffffff; stroke-width: 2; stroke-linecap: square"/>
   </g>
   <g id="line2d_27">
    <path d="M 542.115998 168.800798 
L 554.168038 168.800798 
" clip-path="url(#p1c06a01f48)" style="fill: none; stroke: #ffffff; stroke-width: 2; stroke-linecap: square"/>
   </g>
   <g id="line2d_28">
    <path d="M 687.204016 174.826818 
L 687.204016 162.774778 
" clip-path="url(#p1c06a01f48)" style="fill: none; stroke: #ffffff; stroke-width: 2; stroke-linecap: square"/>
   </g>
   <g id="line2d_29">
    <path d="M 681.177997 168.800798 
L 693.230036 168.800798 
" clip-path="url(#p1c06a01f48)" style="fill: none; stroke: #ffffff; stroke-width: 2; stroke-linecap: square"/>
   </g>
   <g id="line2d_30">
    <path d="M 779.912015 221.180817 
L 779.912015 209.128777 
" clip-path="url(#p1c06a01f48)" style="fill: none; stroke: #ffffff; stroke-width: 2; stroke-linecap: square"/>
   </g>
   <g id="line2d_31">
    <path d="M 773.885995 215.154797 
L 785.938035 215.154797 
" clip-path="url(#p1c06a01f48)" style="fill: none; stroke: #ffffff; stroke-width: 2; stroke-linecap: square"/>
   </g>
   <g id="line2d_32">
    <path d="M 918.974013 174.826818 
L 918.974013 162.774778 
" clip-path="url(#p1c06a01f48)" style="fill: none; stroke: #ffffff; stroke-width: 2; stroke-linecap: square"/>
   </g>
   <g id="line2d_33">
    <path d="M 912.947993 168.800798 
L 925.000033 168.800798 
" clip-path="url(#p1c06a01f48)" style="fill: none; stroke: #ffffff; stroke-width: 2; stroke-linecap: square"/>
   </g>
   <g id="line2d_34">
    <path d="M 1058.036012 174.826818 
L 1058.036012 162.774778 
" clip-path="url(#p1c06a01f48)" style="fill: none; stroke: #ffffff; stroke-width: 2; stroke-linecap: square"/>
   </g>
   <g id="line2d_35">
    <path d="M 1052.009992 168.800798 
L 1064.062031 168.800798 
" clip-path="url(#p1c06a01f48)" style="fill: none; stroke: #ffffff; stroke-width: 2; stroke-linecap: square"/>
   </g>
   <g id="line2d_36">
    <path d="M 1150.74401 221.180817 
L 1150.74401 209.128777 
" clip-path="url(#p1c06a01f48)" style="fill: none; stroke: #ffffff; stroke-width: 2; stroke-linecap: square"/>
   </g>
   <g id="line2d_37">
    <path d="M 1144.71799 215.154797 
L 1156.77003 215.154797 
" clip-path="url(#p1c06a01f48)" style="fill: none; stroke: #ffffff; stroke-width: 2; stroke-linecap: square"/>
   </g>
   <g id="text_1">
    <g clip-path="url(#p1c06a01f48)">
     <!-- ${q}_{0}$ -->
     <g transform="translate(217.678562 80.543776) scale(0.1625 -0.1625)">
      <defs>
       <path id="DejaVuSans-Oblique-71" d="M 2669 525 
Q 2438 222 2123 65 
Q 1809 -91 1428 -91 
Q 897 -91 595 267 
Q 294 625 294 1253 
Q 294 1759 480 2231 
Q 666 2703 1013 3078 
Q 1238 3322 1530 3453 
Q 1822 3584 2144 3584 
Q 2531 3584 2781 3431 
Q 3031 3278 3144 2969 
L 3244 3494 
L 3822 3494 
L 2888 -1319 
L 2309 -1319 
L 2669 525 
z
M 891 1338 
Q 891 875 1084 633 
Q 1278 391 1644 391 
Q 2188 391 2572 911 
Q 2956 1431 2956 2175 
Q 2956 2625 2757 2864 
Q 2559 3103 2188 3103 
Q 1916 3103 1684 2976 
Q 1453 2850 1281 2606 
Q 1100 2350 995 2006 
Q 891 1663 891 1338 
z
" transform="scale(0.015625)"/>
       <path id="DejaVuSans-30" d="M 2034 4250 
Q 1547 4250 1301 3770 
Q 1056 3291 1056 2328 
Q 1056 1369 1301 889 
Q 1547 409 2034 409 
Q 2525 409 2770 889 
Q 3016 1369 3016 2328 
Q 3016 3291 2770 3770 
Q 2525 4250 2034 4250 
z
M 2034 4750 
Q 2819 4750 3233 4129 
Q 3647 3509 3647 2328 
Q 3647 1150 3233 529 
Q 2819 -91 2034 -91 
Q 1250 -91 836 529 
Q 422 1150 422 2328 
Q 422 3509 836 4129 
Q 1250 4750 2034 4750 
z
" transform="scale(0.015625)"/>
      </defs>
      <use xlink:href="#DejaVuSans-Oblique-71"/>
      <use xlink:href="#DejaVuSans-30" transform="translate(63.476562 -16.40625) scale(0.7)"/>
     </g>
    </g>
   </g>
   <g id="text_2">
    <g clip-path="url(#p1c06a01f48)">
     <!-- ${q}_{1}$ -->
     <g transform="translate(217.678562 126.897775) scale(0.1625 -0.1625)">
      <defs>
       <path id="DejaVuSans-31" d="M 794 531 
L 1825 531 
L 1825 4091 
L 703 3866 
L 703 4441 
L 1819 4666 
L 2450 4666 
L 2450 531 
L 3481 531 
L 3481 0 
L 794 0 
L 794 531 
z
" transform="scale(0.015625)"/>
      </defs>
      <use xlink:href="#DejaVuSans-Oblique-71"/>
      <use xlink:href="#DejaVuSans-31" transform="translate(63.476562 -16.40625) scale(0.7)"/>
     </g>
    </g>
   </g>
   <g id="text_3">
    <g clip-path="url(#p1c06a01f48)">
     <!-- ${q}_{2}$ -->
     <g transform="translate(217.678562 173.251774) scale(0.1625 -0.1625)">
      <defs>
       <path id="DejaVuSans-32" d="M 1228 531 
L 3431 531 
L 3431 0 
L 469 0 
L 469 531 
Q 828 903 1448 1529 
Q 2069 2156 2228 2338 
Q 2531 2678 2651 2914 
Q 2772 3150 2772 3378 
Q 2772 3750 2511 3984 
Q 2250 4219 1831 4219 
Q 1534 4219 1204 4116 
Q 875 4013 500 3803 
L 500 4441 
Q 881 4594 1212 4672 
Q 1544 4750 1819 4750 
Q 2544 4750 2975 4387 
Q 3406 4025 3406 3419 
Q 3406 3131 3298 2873 
Q 3191 2616 2906 2266 
Q 2828 2175 2409 1742 
Q 1991 1309 1228 531 
z
" transform="scale(0.015625)"/>
      </defs>
      <use xlink:href="#DejaVuSans-Oblique-71"/>
      <use xlink:href="#DejaVuSans-32" transform="translate(63.476562 -16.40625) scale(0.7)"/>
     </g>
    </g>
   </g>
   <g id="text_4">
    <g clip-path="url(#p1c06a01f48)">
     <!-- ${q}_{3}$ -->
     <g transform="translate(217.678562 219.605774) scale(0.1625 -0.1625)">
      <defs>
       <path id="DejaVuSans-33" d="M 2597 2516 
Q 3050 2419 3304 2112 
Q 3559 1806 3559 1356 
Q 3559 666 3084 287 
Q 2609 -91 1734 -91 
Q 1441 -91 1130 -33 
Q 819 25 488 141 
L 488 750 
Q 750 597 1062 519 
Q 1375 441 1716 441 
Q 2309 441 2620 675 
Q 2931 909 2931 1356 
Q 2931 1769 2642 2001 
Q 2353 2234 1838 2234 
L 1294 2234 
L 1294 2753 
L 1863 2753 
Q 2328 2753 2575 2939 
Q 2822 3125 2822 3475 
Q 2822 3834 2567 4026 
Q 2313 4219 1838 4219 
Q 1578 4219 1281 4162 
Q 984 4106 628 3988 
L 628 4550 
Q 988 4650 1302 4700 
Q 1616 4750 1894 4750 
Q 2613 4750 3031 4423 
Q 3450 4097 3450 3541 
Q 3450 3153 3228 2886 
Q 3006 2619 2597 2516 
z
" transform="scale(0.015625)"/>
      </defs>
      <use xlink:href="#DejaVuSans-Oblique-71"/>
      <use xlink:href="#DejaVuSans-33" transform="translate(63.476562 -16.40625) scale(0.7)"/>
     </g>
    </g>
   </g>
   <g id="text_5">
    <g clip-path="url(#p1c06a01f48)">
     <!-- 4 -->
     <g transform="translate(249.622262 254.710522) scale(0.104 -0.104)">
      <defs>
       <path id="DejaVuSans-34" d="M 2419 4116 
L 825 1625 
L 2419 1625 
L 2419 4116 
z
M 2253 4666 
L 3047 4666 
L 3047 1625 
L 3713 1625 
L 3713 1100 
L 3047 1100 
L 3047 0 
L 2419 0 
L 2419 1100 
L 313 1100 
L 313 1709 
L 2253 4666 
z
" transform="scale(0.015625)"/>
      </defs>
      <use xlink:href="#DejaVuSans-34"/>
     </g>
    </g>
   </g>
   <g id="text_6">
    <g clip-path="url(#p1c06a01f48)">
     <!-- c -->
     <g transform="translate(226.781102 265.992781) scale(0.1625 -0.1625)">
      <defs>
       <path id="DejaVuSans-63" d="M 3122 3366 
L 3122 2828 
Q 2878 2963 2633 3030 
Q 2388 3097 2138 3097 
Q 1578 3097 1268 2742 
Q 959 2388 959 1747 
Q 959 1106 1268 751 
Q 1578 397 2138 397 
Q 2388 397 2633 464 
Q 2878 531 3122 666 
L 3122 134 
Q 2881 22 2623 -34 
Q 2366 -91 2075 -91 
Q 1284 -91 818 406 
Q 353 903 353 1747 
Q 353 2603 823 3093 
Q 1294 3584 2113 3584 
Q 2378 3584 2631 3529 
Q 2884 3475 3122 3366 
z
" transform="scale(0.015625)"/>
      </defs>
      <use xlink:href="#DejaVuSans-63"/>
     </g>
    </g>
   </g>
   <g id="text_7">
    <g clip-path="url(#p1c06a01f48)">
     <!-- H -->
     <g transform="translate(265.129819 79.679986) scale(0.13 -0.13)">
      <defs>
       <path id="DejaVuSans-48" d="M 628 4666 
L 1259 4666 
L 1259 2753 
L 3553 2753 
L 3553 4666 
L 4184 4666 
L 4184 0 
L 3553 0 
L 3553 2222 
L 1259 2222 
L 1259 0 
L 628 0 
L 628 4666 
z
" transform="scale(0.015625)"/>
      </defs>
      <use xlink:href="#DejaVuSans-48"/>
     </g>
    </g>
   </g>
   <g id="text_8">
    <g clip-path="url(#p1c06a01f48)">
     <!-- H -->
     <g transform="translate(265.129819 126.033986) scale(0.13 -0.13)">
      <use xlink:href="#DejaVuSans-48"/>
     </g>
    </g>
   </g>
   <g id="line2d_38">
    <path d="M 362.726021 52.915799 
L 362.726021 99.269799 
" clip-path="url(#p1c06a01f48)" style="fill: none; stroke-dasharray: 3.7,1.6; stroke-dashoffset: 0; stroke: #000000"/>
   </g>
   <g id="line2d_39">
    <path d="M 362.726021 99.269799 
L 362.726021 145.623798 
" clip-path="url(#p1c06a01f48)" style="fill: none; stroke-dasharray: 3.7,1.6; stroke-dashoffset: 0; stroke: #000000"/>
   </g>
   <g id="line2d_40">
    <path d="M 362.726021 145.623798 
L 362.726021 191.977797 
" clip-path="url(#p1c06a01f48)" style="fill: none; stroke-dasharray: 3.7,1.6; stroke-dashoffset: 0; stroke: #000000"/>
   </g>
   <g id="line2d_41">
    <path d="M 362.726021 191.977797 
L 362.726021 238.331797 
" clip-path="url(#p1c06a01f48)" style="fill: none; stroke-dasharray: 3.7,1.6; stroke-dashoffset: 0; stroke: #000000"/>
   </g>
   <g id="text_9">
    <g clip-path="url(#p1c06a01f48)">
     <!-- X -->
     <g transform="translate(404.62752 79.679986) scale(0.13 -0.13)">
      <defs>
       <path id="DejaVuSans-58" d="M 403 4666 
L 1081 4666 
L 2241 2931 
L 3406 4666 
L 4084 4666 
L 2584 2425 
L 4184 0 
L 3506 0 
L 2194 1984 
L 872 0 
L 191 0 
L 1856 2491 
L 403 4666 
z
" transform="scale(0.015625)"/>
      </defs>
      <use xlink:href="#DejaVuSans-58"/>
     </g>
    </g>
   </g>
   <g id="line2d_42">
    <path d="M 455.43402 52.915799 
L 455.43402 99.269799 
" clip-path="url(#p1c06a01f48)" style="fill: none; stroke-dasharray: 3.7,1.6; stroke-dashoffset: 0; stroke: #000000"/>
   </g>
   <g id="line2d_43">
    <path d="M 455.43402 99.269799 
L 455.43402 145.623798 
" clip-path="url(#p1c06a01f48)" style="fill: none; stroke-dasharray: 3.7,1.6; stroke-dashoffset: 0; stroke: #000000"/>
   </g>
   <g id="line2d_44">
    <path d="M 455.43402 145.623798 
L 455.43402 191.977797 
" clip-path="url(#p1c06a01f48)" style="fill: none; stroke-dasharray: 3.7,1.6; stroke-dashoffset: 0; stroke: #000000"/>
   </g>
   <g id="line2d_45">
    <path d="M 455.43402 191.977797 
L 455.43402 238.331797 
" clip-path="url(#p1c06a01f48)" style="fill: none; stroke-dasharray: 3.7,1.6; stroke-dashoffset: 0; stroke: #000000"/>
   </g>
   <g id="text_10">
    <g clip-path="url(#p1c06a01f48)">
     <!-- X -->
     <g transform="translate(497.335519 126.033986) scale(0.13 -0.13)">
      <use xlink:href="#DejaVuSans-58"/>
     </g>
    </g>
   </g>
   <g id="line2d_46">
    <path d="M 594.496018 52.915799 
L 594.496018 99.269799 
" clip-path="url(#p1c06a01f48)" style="fill: none; stroke-dasharray: 3.7,1.6; stroke-dashoffset: 0; stroke: #000000"/>
   </g>
   <g id="line2d_47">
    <path d="M 594.496018 99.269799 
L 594.496018 145.623798 
" clip-path="url(#p1c06a01f48)" style="fill: none; stroke-dasharray: 3.7,1.6; stroke-dashoffset: 0; stroke: #000000"/>
   </g>
   <g id="line2d_48">
    <path d="M 594.496018 145.623798 
L 594.496018 191.977797 
" clip-path="url(#p1c06a01f48)" style="fill: none; stroke-dasharray: 3.7,1.6; stroke-dashoffset: 0; stroke: #000000"/>
   </g>
   <g id="line2d_49">
    <path d="M 594.496018 191.977797 
L 594.496018 238.331797 
" clip-path="url(#p1c06a01f48)" style="fill: none; stroke-dasharray: 3.7,1.6; stroke-dashoffset: 0; stroke: #000000"/>
   </g>
   <g id="text_11">
    <g clip-path="url(#p1c06a01f48)">
     <!-- H -->
     <g transform="translate(635.961814 79.679986) scale(0.13 -0.13)">
      <use xlink:href="#DejaVuSans-48"/>
     </g>
    </g>
   </g>
   <g id="text_12">
    <g clip-path="url(#p1c06a01f48)">
     <!-- H -->
     <g transform="translate(635.961814 126.033986) scale(0.13 -0.13)">
      <use xlink:href="#DejaVuSans-48"/>
     </g>
    </g>
   </g>
   <g id="line2d_50">
    <path d="M 733.558016 52.915799 
L 733.558016 99.269799 
" clip-path="url(#p1c06a01f48)" style="fill: none; stroke-dasharray: 3.7,1.6; stroke-dashoffset: 0; stroke: #000000"/>
   </g>
   <g id="line2d_51">
    <path d="M 733.558016 99.269799 
L 733.558016 145.623798 
" clip-path="url(#p1c06a01f48)" style="fill: none; stroke-dasharray: 3.7,1.6; stroke-dashoffset: 0; stroke: #000000"/>
   </g>
   <g id="line2d_52">
    <path d="M 733.558016 145.623798 
L 733.558016 191.977797 
" clip-path="url(#p1c06a01f48)" style="fill: none; stroke-dasharray: 3.7,1.6; stroke-dashoffset: 0; stroke: #000000"/>
   </g>
   <g id="line2d_53">
    <path d="M 733.558016 191.977797 
L 733.558016 238.331797 
" clip-path="url(#p1c06a01f48)" style="fill: none; stroke-dasharray: 3.7,1.6; stroke-dashoffset: 0; stroke: #000000"/>
   </g>
   <g id="text_13">
    <g clip-path="url(#p1c06a01f48)">
     <!-- X -->
     <g transform="translate(775.459515 79.679986) scale(0.13 -0.13)">
      <use xlink:href="#DejaVuSans-58"/>
     </g>
    </g>
   </g>
   <g id="line2d_54">
    <path d="M 826.266015 52.915799 
L 826.266015 99.269799 
" clip-path="url(#p1c06a01f48)" style="fill: none; stroke-dasharray: 3.7,1.6; stroke-dashoffset: 0; stroke: #000000"/>
   </g>
   <g id="line2d_55">
    <path d="M 826.266015 99.269799 
L 826.266015 145.623798 
" clip-path="url(#p1c06a01f48)" style="fill: none; stroke-dasharray: 3.7,1.6; stroke-dashoffset: 0; stroke: #000000"/>
   </g>
   <g id="line2d_56">
    <path d="M 826.266015 145.623798 
L 826.266015 191.977797 
" clip-path="url(#p1c06a01f48)" style="fill: none; stroke-dasharray: 3.7,1.6; stroke-dashoffset: 0; stroke: #000000"/>
   </g>
   <g id="line2d_57">
    <path d="M 826.266015 191.977797 
L 826.266015 238.331797 
" clip-path="url(#p1c06a01f48)" style="fill: none; stroke-dasharray: 3.7,1.6; stroke-dashoffset: 0; stroke: #000000"/>
   </g>
   <g id="text_14">
    <g clip-path="url(#p1c06a01f48)">
     <!-- X -->
     <g transform="translate(868.167514 126.033986) scale(0.13 -0.13)">
      <use xlink:href="#DejaVuSans-58"/>
     </g>
    </g>
   </g>
   <g id="line2d_58">
    <path d="M 965.328013 52.915799 
L 965.328013 99.269799 
" clip-path="url(#p1c06a01f48)" style="fill: none; stroke-dasharray: 3.7,1.6; stroke-dashoffset: 0; stroke: #000000"/>
   </g>
   <g id="line2d_59">
    <path d="M 965.328013 99.269799 
L 965.328013 145.623798 
" clip-path="url(#p1c06a01f48)" style="fill: none; stroke-dasharray: 3.7,1.6; stroke-dashoffset: 0; stroke: #000000"/>
   </g>
   <g id="line2d_60">
    <path d="M 965.328013 145.623798 
L 965.328013 191.977797 
" clip-path="url(#p1c06a01f48)" style="fill: none; stroke-dasharray: 3.7,1.6; stroke-dashoffset: 0; stroke: #000000"/>
   </g>
   <g id="line2d_61">
    <path d="M 965.328013 191.977797 
L 965.328013 238.331797 
" clip-path="url(#p1c06a01f48)" style="fill: none; stroke-dasharray: 3.7,1.6; stroke-dashoffset: 0; stroke: #000000"/>
   </g>
   <g id="text_15">
    <g clip-path="url(#p1c06a01f48)">
     <!-- H -->
     <g transform="translate(1006.793809 79.679986) scale(0.13 -0.13)">
      <use xlink:href="#DejaVuSans-48"/>
     </g>
    </g>
   </g>
   <g id="text_16">
    <g clip-path="url(#p1c06a01f48)">
     <!-- H -->
     <g transform="translate(1006.793809 126.033986) scale(0.13 -0.13)">
      <use xlink:href="#DejaVuSans-48"/>
     </g>
    </g>
   </g>
   <g id="line2d_62">
    <path d="M 1104.390011 52.915799 
L 1104.390011 99.269799 
" clip-path="url(#p1c06a01f48)" style="fill: none; stroke-dasharray: 3.7,1.6; stroke-dashoffset: 0; stroke: #000000"/>
   </g>
   <g id="line2d_63">
    <path d="M 1104.390011 99.269799 
L 1104.390011 145.623798 
" clip-path="url(#p1c06a01f48)" style="fill: none; stroke-dasharray: 3.7,1.6; stroke-dashoffset: 0; stroke: #000000"/>
   </g>
   <g id="line2d_64">
    <path d="M 1104.390011 145.623798 
L 1104.390011 191.977797 
" clip-path="url(#p1c06a01f48)" style="fill: none; stroke-dasharray: 3.7,1.6; stroke-dashoffset: 0; stroke: #000000"/>
   </g>
   <g id="line2d_65">
    <path d="M 1104.390011 191.977797 
L 1104.390011 238.331797 
" clip-path="url(#p1c06a01f48)" style="fill: none; stroke-dasharray: 3.7,1.6; stroke-dashoffset: 0; stroke: #000000"/>
   </g>
   <g id="text_17">
    <g clip-path="url(#p1c06a01f48)">
     <!-- X -->
     <g transform="translate(1146.29151 79.679986) scale(0.13 -0.13)">
      <use xlink:href="#DejaVuSans-58"/>
     </g>
    </g>
   </g>
   <g id="line2d_66">
    <path d="M 1197.09801 52.915799 
L 1197.09801 99.269799 
" clip-path="url(#p1c06a01f48)" style="fill: none; stroke-dasharray: 3.7,1.6; stroke-dashoffset: 0; stroke: #000000"/>
   </g>
   <g id="line2d_67">
    <path d="M 1197.09801 99.269799 
L 1197.09801 145.623798 
" clip-path="url(#p1c06a01f48)" style="fill: none; stroke-dasharray: 3.7,1.6; stroke-dashoffset: 0; stroke: #000000"/>
   </g>
   <g id="line2d_68">
    <path d="M 1197.09801 145.623798 
L 1197.09801 191.977797 
" clip-path="url(#p1c06a01f48)" style="fill: none; stroke-dasharray: 3.7,1.6; stroke-dashoffset: 0; stroke: #000000"/>
   </g>
   <g id="line2d_69">
    <path d="M 1197.09801 191.977797 
L 1197.09801 238.331797 
" clip-path="url(#p1c06a01f48)" style="fill: none; stroke-dasharray: 3.7,1.6; stroke-dashoffset: 0; stroke: #000000"/>
   </g>
   <g id="text_18">
    <g clip-path="url(#p1c06a01f48)">
     <!-- 0 -->
     <g transform="translate(1255.040509 254.710522) scale(0.104 -0.104)">
      <use xlink:href="#DejaVuSans-30"/>
     </g>
    </g>
   </g>
   <g id="text_19">
    <g clip-path="url(#p1c06a01f48)">
     <!-- 1 -->
     <g transform="translate(1301.394508 254.710522) scale(0.104 -0.104)">
      <use xlink:href="#DejaVuSans-31"/>
     </g>
    </g>
   </g>
  </g>
 </g>
 <defs>
  <clipPath id="p1c06a01f48">
   <rect x="187.577666" y="39.009599" width="1132.821982" height="250.311597"/>
  </clipPath>
 </defs>
</svg>
