<?xml version="1.0" encoding="utf-8" standalone="no"?>
<!DOCTYPE svg PUBLIC "-//W3C//DTD SVG 1.1//EN"
  "http://www.w3.org/Graphics/SVG/1.1/DTD/svg11.dtd">
<svg xmlns:xlink="http://www.w3.org/1999/xlink" width="989.597386pt" height="325.079996pt" viewBox="0 0 989.597386 325.079996" xmlns="http://www.w3.org/2000/svg" version="1.1">
 <metadata>
  <rdf:RDF xmlns:dc="http://purl.org/dc/elements/1.1/" xmlns:cc="http://creativecommons.org/ns#" xmlns:rdf="http://www.w3.org/1999/02/22-rdf-syntax-ns#">
   <cc:Work>
    <dc:type rdf:resource="http://purl.org/dc/dcmitype/StillImage"/>
    <dc:date>2024-02-05T14:30:40.963581</dc:date>
    <dc:format>image/svg+xml</dc:format>
    <dc:creator>
     <cc:Agent>
      <dc:title>Matplotlib v3.8.2, https://matplotlib.org/</dc:title>
     </cc:Agent>
    </dc:creator>
   </cc:Work>
  </rdf:RDF>
 </metadata>
 <defs>
  <style type="text/css">*{stroke-linejoin: round; stroke-linecap: butt}</style>
 </defs>
 <g id="figure_1">
  <g id="patch_1">
   <path d="M 0 325.079996 
L 989.597386 325.079996 
L 989.597386 0 
L 0 0 
z
" style="fill: #ffffff"/>
  </g>
  <g id="axes_1">
   <g id="line2d_1">
    <path d="M 183.582863 76.092799 
L 883.528254 76.092799 
" clip-path="url(#p7ea2fd3a9c)" style="fill: none; stroke: #000000; stroke-width: 2; stroke-linecap: square"/>
   </g>
   <g id="line2d_2">
    <path d="M 183.582863 122.446798 
L 883.528254 122.446798 
" clip-path="url(#p7ea2fd3a9c)" style="fill: none; stroke: #000000; stroke-width: 2; stroke-linecap: square"/>
   </g>
   <g id="line2d_3">
    <path d="M 183.582863 168.800798 
L 883.528254 168.800798 
" clip-path="url(#p7ea2fd3a9c)" style="fill: none; stroke: #000000; stroke-width: 2; stroke-linecap: square"/>
   </g>
   <g id="line2d_4">
    <path d="M 183.582863 215.154797 
L 883.528254 215.154797 
" clip-path="url(#p7ea2fd3a9c)" style="fill: none; stroke: #000000; stroke-width: 2; stroke-linecap: square"/>
   </g>
   <g id="line2d_5">
    <path d="M 192.853663 266.144196 
L 197.489063 256.873397 
" clip-path="url(#p7ea2fd3a9c)" style="fill: none; stroke: #778899; stroke-width: 1.5; stroke-linecap: square"/>
   </g>
   <g id="line2d_6">
    <path d="M 183.582863 260.002292 
L 883.528254 260.002292 
" clip-path="url(#p7ea2fd3a9c)" style="fill: none; stroke: #778899; stroke-width: 2; stroke-linecap: square"/>
   </g>
   <g id="line2d_7">
    <path d="M 183.582863 263.015302 
L 883.528254 263.015302 
" clip-path="url(#p7ea2fd3a9c)" style="fill: none; stroke: #778899; stroke-width: 2; stroke-linecap: square"/>
   </g>
   <g id="patch_2">
    <path d="M 805.189995 250.963262 
L 817.242035 250.963262 
L 811.216015 259.654637 
z
" clip-path="url(#p7ea2fd3a9c)" style="fill: #778899"/>
   </g>
   <g id="patch_3">
    <path d="M 851.543994 250.963262 
L 863.596034 250.963262 
L 857.570014 259.654637 
z
" clip-path="url(#p7ea2fd3a9c)" style="fill: #778899"/>
   </g>
   <g id="patch_4">
    <path d="M 178.947463 52.915799 
L -979.902521 52.915799 
L -979.902521 331.039796 
L 178.947463 331.039796 
z
" clip-path="url(#p7ea2fd3a9c)" style="fill: #ffffff; stroke: #ffffff; stroke-width: 1.5; stroke-linejoin: miter"/>
   </g>
   <g id="line2d_8">
    <path d="M 254.968022 168.800798 
L 254.968022 76.092799 
" clip-path="url(#p7ea2fd3a9c)" style="fill: none; stroke: #6fa4ff; stroke-width: 2; stroke-linecap: square"/>
   </g>
   <g id="line2d_9">
    <path d="M 347.676021 215.154797 
L 347.676021 122.446798 
" clip-path="url(#p7ea2fd3a9c)" style="fill: none; stroke: #6fa4ff; stroke-width: 2; stroke-linecap: square"/>
   </g>
   <g id="line2d_10">
    <path d="M 486.738019 168.800798 
L 486.738019 76.092799 
" clip-path="url(#p7ea2fd3a9c)" style="fill: none; stroke: #bb8bff; stroke-width: 2; stroke-linecap: square"/>
   </g>
   <g id="line2d_11">
    <path d="M 625.800017 168.800798 
L 625.800017 76.092799 
" clip-path="url(#p7ea2fd3a9c)" style="fill: none; stroke: #6fa4ff; stroke-width: 2; stroke-linecap: square"/>
   </g>
   <g id="line2d_12">
    <path d="M 718.508016 215.154797 
L 718.508016 122.446798 
" clip-path="url(#p7ea2fd3a9c)" style="fill: none; stroke: #6fa4ff; stroke-width: 2; stroke-linecap: square"/>
   </g>
   <g id="line2d_13">
    <path d="M 812.72252 168.800798 
L 812.72252 250.963262 
" clip-path="url(#p7ea2fd3a9c)" style="fill: none; stroke: #778899; stroke-width: 2; stroke-linecap: square"/>
   </g>
   <g id="line2d_14">
    <path d="M 809.70951 168.800798 
L 809.70951 250.963262 
" clip-path="url(#p7ea2fd3a9c)" style="fill: none; stroke: #778899; stroke-width: 2; stroke-linecap: square"/>
   </g>
   <g id="line2d_15">
    <path d="M 859.076519 215.154797 
L 859.076519 250.963262 
" clip-path="url(#p7ea2fd3a9c)" style="fill: none; stroke: #778899; stroke-width: 2; stroke-linecap: square"/>
   </g>
   <g id="line2d_16">
    <path d="M 856.063509 215.154797 
L 856.063509 250.963262 
" clip-path="url(#p7ea2fd3a9c)" style="fill: none; stroke: #778899; stroke-width: 2; stroke-linecap: square"/>
   </g>
   <g id="patch_5">
    <path d="M 292.282992 99.269799 
L 310.361051 99.269799 
L 310.361051 52.915799 
L 292.282992 52.915799 
z
" clip-path="url(#p7ea2fd3a9c)" style="fill: #bdbdbd; opacity: 0.6"/>
   </g>
   <g id="patch_6">
    <path d="M 292.282992 145.623798 
L 310.361051 145.623798 
L 310.361051 99.269799 
L 292.282992 99.269799 
z
" clip-path="url(#p7ea2fd3a9c)" style="fill: #bdbdbd; opacity: 0.6"/>
   </g>
   <g id="patch_7">
    <path d="M 292.282992 191.977797 
L 310.361051 191.977797 
L 310.361051 145.623798 
L 292.282992 145.623798 
z
" clip-path="url(#p7ea2fd3a9c)" style="fill: #bdbdbd; opacity: 0.6"/>
   </g>
   <g id="patch_8">
    <path d="M 292.282992 238.331797 
L 310.361051 238.331797 
L 310.361051 191.977797 
L 292.282992 191.977797 
z
" clip-path="url(#p7ea2fd3a9c)" style="fill: #bdbdbd; opacity: 0.6"/>
   </g>
   <g id="patch_9">
    <path d="M 384.99099 99.269799 
L 403.06905 99.269799 
L 403.06905 52.915799 
L 384.99099 52.915799 
z
" clip-path="url(#p7ea2fd3a9c)" style="fill: #bdbdbd; opacity: 0.6"/>
   </g>
   <g id="patch_10">
    <path d="M 384.99099 145.623798 
L 403.06905 145.623798 
L 403.06905 99.269799 
L 384.99099 99.269799 
z
" clip-path="url(#p7ea2fd3a9c)" style="fill: #bdbdbd; opacity: 0.6"/>
   </g>
   <g id="patch_11">
    <path d="M 384.99099 191.977797 
L 403.06905 191.977797 
L 403.06905 145.623798 
L 384.99099 145.623798 
z
" clip-path="url(#p7ea2fd3a9c)" style="fill: #bdbdbd; opacity: 0.6"/>
   </g>
   <g id="patch_12">
    <path d="M 384.99099 238.331797 
L 403.06905 238.331797 
L 403.06905 191.977797 
L 384.99099 191.977797 
z
" clip-path="url(#p7ea2fd3a9c)" style="fill: #bdbdbd; opacity: 0.6"/>
   </g>
   <g id="patch_13">
    <path d="M 524.052989 99.269799 
L 542.131048 99.269799 
L 542.131048 52.915799 
L 524.052989 52.915799 
z
" clip-path="url(#p7ea2fd3a9c)" style="fill: #bdbdbd; opacity: 0.6"/>
   </g>
   <g id="patch_14">
    <path d="M 524.052989 145.623798 
L 542.131048 145.623798 
L 542.131048 99.269799 
L 524.052989 99.269799 
z
" clip-path="url(#p7ea2fd3a9c)" style="fill: #bdbdbd; opacity: 0.6"/>
   </g>
   <g id="patch_15">
    <path d="M 524.052989 191.977797 
L 542.131048 191.977797 
L 542.131048 145.623798 
L 524.052989 145.623798 
z
" clip-path="url(#p7ea2fd3a9c)" style="fill: #bdbdbd; opacity: 0.6"/>
   </g>
   <g id="patch_16">
    <path d="M 524.052989 238.331797 
L 542.131048 238.331797 
L 542.131048 191.977797 
L 524.052989 191.977797 
z
" clip-path="url(#p7ea2fd3a9c)" style="fill: #bdbdbd; opacity: 0.6"/>
   </g>
   <g id="patch_17">
    <path d="M 663.114987 99.269799 
L 681.193047 99.269799 
L 681.193047 52.915799 
L 663.114987 52.915799 
z
" clip-path="url(#p7ea2fd3a9c)" style="fill: #bdbdbd; opacity: 0.6"/>
   </g>
   <g id="patch_18">
    <path d="M 663.114987 145.623798 
L 681.193047 145.623798 
L 681.193047 99.269799 
L 663.114987 99.269799 
z
" clip-path="url(#p7ea2fd3a9c)" style="fill: #bdbdbd; opacity: 0.6"/>
   </g>
   <g id="patch_19">
    <path d="M 663.114987 191.977797 
L 681.193047 191.977797 
L 681.193047 145.623798 
L 663.114987 145.623798 
z
" clip-path="url(#p7ea2fd3a9c)" style="fill: #bdbdbd; opacity: 0.6"/>
   </g>
   <g id="patch_20">
    <path d="M 663.114987 238.331797 
L 681.193047 238.331797 
L 681.193047 191.977797 
L 663.114987 191.977797 
z
" clip-path="url(#p7ea2fd3a9c)" style="fill: #bdbdbd; opacity: 0.6"/>
   </g>
   <g id="patch_21">
    <path d="M 755.822986 99.269799 
L 773.901045 99.269799 
L 773.901045 52.915799 
L 755.822986 52.915799 
z
" clip-path="url(#p7ea2fd3a9c)" style="fill: #bdbdbd; opacity: 0.6"/>
   </g>
   <g id="patch_22">
    <path d="M 755.822986 145.623798 
L 773.901045 145.623798 
L 773.901045 99.269799 
L 755.822986 99.269799 
z
" clip-path="url(#p7ea2fd3a9c)" style="fill: #bdbdbd; opacity: 0.6"/>
   </g>
   <g id="patch_23">
    <path d="M 755.822986 191.977797 
L 773.901045 191.977797 
L 773.901045 145.623798 
L 755.822986 145.623798 
z
" clip-path="url(#p7ea2fd3a9c)" style="fill: #bdbdbd; opacity: 0.6"/>
   </g>
   <g id="patch_24">
    <path d="M 755.822986 238.331797 
L 773.901045 238.331797 
L 773.901045 191.977797 
L 755.822986 191.977797 
z
" clip-path="url(#p7ea2fd3a9c)" style="fill: #bdbdbd; opacity: 0.6"/>
   </g>
   <g id="patch_25">
    <path d="M 193.548973 91.157849 
L 223.679073 91.157849 
L 223.679073 61.027749 
L 193.548973 61.027749 
z
" clip-path="url(#p7ea2fd3a9c)" style="fill: #6fa4ff; stroke: #6fa4ff; stroke-width: 1.5; stroke-linejoin: miter"/>
   </g>
   <g id="patch_26">
    <path d="M 193.548973 137.511848 
L 223.679073 137.511848 
L 223.679073 107.381749 
L 193.548973 107.381749 
z
" clip-path="url(#p7ea2fd3a9c)" style="fill: #6fa4ff; stroke: #6fa4ff; stroke-width: 1.5; stroke-linejoin: miter"/>
   </g>
   <g id="patch_27">
    <path d="M 254.968022 80.612314 
C 256.166612 80.612314 257.316271 80.136109 258.163802 79.288579 
C 259.011333 78.441048 259.487537 77.291388 259.487537 76.092799 
C 259.487537 74.89421 259.011333 73.74455 258.163802 72.897019 
C 257.316271 72.049489 256.166612 71.573284 254.968022 71.573284 
C 253.769433 71.573284 252.619773 72.049489 251.772243 72.897019 
C 250.924712 73.74455 250.448507 74.89421 250.448507 76.092799 
C 250.448507 77.291388 250.924712 78.441048 251.772243 79.288579 
C 252.619773 80.136109 253.769433 80.612314 254.968022 80.612314 
z
" clip-path="url(#p7ea2fd3a9c)" style="fill: #6fa4ff; stroke: #6fa4ff; stroke-width: 1.5; stroke-linejoin: miter"/>
   </g>
   <g id="patch_28">
    <path d="M 254.968022 179.346333 
C 257.764731 179.346333 260.44727 178.235189 262.424841 176.257617 
C 264.402413 174.280045 265.513557 171.597506 265.513557 168.800798 
C 265.513557 166.004089 264.402413 163.32155 262.424841 161.343979 
C 260.44727 159.366407 257.764731 158.255263 254.968022 158.255263 
C 252.171314 158.255263 249.488775 159.366407 247.511203 161.343979 
C 245.533631 163.32155 244.422487 166.004089 244.422487 168.800798 
C 244.422487 171.597506 245.533631 174.280045 247.511203 176.257617 
C 249.488775 178.235189 252.171314 179.346333 254.968022 179.346333 
z
" clip-path="url(#p7ea2fd3a9c)" style="fill: #6fa4ff; stroke: #6fa4ff; stroke-width: 2; stroke-linejoin: miter"/>
   </g>
   <g id="patch_29">
    <path d="M 347.676021 126.966313 
C 348.87461 126.966313 350.02427 126.490109 350.871801 125.642578 
C 351.719331 124.795047 352.195536 123.645388 352.195536 122.446798 
C 352.195536 121.248209 351.719331 120.098549 350.871801 119.251019 
C 350.02427 118.403488 348.87461 117.927283 347.676021 117.927283 
C 346.477432 117.927283 345.327772 118.403488 344.480241 119.251019 
C 343.632711 120.098549 343.156506 121.248209 343.156506 122.446798 
C 343.156506 123.645388 343.632711 124.795047 344.480241 125.642578 
C 345.327772 126.490109 346.477432 126.966313 347.676021 126.966313 
z
" clip-path="url(#p7ea2fd3a9c)" style="fill: #6fa4ff; stroke: #6fa4ff; stroke-width: 1.5; stroke-linejoin: miter"/>
   </g>
   <g id="patch_30">
    <path d="M 347.676021 225.700332 
C 350.47273 225.700332 353.155269 224.589188 355.13284 222.611616 
C 357.110412 220.634045 358.221556 217.951506 358.221556 215.154797 
C 358.221556 212.358089 357.110412 209.67555 355.13284 207.697978 
C 353.155269 205.720406 350.47273 204.609262 347.676021 204.609262 
C 344.879312 204.609262 342.196773 205.720406 340.219202 207.697978 
C 338.24163 209.67555 337.130486 212.358089 337.130486 215.154797 
C 337.130486 217.951506 338.24163 220.634045 340.219202 222.611616 
C 342.196773 224.589188 344.879312 225.700332 347.676021 225.700332 
z
" clip-path="url(#p7ea2fd3a9c)" style="fill: #6fa4ff; stroke: #6fa4ff; stroke-width: 2; stroke-linejoin: miter"/>
   </g>
   <g id="patch_31">
    <path d="M 332.610971 91.157849 
L 362.741071 91.157849 
L 362.741071 61.027749 
L 332.610971 61.027749 
z
" clip-path="url(#p7ea2fd3a9c)" style="fill: #05bab6; stroke: #05bab6; stroke-width: 1.5; stroke-linejoin: miter"/>
   </g>
   <g id="patch_32">
    <path d="M 425.31897 137.511848 
L 455.44907 137.511848 
L 455.44907 107.381749 
L 425.31897 107.381749 
z
" clip-path="url(#p7ea2fd3a9c)" style="fill: #05bab6; stroke: #05bab6; stroke-width: 1.5; stroke-linejoin: miter"/>
   </g>
   <g id="patch_33">
    <path d="M 486.738019 80.612314 
C 487.936609 80.612314 489.086268 80.136109 489.933799 79.288579 
C 490.781329 78.441048 491.257534 77.291388 491.257534 76.092799 
C 491.257534 74.89421 490.781329 73.74455 489.933799 72.897019 
C 489.086268 72.049489 487.936609 71.573284 486.738019 71.573284 
C 485.53943 71.573284 484.38977 72.049489 483.542239 72.897019 
C 482.694709 73.74455 482.218504 74.89421 482.218504 76.092799 
C 482.218504 77.291388 482.694709 78.441048 483.542239 79.288579 
C 484.38977 80.136109 485.53943 80.612314 486.738019 80.612314 
z
" clip-path="url(#p7ea2fd3a9c)" style="fill: #bb8bff; stroke: #bb8bff; stroke-width: 1.5; stroke-linejoin: miter"/>
   </g>
   <g id="patch_34">
    <path d="M 486.738019 126.966313 
C 487.936609 126.966313 489.086268 126.490109 489.933799 125.642578 
C 490.781329 124.795047 491.257534 123.645388 491.257534 122.446798 
C 491.257534 121.248209 490.781329 120.098549 489.933799 119.251019 
C 489.086268 118.403488 487.936609 117.927283 486.738019 117.927283 
C 485.53943 117.927283 484.38977 118.403488 483.542239 119.251019 
C 482.694709 120.098549 482.218504 121.248209 482.218504 122.446798 
C 482.218504 123.645388 482.694709 124.795047 483.542239 125.642578 
C 484.38977 126.490109 485.53943 126.966313 486.738019 126.966313 
z
" clip-path="url(#p7ea2fd3a9c)" style="fill: #bb8bff; stroke: #bb8bff; stroke-width: 1.5; stroke-linejoin: miter"/>
   </g>
   <g id="patch_35">
    <path d="M 486.738019 179.346333 
C 489.534728 179.346333 492.217267 178.235189 494.194838 176.257617 
C 496.17241 174.280045 497.283554 171.597506 497.283554 168.800798 
C 497.283554 166.004089 496.17241 163.32155 494.194838 161.343979 
C 492.217267 159.366407 489.534728 158.255263 486.738019 158.255263 
C 483.941311 158.255263 481.258771 159.366407 479.2812 161.343979 
C 477.303628 163.32155 476.192484 166.004089 476.192484 168.800798 
C 476.192484 171.597506 477.303628 174.280045 479.2812 176.257617 
C 481.258771 178.235189 483.941311 179.346333 486.738019 179.346333 
z
" clip-path="url(#p7ea2fd3a9c)" style="fill: #bb8bff; stroke: #bb8bff; stroke-width: 2; stroke-linejoin: miter"/>
   </g>
   <g id="patch_36">
    <path d="M 564.380968 91.157849 
L 594.511068 91.157849 
L 594.511068 61.027749 
L 564.380968 61.027749 
z
" clip-path="url(#p7ea2fd3a9c)" style="fill: #6fa4ff; stroke: #6fa4ff; stroke-width: 1.5; stroke-linejoin: miter"/>
   </g>
   <g id="patch_37">
    <path d="M 564.380968 137.511848 
L 594.511068 137.511848 
L 594.511068 107.381749 
L 564.380968 107.381749 
z
" clip-path="url(#p7ea2fd3a9c)" style="fill: #6fa4ff; stroke: #6fa4ff; stroke-width: 1.5; stroke-linejoin: miter"/>
   </g>
   <g id="patch_38">
    <path d="M 625.800017 80.612314 
C 626.998607 80.612314 628.148266 80.136109 628.995797 79.288579 
C 629.843328 78.441048 630.319532 77.291388 630.319532 76.092799 
C 630.319532 74.89421 629.843328 73.74455 628.995797 72.897019 
C 628.148266 72.049489 626.998607 71.573284 625.800017 71.573284 
C 624.601428 71.573284 623.451768 72.049489 622.604238 72.897019 
C 621.756707 73.74455 621.280502 74.89421 621.280502 76.092799 
C 621.280502 77.291388 621.756707 78.441048 622.604238 79.288579 
C 623.451768 80.136109 624.601428 80.612314 625.800017 80.612314 
z
" clip-path="url(#p7ea2fd3a9c)" style="fill: #6fa4ff; stroke: #6fa4ff; stroke-width: 1.5; stroke-linejoin: miter"/>
   </g>
   <g id="patch_39">
    <path d="M 625.800017 179.346333 
C 628.596726 179.346333 631.279265 178.235189 633.256836 176.257617 
C 635.234408 174.280045 636.345552 171.597506 636.345552 168.800798 
C 636.345552 166.004089 635.234408 163.32155 633.256836 161.343979 
C 631.279265 159.366407 628.596726 158.255263 625.800017 158.255263 
C 623.003309 158.255263 620.32077 159.366407 618.343198 161.343979 
C 616.365627 163.32155 615.254482 166.004089 615.254482 168.800798 
C 615.254482 171.597506 616.365627 174.280045 618.343198 176.257617 
C 620.32077 178.235189 623.003309 179.346333 625.800017 179.346333 
z
" clip-path="url(#p7ea2fd3a9c)" style="fill: #6fa4ff; stroke: #6fa4ff; stroke-width: 2; stroke-linejoin: miter"/>
   </g>
   <g id="patch_40">
    <path d="M 718.508016 126.966313 
C 719.706605 126.966313 720.856265 126.490109 721.703796 125.642578 
C 722.551326 124.795047 723.027531 123.645388 723.027531 122.446798 
C 723.027531 121.248209 722.551326 120.098549 721.703796 119.251019 
C 720.856265 118.403488 719.706605 117.927283 718.508016 117.927283 
C 717.309427 117.927283 716.159767 118.403488 715.312236 119.251019 
C 714.464706 120.098549 713.988501 121.248209 713.988501 122.446798 
C 713.988501 123.645388 714.464706 124.795047 715.312236 125.642578 
C 716.159767 126.490109 717.309427 126.966313 718.508016 126.966313 
z
" clip-path="url(#p7ea2fd3a9c)" style="fill: #6fa4ff; stroke: #6fa4ff; stroke-width: 1.5; stroke-linejoin: miter"/>
   </g>
   <g id="patch_41">
    <path d="M 718.508016 225.700332 
C 721.304725 225.700332 723.987264 224.589188 725.964835 222.611616 
C 727.942407 220.634045 729.053551 217.951506 729.053551 215.154797 
C 729.053551 212.358089 727.942407 209.67555 725.964835 207.697978 
C 723.987264 205.720406 721.304725 204.609262 718.508016 204.609262 
C 715.711308 204.609262 713.028768 205.720406 711.051197 207.697978 
C 709.073625 209.67555 707.962481 212.358089 707.962481 215.154797 
C 707.962481 217.951506 709.073625 220.634045 711.051197 222.611616 
C 713.028768 224.589188 715.711308 225.700332 718.508016 225.700332 
z
" clip-path="url(#p7ea2fd3a9c)" style="fill: #6fa4ff; stroke: #6fa4ff; stroke-width: 2; stroke-linejoin: miter"/>
   </g>
   <g id="patch_42">
    <path d="M 703.442966 91.157849 
L 733.573066 91.157849 
L 733.573066 61.027749 
L 703.442966 61.027749 
z
" clip-path="url(#p7ea2fd3a9c)" style="fill: #05bab6; stroke: #05bab6; stroke-width: 1.5; stroke-linejoin: miter"/>
   </g>
   <g id="patch_43">
    <path d="M 796.150965 183.865848 
L 826.281065 183.865848 
L 826.281065 153.735748 
L 796.150965 153.735748 
z
" clip-path="url(#p7ea2fd3a9c)" style="stroke: #000000; stroke-width: 1.5; stroke-linejoin: miter"/>
   </g>
   <g id="patch_44">
    <path d="M 821.76155 173.320313 
C 821.76155 170.524536 820.649747 167.840406 818.672834 165.863493 
C 816.695921 163.886581 814.011792 162.774778 811.216015 162.774778 
C 808.420238 162.774778 805.736109 163.886581 803.759196 165.863493 
C 801.782283 167.840406 800.67048 170.524536 800.67048 173.320313 
" clip-path="url(#p7ea2fd3a9c)" style="fill: none; stroke: #ffffff; stroke-width: 2; stroke-linejoin: miter"/>
   </g>
   <g id="line2d_17">
    <path d="M 811.216015 173.320313 
L 821.76155 162.774778 
" clip-path="url(#p7ea2fd3a9c)" style="fill: none; stroke: #ffffff; stroke-width: 2; stroke-linecap: square"/>
   </g>
   <g id="patch_45">
    <path d="M 842.504964 230.219847 
L 872.635064 230.219847 
L 872.635064 200.089747 
L 842.504964 200.089747 
z
" clip-path="url(#p7ea2fd3a9c)" style="stroke: #000000; stroke-width: 1.5; stroke-linejoin: miter"/>
   </g>
   <g id="patch_46">
    <path d="M 868.115549 219.674312 
C 868.115549 216.878535 867.003746 214.194406 865.026833 212.217493 
C 863.04992 210.24058 860.365791 209.128777 857.570014 209.128777 
C 854.774237 209.128777 852.090108 210.24058 850.113195 212.217493 
C 848.136282 214.194406 847.024479 216.878535 847.024479 219.674312 
" clip-path="url(#p7ea2fd3a9c)" style="fill: none; stroke: #ffffff; stroke-width: 2; stroke-linejoin: miter"/>
   </g>
   <g id="line2d_18">
    <path d="M 857.570014 219.674312 
L 868.115549 209.128777 
" clip-path="url(#p7ea2fd3a9c)" style="fill: none; stroke: #ffffff; stroke-width: 2; stroke-linecap: square"/>
   </g>
   <g id="line2d_19">
    <path d="M 254.968022 174.826818 
L 254.968022 162.774778 
" clip-path="url(#p7ea2fd3a9c)" style="fill: none; stroke: #ffffff; stroke-width: 2; stroke-linecap: square"/>
   </g>
   <g id="line2d_20">
    <path d="M 248.942002 168.800798 
L 260.994042 168.800798 
" clip-path="url(#p7ea2fd3a9c)" style="fill: none; stroke: #ffffff; stroke-width: 2; stroke-linecap: square"/>
   </g>
   <g id="line2d_21">
    <path d="M 347.676021 221.180817 
L 347.676021 209.128777 
" clip-path="url(#p7ea2fd3a9c)" style="fill: none; stroke: #ffffff; stroke-width: 2; stroke-linecap: square"/>
   </g>
   <g id="line2d_22">
    <path d="M 341.650001 215.154797 
L 353.702041 215.154797 
" clip-path="url(#p7ea2fd3a9c)" style="fill: none; stroke: #ffffff; stroke-width: 2; stroke-linecap: square"/>
   </g>
   <g id="line2d_23">
    <path d="M 486.738019 174.826818 
L 486.738019 162.774778 
" clip-path="url(#p7ea2fd3a9c)" style="fill: none; stroke: #ffffff; stroke-width: 2; stroke-linecap: square"/>
   </g>
   <g id="line2d_24">
    <path d="M 480.711999 168.800798 
L 492.764039 168.800798 
" clip-path="url(#p7ea2fd3a9c)" style="fill: none; stroke: #ffffff; stroke-width: 2; stroke-linecap: square"/>
   </g>
   <g id="line2d_25">
    <path d="M 625.800017 174.826818 
L 625.800017 162.774778 
" clip-path="url(#p7ea2fd3a9c)" style="fill: none; stroke: #ffffff; stroke-width: 2; stroke-linecap: square"/>
   </g>
   <g id="line2d_26">
    <path d="M 619.773997 168.800798 
L 631.826037 168.800798 
" clip-path="url(#p7ea2fd3a9c)" style="fill: none; stroke: #ffffff; stroke-width: 2; stroke-linecap: square"/>
   </g>
   <g id="line2d_27">
    <path d="M 718.508016 221.180817 
L 718.508016 209.128777 
" clip-path="url(#p7ea2fd3a9c)" style="fill: none; stroke: #ffffff; stroke-width: 2; stroke-linecap: square"/>
   </g>
   <g id="line2d_28">
    <path d="M 712.481996 215.154797 
L 724.534036 215.154797 
" clip-path="url(#p7ea2fd3a9c)" style="fill: none; stroke: #ffffff; stroke-width: 2; stroke-linecap: square"/>
   </g>
   <g id="text_1">
    <g clip-path="url(#p7ea2fd3a9c)">
     <!-- ${q}_{0}$ -->
     <g transform="translate(156.274563 80.543776) scale(0.1625 -0.1625)">
      <defs>
       <path id="DejaVuSans-Oblique-71" d="M 2669 525 
Q 2438 222 2123 65 
Q 1809 -91 1428 -91 
Q 897 -91 595 267 
Q 294 625 294 1253 
Q 294 1759 480 2231 
Q 666 2703 1013 3078 
Q 1238 3322 1530 3453 
Q 1822 3584 2144 3584 
Q 2531 3584 2781 3431 
Q 3031 3278 3144 2969 
L 3244 3494 
L 3822 3494 
L 2888 -1319 
L 2309 -1319 
L 2669 525 
z
M 891 1338 
Q 891 875 1084 633 
Q 1278 391 1644 391 
Q 2188 391 2572 911 
Q 2956 1431 2956 2175 
Q 2956 2625 2757 2864 
Q 2559 3103 2188 3103 
Q 1916 3103 1684 2976 
Q 1453 2850 1281 2606 
Q 1100 2350 995 2006 
Q 891 1663 891 1338 
z
" transform="scale(0.015625)"/>
       <path id="DejaVuSans-30" d="M 2034 4250 
Q 1547 4250 1301 3770 
Q 1056 3291 1056 2328 
Q 1056 1369 1301 889 
Q 1547 409 2034 409 
Q 2525 409 2770 889 
Q 3016 1369 3016 2328 
Q 3016 3291 2770 3770 
Q 2525 4250 2034 4250 
z
M 2034 4750 
Q 2819 4750 3233 4129 
Q 3647 3509 3647 2328 
Q 3647 1150 3233 529 
Q 2819 -91 2034 -91 
Q 1250 -91 836 529 
Q 422 1150 422 2328 
Q 422 3509 836 4129 
Q 1250 4750 2034 4750 
z
" transform="scale(0.015625)"/>
      </defs>
      <use xlink:href="#DejaVuSans-Oblique-71"/>
      <use xlink:href="#DejaVuSans-30" transform="translate(63.476562 -16.40625) scale(0.7)"/>
     </g>
    </g>
   </g>
   <g id="text_2">
    <g clip-path="url(#p7ea2fd3a9c)">
     <!-- ${q}_{1}$ -->
     <g transform="translate(156.274563 126.897775) scale(0.1625 -0.1625)">
      <defs>
       <path id="DejaVuSans-31" d="M 794 531 
L 1825 531 
L 1825 4091 
L 703 3866 
L 703 4441 
L 1819 4666 
L 2450 4666 
L 2450 531 
L 3481 531 
L 3481 0 
L 794 0 
L 794 531 
z
" transform="scale(0.015625)"/>
      </defs>
      <use xlink:href="#DejaVuSans-Oblique-71"/>
      <use xlink:href="#DejaVuSans-31" transform="translate(63.476562 -16.40625) scale(0.7)"/>
     </g>
    </g>
   </g>
   <g id="text_3">
    <g clip-path="url(#p7ea2fd3a9c)">
     <!-- ${q}_{2}$ -->
     <g transform="translate(156.274563 173.251774) scale(0.1625 -0.1625)">
      <defs>
       <path id="DejaVuSans-32" d="M 1228 531 
L 3431 531 
L 3431 0 
L 469 0 
L 469 531 
Q 828 903 1448 1529 
Q 2069 2156 2228 2338 
Q 2531 2678 2651 2914 
Q 2772 3150 2772 3378 
Q 2772 3750 2511 3984 
Q 2250 4219 1831 4219 
Q 1534 4219 1204 4116 
Q 875 4013 500 3803 
L 500 4441 
Q 881 4594 1212 4672 
Q 1544 4750 1819 4750 
Q 2544 4750 2975 4387 
Q 3406 4025 3406 3419 
Q 3406 3131 3298 2873 
Q 3191 2616 2906 2266 
Q 2828 2175 2409 1742 
Q 1991 1309 1228 531 
z
" transform="scale(0.015625)"/>
      </defs>
      <use xlink:href="#DejaVuSans-Oblique-71"/>
      <use xlink:href="#DejaVuSans-32" transform="translate(63.476562 -16.40625) scale(0.7)"/>
     </g>
    </g>
   </g>
   <g id="text_4">
    <g clip-path="url(#p7ea2fd3a9c)">
     <!-- ${q}_{3}$ -->
     <g transform="translate(156.274563 219.605774) scale(0.1625 -0.1625)">
      <defs>
       <path id="DejaVuSans-33" d="M 2597 2516 
Q 3050 2419 3304 2112 
Q 3559 1806 3559 1356 
Q 3559 666 3084 287 
Q 2609 -91 1734 -91 
Q 1441 -91 1130 -33 
Q 819 25 488 141 
L 488 750 
Q 750 597 1062 519 
Q 1375 441 1716 441 
Q 2309 441 2620 675 
Q 2931 909 2931 1356 
Q 2931 1769 2642 2001 
Q 2353 2234 1838 2234 
L 1294 2234 
L 1294 2753 
L 1863 2753 
Q 2328 2753 2575 2939 
Q 2822 3125 2822 3475 
Q 2822 3834 2567 4026 
Q 2313 4219 1838 4219 
Q 1578 4219 1281 4162 
Q 984 4106 628 3988 
L 628 4550 
Q 988 4650 1302 4700 
Q 1616 4750 1894 4750 
Q 2613 4750 3031 4423 
Q 3450 4097 3450 3541 
Q 3450 3153 3228 2886 
Q 3006 2619 2597 2516 
z
" transform="scale(0.015625)"/>
      </defs>
      <use xlink:href="#DejaVuSans-Oblique-71"/>
      <use xlink:href="#DejaVuSans-33" transform="translate(63.476562 -16.40625) scale(0.7)"/>
     </g>
    </g>
   </g>
   <g id="text_5">
    <g clip-path="url(#p7ea2fd3a9c)">
     <!-- 4 -->
     <g transform="translate(188.218263 254.710522) scale(0.104 -0.104)">
      <defs>
       <path id="DejaVuSans-34" d="M 2419 4116 
L 825 1625 
L 2419 1625 
L 2419 4116 
z
M 2253 4666 
L 3047 4666 
L 3047 1625 
L 3713 1625 
L 3713 1100 
L 3047 1100 
L 3047 0 
L 2419 0 
L 2419 1100 
L 313 1100 
L 313 1709 
L 2253 4666 
z
" transform="scale(0.015625)"/>
      </defs>
      <use xlink:href="#DejaVuSans-34"/>
     </g>
    </g>
   </g>
   <g id="text_6">
    <g clip-path="url(#p7ea2fd3a9c)">
     <!-- c -->
     <g transform="translate(165.377102 265.992781) scale(0.1625 -0.1625)">
      <defs>
       <path id="DejaVuSans-63" d="M 3122 3366 
L 3122 2828 
Q 2878 2963 2633 3030 
Q 2388 3097 2138 3097 
Q 1578 3097 1268 2742 
Q 959 2388 959 1747 
Q 959 1106 1268 751 
Q 1578 397 2138 397 
Q 2388 397 2633 464 
Q 2878 531 3122 666 
L 3122 134 
Q 2881 22 2623 -34 
Q 2366 -91 2075 -91 
Q 1284 -91 818 406 
Q 353 903 353 1747 
Q 353 2603 823 3093 
Q 1294 3584 2113 3584 
Q 2378 3584 2631 3529 
Q 2884 3475 3122 3366 
z
" transform="scale(0.015625)"/>
      </defs>
      <use xlink:href="#DejaVuSans-63"/>
     </g>
    </g>
   </g>
   <g id="text_7">
    <g clip-path="url(#p7ea2fd3a9c)">
     <!-- H -->
     <g transform="translate(203.72582 79.679986) scale(0.13 -0.13)">
      <defs>
       <path id="DejaVuSans-48" d="M 628 4666 
L 1259 4666 
L 1259 2753 
L 3553 2753 
L 3553 4666 
L 4184 4666 
L 4184 0 
L 3553 0 
L 3553 2222 
L 1259 2222 
L 1259 0 
L 628 0 
L 628 4666 
z
" transform="scale(0.015625)"/>
      </defs>
      <use xlink:href="#DejaVuSans-48"/>
     </g>
    </g>
   </g>
   <g id="text_8">
    <g clip-path="url(#p7ea2fd3a9c)">
     <!-- H -->
     <g transform="translate(203.72582 126.033986) scale(0.13 -0.13)">
      <use xlink:href="#DejaVuSans-48"/>
     </g>
    </g>
   </g>
   <g id="line2d_29">
    <path d="M 301.322022 52.915799 
L 301.322022 99.269799 
" clip-path="url(#p7ea2fd3a9c)" style="fill: none; stroke-dasharray: 3.7,1.6; stroke-dashoffset: 0; stroke: #000000"/>
   </g>
   <g id="line2d_30">
    <path d="M 301.322022 99.269799 
L 301.322022 145.623798 
" clip-path="url(#p7ea2fd3a9c)" style="fill: none; stroke-dasharray: 3.7,1.6; stroke-dashoffset: 0; stroke: #000000"/>
   </g>
   <g id="line2d_31">
    <path d="M 301.322022 145.623798 
L 301.322022 191.977797 
" clip-path="url(#p7ea2fd3a9c)" style="fill: none; stroke-dasharray: 3.7,1.6; stroke-dashoffset: 0; stroke: #000000"/>
   </g>
   <g id="line2d_32">
    <path d="M 301.322022 191.977797 
L 301.322022 238.331797 
" clip-path="url(#p7ea2fd3a9c)" style="fill: none; stroke-dasharray: 3.7,1.6; stroke-dashoffset: 0; stroke: #000000"/>
   </g>
   <g id="text_9">
    <g clip-path="url(#p7ea2fd3a9c)">
     <!-- X -->
     <g transform="translate(343.223521 79.679986) scale(0.13 -0.13)">
      <defs>
       <path id="DejaVuSans-58" d="M 403 4666 
L 1081 4666 
L 2241 2931 
L 3406 4666 
L 4084 4666 
L 2584 2425 
L 4184 0 
L 3506 0 
L 2194 1984 
L 872 0 
L 191 0 
L 1856 2491 
L 403 4666 
z
" transform="scale(0.015625)"/>
      </defs>
      <use xlink:href="#DejaVuSans-58"/>
     </g>
    </g>
   </g>
   <g id="line2d_33">
    <path d="M 394.03002 52.915799 
L 394.03002 99.269799 
" clip-path="url(#p7ea2fd3a9c)" style="fill: none; stroke-dasharray: 3.7,1.6; stroke-dashoffset: 0; stroke: #000000"/>
   </g>
   <g id="line2d_34">
    <path d="M 394.03002 99.269799 
L 394.03002 145.623798 
" clip-path="url(#p7ea2fd3a9c)" style="fill: none; stroke-dasharray: 3.7,1.6; stroke-dashoffset: 0; stroke: #000000"/>
   </g>
   <g id="line2d_35">
    <path d="M 394.03002 145.623798 
L 394.03002 191.977797 
" clip-path="url(#p7ea2fd3a9c)" style="fill: none; stroke-dasharray: 3.7,1.6; stroke-dashoffset: 0; stroke: #000000"/>
   </g>
   <g id="line2d_36">
    <path d="M 394.03002 191.977797 
L 394.03002 238.331797 
" clip-path="url(#p7ea2fd3a9c)" style="fill: none; stroke-dasharray: 3.7,1.6; stroke-dashoffset: 0; stroke: #000000"/>
   </g>
   <g id="text_10">
    <g clip-path="url(#p7ea2fd3a9c)">
     <!-- X -->
     <g transform="translate(435.93152 126.033986) scale(0.13 -0.13)">
      <use xlink:href="#DejaVuSans-58"/>
     </g>
    </g>
   </g>
   <g id="line2d_37">
    <path d="M 533.092019 52.915799 
L 533.092019 99.269799 
" clip-path="url(#p7ea2fd3a9c)" style="fill: none; stroke-dasharray: 3.7,1.6; stroke-dashoffset: 0; stroke: #000000"/>
   </g>
   <g id="line2d_38">
    <path d="M 533.092019 99.269799 
L 533.092019 145.623798 
" clip-path="url(#p7ea2fd3a9c)" style="fill: none; stroke-dasharray: 3.7,1.6; stroke-dashoffset: 0; stroke: #000000"/>
   </g>
   <g id="line2d_39">
    <path d="M 533.092019 145.623798 
L 533.092019 191.977797 
" clip-path="url(#p7ea2fd3a9c)" style="fill: none; stroke-dasharray: 3.7,1.6; stroke-dashoffset: 0; stroke: #000000"/>
   </g>
   <g id="line2d_40">
    <path d="M 533.092019 191.977797 
L 533.092019 238.331797 
" clip-path="url(#p7ea2fd3a9c)" style="fill: none; stroke-dasharray: 3.7,1.6; stroke-dashoffset: 0; stroke: #000000"/>
   </g>
   <g id="text_11">
    <g clip-path="url(#p7ea2fd3a9c)">
     <!-- H -->
     <g transform="translate(574.557815 79.679986) scale(0.13 -0.13)">
      <use xlink:href="#DejaVuSans-48"/>
     </g>
    </g>
   </g>
   <g id="text_12">
    <g clip-path="url(#p7ea2fd3a9c)">
     <!-- H -->
     <g transform="translate(574.557815 126.033986) scale(0.13 -0.13)">
      <use xlink:href="#DejaVuSans-48"/>
     </g>
    </g>
   </g>
   <g id="line2d_41">
    <path d="M 672.154017 52.915799 
L 672.154017 99.269799 
" clip-path="url(#p7ea2fd3a9c)" style="fill: none; stroke-dasharray: 3.7,1.6; stroke-dashoffset: 0; stroke: #000000"/>
   </g>
   <g id="line2d_42">
    <path d="M 672.154017 99.269799 
L 672.154017 145.623798 
" clip-path="url(#p7ea2fd3a9c)" style="fill: none; stroke-dasharray: 3.7,1.6; stroke-dashoffset: 0; stroke: #000000"/>
   </g>
   <g id="line2d_43">
    <path d="M 672.154017 145.623798 
L 672.154017 191.977797 
" clip-path="url(#p7ea2fd3a9c)" style="fill: none; stroke-dasharray: 3.7,1.6; stroke-dashoffset: 0; stroke: #000000"/>
   </g>
   <g id="line2d_44">
    <path d="M 672.154017 191.977797 
L 672.154017 238.331797 
" clip-path="url(#p7ea2fd3a9c)" style="fill: none; stroke-dasharray: 3.7,1.6; stroke-dashoffset: 0; stroke: #000000"/>
   </g>
   <g id="text_13">
    <g clip-path="url(#p7ea2fd3a9c)">
     <!-- X -->
     <g transform="translate(714.055516 79.679986) scale(0.13 -0.13)">
      <use xlink:href="#DejaVuSans-58"/>
     </g>
    </g>
   </g>
   <g id="line2d_45">
    <path d="M 764.862015 52.915799 
L 764.862015 99.269799 
" clip-path="url(#p7ea2fd3a9c)" style="fill: none; stroke-dasharray: 3.7,1.6; stroke-dashoffset: 0; stroke: #000000"/>
   </g>
   <g id="line2d_46">
    <path d="M 764.862015 99.269799 
L 764.862015 145.623798 
" clip-path="url(#p7ea2fd3a9c)" style="fill: none; stroke-dasharray: 3.7,1.6; stroke-dashoffset: 0; stroke: #000000"/>
   </g>
   <g id="line2d_47">
    <path d="M 764.862015 145.623798 
L 764.862015 191.977797 
" clip-path="url(#p7ea2fd3a9c)" style="fill: none; stroke-dasharray: 3.7,1.6; stroke-dashoffset: 0; stroke: #000000"/>
   </g>
   <g id="line2d_48">
    <path d="M 764.862015 191.977797 
L 764.862015 238.331797 
" clip-path="url(#p7ea2fd3a9c)" style="fill: none; stroke-dasharray: 3.7,1.6; stroke-dashoffset: 0; stroke: #000000"/>
   </g>
   <g id="text_14">
    <g clip-path="url(#p7ea2fd3a9c)">
     <!-- 0 -->
     <g transform="translate(822.804515 254.710522) scale(0.104 -0.104)">
      <use xlink:href="#DejaVuSans-30"/>
     </g>
    </g>
   </g>
   <g id="text_15">
    <g clip-path="url(#p7ea2fd3a9c)">
     <!-- 1 -->
     <g transform="translate(869.158514 254.710522) scale(0.104 -0.104)">
      <use xlink:href="#DejaVuSans-31"/>
     </g>
    </g>
   </g>
  </g>
 </g>
 <defs>
  <clipPath id="p7ea2fd3a9c">
   <rect x="126.173667" y="39.009599" width="761.989987" height="250.311597"/>
  </clipPath>
 </defs>
</svg>
