<?xml version="1.0" encoding="UTF-8" standalone="no"?>
<svg
   width="263.96722pt"
   height="214.23462pt"
   viewBox="0 0 263.96723 214.23463"
   version="1.1"
   id="svg54"
   sodipodi:docname="walker-step-1.svg"
   xmlns:inkscape="http://www.inkscape.org/namespaces/inkscape"
   xmlns:sodipodi="http://sodipodi.sourceforge.net/DTD/sodipodi-0.dtd"
   xmlns:xlink="http://www.w3.org/1999/xlink"
   xmlns="http://www.w3.org/2000/svg"
   xmlns:svg="http://www.w3.org/2000/svg"
   xmlns:rdf="http://www.w3.org/1999/02/22-rdf-syntax-ns#"
   xmlns:cc="http://creativecommons.org/ns#"
   xmlns:dc="http://purl.org/dc/elements/1.1/">
  <sodipodi:namedview
     id="namedview54"
     pagecolor="#ffffff"
     bordercolor="#000000"
     borderopacity="0.25"
     inkscape:showpageshadow="2"
     inkscape:pageopacity="0.0"
     inkscape:pagecheckerboard="0"
     inkscape:deskcolor="#d1d1d1"
     inkscape:document-units="pt" />
  <metadata
     id="metadata1">
    <rdf:RDF>
      <cc:Work>
        <dc:type
           rdf:resource="http://purl.org/dc/dcmitype/StillImage" />
        <dc:date>2023-12-21T17:38:37.800353</dc:date>
        <dc:format>image/svg+xml</dc:format>
        <dc:creator>
          <cc:Agent>
            <dc:title>Matplotlib v3.8.2, https://matplotlib.org/</dc:title>
          </cc:Agent>
        </dc:creator>
      </cc:Work>
    </rdf:RDF>
  </metadata>
  <defs
     id="defs1">
    <style
       type="text/css"
       id="style1">*{stroke-linejoin: round; stroke-linecap: butt}</style>
  </defs>
  <g
     id="figure_1"
     transform="translate(-80.26605,-52.915799)">
    <g
       id="patch_1" />
    <g
       id="axes_1">
      <g
         id="line2d_1">
        <path
           d="m 106.82786,76.092799 h 236.4054"
           clip-path="url(#pe6ddb78031)"
           style="fill:none;stroke:#000000;stroke-width:2;stroke-linecap:square"
           id="path2" />
      </g>
      <g
         id="line2d_2">
        <path
           d="m 106.82786,122.4468 h 236.4054"
           clip-path="url(#pe6ddb78031)"
           style="fill:none;stroke:#000000;stroke-width:2;stroke-linecap:square"
           id="path3" />
      </g>
      <g
         id="line2d_3">
        <path
           d="m 106.82786,168.8008 h 236.4054"
           clip-path="url(#pe6ddb78031)"
           style="fill:none;stroke:#000000;stroke-width:2;stroke-linecap:square"
           id="path4" />
      </g>
      <g
         id="line2d_4">
        <path
           d="m 106.82786,215.1548 h 236.4054"
           clip-path="url(#pe6ddb78031)"
           style="fill:none;stroke:#000000;stroke-width:2;stroke-linecap:square"
           id="path5" />
      </g>
      <g
         id="line2d_5">
        <path
           d="m 116.09866,266.1442 4.6354,-9.2708"
           clip-path="url(#pe6ddb78031)"
           style="fill:none;stroke:#778899;stroke-width:1.5;stroke-linecap:square"
           id="path6" />
      </g>
      <g
         id="line2d_6">
        <path
           d="m 106.82786,260.00229 h 236.4054"
           clip-path="url(#pe6ddb78031)"
           style="fill:none;stroke:#778899;stroke-width:2;stroke-linecap:square"
           id="path7" />
      </g>
      <g
         id="line2d_7">
        <path
           d="m 106.82786,263.0153 h 236.4054"
           clip-path="url(#pe6ddb78031)"
           style="fill:none;stroke:#778899;stroke-width:2;stroke-linecap:square"
           id="path8" />
      </g>
      <g
         id="patch_2">
        <path
           d="m 264.895,250.96326 h 12.05204 l -6.02602,8.69138 z"
           clip-path="url(#pe6ddb78031)"
           style="fill:#778899"
           id="path9" />
      </g>
      <g
         id="patch_3">
        <path
           d="m 311.249,250.96326 h 12.05204 l -6.02602,8.69138 z"
           clip-path="url(#pe6ddb78031)"
           style="fill:#778899"
           id="path10" />
      </g>
      <g
         id="patch_4" />
      <g
         id="line2d_8">
        <path
           d="M 178.21302,168.8008 V 76.092799"
           clip-path="url(#pe6ddb78031)"
           style="fill:none;stroke:#6fa4ff;stroke-width:2;stroke-linecap:square"
           id="path12" />
      </g>
      <g
         id="line2d_9">
        <path
           d="m 272.42753,168.8008 v 82.16246"
           clip-path="url(#pe6ddb78031)"
           style="fill:none;stroke:#778899;stroke-width:2;stroke-linecap:square"
           id="path13" />
      </g>
      <g
         id="line2d_10">
        <path
           d="m 269.41452,168.8008 v 82.16246"
           clip-path="url(#pe6ddb78031)"
           style="fill:none;stroke:#778899;stroke-width:2;stroke-linecap:square"
           id="path14" />
      </g>
      <g
         id="line2d_11">
        <path
           d="m 318.78153,215.1548 v 35.80846"
           clip-path="url(#pe6ddb78031)"
           style="fill:none;stroke:#778899;stroke-width:2;stroke-linecap:square"
           id="path15" />
      </g>
      <g
         id="line2d_12">
        <path
           d="m 315.76852,215.1548 v 35.80846"
           clip-path="url(#pe6ddb78031)"
           style="fill:none;stroke:#778899;stroke-width:2;stroke-linecap:square"
           id="path16" />
      </g>
      <g
         id="patch_5">
        <path
           d="m 215.52799,99.269799 h 18.07806 v -46.354 h -18.07806 z"
           clip-path="url(#pe6ddb78031)"
           style="opacity:0.6;fill:#bdbdbd"
           id="path17" />
      </g>
      <g
         id="patch_6">
        <path
           d="m 215.52799,145.6238 h 18.07806 V 99.269799 h -18.07806 z"
           clip-path="url(#pe6ddb78031)"
           style="opacity:0.6;fill:#bdbdbd"
           id="path18" />
      </g>
      <g
         id="patch_7">
        <path
           d="m 215.52799,191.9778 h 18.07806 v -46.354 h -18.07806 z"
           clip-path="url(#pe6ddb78031)"
           style="opacity:0.6;fill:#bdbdbd"
           id="path19" />
      </g>
      <g
         id="patch_8">
        <path
           d="m 215.52799,238.3318 h 18.07806 v -46.354 h -18.07806 z"
           clip-path="url(#pe6ddb78031)"
           style="opacity:0.6;fill:#bdbdbd"
           id="path20" />
      </g>
      <g
         id="patch_9">
        <path
           d="m 116.79397,91.157849 h 30.1301 v -30.1301 h -30.1301 z"
           clip-path="url(#pe6ddb78031)"
           style="fill:#6fa4ff;stroke:#6fa4ff;stroke-width:1.5;stroke-linejoin:miter"
           id="path21" />
      </g>
      <g
         id="patch_10">
        <path
           d="m 116.79397,137.51185 h 30.1301 v -30.1301 h -30.1301 z"
           clip-path="url(#pe6ddb78031)"
           style="fill:#6fa4ff;stroke:#6fa4ff;stroke-width:1.5;stroke-linejoin:miter"
           id="path22" />
      </g>
      <g
         id="patch_11">
        <path
           d="m 178.21302,80.612314 c 1.19859,0 2.34825,-0.476205 3.19578,-1.323735 0.84753,-0.847531 1.32374,-1.997191 1.32374,-3.19578 0,-1.198589 -0.47621,-2.348249 -1.32374,-3.19578 -0.84753,-0.84753 -1.99719,-1.323735 -3.19578,-1.323735 -1.19859,0 -2.34825,0.476205 -3.19578,1.323735 -0.84753,0.847531 -1.32373,1.997191 -1.32373,3.19578 0,1.198589 0.4762,2.348249 1.32373,3.19578 0.84753,0.84753 1.99719,1.323735 3.19578,1.323735 z"
           clip-path="url(#pe6ddb78031)"
           style="fill:#6fa4ff;stroke:#6fa4ff;stroke-width:1.5;stroke-linejoin:miter"
           id="path23" />
      </g>
      <g
         id="patch_12">
        <path
           d="m 178.21302,179.34633 c 2.79671,0 5.47925,-1.11114 7.45682,-3.08871 1.97757,-1.97758 3.08872,-4.66011 3.08872,-7.45682 0,-2.79671 -1.11115,-5.47925 -3.08872,-7.45682 -1.97757,-1.97757 -4.66011,-3.08872 -7.45682,-3.08872 -2.79671,0 -5.47924,1.11115 -7.45682,3.08872 -1.97757,1.97757 -3.08871,4.66011 -3.08871,7.45682 0,2.79671 1.11114,5.47924 3.08871,7.45682 1.97758,1.97757 4.66011,3.08871 7.45682,3.08871 z"
           clip-path="url(#pe6ddb78031)"
           style="fill:#6fa4ff;stroke:#6fa4ff;stroke-width:2;stroke-linejoin:miter"
           id="path24" />
      </g>
      <g
         id="patch_13">
        <path
           d="m 255.85597,183.86585 h 30.1301 v -30.1301 h -30.1301 z"
           clip-path="url(#pe6ddb78031)"
           style="stroke:#000000;stroke-width:1.5;stroke-linejoin:miter"
           id="path25" />
      </g>
      <g
         id="patch_14">
        <path
           d="m 281.46656,173.32031 c 0,-2.79577 -1.11181,-5.4799 -3.08872,-7.45682 -1.97691,-1.97691 -4.66104,-3.08871 -7.45682,-3.08871 -2.79578,0 -5.4799,1.1118 -7.45682,3.08871 -1.97691,1.97692 -3.08871,4.66105 -3.08871,7.45682"
           clip-path="url(#pe6ddb78031)"
           style="fill:none;stroke:#ffffff;stroke-width:2;stroke-linejoin:miter"
           id="path26" />
      </g>
      <g
         id="line2d_13">
        <path
           d="m 270.92102,173.32031 10.54554,-10.54553"
           clip-path="url(#pe6ddb78031)"
           style="fill:none;stroke:#ffffff;stroke-width:2;stroke-linecap:square"
           id="path27" />
      </g>
      <g
         id="patch_15">
        <path
           d="m 302.20997,230.21985 h 30.1301 v -30.1301 h -30.1301 z"
           clip-path="url(#pe6ddb78031)"
           style="stroke:#000000;stroke-width:1.5;stroke-linejoin:miter"
           id="path28" />
      </g>
      <g
         id="patch_16">
        <path
           d="m 327.82056,219.67431 c 0,-2.79578 -1.11181,-5.4799 -3.08872,-7.45682 -1.97691,-1.97691 -4.66104,-3.08871 -7.45682,-3.08871 -2.79578,0 -5.47991,1.1118 -7.45682,3.08871 -1.97691,1.97692 -3.08871,4.66104 -3.08871,7.45682"
           clip-path="url(#pe6ddb78031)"
           style="fill:none;stroke:#ffffff;stroke-width:2;stroke-linejoin:miter"
           id="path29" />
      </g>
      <g
         id="line2d_14">
        <path
           d="m 317.27502,219.67431 10.54554,-10.54553"
           clip-path="url(#pe6ddb78031)"
           style="fill:none;stroke:#ffffff;stroke-width:2;stroke-linecap:square"
           id="path30" />
      </g>
      <g
         id="line2d_15">
        <path
           d="M 178.21302,174.82682 V 162.77478"
           clip-path="url(#pe6ddb78031)"
           style="fill:none;stroke:#ffffff;stroke-width:2;stroke-linecap:square"
           id="path31" />
      </g>
      <g
         id="line2d_16">
        <path
           d="m 172.187,168.8008 h 12.05204"
           clip-path="url(#pe6ddb78031)"
           style="fill:none;stroke:#ffffff;stroke-width:2;stroke-linecap:square"
           id="path32" />
      </g>
      <g
         id="text_1">
        <g
           clip-path="url(#pe6ddb78031)"
           id="g34">
          <!-- ${q}_{0}$ -->
          <g
             transform="matrix(0.1625,0,0,-0.1625,79.519564,80.543776)"
             id="g33">
            <defs
               id="defs32">
              <path
                 id="DejaVuSans-Oblique-71"
                 d="M 2669,525 Q 2438,222 2123,65 1809,-91 1428,-91 897,-91 595,267 294,625 294,1253 q 0,506 186,978 186,472 533,847 225,244 517,375 292,131 614,131 387,0 637,-153 250,-153 363,-462 l 100,525 h 578 L 2888,-1319 H 2309 Z M 891,1338 q 0,-463 193,-705 194,-242 560,-242 544,0 928,520 384,520 384,1264 0,450 -199,689 -198,239 -569,239 -272,0 -504,-127 Q 1453,2850 1281,2606 1100,2350 995,2006 891,1663 891,1338 Z"
                 transform="scale(0.015625)" />
              <path
                 id="DejaVuSans-30"
                 d="m 2034,4250 q -487,0 -733,-480 -245,-479 -245,-1442 0,-959 245,-1439 246,-480 733,-480 491,0 736,480 246,480 246,1439 0,963 -246,1442 -245,480 -736,480 z m 0,500 q 785,0 1199,-621 414,-620 414,-1801 0,-1178 -414,-1799 -414,-620 -1199,-620 -784,0 -1198,620 -414,621 -414,1799 0,1181 414,1801 414,621 1198,621 z"
                 transform="scale(0.015625)" />
            </defs>
            <use
               xlink:href="#DejaVuSans-Oblique-71"
               id="use32" />
            <use
               xlink:href="#DejaVuSans-30"
               transform="matrix(0.7,0,0,0.7,63.476562,-16.40625)"
               id="use33" />
          </g>
        </g>
      </g>
      <g
         id="text_2">
        <g
           clip-path="url(#pe6ddb78031)"
           id="g36">
          <!-- ${q}_{1}$ -->
          <g
             transform="matrix(0.1625,0,0,-0.1625,79.519564,126.89777)"
             id="g35">
            <defs
               id="defs34">
              <path
                 id="DejaVuSans-31"
                 d="M 794,531 H 1825 V 4091 L 703,3866 v 575 l 1116,225 h 631 V 531 H 3481 V 0 H 794 Z"
                 transform="scale(0.015625)" />
            </defs>
            <use
               xlink:href="#DejaVuSans-Oblique-71"
               id="use34" />
            <use
               xlink:href="#DejaVuSans-31"
               transform="matrix(0.7,0,0,0.7,63.476562,-16.40625)"
               id="use35" />
          </g>
        </g>
      </g>
      <g
         id="text_3">
        <g
           clip-path="url(#pe6ddb78031)"
           id="g38">
          <!-- ${q}_{2}$ -->
          <g
             transform="matrix(0.1625,0,0,-0.1625,79.519564,173.25177)"
             id="g37">
            <defs
               id="defs36">
              <path
                 id="DejaVuSans-32"
                 d="M 1228,531 H 3431 V 0 H 469 v 531 q 359,372 979,998 621,627 780,809 303,340 423,576 121,236 121,464 0,372 -261,606 -261,235 -680,235 -297,0 -627,-103 -329,-103 -704,-313 v 638 q 381,153 712,231 332,78 607,78 725,0 1156,-363 431,-362 431,-968 0,-288 -108,-546 -107,-257 -392,-607 -78,-91 -497,-524 Q 1991,1309 1228,531 Z"
                 transform="scale(0.015625)" />
            </defs>
            <use
               xlink:href="#DejaVuSans-Oblique-71"
               id="use36" />
            <use
               xlink:href="#DejaVuSans-32"
               transform="matrix(0.7,0,0,0.7,63.476562,-16.40625)"
               id="use37" />
          </g>
        </g>
      </g>
      <g
         id="text_4">
        <g
           clip-path="url(#pe6ddb78031)"
           id="g40">
          <!-- ${q}_{3}$ -->
          <g
             transform="matrix(0.1625,0,0,-0.1625,79.519564,219.60577)"
             id="g39">
            <defs
               id="defs38">
              <path
                 id="DejaVuSans-33"
                 d="m 2597,2516 q 453,-97 707,-404 255,-306 255,-756 0,-690 -475,-1069 -475,-378 -1350,-378 -293,0 -604,58 -311,58 -642,174 v 609 q 262,-153 574,-231 313,-78 654,-78 593,0 904,234 311,234 311,681 0,413 -289,645 -289,233 -804,233 h -544 v 519 h 569 q 465,0 712,186 247,186 247,536 0,359 -255,551 -254,193 -729,193 -260,0 -557,-57 -297,-56 -653,-174 v 562 q 360,100 674,150 314,50 592,50 719,0 1137,-327 419,-326 419,-882 0,-388 -222,-655 -222,-267 -631,-370 z"
                 transform="scale(0.015625)" />
            </defs>
            <use
               xlink:href="#DejaVuSans-Oblique-71"
               id="use38" />
            <use
               xlink:href="#DejaVuSans-33"
               transform="matrix(0.7,0,0,0.7,63.476562,-16.40625)"
               id="use39" />
          </g>
        </g>
      </g>
      <g
         id="text_5">
        <g
           clip-path="url(#pe6ddb78031)"
           id="g42">
          <!-- 4 -->
          <g
             transform="matrix(0.104,0,0,-0.104,111.46326,254.71052)"
             id="g41">
            <defs
               id="defs40">
              <path
                 id="DejaVuSans-34"
                 d="M 2419,4116 825,1625 h 1594 z m -166,550 h 794 V 1625 h 666 V 1100 H 3047 V 0 H 2419 V 1100 H 313 v 609 z"
                 transform="scale(0.015625)" />
            </defs>
            <use
               xlink:href="#DejaVuSans-34"
               id="use40" />
          </g>
        </g>
      </g>
      <g
         id="text_6">
        <g
           clip-path="url(#pe6ddb78031)"
           id="g44">
          <!-- c -->
          <g
             transform="matrix(0.1625,0,0,-0.1625,88.622103,265.99278)"
             id="g43">
            <defs
               id="defs42">
              <path
                 id="DejaVuSans-63"
                 d="m 3122,3366 v -538 q -244,135 -489,202 -245,67 -495,67 -560,0 -870,-355 -309,-354 -309,-995 0,-641 309,-996 310,-354 870,-354 250,0 495,67 245,67 489,202 V 134 Q 2881,22 2623,-34 2366,-91 2075,-91 1284,-91 818,406 353,903 353,1747 q 0,856 470,1346 471,491 1290,491 265,0 518,-55 253,-54 491,-163 z"
                 transform="scale(0.015625)" />
            </defs>
            <use
               xlink:href="#DejaVuSans-63"
               id="use42" />
          </g>
        </g>
      </g>
      <g
         id="text_7">
        <g
           clip-path="url(#pe6ddb78031)"
           id="g46">
          <!-- H -->
          <g
             transform="matrix(0.13,0,0,-0.13,126.97082,79.679986)"
             id="g45">
            <defs
               id="defs44">
              <path
                 id="DejaVuSans-48"
                 d="m 628,4666 h 631 V 2753 h 2294 v 1913 h 631 V 0 H 3553 V 2222 H 1259 V 0 H 628 Z"
                 transform="scale(0.015625)" />
            </defs>
            <use
               xlink:href="#DejaVuSans-48"
               id="use44" />
          </g>
        </g>
      </g>
      <g
         id="text_8">
        <g
           clip-path="url(#pe6ddb78031)"
           id="g48">
          <!-- H -->
          <g
             transform="matrix(0.13,0,0,-0.13,126.97082,126.03399)"
             id="g47">
            <use
               xlink:href="#DejaVuSans-48"
               id="use46" />
          </g>
        </g>
      </g>
      <g
         id="line2d_17">
        <path
           d="m 224.56702,52.915799 v 46.354"
           clip-path="url(#pe6ddb78031)"
           style="fill:none;stroke:#000000;stroke-dasharray:3.7, 1.6;stroke-dashoffset:0"
           id="path48" />
      </g>
      <g
         id="line2d_18">
        <path
           d="M 224.56702,99.269799 V 145.6238"
           clip-path="url(#pe6ddb78031)"
           style="fill:none;stroke:#000000;stroke-dasharray:3.7, 1.6;stroke-dashoffset:0"
           id="path49" />
      </g>
      <g
         id="line2d_19">
        <path
           d="m 224.56702,145.6238 v 46.354"
           clip-path="url(#pe6ddb78031)"
           style="fill:none;stroke:#000000;stroke-dasharray:3.7, 1.6;stroke-dashoffset:0"
           id="path50" />
      </g>
      <g
         id="line2d_20">
        <path
           d="m 224.56702,191.9778 v 46.354"
           clip-path="url(#pe6ddb78031)"
           style="fill:none;stroke:#000000;stroke-dasharray:3.7, 1.6;stroke-dashoffset:0"
           id="path51" />
      </g>
      <g
         id="text_9">
        <g
           clip-path="url(#pe6ddb78031)"
           id="g52">
          <!-- 0 -->
          <g
             transform="matrix(0.104,0,0,-0.104,282.50952,254.71052)"
             id="g51">
            <use
               xlink:href="#DejaVuSans-30"
               id="use51" />
          </g>
        </g>
      </g>
      <g
         id="text_10">
        <g
           clip-path="url(#pe6ddb78031)"
           id="g54">
          <!-- 1 -->
          <g
             transform="matrix(0.104,0,0,-0.104,328.86352,254.71052)"
             id="g53">
            <use
               xlink:href="#DejaVuSans-31"
               id="use52" />
          </g>
        </g>
      </g>
    </g>
  </g>
  <defs
     id="defs54">
    <clipPath
       id="pe6ddb78031">
      <rect
         x="49.418667"
         y="39.009598"
         width="298.44998"
         height="250.3116"
         id="rect54" />
    </clipPath>
  </defs>
</svg>
