<?xml version="1.0" encoding="UTF-8" standalone="no"?>
<svg
   width="866.56921pt"
   height="214.23462pt"
   viewBox="0 0 866.56921 214.23463"
   version="1.1"
   id="svg129"
   sodipodi:docname="walker-step-6.svg"
   xmlns:inkscape="http://www.inkscape.org/namespaces/inkscape"
   xmlns:sodipodi="http://sodipodi.sourceforge.net/DTD/sodipodi-0.dtd"
   xmlns:xlink="http://www.w3.org/1999/xlink"
   xmlns="http://www.w3.org/2000/svg"
   xmlns:svg="http://www.w3.org/2000/svg"
   xmlns:rdf="http://www.w3.org/1999/02/22-rdf-syntax-ns#"
   xmlns:cc="http://creativecommons.org/ns#"
   xmlns:dc="http://purl.org/dc/elements/1.1/">
  <sodipodi:namedview
     id="namedview129"
     pagecolor="#ffffff"
     bordercolor="#000000"
     borderopacity="0.25"
     inkscape:showpageshadow="2"
     inkscape:pageopacity="0.0"
     inkscape:pagecheckerboard="0"
     inkscape:deskcolor="#d1d1d1"
     inkscape:document-units="pt" />
  <metadata
     id="metadata1">
    <rdf:RDF>
      <cc:Work>
        <dc:type
           rdf:resource="http://purl.org/dc/dcmitype/StillImage" />
        <dc:date>2024-02-05T14:30:41.082654</dc:date>
        <dc:format>image/svg+xml</dc:format>
        <dc:creator>
          <cc:Agent>
            <dc:title>Matplotlib v3.8.2, https://matplotlib.org/</dc:title>
          </cc:Agent>
        </dc:creator>
      </cc:Work>
    </rdf:RDF>
  </metadata>
  <defs
     id="defs1">
    <style
       type="text/css"
       id="style1">*{stroke-linejoin: round; stroke-linecap: butt}</style>
  </defs>
  <g
     id="figure_1"
     transform="translate(-180.04755,-52.915799)">
    <g
       id="patch_1" />
    <g
       id="axes_1">
      <g
         id="line2d_1">
        <path
           d="M 206.60936,76.092799 H 1045.6168"
           clip-path="url(#pee0cf1081a)"
           style="fill:none;stroke:#000000;stroke-width:2;stroke-linecap:square"
           id="path2" />
      </g>
      <g
         id="line2d_2">
        <path
           d="M 206.60936,122.4468 H 1045.6168"
           clip-path="url(#pee0cf1081a)"
           style="fill:none;stroke:#000000;stroke-width:2;stroke-linecap:square"
           id="path3" />
      </g>
      <g
         id="line2d_3">
        <path
           d="M 206.60936,168.8008 H 1045.6168"
           clip-path="url(#pee0cf1081a)"
           style="fill:none;stroke:#000000;stroke-width:2;stroke-linecap:square"
           id="path4" />
      </g>
      <g
         id="line2d_4">
        <path
           d="M 206.60936,215.1548 H 1045.6168"
           clip-path="url(#pee0cf1081a)"
           style="fill:none;stroke:#000000;stroke-width:2;stroke-linecap:square"
           id="path5" />
      </g>
      <g
         id="line2d_5">
        <path
           d="m 215.88016,266.1442 4.6354,-9.2708"
           clip-path="url(#pee0cf1081a)"
           style="fill:none;stroke:#778899;stroke-width:1.5;stroke-linecap:square"
           id="path6" />
      </g>
      <g
         id="line2d_6">
        <path
           d="M 206.60936,260.00229 H 1045.6168"
           clip-path="url(#pee0cf1081a)"
           style="fill:none;stroke:#778899;stroke-width:2;stroke-linecap:square"
           id="path7" />
      </g>
      <g
         id="line2d_7">
        <path
           d="M 206.60936,263.0153 H 1045.6168"
           clip-path="url(#pee0cf1081a)"
           style="fill:none;stroke:#778899;stroke-width:2;stroke-linecap:square"
           id="path8" />
      </g>
      <g
         id="patch_2">
        <path
           d="m 967.27849,250.96326 h 12.05204 l -6.02602,8.69138 z"
           clip-path="url(#pee0cf1081a)"
           style="fill:#778899"
           id="path9" />
      </g>
      <g
         id="patch_3">
        <path
           d="m 1013.6325,250.96326 h 12.052 l -6.026,8.69138 z"
           clip-path="url(#pee0cf1081a)"
           style="fill:#778899"
           id="path10" />
      </g>
      <g
         id="patch_4" />
      <g
         id="line2d_8">
        <path
           d="M 277.99452,168.8008 V 76.092799"
           clip-path="url(#pee0cf1081a)"
           style="fill:none;stroke:#6fa4ff;stroke-width:2;stroke-linecap:square"
           id="path12" />
      </g>
      <g
         id="line2d_9">
        <path
           d="m 370.70252,215.1548 v -92.708"
           clip-path="url(#pee0cf1081a)"
           style="fill:none;stroke:#6fa4ff;stroke-width:2;stroke-linecap:square"
           id="path13" />
      </g>
      <g
         id="line2d_10">
        <path
           d="M 509.76452,168.8008 V 76.092799"
           clip-path="url(#pee0cf1081a)"
           style="fill:none;stroke:#bb8bff;stroke-width:2;stroke-linecap:square"
           id="path14" />
      </g>
      <g
         id="line2d_11">
        <path
           d="M 648.82652,168.8008 V 76.092799"
           clip-path="url(#pee0cf1081a)"
           style="fill:none;stroke:#6fa4ff;stroke-width:2;stroke-linecap:square"
           id="path15" />
      </g>
      <g
         id="line2d_12">
        <path
           d="m 741.53452,215.1548 v -92.708"
           clip-path="url(#pee0cf1081a)"
           style="fill:none;stroke:#6fa4ff;stroke-width:2;stroke-linecap:square"
           id="path16" />
      </g>
      <g
         id="line2d_13">
        <path
           d="M 880.59651,168.8008 V 76.092799"
           clip-path="url(#pee0cf1081a)"
           style="fill:none;stroke:#bb8bff;stroke-width:2;stroke-linecap:square"
           id="path17" />
      </g>
      <g
         id="line2d_14">
        <path
           d="m 974.81102,168.8008 v 82.16246"
           clip-path="url(#pee0cf1081a)"
           style="fill:none;stroke:#778899;stroke-width:2;stroke-linecap:square"
           id="path18" />
      </g>
      <g
         id="line2d_15">
        <path
           d="m 971.79801,168.8008 v 82.16246"
           clip-path="url(#pee0cf1081a)"
           style="fill:none;stroke:#778899;stroke-width:2;stroke-linecap:square"
           id="path19" />
      </g>
      <g
         id="line2d_16">
        <path
           d="m 1021.165,215.1548 v 35.80846"
           clip-path="url(#pee0cf1081a)"
           style="fill:none;stroke:#778899;stroke-width:2;stroke-linecap:square"
           id="path20" />
      </g>
      <g
         id="line2d_17">
        <path
           d="m 1018.152,215.1548 v 35.80846"
           clip-path="url(#pee0cf1081a)"
           style="fill:none;stroke:#778899;stroke-width:2;stroke-linecap:square"
           id="path21" />
      </g>
      <g
         id="patch_5">
        <path
           d="m 315.30949,99.269799 h 18.07806 v -46.354 h -18.07806 z"
           clip-path="url(#pee0cf1081a)"
           style="opacity:0.6;fill:#bdbdbd"
           id="path22" />
      </g>
      <g
         id="patch_6">
        <path
           d="m 315.30949,145.6238 h 18.07806 V 99.269799 h -18.07806 z"
           clip-path="url(#pee0cf1081a)"
           style="opacity:0.6;fill:#bdbdbd"
           id="path23" />
      </g>
      <g
         id="patch_7">
        <path
           d="m 315.30949,191.9778 h 18.07806 v -46.354 h -18.07806 z"
           clip-path="url(#pee0cf1081a)"
           style="opacity:0.6;fill:#bdbdbd"
           id="path24" />
      </g>
      <g
         id="patch_8">
        <path
           d="m 315.30949,238.3318 h 18.07806 v -46.354 h -18.07806 z"
           clip-path="url(#pee0cf1081a)"
           style="opacity:0.6;fill:#bdbdbd"
           id="path25" />
      </g>
      <g
         id="patch_9">
        <path
           d="m 408.01749,99.269799 h 18.07806 v -46.354 h -18.07806 z"
           clip-path="url(#pee0cf1081a)"
           style="opacity:0.6;fill:#bdbdbd"
           id="path26" />
      </g>
      <g
         id="patch_10">
        <path
           d="m 408.01749,145.6238 h 18.07806 V 99.269799 h -18.07806 z"
           clip-path="url(#pee0cf1081a)"
           style="opacity:0.6;fill:#bdbdbd"
           id="path27" />
      </g>
      <g
         id="patch_11">
        <path
           d="m 408.01749,191.9778 h 18.07806 v -46.354 h -18.07806 z"
           clip-path="url(#pee0cf1081a)"
           style="opacity:0.6;fill:#bdbdbd"
           id="path28" />
      </g>
      <g
         id="patch_12">
        <path
           d="m 408.01749,238.3318 h 18.07806 v -46.354 h -18.07806 z"
           clip-path="url(#pee0cf1081a)"
           style="opacity:0.6;fill:#bdbdbd"
           id="path29" />
      </g>
      <g
         id="patch_13">
        <path
           d="m 547.07949,99.269799 h 18.07806 v -46.354 h -18.07806 z"
           clip-path="url(#pee0cf1081a)"
           style="opacity:0.6;fill:#bdbdbd"
           id="path30" />
      </g>
      <g
         id="patch_14">
        <path
           d="m 547.07949,145.6238 h 18.07806 V 99.269799 h -18.07806 z"
           clip-path="url(#pee0cf1081a)"
           style="opacity:0.6;fill:#bdbdbd"
           id="path31" />
      </g>
      <g
         id="patch_15">
        <path
           d="m 547.07949,191.9778 h 18.07806 v -46.354 h -18.07806 z"
           clip-path="url(#pee0cf1081a)"
           style="opacity:0.6;fill:#bdbdbd"
           id="path32" />
      </g>
      <g
         id="patch_16">
        <path
           d="m 547.07949,238.3318 h 18.07806 v -46.354 h -18.07806 z"
           clip-path="url(#pee0cf1081a)"
           style="opacity:0.6;fill:#bdbdbd"
           id="path33" />
      </g>
      <g
         id="patch_17">
        <path
           d="m 686.14149,99.269799 h 18.07806 v -46.354 h -18.07806 z"
           clip-path="url(#pee0cf1081a)"
           style="opacity:0.6;fill:#bdbdbd"
           id="path34" />
      </g>
      <g
         id="patch_18">
        <path
           d="m 686.14149,145.6238 h 18.07806 V 99.269799 h -18.07806 z"
           clip-path="url(#pee0cf1081a)"
           style="opacity:0.6;fill:#bdbdbd"
           id="path35" />
      </g>
      <g
         id="patch_19">
        <path
           d="m 686.14149,191.9778 h 18.07806 v -46.354 h -18.07806 z"
           clip-path="url(#pee0cf1081a)"
           style="opacity:0.6;fill:#bdbdbd"
           id="path36" />
      </g>
      <g
         id="patch_20">
        <path
           d="m 686.14149,238.3318 h 18.07806 v -46.354 h -18.07806 z"
           clip-path="url(#pee0cf1081a)"
           style="opacity:0.6;fill:#bdbdbd"
           id="path37" />
      </g>
      <g
         id="patch_21">
        <path
           d="m 778.84948,99.269799 h 18.07806 v -46.354 h -18.07806 z"
           clip-path="url(#pee0cf1081a)"
           style="opacity:0.6;fill:#bdbdbd"
           id="path38" />
      </g>
      <g
         id="patch_22">
        <path
           d="m 778.84948,145.6238 h 18.07806 V 99.269799 h -18.07806 z"
           clip-path="url(#pee0cf1081a)"
           style="opacity:0.6;fill:#bdbdbd"
           id="path39" />
      </g>
      <g
         id="patch_23">
        <path
           d="m 778.84948,191.9778 h 18.07806 v -46.354 h -18.07806 z"
           clip-path="url(#pee0cf1081a)"
           style="opacity:0.6;fill:#bdbdbd"
           id="path40" />
      </g>
      <g
         id="patch_24">
        <path
           d="m 778.84948,238.3318 h 18.07806 v -46.354 h -18.07806 z"
           clip-path="url(#pee0cf1081a)"
           style="opacity:0.6;fill:#bdbdbd"
           id="path41" />
      </g>
      <g
         id="patch_25">
        <path
           d="m 917.91148,99.269799 h 18.07806 v -46.354 h -18.07806 z"
           clip-path="url(#pee0cf1081a)"
           style="opacity:0.6;fill:#bdbdbd"
           id="path42" />
      </g>
      <g
         id="patch_26">
        <path
           d="m 917.91148,145.6238 h 18.07806 V 99.269799 h -18.07806 z"
           clip-path="url(#pee0cf1081a)"
           style="opacity:0.6;fill:#bdbdbd"
           id="path43" />
      </g>
      <g
         id="patch_27">
        <path
           d="m 917.91148,191.9778 h 18.07806 v -46.354 h -18.07806 z"
           clip-path="url(#pee0cf1081a)"
           style="opacity:0.6;fill:#bdbdbd"
           id="path44" />
      </g>
      <g
         id="patch_28">
        <path
           d="m 917.91148,238.3318 h 18.07806 v -46.354 h -18.07806 z"
           clip-path="url(#pee0cf1081a)"
           style="opacity:0.6;fill:#bdbdbd"
           id="path45" />
      </g>
      <g
         id="patch_29">
        <path
           d="m 216.57547,91.157849 h 30.1301 v -30.1301 h -30.1301 z"
           clip-path="url(#pee0cf1081a)"
           style="fill:#6fa4ff;stroke:#6fa4ff;stroke-width:1.5;stroke-linejoin:miter"
           id="path46" />
      </g>
      <g
         id="patch_30">
        <path
           d="m 216.57547,137.51185 h 30.1301 v -30.1301 h -30.1301 z"
           clip-path="url(#pee0cf1081a)"
           style="fill:#6fa4ff;stroke:#6fa4ff;stroke-width:1.5;stroke-linejoin:miter"
           id="path47" />
      </g>
      <g
         id="patch_31">
        <path
           d="m 277.99452,80.612314 c 1.19859,0 2.34825,-0.476205 3.19578,-1.323735 0.84753,-0.847531 1.32374,-1.997191 1.32374,-3.19578 0,-1.198589 -0.47621,-2.348249 -1.32374,-3.19578 -0.84753,-0.84753 -1.99719,-1.323735 -3.19578,-1.323735 -1.19859,0 -2.34825,0.476205 -3.19578,1.323735 -0.84753,0.847531 -1.32373,1.997191 -1.32373,3.19578 0,1.198589 0.4762,2.348249 1.32373,3.19578 0.84753,0.84753 1.99719,1.323735 3.19578,1.323735 z"
           clip-path="url(#pee0cf1081a)"
           style="fill:#6fa4ff;stroke:#6fa4ff;stroke-width:1.5;stroke-linejoin:miter"
           id="path48" />
      </g>
      <g
         id="patch_32">
        <path
           d="m 277.99452,179.34633 c 2.79671,0 5.47925,-1.11114 7.45682,-3.08871 1.97757,-1.97758 3.08872,-4.66011 3.08872,-7.45682 0,-2.79671 -1.11115,-5.47925 -3.08872,-7.45682 -1.97757,-1.97757 -4.66011,-3.08872 -7.45682,-3.08872 -2.79671,0 -5.47925,1.11115 -7.45682,3.08872 -1.97757,1.97757 -3.08871,4.66011 -3.08871,7.45682 0,2.79671 1.11114,5.47924 3.08871,7.45682 1.97757,1.97757 4.66011,3.08871 7.45682,3.08871 z"
           clip-path="url(#pee0cf1081a)"
           style="fill:#6fa4ff;stroke:#6fa4ff;stroke-width:2;stroke-linejoin:miter"
           id="path49" />
      </g>
      <g
         id="patch_33">
        <path
           d="m 370.70252,126.96631 c 1.19859,0 2.34825,-0.4762 3.19578,-1.32373 0.84753,-0.84753 1.32374,-1.99719 1.32374,-3.19578 0,-1.19859 -0.47621,-2.34825 -1.32374,-3.19578 -0.84753,-0.84753 -1.99719,-1.32374 -3.19578,-1.32374 -1.19859,0 -2.34825,0.47621 -3.19578,1.32374 -0.84753,0.84753 -1.32373,1.99719 -1.32373,3.19578 0,1.19859 0.4762,2.34825 1.32373,3.19578 0.84753,0.84753 1.99719,1.32373 3.19578,1.32373 z"
           clip-path="url(#pee0cf1081a)"
           style="fill:#6fa4ff;stroke:#6fa4ff;stroke-width:1.5;stroke-linejoin:miter"
           id="path50" />
      </g>
      <g
         id="patch_34">
        <path
           d="m 370.70252,225.70033 c 2.79671,0 5.47925,-1.11114 7.45682,-3.08871 1.97757,-1.97758 3.08872,-4.66011 3.08872,-7.45682 0,-2.79671 -1.11115,-5.47925 -3.08872,-7.45682 -1.97757,-1.97757 -4.66011,-3.08872 -7.45682,-3.08872 -2.79671,0 -5.47925,1.11115 -7.45682,3.08872 -1.97757,1.97757 -3.08871,4.66011 -3.08871,7.45682 0,2.79671 1.11114,5.47924 3.08871,7.45682 1.97757,1.97757 4.66011,3.08871 7.45682,3.08871 z"
           clip-path="url(#pee0cf1081a)"
           style="fill:#6fa4ff;stroke:#6fa4ff;stroke-width:2;stroke-linejoin:miter"
           id="path51" />
      </g>
      <g
         id="patch_35">
        <path
           d="m 355.63747,91.157849 h 30.1301 v -30.1301 h -30.1301 z"
           clip-path="url(#pee0cf1081a)"
           style="fill:#05bab6;stroke:#05bab6;stroke-width:1.5;stroke-linejoin:miter"
           id="path52" />
      </g>
      <g
         id="patch_36">
        <path
           d="m 448.34547,137.51185 h 30.1301 v -30.1301 h -30.1301 z"
           clip-path="url(#pee0cf1081a)"
           style="fill:#05bab6;stroke:#05bab6;stroke-width:1.5;stroke-linejoin:miter"
           id="path53" />
      </g>
      <g
         id="patch_37">
        <path
           d="m 509.76452,80.612314 c 1.19859,0 2.34825,-0.476205 3.19578,-1.323735 0.84753,-0.847531 1.32373,-1.997191 1.32373,-3.19578 0,-1.198589 -0.4762,-2.348249 -1.32373,-3.19578 -0.84753,-0.84753 -1.99719,-1.323735 -3.19578,-1.323735 -1.19859,0 -2.34825,0.476205 -3.19578,1.323735 -0.84753,0.847531 -1.32374,1.997191 -1.32374,3.19578 0,1.198589 0.47621,2.348249 1.32374,3.19578 0.84753,0.84753 1.99719,1.323735 3.19578,1.323735 z"
           clip-path="url(#pee0cf1081a)"
           style="fill:#bb8bff;stroke:#bb8bff;stroke-width:1.5;stroke-linejoin:miter"
           id="path54" />
      </g>
      <g
         id="patch_38">
        <path
           d="m 509.76452,126.96631 c 1.19859,0 2.34825,-0.4762 3.19578,-1.32373 0.84753,-0.84753 1.32373,-1.99719 1.32373,-3.19578 0,-1.19859 -0.4762,-2.34825 -1.32373,-3.19578 -0.84753,-0.84753 -1.99719,-1.32374 -3.19578,-1.32374 -1.19859,0 -2.34825,0.47621 -3.19578,1.32374 -0.84753,0.84753 -1.32374,1.99719 -1.32374,3.19578 0,1.19859 0.47621,2.34825 1.32374,3.19578 0.84753,0.84753 1.99719,1.32373 3.19578,1.32373 z"
           clip-path="url(#pee0cf1081a)"
           style="fill:#bb8bff;stroke:#bb8bff;stroke-width:1.5;stroke-linejoin:miter"
           id="path55" />
      </g>
      <g
         id="patch_39">
        <path
           d="m 509.76452,179.34633 c 2.79671,0 5.47925,-1.11114 7.45682,-3.08871 1.97757,-1.97758 3.08871,-4.66011 3.08871,-7.45682 0,-2.79671 -1.11114,-5.47925 -3.08871,-7.45682 -1.97757,-1.97757 -4.66011,-3.08872 -7.45682,-3.08872 -2.79671,0 -5.47925,1.11115 -7.45682,3.08872 -1.97757,1.97757 -3.08872,4.66011 -3.08872,7.45682 0,2.79671 1.11115,5.47924 3.08872,7.45682 1.97757,1.97757 4.66011,3.08871 7.45682,3.08871 z"
           clip-path="url(#pee0cf1081a)"
           style="fill:#bb8bff;stroke:#bb8bff;stroke-width:2;stroke-linejoin:miter"
           id="path56" />
      </g>
      <g
         id="patch_40">
        <path
           d="m 587.40747,91.157849 h 30.1301 v -30.1301 h -30.1301 z"
           clip-path="url(#pee0cf1081a)"
           style="fill:#6fa4ff;stroke:#6fa4ff;stroke-width:1.5;stroke-linejoin:miter"
           id="path57" />
      </g>
      <g
         id="patch_41">
        <path
           d="m 587.40747,137.51185 h 30.1301 v -30.1301 h -30.1301 z"
           clip-path="url(#pee0cf1081a)"
           style="fill:#6fa4ff;stroke:#6fa4ff;stroke-width:1.5;stroke-linejoin:miter"
           id="path58" />
      </g>
      <g
         id="patch_42">
        <path
           d="m 648.82652,80.612314 c 1.19859,0 2.34825,-0.476205 3.19578,-1.323735 0.84753,-0.847531 1.32373,-1.997191 1.32373,-3.19578 0,-1.198589 -0.4762,-2.348249 -1.32373,-3.19578 -0.84753,-0.84753 -1.99719,-1.323735 -3.19578,-1.323735 -1.19859,0 -2.34825,0.476205 -3.19578,1.323735 -0.84753,0.847531 -1.32374,1.997191 -1.32374,3.19578 0,1.198589 0.47621,2.348249 1.32374,3.19578 0.84753,0.84753 1.99719,1.323735 3.19578,1.323735 z"
           clip-path="url(#pee0cf1081a)"
           style="fill:#6fa4ff;stroke:#6fa4ff;stroke-width:1.5;stroke-linejoin:miter"
           id="path59" />
      </g>
      <g
         id="patch_43">
        <path
           d="m 648.82652,179.34633 c 2.79671,0 5.47924,-1.11114 7.45682,-3.08871 1.97757,-1.97758 3.08871,-4.66011 3.08871,-7.45682 0,-2.79671 -1.11114,-5.47925 -3.08871,-7.45682 -1.97758,-1.97757 -4.66011,-3.08872 -7.45682,-3.08872 -2.79671,0 -5.47925,1.11115 -7.45682,3.08872 -1.97757,1.97757 -3.08872,4.66011 -3.08872,7.45682 0,2.79671 1.11115,5.47924 3.08872,7.45682 1.97757,1.97757 4.66011,3.08871 7.45682,3.08871 z"
           clip-path="url(#pee0cf1081a)"
           style="fill:#6fa4ff;stroke:#6fa4ff;stroke-width:2;stroke-linejoin:miter"
           id="path60" />
      </g>
      <g
         id="patch_44">
        <path
           d="m 741.53452,126.96631 c 1.19859,0 2.34824,-0.4762 3.19577,-1.32373 0.84754,-0.84753 1.32374,-1.99719 1.32374,-3.19578 0,-1.19859 -0.4762,-2.34825 -1.32374,-3.19578 -0.84753,-0.84753 -1.99718,-1.32374 -3.19577,-1.32374 -1.19859,0 -2.34825,0.47621 -3.19578,1.32374 -0.84753,0.84753 -1.32374,1.99719 -1.32374,3.19578 0,1.19859 0.47621,2.34825 1.32374,3.19578 0.84753,0.84753 1.99719,1.32373 3.19578,1.32373 z"
           clip-path="url(#pee0cf1081a)"
           style="fill:#6fa4ff;stroke:#6fa4ff;stroke-width:1.5;stroke-linejoin:miter"
           id="path61" />
      </g>
      <g
         id="patch_45">
        <path
           d="m 741.53452,225.70033 c 2.7967,0 5.47924,-1.11114 7.45682,-3.08871 1.97757,-1.97758 3.08871,-4.66011 3.08871,-7.45682 0,-2.79671 -1.11114,-5.47925 -3.08871,-7.45682 -1.97758,-1.97757 -4.66012,-3.08872 -7.45682,-3.08872 -2.79671,0 -5.47925,1.11115 -7.45682,3.08872 -1.97757,1.97757 -3.08872,4.66011 -3.08872,7.45682 0,2.79671 1.11115,5.47924 3.08872,7.45682 1.97757,1.97757 4.66011,3.08871 7.45682,3.08871 z"
           clip-path="url(#pee0cf1081a)"
           style="fill:#6fa4ff;stroke:#6fa4ff;stroke-width:2;stroke-linejoin:miter"
           id="path62" />
      </g>
      <g
         id="patch_46">
        <path
           d="m 726.46947,91.157849 h 30.1301 v -30.1301 h -30.1301 z"
           clip-path="url(#pee0cf1081a)"
           style="fill:#05bab6;stroke:#05bab6;stroke-width:1.5;stroke-linejoin:miter"
           id="path63" />
      </g>
      <g
         id="patch_47">
        <path
           d="m 819.17746,137.51185 h 30.1301 v -30.1301 h -30.1301 z"
           clip-path="url(#pee0cf1081a)"
           style="fill:#05bab6;stroke:#05bab6;stroke-width:1.5;stroke-linejoin:miter"
           id="path64" />
      </g>
      <g
         id="patch_48">
        <path
           d="m 880.59651,80.612314 c 1.19859,0 2.34825,-0.476205 3.19578,-1.323735 0.84753,-0.847531 1.32374,-1.997191 1.32374,-3.19578 0,-1.198589 -0.47621,-2.348249 -1.32374,-3.19578 -0.84753,-0.84753 -1.99719,-1.323735 -3.19578,-1.323735 -1.19859,0 -2.34825,0.476205 -3.19578,1.323735 -0.84753,0.847531 -1.32373,1.997191 -1.32373,3.19578 0,1.198589 0.4762,2.348249 1.32373,3.19578 0.84753,0.84753 1.99719,1.323735 3.19578,1.323735 z"
           clip-path="url(#pee0cf1081a)"
           style="fill:#bb8bff;stroke:#bb8bff;stroke-width:1.5;stroke-linejoin:miter"
           id="path65" />
      </g>
      <g
         id="patch_49">
        <path
           d="m 880.59651,126.96631 c 1.19859,0 2.34825,-0.4762 3.19578,-1.32373 0.84753,-0.84753 1.32374,-1.99719 1.32374,-3.19578 0,-1.19859 -0.47621,-2.34825 -1.32374,-3.19578 -0.84753,-0.84753 -1.99719,-1.32374 -3.19578,-1.32374 -1.19859,0 -2.34825,0.47621 -3.19578,1.32374 -0.84753,0.84753 -1.32373,1.99719 -1.32373,3.19578 0,1.19859 0.4762,2.34825 1.32373,3.19578 0.84753,0.84753 1.99719,1.32373 3.19578,1.32373 z"
           clip-path="url(#pee0cf1081a)"
           style="fill:#bb8bff;stroke:#bb8bff;stroke-width:1.5;stroke-linejoin:miter"
           id="path66" />
      </g>
      <g
         id="patch_50">
        <path
           d="m 880.59651,179.34633 c 2.79671,0 5.47925,-1.11114 7.45682,-3.08871 1.97757,-1.97758 3.08872,-4.66011 3.08872,-7.45682 0,-2.79671 -1.11115,-5.47925 -3.08872,-7.45682 -1.97757,-1.97757 -4.66011,-3.08872 -7.45682,-3.08872 -2.79671,0 -5.47924,1.11115 -7.45682,3.08872 -1.97757,1.97757 -3.08871,4.66011 -3.08871,7.45682 0,2.79671 1.11114,5.47924 3.08871,7.45682 1.97758,1.97757 4.66011,3.08871 7.45682,3.08871 z"
           clip-path="url(#pee0cf1081a)"
           style="fill:#bb8bff;stroke:#bb8bff;stroke-width:2;stroke-linejoin:miter"
           id="path67" />
      </g>
      <g
         id="patch_51">
        <path
           d="m 958.23946,183.86585 h 30.1301 v -30.1301 h -30.1301 z"
           clip-path="url(#pee0cf1081a)"
           style="stroke:#000000;stroke-width:1.5;stroke-linejoin:miter"
           id="path68" />
      </g>
      <g
         id="patch_52">
        <path
           d="m 983.85005,173.32031 c 0,-2.79577 -1.11181,-5.4799 -3.08872,-7.45682 -1.97691,-1.97691 -4.66104,-3.08871 -7.45682,-3.08871 -2.79577,0 -5.4799,1.1118 -7.45682,3.08871 -1.97691,1.97692 -3.08871,4.66105 -3.08871,7.45682"
           clip-path="url(#pee0cf1081a)"
           style="fill:none;stroke:#ffffff;stroke-width:2;stroke-linejoin:miter"
           id="path69" />
      </g>
      <g
         id="line2d_18">
        <path
           d="m 973.30451,173.32031 10.54554,-10.54553"
           clip-path="url(#pee0cf1081a)"
           style="fill:none;stroke:#ffffff;stroke-width:2;stroke-linecap:square"
           id="path70" />
      </g>
      <g
         id="patch_53">
        <path
           d="m 1004.5935,230.21985 h 30.1301 v -30.1301 h -30.1301 z"
           clip-path="url(#pee0cf1081a)"
           style="stroke:#000000;stroke-width:1.5;stroke-linejoin:miter"
           id="path71" />
      </g>
      <g
         id="patch_54">
        <path
           d="m 1030.204,219.67431 c 0,-2.79578 -1.1118,-5.4799 -3.0887,-7.45682 -1.9769,-1.97691 -4.661,-3.08871 -7.4568,-3.08871 -2.7958,0 -5.4799,1.1118 -7.4568,3.08871 -1.9769,1.97692 -3.0887,4.66104 -3.0887,7.45682"
           clip-path="url(#pee0cf1081a)"
           style="fill:none;stroke:#ffffff;stroke-width:2;stroke-linejoin:miter"
           id="path72" />
      </g>
      <g
         id="line2d_19">
        <path
           d="m 1019.6585,219.67431 10.5455,-10.54553"
           clip-path="url(#pee0cf1081a)"
           style="fill:none;stroke:#ffffff;stroke-width:2;stroke-linecap:square"
           id="path73" />
      </g>
      <g
         id="line2d_20">
        <path
           d="M 277.99452,174.82682 V 162.77478"
           clip-path="url(#pee0cf1081a)"
           style="fill:none;stroke:#ffffff;stroke-width:2;stroke-linecap:square"
           id="path74" />
      </g>
      <g
         id="line2d_21">
        <path
           d="m 271.9685,168.8008 h 12.05204"
           clip-path="url(#pee0cf1081a)"
           style="fill:none;stroke:#ffffff;stroke-width:2;stroke-linecap:square"
           id="path75" />
      </g>
      <g
         id="line2d_22">
        <path
           d="M 370.70252,221.18082 V 209.12878"
           clip-path="url(#pee0cf1081a)"
           style="fill:none;stroke:#ffffff;stroke-width:2;stroke-linecap:square"
           id="path76" />
      </g>
      <g
         id="line2d_23">
        <path
           d="m 364.6765,215.1548 h 12.05204"
           clip-path="url(#pee0cf1081a)"
           style="fill:none;stroke:#ffffff;stroke-width:2;stroke-linecap:square"
           id="path77" />
      </g>
      <g
         id="line2d_24">
        <path
           d="M 509.76452,174.82682 V 162.77478"
           clip-path="url(#pee0cf1081a)"
           style="fill:none;stroke:#ffffff;stroke-width:2;stroke-linecap:square"
           id="path78" />
      </g>
      <g
         id="line2d_25">
        <path
           d="m 503.7385,168.8008 h 12.05204"
           clip-path="url(#pee0cf1081a)"
           style="fill:none;stroke:#ffffff;stroke-width:2;stroke-linecap:square"
           id="path79" />
      </g>
      <g
         id="line2d_26">
        <path
           d="M 648.82652,174.82682 V 162.77478"
           clip-path="url(#pee0cf1081a)"
           style="fill:none;stroke:#ffffff;stroke-width:2;stroke-linecap:square"
           id="path80" />
      </g>
      <g
         id="line2d_27">
        <path
           d="m 642.8005,168.8008 h 12.05204"
           clip-path="url(#pee0cf1081a)"
           style="fill:none;stroke:#ffffff;stroke-width:2;stroke-linecap:square"
           id="path81" />
      </g>
      <g
         id="line2d_28">
        <path
           d="M 741.53452,221.18082 V 209.12878"
           clip-path="url(#pee0cf1081a)"
           style="fill:none;stroke:#ffffff;stroke-width:2;stroke-linecap:square"
           id="path82" />
      </g>
      <g
         id="line2d_29">
        <path
           d="m 735.5085,215.1548 h 12.05204"
           clip-path="url(#pee0cf1081a)"
           style="fill:none;stroke:#ffffff;stroke-width:2;stroke-linecap:square"
           id="path83" />
      </g>
      <g
         id="line2d_30">
        <path
           d="M 880.59651,174.82682 V 162.77478"
           clip-path="url(#pee0cf1081a)"
           style="fill:none;stroke:#ffffff;stroke-width:2;stroke-linecap:square"
           id="path84" />
      </g>
      <g
         id="line2d_31">
        <path
           d="m 874.57049,168.8008 h 12.05204"
           clip-path="url(#pee0cf1081a)"
           style="fill:none;stroke:#ffffff;stroke-width:2;stroke-linecap:square"
           id="path85" />
      </g>
      <g
         id="text_1">
        <g
           clip-path="url(#pee0cf1081a)"
           id="g87">
          <!-- ${q}_{0}$ -->
          <g
             transform="matrix(0.1625,0,0,-0.1625,179.30106,80.543776)"
             id="g86">
            <defs
               id="defs85">
              <path
                 id="DejaVuSans-Oblique-71"
                 d="M 2669,525 Q 2438,222 2123,65 1809,-91 1428,-91 897,-91 595,267 294,625 294,1253 q 0,506 186,978 186,472 533,847 225,244 517,375 292,131 614,131 387,0 637,-153 250,-153 363,-462 l 100,525 h 578 L 2888,-1319 H 2309 Z M 891,1338 q 0,-463 193,-705 194,-242 560,-242 544,0 928,520 384,520 384,1264 0,450 -199,689 -198,239 -569,239 -272,0 -504,-127 Q 1453,2850 1281,2606 1100,2350 995,2006 891,1663 891,1338 Z"
                 transform="scale(0.015625)" />
              <path
                 id="DejaVuSans-30"
                 d="m 2034,4250 q -487,0 -733,-480 -245,-479 -245,-1442 0,-959 245,-1439 246,-480 733,-480 491,0 736,480 246,480 246,1439 0,963 -246,1442 -245,480 -736,480 z m 0,500 q 785,0 1199,-621 414,-620 414,-1801 0,-1178 -414,-1799 -414,-620 -1199,-620 -784,0 -1198,620 -414,621 -414,1799 0,1181 414,1801 414,621 1198,621 z"
                 transform="scale(0.015625)" />
            </defs>
            <use
               xlink:href="#DejaVuSans-Oblique-71"
               id="use85" />
            <use
               xlink:href="#DejaVuSans-30"
               transform="matrix(0.7,0,0,0.7,63.476562,-16.40625)"
               id="use86" />
          </g>
        </g>
      </g>
      <g
         id="text_2">
        <g
           clip-path="url(#pee0cf1081a)"
           id="g89">
          <!-- ${q}_{1}$ -->
          <g
             transform="matrix(0.1625,0,0,-0.1625,179.30106,126.89777)"
             id="g88">
            <defs
               id="defs87">
              <path
                 id="DejaVuSans-31"
                 d="M 794,531 H 1825 V 4091 L 703,3866 v 575 l 1116,225 h 631 V 531 H 3481 V 0 H 794 Z"
                 transform="scale(0.015625)" />
            </defs>
            <use
               xlink:href="#DejaVuSans-Oblique-71"
               id="use87" />
            <use
               xlink:href="#DejaVuSans-31"
               transform="matrix(0.7,0,0,0.7,63.476562,-16.40625)"
               id="use88" />
          </g>
        </g>
      </g>
      <g
         id="text_3">
        <g
           clip-path="url(#pee0cf1081a)"
           id="g91">
          <!-- ${q}_{2}$ -->
          <g
             transform="matrix(0.1625,0,0,-0.1625,179.30106,173.25177)"
             id="g90">
            <defs
               id="defs89">
              <path
                 id="DejaVuSans-32"
                 d="M 1228,531 H 3431 V 0 H 469 v 531 q 359,372 979,998 621,627 780,809 303,340 423,576 121,236 121,464 0,372 -261,606 -261,235 -680,235 -297,0 -627,-103 -329,-103 -704,-313 v 638 q 381,153 712,231 332,78 607,78 725,0 1156,-363 431,-362 431,-968 0,-288 -108,-546 -107,-257 -392,-607 -78,-91 -497,-524 Q 1991,1309 1228,531 Z"
                 transform="scale(0.015625)" />
            </defs>
            <use
               xlink:href="#DejaVuSans-Oblique-71"
               id="use89" />
            <use
               xlink:href="#DejaVuSans-32"
               transform="matrix(0.7,0,0,0.7,63.476562,-16.40625)"
               id="use90" />
          </g>
        </g>
      </g>
      <g
         id="text_4">
        <g
           clip-path="url(#pee0cf1081a)"
           id="g93">
          <!-- ${q}_{3}$ -->
          <g
             transform="matrix(0.1625,0,0,-0.1625,179.30106,219.60577)"
             id="g92">
            <defs
               id="defs91">
              <path
                 id="DejaVuSans-33"
                 d="m 2597,2516 q 453,-97 707,-404 255,-306 255,-756 0,-690 -475,-1069 -475,-378 -1350,-378 -293,0 -604,58 -311,58 -642,174 v 609 q 262,-153 574,-231 313,-78 654,-78 593,0 904,234 311,234 311,681 0,413 -289,645 -289,233 -804,233 h -544 v 519 h 569 q 465,0 712,186 247,186 247,536 0,359 -255,551 -254,193 -729,193 -260,0 -557,-57 -297,-56 -653,-174 v 562 q 360,100 674,150 314,50 592,50 719,0 1137,-327 419,-326 419,-882 0,-388 -222,-655 -222,-267 -631,-370 z"
                 transform="scale(0.015625)" />
            </defs>
            <use
               xlink:href="#DejaVuSans-Oblique-71"
               id="use91" />
            <use
               xlink:href="#DejaVuSans-33"
               transform="matrix(0.7,0,0,0.7,63.476562,-16.40625)"
               id="use92" />
          </g>
        </g>
      </g>
      <g
         id="text_5">
        <g
           clip-path="url(#pee0cf1081a)"
           id="g95">
          <!-- 4 -->
          <g
             transform="matrix(0.104,0,0,-0.104,211.24476,254.71052)"
             id="g94">
            <defs
               id="defs93">
              <path
                 id="DejaVuSans-34"
                 d="M 2419,4116 825,1625 h 1594 z m -166,550 h 794 V 1625 h 666 V 1100 H 3047 V 0 H 2419 V 1100 H 313 v 609 z"
                 transform="scale(0.015625)" />
            </defs>
            <use
               xlink:href="#DejaVuSans-34"
               id="use93" />
          </g>
        </g>
      </g>
      <g
         id="text_6">
        <g
           clip-path="url(#pee0cf1081a)"
           id="g97">
          <!-- c -->
          <g
             transform="matrix(0.1625,0,0,-0.1625,188.4036,265.99278)"
             id="g96">
            <defs
               id="defs95">
              <path
                 id="DejaVuSans-63"
                 d="m 3122,3366 v -538 q -244,135 -489,202 -245,67 -495,67 -560,0 -870,-355 -309,-354 -309,-995 0,-641 309,-996 310,-354 870,-354 250,0 495,67 245,67 489,202 V 134 Q 2881,22 2623,-34 2366,-91 2075,-91 1284,-91 818,406 353,903 353,1747 q 0,856 470,1346 471,491 1290,491 265,0 518,-55 253,-54 491,-163 z"
                 transform="scale(0.015625)" />
            </defs>
            <use
               xlink:href="#DejaVuSans-63"
               id="use95" />
          </g>
        </g>
      </g>
      <g
         id="text_7">
        <g
           clip-path="url(#pee0cf1081a)"
           id="g99">
          <!-- H -->
          <g
             transform="matrix(0.13,0,0,-0.13,226.75232,79.679986)"
             id="g98">
            <defs
               id="defs97">
              <path
                 id="DejaVuSans-48"
                 d="m 628,4666 h 631 V 2753 h 2294 v 1913 h 631 V 0 H 3553 V 2222 H 1259 V 0 H 628 Z"
                 transform="scale(0.015625)" />
            </defs>
            <use
               xlink:href="#DejaVuSans-48"
               id="use97" />
          </g>
        </g>
      </g>
      <g
         id="text_8">
        <g
           clip-path="url(#pee0cf1081a)"
           id="g101">
          <!-- H -->
          <g
             transform="matrix(0.13,0,0,-0.13,226.75232,126.03399)"
             id="g100">
            <use
               xlink:href="#DejaVuSans-48"
               id="use99" />
          </g>
        </g>
      </g>
      <g
         id="line2d_32">
        <path
           d="m 324.34852,52.915799 v 46.354"
           clip-path="url(#pee0cf1081a)"
           style="fill:none;stroke:#000000;stroke-dasharray:3.7, 1.6;stroke-dashoffset:0"
           id="path101" />
      </g>
      <g
         id="line2d_33">
        <path
           d="M 324.34852,99.269799 V 145.6238"
           clip-path="url(#pee0cf1081a)"
           style="fill:none;stroke:#000000;stroke-dasharray:3.7, 1.6;stroke-dashoffset:0"
           id="path102" />
      </g>
      <g
         id="line2d_34">
        <path
           d="m 324.34852,145.6238 v 46.354"
           clip-path="url(#pee0cf1081a)"
           style="fill:none;stroke:#000000;stroke-dasharray:3.7, 1.6;stroke-dashoffset:0"
           id="path103" />
      </g>
      <g
         id="line2d_35">
        <path
           d="m 324.34852,191.9778 v 46.354"
           clip-path="url(#pee0cf1081a)"
           style="fill:none;stroke:#000000;stroke-dasharray:3.7, 1.6;stroke-dashoffset:0"
           id="path104" />
      </g>
      <g
         id="text_9">
        <g
           clip-path="url(#pee0cf1081a)"
           id="g105">
          <!-- X -->
          <g
             transform="matrix(0.13,0,0,-0.13,366.25002,79.679986)"
             id="g104">
            <defs
               id="defs104">
              <path
                 id="DejaVuSans-58"
                 d="m 403,4666 h 678 L 2241,2931 3406,4666 h 678 L 2584,2425 4184,0 H 3506 L 2194,1984 872,0 H 191 l 1665,2491 z"
                 transform="scale(0.015625)" />
            </defs>
            <use
               xlink:href="#DejaVuSans-58"
               id="use104" />
          </g>
        </g>
      </g>
      <g
         id="line2d_36">
        <path
           d="m 417.05652,52.915799 v 46.354"
           clip-path="url(#pee0cf1081a)"
           style="fill:none;stroke:#000000;stroke-dasharray:3.7, 1.6;stroke-dashoffset:0"
           id="path105" />
      </g>
      <g
         id="line2d_37">
        <path
           d="M 417.05652,99.269799 V 145.6238"
           clip-path="url(#pee0cf1081a)"
           style="fill:none;stroke:#000000;stroke-dasharray:3.7, 1.6;stroke-dashoffset:0"
           id="path106" />
      </g>
      <g
         id="line2d_38">
        <path
           d="m 417.05652,145.6238 v 46.354"
           clip-path="url(#pee0cf1081a)"
           style="fill:none;stroke:#000000;stroke-dasharray:3.7, 1.6;stroke-dashoffset:0"
           id="path107" />
      </g>
      <g
         id="line2d_39">
        <path
           d="m 417.05652,191.9778 v 46.354"
           clip-path="url(#pee0cf1081a)"
           style="fill:none;stroke:#000000;stroke-dasharray:3.7, 1.6;stroke-dashoffset:0"
           id="path108" />
      </g>
      <g
         id="text_10">
        <g
           clip-path="url(#pee0cf1081a)"
           id="g109">
          <!-- X -->
          <g
             transform="matrix(0.13,0,0,-0.13,458.95802,126.03399)"
             id="g108">
            <use
               xlink:href="#DejaVuSans-58"
               id="use108" />
          </g>
        </g>
      </g>
      <g
         id="line2d_40">
        <path
           d="m 556.11852,52.915799 v 46.354"
           clip-path="url(#pee0cf1081a)"
           style="fill:none;stroke:#000000;stroke-dasharray:3.7, 1.6;stroke-dashoffset:0"
           id="path109" />
      </g>
      <g
         id="line2d_41">
        <path
           d="M 556.11852,99.269799 V 145.6238"
           clip-path="url(#pee0cf1081a)"
           style="fill:none;stroke:#000000;stroke-dasharray:3.7, 1.6;stroke-dashoffset:0"
           id="path110" />
      </g>
      <g
         id="line2d_42">
        <path
           d="m 556.11852,145.6238 v 46.354"
           clip-path="url(#pee0cf1081a)"
           style="fill:none;stroke:#000000;stroke-dasharray:3.7, 1.6;stroke-dashoffset:0"
           id="path111" />
      </g>
      <g
         id="line2d_43">
        <path
           d="m 556.11852,191.9778 v 46.354"
           clip-path="url(#pee0cf1081a)"
           style="fill:none;stroke:#000000;stroke-dasharray:3.7, 1.6;stroke-dashoffset:0"
           id="path112" />
      </g>
      <g
         id="text_11">
        <g
           clip-path="url(#pee0cf1081a)"
           id="g113">
          <!-- H -->
          <g
             transform="matrix(0.13,0,0,-0.13,597.58431,79.679986)"
             id="g112">
            <use
               xlink:href="#DejaVuSans-48"
               id="use112" />
          </g>
        </g>
      </g>
      <g
         id="text_12">
        <g
           clip-path="url(#pee0cf1081a)"
           id="g115">
          <!-- H -->
          <g
             transform="matrix(0.13,0,0,-0.13,597.58431,126.03399)"
             id="g114">
            <use
               xlink:href="#DejaVuSans-48"
               id="use113" />
          </g>
        </g>
      </g>
      <g
         id="line2d_44">
        <path
           d="m 695.18052,52.915799 v 46.354"
           clip-path="url(#pee0cf1081a)"
           style="fill:none;stroke:#000000;stroke-dasharray:3.7, 1.6;stroke-dashoffset:0"
           id="path115" />
      </g>
      <g
         id="line2d_45">
        <path
           d="M 695.18052,99.269799 V 145.6238"
           clip-path="url(#pee0cf1081a)"
           style="fill:none;stroke:#000000;stroke-dasharray:3.7, 1.6;stroke-dashoffset:0"
           id="path116" />
      </g>
      <g
         id="line2d_46">
        <path
           d="m 695.18052,145.6238 v 46.354"
           clip-path="url(#pee0cf1081a)"
           style="fill:none;stroke:#000000;stroke-dasharray:3.7, 1.6;stroke-dashoffset:0"
           id="path117" />
      </g>
      <g
         id="line2d_47">
        <path
           d="m 695.18052,191.9778 v 46.354"
           clip-path="url(#pee0cf1081a)"
           style="fill:none;stroke:#000000;stroke-dasharray:3.7, 1.6;stroke-dashoffset:0"
           id="path118" />
      </g>
      <g
         id="text_13">
        <g
           clip-path="url(#pee0cf1081a)"
           id="g119">
          <!-- X -->
          <g
             transform="matrix(0.13,0,0,-0.13,737.08202,79.679986)"
             id="g118">
            <use
               xlink:href="#DejaVuSans-58"
               id="use118" />
          </g>
        </g>
      </g>
      <g
         id="line2d_48">
        <path
           d="m 787.88851,52.915799 v 46.354"
           clip-path="url(#pee0cf1081a)"
           style="fill:none;stroke:#000000;stroke-dasharray:3.7, 1.6;stroke-dashoffset:0"
           id="path119" />
      </g>
      <g
         id="line2d_49">
        <path
           d="M 787.88851,99.269799 V 145.6238"
           clip-path="url(#pee0cf1081a)"
           style="fill:none;stroke:#000000;stroke-dasharray:3.7, 1.6;stroke-dashoffset:0"
           id="path120" />
      </g>
      <g
         id="line2d_50">
        <path
           d="m 787.88851,145.6238 v 46.354"
           clip-path="url(#pee0cf1081a)"
           style="fill:none;stroke:#000000;stroke-dasharray:3.7, 1.6;stroke-dashoffset:0"
           id="path121" />
      </g>
      <g
         id="line2d_51">
        <path
           d="m 787.88851,191.9778 v 46.354"
           clip-path="url(#pee0cf1081a)"
           style="fill:none;stroke:#000000;stroke-dasharray:3.7, 1.6;stroke-dashoffset:0"
           id="path122" />
      </g>
      <g
         id="text_14">
        <g
           clip-path="url(#pee0cf1081a)"
           id="g123">
          <!-- X -->
          <g
             transform="matrix(0.13,0,0,-0.13,829.79002,126.03399)"
             id="g122">
            <use
               xlink:href="#DejaVuSans-58"
               id="use122" />
          </g>
        </g>
      </g>
      <g
         id="line2d_52">
        <path
           d="m 926.95051,52.915799 v 46.354"
           clip-path="url(#pee0cf1081a)"
           style="fill:none;stroke:#000000;stroke-dasharray:3.7, 1.6;stroke-dashoffset:0"
           id="path123" />
      </g>
      <g
         id="line2d_53">
        <path
           d="M 926.95051,99.269799 V 145.6238"
           clip-path="url(#pee0cf1081a)"
           style="fill:none;stroke:#000000;stroke-dasharray:3.7, 1.6;stroke-dashoffset:0"
           id="path124" />
      </g>
      <g
         id="line2d_54">
        <path
           d="m 926.95051,145.6238 v 46.354"
           clip-path="url(#pee0cf1081a)"
           style="fill:none;stroke:#000000;stroke-dasharray:3.7, 1.6;stroke-dashoffset:0"
           id="path125" />
      </g>
      <g
         id="line2d_55">
        <path
           d="m 926.95051,191.9778 v 46.354"
           clip-path="url(#pee0cf1081a)"
           style="fill:none;stroke:#000000;stroke-dasharray:3.7, 1.6;stroke-dashoffset:0"
           id="path126" />
      </g>
      <g
         id="text_15">
        <g
           clip-path="url(#pee0cf1081a)"
           id="g127">
          <!-- 0 -->
          <g
             transform="matrix(0.104,0,0,-0.104,984.89301,254.71052)"
             id="g126">
            <use
               xlink:href="#DejaVuSans-30"
               id="use126" />
          </g>
        </g>
      </g>
      <g
         id="text_16">
        <g
           clip-path="url(#pee0cf1081a)"
           id="g129">
          <!-- 1 -->
          <g
             transform="matrix(0.104,0,0,-0.104,1031.247,254.71052)"
             id="g128">
            <use
               xlink:href="#DejaVuSans-31"
               id="use127" />
          </g>
        </g>
      </g>
    </g>
  </g>
  <defs
     id="defs129">
    <clipPath
       id="pee0cf1081a">
      <rect
         x="149.20016"
         y="39.009598"
         width="901.052"
         height="250.3116"
         id="rect129" />
    </clipPath>
  </defs>
</svg>
