<?xml version="1.0" encoding="utf-8" standalone="no"?>
<!DOCTYPE svg PUBLIC "-//W3C//DTD SVG 1.1//EN"
  "http://www.w3.org/Graphics/SVG/1.1/DTD/svg11.dtd">
<svg xmlns:xlink="http://www.w3.org/1999/xlink" width="688.59739pt" height="325.079996pt" viewBox="0 0 688.59739 325.079996" xmlns="http://www.w3.org/2000/svg" version="1.1">
 <metadata>
  <rdf:RDF xmlns:dc="http://purl.org/dc/elements/1.1/" xmlns:cc="http://creativecommons.org/ns#" xmlns:rdf="http://www.w3.org/1999/02/22-rdf-syntax-ns#">
   <cc:Work>
    <dc:type rdf:resource="http://purl.org/dc/dcmitype/StillImage"/>
    <dc:date>2024-02-05T14:30:40.808094</dc:date>
    <dc:format>image/svg+xml</dc:format>
    <dc:creator>
     <cc:Agent>
      <dc:title>Matplotlib v3.8.2, https://matplotlib.org/</dc:title>
     </cc:Agent>
    </dc:creator>
   </cc:Work>
  </rdf:RDF>
 </metadata>
 <defs>
  <style type="text/css">*{stroke-linejoin: round; stroke-linecap: butt}</style>
 </defs>
 <g id="figure_1">
  <g id="patch_1">
   <path d="M 0 325.079996 
L 688.59739 325.079996 
L 688.59739 0 
L 0 0 
z
" style="fill: #ffffff"/>
  </g>
  <g id="axes_1">
   <g id="line2d_1">
    <path d="M 145.205364 76.092799 
L 613.380757 76.092799 
" clip-path="url(#p6e68ade9bb)" style="fill: none; stroke: #000000; stroke-width: 2; stroke-linecap: square"/>
   </g>
   <g id="line2d_2">
    <path d="M 145.205364 122.446798 
L 613.380757 122.446798 
" clip-path="url(#p6e68ade9bb)" style="fill: none; stroke: #000000; stroke-width: 2; stroke-linecap: square"/>
   </g>
   <g id="line2d_3">
    <path d="M 145.205364 168.800798 
L 613.380757 168.800798 
" clip-path="url(#p6e68ade9bb)" style="fill: none; stroke: #000000; stroke-width: 2; stroke-linecap: square"/>
   </g>
   <g id="line2d_4">
    <path d="M 145.205364 215.154797 
L 613.380757 215.154797 
" clip-path="url(#p6e68ade9bb)" style="fill: none; stroke: #000000; stroke-width: 2; stroke-linecap: square"/>
   </g>
   <g id="line2d_5">
    <path d="M 154.476164 266.144196 
L 159.111563 256.873397 
" clip-path="url(#p6e68ade9bb)" style="fill: none; stroke: #778899; stroke-width: 1.5; stroke-linecap: square"/>
   </g>
   <g id="line2d_6">
    <path d="M 145.205364 260.002292 
L 613.380757 260.002292 
" clip-path="url(#p6e68ade9bb)" style="fill: none; stroke: #778899; stroke-width: 2; stroke-linecap: square"/>
   </g>
   <g id="line2d_7">
    <path d="M 145.205364 263.015302 
L 613.380757 263.015302 
" clip-path="url(#p6e68ade9bb)" style="fill: none; stroke: #778899; stroke-width: 2; stroke-linecap: square"/>
   </g>
   <g id="patch_2">
    <path d="M 535.042498 250.963262 
L 547.094538 250.963262 
L 541.068518 259.654637 
z
" clip-path="url(#p6e68ade9bb)" style="fill: #778899"/>
   </g>
   <g id="patch_3">
    <path d="M 581.396498 250.963262 
L 593.448538 250.963262 
L 587.422518 259.654637 
z
" clip-path="url(#p6e68ade9bb)" style="fill: #778899"/>
   </g>
   <g id="patch_4">
    <path d="M 140.569964 52.915799 
L -1018.280021 52.915799 
L -1018.280021 331.039796 
L 140.569964 331.039796 
z
" clip-path="url(#p6e68ade9bb)" style="fill: #ffffff; stroke: #ffffff; stroke-width: 1.5; stroke-linejoin: miter"/>
   </g>
   <g id="line2d_8">
    <path d="M 216.590523 168.800798 
L 216.590523 76.092799 
" clip-path="url(#p6e68ade9bb)" style="fill: none; stroke: #6fa4ff; stroke-width: 2; stroke-linecap: square"/>
   </g>
   <g id="line2d_9">
    <path d="M 309.298521 215.154797 
L 309.298521 122.446798 
" clip-path="url(#p6e68ade9bb)" style="fill: none; stroke: #6fa4ff; stroke-width: 2; stroke-linecap: square"/>
   </g>
   <g id="line2d_10">
    <path d="M 448.36052 168.800798 
L 448.36052 76.092799 
" clip-path="url(#p6e68ade9bb)" style="fill: none; stroke: #bb8bff; stroke-width: 2; stroke-linecap: square"/>
   </g>
   <g id="line2d_11">
    <path d="M 542.575023 168.800798 
L 542.575023 250.963262 
" clip-path="url(#p6e68ade9bb)" style="fill: none; stroke: #778899; stroke-width: 2; stroke-linecap: square"/>
   </g>
   <g id="line2d_12">
    <path d="M 539.562013 168.800798 
L 539.562013 250.963262 
" clip-path="url(#p6e68ade9bb)" style="fill: none; stroke: #778899; stroke-width: 2; stroke-linecap: square"/>
   </g>
   <g id="line2d_13">
    <path d="M 588.929023 215.154797 
L 588.929023 250.963262 
" clip-path="url(#p6e68ade9bb)" style="fill: none; stroke: #778899; stroke-width: 2; stroke-linecap: square"/>
   </g>
   <g id="line2d_14">
    <path d="M 585.916013 215.154797 
L 585.916013 250.963262 
" clip-path="url(#p6e68ade9bb)" style="fill: none; stroke: #778899; stroke-width: 2; stroke-linecap: square"/>
   </g>
   <g id="patch_5">
    <path d="M 253.905492 99.269799 
L 271.983552 99.269799 
L 271.983552 52.915799 
L 253.905492 52.915799 
z
" clip-path="url(#p6e68ade9bb)" style="fill: #bdbdbd; opacity: 0.6"/>
   </g>
   <g id="patch_6">
    <path d="M 253.905492 145.623798 
L 271.983552 145.623798 
L 271.983552 99.269799 
L 253.905492 99.269799 
z
" clip-path="url(#p6e68ade9bb)" style="fill: #bdbdbd; opacity: 0.6"/>
   </g>
   <g id="patch_7">
    <path d="M 253.905492 191.977797 
L 271.983552 191.977797 
L 271.983552 145.623798 
L 253.905492 145.623798 
z
" clip-path="url(#p6e68ade9bb)" style="fill: #bdbdbd; opacity: 0.6"/>
   </g>
   <g id="patch_8">
    <path d="M 253.905492 238.331797 
L 271.983552 238.331797 
L 271.983552 191.977797 
L 253.905492 191.977797 
z
" clip-path="url(#p6e68ade9bb)" style="fill: #bdbdbd; opacity: 0.6"/>
   </g>
   <g id="patch_9">
    <path d="M 346.613491 99.269799 
L 364.691551 99.269799 
L 364.691551 52.915799 
L 346.613491 52.915799 
z
" clip-path="url(#p6e68ade9bb)" style="fill: #bdbdbd; opacity: 0.6"/>
   </g>
   <g id="patch_10">
    <path d="M 346.613491 145.623798 
L 364.691551 145.623798 
L 364.691551 99.269799 
L 346.613491 99.269799 
z
" clip-path="url(#p6e68ade9bb)" style="fill: #bdbdbd; opacity: 0.6"/>
   </g>
   <g id="patch_11">
    <path d="M 346.613491 191.977797 
L 364.691551 191.977797 
L 364.691551 145.623798 
L 346.613491 145.623798 
z
" clip-path="url(#p6e68ade9bb)" style="fill: #bdbdbd; opacity: 0.6"/>
   </g>
   <g id="patch_12">
    <path d="M 346.613491 238.331797 
L 364.691551 238.331797 
L 364.691551 191.977797 
L 346.613491 191.977797 
z
" clip-path="url(#p6e68ade9bb)" style="fill: #bdbdbd; opacity: 0.6"/>
   </g>
   <g id="patch_13">
    <path d="M 485.675489 99.269799 
L 503.753549 99.269799 
L 503.753549 52.915799 
L 485.675489 52.915799 
z
" clip-path="url(#p6e68ade9bb)" style="fill: #bdbdbd; opacity: 0.6"/>
   </g>
   <g id="patch_14">
    <path d="M 485.675489 145.623798 
L 503.753549 145.623798 
L 503.753549 99.269799 
L 485.675489 99.269799 
z
" clip-path="url(#p6e68ade9bb)" style="fill: #bdbdbd; opacity: 0.6"/>
   </g>
   <g id="patch_15">
    <path d="M 485.675489 191.977797 
L 503.753549 191.977797 
L 503.753549 145.623798 
L 485.675489 145.623798 
z
" clip-path="url(#p6e68ade9bb)" style="fill: #bdbdbd; opacity: 0.6"/>
   </g>
   <g id="patch_16">
    <path d="M 485.675489 238.331797 
L 503.753549 238.331797 
L 503.753549 191.977797 
L 485.675489 191.977797 
z
" clip-path="url(#p6e68ade9bb)" style="fill: #bdbdbd; opacity: 0.6"/>
   </g>
   <g id="patch_17">
    <path d="M 155.171474 91.157849 
L 185.301573 91.157849 
L 185.301573 61.027749 
L 155.171474 61.027749 
z
" clip-path="url(#p6e68ade9bb)" style="fill: #6fa4ff; stroke: #6fa4ff; stroke-width: 1.5; stroke-linejoin: miter"/>
   </g>
   <g id="patch_18">
    <path d="M 155.171474 137.511848 
L 185.301573 137.511848 
L 185.301573 107.381749 
L 155.171474 107.381749 
z
" clip-path="url(#p6e68ade9bb)" style="fill: #6fa4ff; stroke: #6fa4ff; stroke-width: 1.5; stroke-linejoin: miter"/>
   </g>
   <g id="patch_19">
    <path d="M 216.590523 80.612314 
C 217.789112 80.612314 218.938772 80.136109 219.786302 79.288579 
C 220.633833 78.441048 221.110038 77.291388 221.110038 76.092799 
C 221.110038 74.89421 220.633833 73.74455 219.786302 72.897019 
C 218.938772 72.049489 217.789112 71.573284 216.590523 71.573284 
C 215.391933 71.573284 214.242274 72.049489 213.394743 72.897019 
C 212.547212 73.74455 212.071008 74.89421 212.071008 76.092799 
C 212.071008 77.291388 212.547212 78.441048 213.394743 79.288579 
C 214.242274 80.136109 215.391933 80.612314 216.590523 80.612314 
z
" clip-path="url(#p6e68ade9bb)" style="fill: #6fa4ff; stroke: #6fa4ff; stroke-width: 1.5; stroke-linejoin: miter"/>
   </g>
   <g id="patch_20">
    <path d="M 216.590523 179.346333 
C 219.387231 179.346333 222.06977 178.235189 224.047342 176.257617 
C 226.024914 174.280045 227.136058 171.597506 227.136058 168.800798 
C 227.136058 166.004089 226.024914 163.32155 224.047342 161.343979 
C 222.06977 159.366407 219.387231 158.255263 216.590523 158.255263 
C 213.793814 158.255263 211.111275 159.366407 209.133704 161.343979 
C 207.156132 163.32155 206.044988 166.004089 206.044988 168.800798 
C 206.044988 171.597506 207.156132 174.280045 209.133704 176.257617 
C 211.111275 178.235189 213.793814 179.346333 216.590523 179.346333 
z
" clip-path="url(#p6e68ade9bb)" style="fill: #6fa4ff; stroke: #6fa4ff; stroke-width: 2; stroke-linejoin: miter"/>
   </g>
   <g id="patch_21">
    <path d="M 309.298521 126.966313 
C 310.497111 126.966313 311.64677 126.490109 312.494301 125.642578 
C 313.341832 124.795047 313.818036 123.645388 313.818036 122.446798 
C 313.818036 121.248209 313.341832 120.098549 312.494301 119.251019 
C 311.64677 118.403488 310.497111 117.927283 309.298521 117.927283 
C 308.099932 117.927283 306.950273 118.403488 306.102742 119.251019 
C 305.255211 120.098549 304.779007 121.248209 304.779007 122.446798 
C 304.779007 123.645388 305.255211 124.795047 306.102742 125.642578 
C 306.950273 126.490109 308.099932 126.966313 309.298521 126.966313 
z
" clip-path="url(#p6e68ade9bb)" style="fill: #6fa4ff; stroke: #6fa4ff; stroke-width: 1.5; stroke-linejoin: miter"/>
   </g>
   <g id="patch_22">
    <path d="M 309.298521 225.700332 
C 312.09523 225.700332 314.777769 224.589188 316.755341 222.611616 
C 318.732912 220.634045 319.844056 217.951506 319.844056 215.154797 
C 319.844056 212.358089 318.732912 209.67555 316.755341 207.697978 
C 314.777769 205.720406 312.09523 204.609262 309.298521 204.609262 
C 306.501813 204.609262 303.819274 205.720406 301.841702 207.697978 
C 299.864131 209.67555 298.752987 212.358089 298.752987 215.154797 
C 298.752987 217.951506 299.864131 220.634045 301.841702 222.611616 
C 303.819274 224.589188 306.501813 225.700332 309.298521 225.700332 
z
" clip-path="url(#p6e68ade9bb)" style="fill: #6fa4ff; stroke: #6fa4ff; stroke-width: 2; stroke-linejoin: miter"/>
   </g>
   <g id="patch_23">
    <path d="M 294.233472 91.157849 
L 324.363571 91.157849 
L 324.363571 61.027749 
L 294.233472 61.027749 
z
" clip-path="url(#p6e68ade9bb)" style="fill: #05bab6; stroke: #05bab6; stroke-width: 1.5; stroke-linejoin: miter"/>
   </g>
   <g id="patch_24">
    <path d="M 386.94147 137.511848 
L 417.07157 137.511848 
L 417.07157 107.381749 
L 386.94147 107.381749 
z
" clip-path="url(#p6e68ade9bb)" style="fill: #05bab6; stroke: #05bab6; stroke-width: 1.5; stroke-linejoin: miter"/>
   </g>
   <g id="patch_25">
    <path d="M 448.36052 80.612314 
C 449.559109 80.612314 450.708769 80.136109 451.556299 79.288579 
C 452.40383 78.441048 452.880035 77.291388 452.880035 76.092799 
C 452.880035 74.89421 452.40383 73.74455 451.556299 72.897019 
C 450.708769 72.049489 449.559109 71.573284 448.36052 71.573284 
C 447.16193 71.573284 446.012271 72.049489 445.16474 72.897019 
C 444.317209 73.74455 443.841005 74.89421 443.841005 76.092799 
C 443.841005 77.291388 444.317209 78.441048 445.16474 79.288579 
C 446.012271 80.136109 447.16193 80.612314 448.36052 80.612314 
z
" clip-path="url(#p6e68ade9bb)" style="fill: #bb8bff; stroke: #bb8bff; stroke-width: 1.5; stroke-linejoin: miter"/>
   </g>
   <g id="patch_26">
    <path d="M 448.36052 126.966313 
C 449.559109 126.966313 450.708769 126.490109 451.556299 125.642578 
C 452.40383 124.795047 452.880035 123.645388 452.880035 122.446798 
C 452.880035 121.248209 452.40383 120.098549 451.556299 119.251019 
C 450.708769 118.403488 449.559109 117.927283 448.36052 117.927283 
C 447.16193 117.927283 446.012271 118.403488 445.16474 119.251019 
C 444.317209 120.098549 443.841005 121.248209 443.841005 122.446798 
C 443.841005 123.645388 444.317209 124.795047 445.16474 125.642578 
C 446.012271 126.490109 447.16193 126.966313 448.36052 126.966313 
z
" clip-path="url(#p6e68ade9bb)" style="fill: #bb8bff; stroke: #bb8bff; stroke-width: 1.5; stroke-linejoin: miter"/>
   </g>
   <g id="patch_27">
    <path d="M 448.36052 179.346333 
C 451.157228 179.346333 453.839767 178.235189 455.817339 176.257617 
C 457.79491 174.280045 458.906055 171.597506 458.906055 168.800798 
C 458.906055 166.004089 457.79491 163.32155 455.817339 161.343979 
C 453.839767 159.366407 451.157228 158.255263 448.36052 158.255263 
C 445.563811 158.255263 442.881272 159.366407 440.9037 161.343979 
C 438.926129 163.32155 437.814985 166.004089 437.814985 168.800798 
C 437.814985 171.597506 438.926129 174.280045 440.9037 176.257617 
C 442.881272 178.235189 445.563811 179.346333 448.36052 179.346333 
z
" clip-path="url(#p6e68ade9bb)" style="fill: #bb8bff; stroke: #bb8bff; stroke-width: 2; stroke-linejoin: miter"/>
   </g>
   <g id="patch_28">
    <path d="M 526.003469 183.865848 
L 556.133568 183.865848 
L 556.133568 153.735748 
L 526.003469 153.735748 
z
" clip-path="url(#p6e68ade9bb)" style="stroke: #000000; stroke-width: 1.5; stroke-linejoin: miter"/>
   </g>
   <g id="patch_29">
    <path d="M 551.614053 173.320313 
C 551.614053 170.524536 550.502251 167.840406 548.525338 165.863493 
C 546.548425 163.886581 543.864295 162.774778 541.068518 162.774778 
C 538.272741 162.774778 535.588612 163.886581 533.611699 165.863493 
C 531.634786 167.840406 530.522984 170.524536 530.522984 173.320313 
" clip-path="url(#p6e68ade9bb)" style="fill: none; stroke: #ffffff; stroke-width: 2; stroke-linejoin: miter"/>
   </g>
   <g id="line2d_15">
    <path d="M 541.068518 173.320313 
L 551.614053 162.774778 
" clip-path="url(#p6e68ade9bb)" style="fill: none; stroke: #ffffff; stroke-width: 2; stroke-linecap: square"/>
   </g>
   <g id="patch_30">
    <path d="M 572.357468 230.219847 
L 602.487568 230.219847 
L 602.487568 200.089747 
L 572.357468 200.089747 
z
" clip-path="url(#p6e68ade9bb)" style="stroke: #000000; stroke-width: 1.5; stroke-linejoin: miter"/>
   </g>
   <g id="patch_31">
    <path d="M 597.968053 219.674312 
C 597.968053 216.878535 596.85625 214.194406 594.879337 212.217493 
C 592.902424 210.24058 590.218295 209.128777 587.422518 209.128777 
C 584.626741 209.128777 581.942612 210.24058 579.965699 212.217493 
C 577.988786 214.194406 576.876983 216.878535 576.876983 219.674312 
" clip-path="url(#p6e68ade9bb)" style="fill: none; stroke: #ffffff; stroke-width: 2; stroke-linejoin: miter"/>
   </g>
   <g id="line2d_16">
    <path d="M 587.422518 219.674312 
L 597.968053 209.128777 
" clip-path="url(#p6e68ade9bb)" style="fill: none; stroke: #ffffff; stroke-width: 2; stroke-linecap: square"/>
   </g>
   <g id="line2d_17">
    <path d="M 216.590523 174.826818 
L 216.590523 162.774778 
" clip-path="url(#p6e68ade9bb)" style="fill: none; stroke: #ffffff; stroke-width: 2; stroke-linecap: square"/>
   </g>
   <g id="line2d_18">
    <path d="M 210.564503 168.800798 
L 222.616543 168.800798 
" clip-path="url(#p6e68ade9bb)" style="fill: none; stroke: #ffffff; stroke-width: 2; stroke-linecap: square"/>
   </g>
   <g id="line2d_19">
    <path d="M 309.298521 221.180817 
L 309.298521 209.128777 
" clip-path="url(#p6e68ade9bb)" style="fill: none; stroke: #ffffff; stroke-width: 2; stroke-linecap: square"/>
   </g>
   <g id="line2d_20">
    <path d="M 303.272502 215.154797 
L 315.324541 215.154797 
" clip-path="url(#p6e68ade9bb)" style="fill: none; stroke: #ffffff; stroke-width: 2; stroke-linecap: square"/>
   </g>
   <g id="line2d_21">
    <path d="M 448.36052 174.826818 
L 448.36052 162.774778 
" clip-path="url(#p6e68ade9bb)" style="fill: none; stroke: #ffffff; stroke-width: 2; stroke-linecap: square"/>
   </g>
   <g id="line2d_22">
    <path d="M 442.3345 168.800798 
L 454.38654 168.800798 
" clip-path="url(#p6e68ade9bb)" style="fill: none; stroke: #ffffff; stroke-width: 2; stroke-linecap: square"/>
   </g>
   <g id="text_1">
    <g clip-path="url(#p6e68ade9bb)">
     <!-- ${q}_{0}$ -->
     <g transform="translate(117.897064 80.543776) scale(0.1625 -0.1625)">
      <defs>
       <path id="DejaVuSans-Oblique-71" d="M 2669 525 
Q 2438 222 2123 65 
Q 1809 -91 1428 -91 
Q 897 -91 595 267 
Q 294 625 294 1253 
Q 294 1759 480 2231 
Q 666 2703 1013 3078 
Q 1238 3322 1530 3453 
Q 1822 3584 2144 3584 
Q 2531 3584 2781 3431 
Q 3031 3278 3144 2969 
L 3244 3494 
L 3822 3494 
L 2888 -1319 
L 2309 -1319 
L 2669 525 
z
M 891 1338 
Q 891 875 1084 633 
Q 1278 391 1644 391 
Q 2188 391 2572 911 
Q 2956 1431 2956 2175 
Q 2956 2625 2757 2864 
Q 2559 3103 2188 3103 
Q 1916 3103 1684 2976 
Q 1453 2850 1281 2606 
Q 1100 2350 995 2006 
Q 891 1663 891 1338 
z
" transform="scale(0.015625)"/>
       <path id="DejaVuSans-30" d="M 2034 4250 
Q 1547 4250 1301 3770 
Q 1056 3291 1056 2328 
Q 1056 1369 1301 889 
Q 1547 409 2034 409 
Q 2525 409 2770 889 
Q 3016 1369 3016 2328 
Q 3016 3291 2770 3770 
Q 2525 4250 2034 4250 
z
M 2034 4750 
Q 2819 4750 3233 4129 
Q 3647 3509 3647 2328 
Q 3647 1150 3233 529 
Q 2819 -91 2034 -91 
Q 1250 -91 836 529 
Q 422 1150 422 2328 
Q 422 3509 836 4129 
Q 1250 4750 2034 4750 
z
" transform="scale(0.015625)"/>
      </defs>
      <use xlink:href="#DejaVuSans-Oblique-71"/>
      <use xlink:href="#DejaVuSans-30" transform="translate(63.476562 -16.40625) scale(0.7)"/>
     </g>
    </g>
   </g>
   <g id="text_2">
    <g clip-path="url(#p6e68ade9bb)">
     <!-- ${q}_{1}$ -->
     <g transform="translate(117.897064 126.897775) scale(0.1625 -0.1625)">
      <defs>
       <path id="DejaVuSans-31" d="M 794 531 
L 1825 531 
L 1825 4091 
L 703 3866 
L 703 4441 
L 1819 4666 
L 2450 4666 
L 2450 531 
L 3481 531 
L 3481 0 
L 794 0 
L 794 531 
z
" transform="scale(0.015625)"/>
      </defs>
      <use xlink:href="#DejaVuSans-Oblique-71"/>
      <use xlink:href="#DejaVuSans-31" transform="translate(63.476562 -16.40625) scale(0.7)"/>
     </g>
    </g>
   </g>
   <g id="text_3">
    <g clip-path="url(#p6e68ade9bb)">
     <!-- ${q}_{2}$ -->
     <g transform="translate(117.897064 173.251774) scale(0.1625 -0.1625)">
      <defs>
       <path id="DejaVuSans-32" d="M 1228 531 
L 3431 531 
L 3431 0 
L 469 0 
L 469 531 
Q 828 903 1448 1529 
Q 2069 2156 2228 2338 
Q 2531 2678 2651 2914 
Q 2772 3150 2772 3378 
Q 2772 3750 2511 3984 
Q 2250 4219 1831 4219 
Q 1534 4219 1204 4116 
Q 875 4013 500 3803 
L 500 4441 
Q 881 4594 1212 4672 
Q 1544 4750 1819 4750 
Q 2544 4750 2975 4387 
Q 3406 4025 3406 3419 
Q 3406 3131 3298 2873 
Q 3191 2616 2906 2266 
Q 2828 2175 2409 1742 
Q 1991 1309 1228 531 
z
" transform="scale(0.015625)"/>
      </defs>
      <use xlink:href="#DejaVuSans-Oblique-71"/>
      <use xlink:href="#DejaVuSans-32" transform="translate(63.476562 -16.40625) scale(0.7)"/>
     </g>
    </g>
   </g>
   <g id="text_4">
    <g clip-path="url(#p6e68ade9bb)">
     <!-- ${q}_{3}$ -->
     <g transform="translate(117.897064 219.605774) scale(0.1625 -0.1625)">
      <defs>
       <path id="DejaVuSans-33" d="M 2597 2516 
Q 3050 2419 3304 2112 
Q 3559 1806 3559 1356 
Q 3559 666 3084 287 
Q 2609 -91 1734 -91 
Q 1441 -91 1130 -33 
Q 819 25 488 141 
L 488 750 
Q 750 597 1062 519 
Q 1375 441 1716 441 
Q 2309 441 2620 675 
Q 2931 909 2931 1356 
Q 2931 1769 2642 2001 
Q 2353 2234 1838 2234 
L 1294 2234 
L 1294 2753 
L 1863 2753 
Q 2328 2753 2575 2939 
Q 2822 3125 2822 3475 
Q 2822 3834 2567 4026 
Q 2313 4219 1838 4219 
Q 1578 4219 1281 4162 
Q 984 4106 628 3988 
L 628 4550 
Q 988 4650 1302 4700 
Q 1616 4750 1894 4750 
Q 2613 4750 3031 4423 
Q 3450 4097 3450 3541 
Q 3450 3153 3228 2886 
Q 3006 2619 2597 2516 
z
" transform="scale(0.015625)"/>
      </defs>
      <use xlink:href="#DejaVuSans-Oblique-71"/>
      <use xlink:href="#DejaVuSans-33" transform="translate(63.476562 -16.40625) scale(0.7)"/>
     </g>
    </g>
   </g>
   <g id="text_5">
    <g clip-path="url(#p6e68ade9bb)">
     <!-- 4 -->
     <g transform="translate(149.840764 254.710522) scale(0.104 -0.104)">
      <defs>
       <path id="DejaVuSans-34" d="M 2419 4116 
L 825 1625 
L 2419 1625 
L 2419 4116 
z
M 2253 4666 
L 3047 4666 
L 3047 1625 
L 3713 1625 
L 3713 1100 
L 3047 1100 
L 3047 0 
L 2419 0 
L 2419 1100 
L 313 1100 
L 313 1709 
L 2253 4666 
z
" transform="scale(0.015625)"/>
      </defs>
      <use xlink:href="#DejaVuSans-34"/>
     </g>
    </g>
   </g>
   <g id="text_6">
    <g clip-path="url(#p6e68ade9bb)">
     <!-- c -->
     <g transform="translate(126.999603 265.992781) scale(0.1625 -0.1625)">
      <defs>
       <path id="DejaVuSans-63" d="M 3122 3366 
L 3122 2828 
Q 2878 2963 2633 3030 
Q 2388 3097 2138 3097 
Q 1578 3097 1268 2742 
Q 959 2388 959 1747 
Q 959 1106 1268 751 
Q 1578 397 2138 397 
Q 2388 397 2633 464 
Q 2878 531 3122 666 
L 3122 134 
Q 2881 22 2623 -34 
Q 2366 -91 2075 -91 
Q 1284 -91 818 406 
Q 353 903 353 1747 
Q 353 2603 823 3093 
Q 1294 3584 2113 3584 
Q 2378 3584 2631 3529 
Q 2884 3475 3122 3366 
z
" transform="scale(0.015625)"/>
      </defs>
      <use xlink:href="#DejaVuSans-63"/>
     </g>
    </g>
   </g>
   <g id="text_7">
    <g clip-path="url(#p6e68ade9bb)">
     <!-- H -->
     <g transform="translate(165.34832 79.679986) scale(0.13 -0.13)">
      <defs>
       <path id="DejaVuSans-48" d="M 628 4666 
L 1259 4666 
L 1259 2753 
L 3553 2753 
L 3553 4666 
L 4184 4666 
L 4184 0 
L 3553 0 
L 3553 2222 
L 1259 2222 
L 1259 0 
L 628 0 
L 628 4666 
z
" transform="scale(0.015625)"/>
      </defs>
      <use xlink:href="#DejaVuSans-48"/>
     </g>
    </g>
   </g>
   <g id="text_8">
    <g clip-path="url(#p6e68ade9bb)">
     <!-- H -->
     <g transform="translate(165.34832 126.033986) scale(0.13 -0.13)">
      <use xlink:href="#DejaVuSans-48"/>
     </g>
    </g>
   </g>
   <g id="line2d_23">
    <path d="M 262.944522 52.915799 
L 262.944522 99.269799 
" clip-path="url(#p6e68ade9bb)" style="fill: none; stroke-dasharray: 3.7,1.6; stroke-dashoffset: 0; stroke: #000000"/>
   </g>
   <g id="line2d_24">
    <path d="M 262.944522 99.269799 
L 262.944522 145.623798 
" clip-path="url(#p6e68ade9bb)" style="fill: none; stroke-dasharray: 3.7,1.6; stroke-dashoffset: 0; stroke: #000000"/>
   </g>
   <g id="line2d_25">
    <path d="M 262.944522 145.623798 
L 262.944522 191.977797 
" clip-path="url(#p6e68ade9bb)" style="fill: none; stroke-dasharray: 3.7,1.6; stroke-dashoffset: 0; stroke: #000000"/>
   </g>
   <g id="line2d_26">
    <path d="M 262.944522 191.977797 
L 262.944522 238.331797 
" clip-path="url(#p6e68ade9bb)" style="fill: none; stroke-dasharray: 3.7,1.6; stroke-dashoffset: 0; stroke: #000000"/>
   </g>
   <g id="text_9">
    <g clip-path="url(#p6e68ade9bb)">
     <!-- X -->
     <g transform="translate(304.846021 79.679986) scale(0.13 -0.13)">
      <defs>
       <path id="DejaVuSans-58" d="M 403 4666 
L 1081 4666 
L 2241 2931 
L 3406 4666 
L 4084 4666 
L 2584 2425 
L 4184 0 
L 3506 0 
L 2194 1984 
L 872 0 
L 191 0 
L 1856 2491 
L 403 4666 
z
" transform="scale(0.015625)"/>
      </defs>
      <use xlink:href="#DejaVuSans-58"/>
     </g>
    </g>
   </g>
   <g id="line2d_27">
    <path d="M 355.652521 52.915799 
L 355.652521 99.269799 
" clip-path="url(#p6e68ade9bb)" style="fill: none; stroke-dasharray: 3.7,1.6; stroke-dashoffset: 0; stroke: #000000"/>
   </g>
   <g id="line2d_28">
    <path d="M 355.652521 99.269799 
L 355.652521 145.623798 
" clip-path="url(#p6e68ade9bb)" style="fill: none; stroke-dasharray: 3.7,1.6; stroke-dashoffset: 0; stroke: #000000"/>
   </g>
   <g id="line2d_29">
    <path d="M 355.652521 145.623798 
L 355.652521 191.977797 
" clip-path="url(#p6e68ade9bb)" style="fill: none; stroke-dasharray: 3.7,1.6; stroke-dashoffset: 0; stroke: #000000"/>
   </g>
   <g id="line2d_30">
    <path d="M 355.652521 191.977797 
L 355.652521 238.331797 
" clip-path="url(#p6e68ade9bb)" style="fill: none; stroke-dasharray: 3.7,1.6; stroke-dashoffset: 0; stroke: #000000"/>
   </g>
   <g id="text_10">
    <g clip-path="url(#p6e68ade9bb)">
     <!-- X -->
     <g transform="translate(397.55402 126.033986) scale(0.13 -0.13)">
      <use xlink:href="#DejaVuSans-58"/>
     </g>
    </g>
   </g>
   <g id="line2d_31">
    <path d="M 494.714519 52.915799 
L 494.714519 99.269799 
" clip-path="url(#p6e68ade9bb)" style="fill: none; stroke-dasharray: 3.7,1.6; stroke-dashoffset: 0; stroke: #000000"/>
   </g>
   <g id="line2d_32">
    <path d="M 494.714519 99.269799 
L 494.714519 145.623798 
" clip-path="url(#p6e68ade9bb)" style="fill: none; stroke-dasharray: 3.7,1.6; stroke-dashoffset: 0; stroke: #000000"/>
   </g>
   <g id="line2d_33">
    <path d="M 494.714519 145.623798 
L 494.714519 191.977797 
" clip-path="url(#p6e68ade9bb)" style="fill: none; stroke-dasharray: 3.7,1.6; stroke-dashoffset: 0; stroke: #000000"/>
   </g>
   <g id="line2d_34">
    <path d="M 494.714519 191.977797 
L 494.714519 238.331797 
" clip-path="url(#p6e68ade9bb)" style="fill: none; stroke-dasharray: 3.7,1.6; stroke-dashoffset: 0; stroke: #000000"/>
   </g>
   <g id="text_11">
    <g clip-path="url(#p6e68ade9bb)">
     <!-- 0 -->
     <g transform="translate(552.657018 254.710522) scale(0.104 -0.104)">
      <use xlink:href="#DejaVuSans-30"/>
     </g>
    </g>
   </g>
   <g id="text_12">
    <g clip-path="url(#p6e68ade9bb)">
     <!-- 1 -->
     <g transform="translate(599.011018 254.710522) scale(0.104 -0.104)">
      <use xlink:href="#DejaVuSans-31"/>
     </g>
    </g>
   </g>
  </g>
 </g>
 <defs>
  <clipPath id="p6e68ade9bb">
   <rect x="87.796167" y="39.009599" width="530.21999" height="250.311597"/>
  </clipPath>
 </defs>
</svg>
