<?xml version="1.0" encoding="utf-8" standalone="no"?>
<!DOCTYPE svg PUBLIC "-//W3C//DTD SVG 1.1//EN"
  "http://www.w3.org/Graphics/SVG/1.1/DTD/svg11.dtd">
<svg xmlns:xlink="http://www.w3.org/1999/xlink" width="387.597394pt" height="325.079996pt" viewBox="0 0 387.597394 325.079996" xmlns="http://www.w3.org/2000/svg" version="1.1">
 <metadata>
  <rdf:RDF xmlns:dc="http://purl.org/dc/elements/1.1/" xmlns:cc="http://creativecommons.org/ns#" xmlns:rdf="http://www.w3.org/1999/02/22-rdf-syntax-ns#">
   <cc:Work>
    <dc:type rdf:resource="http://purl.org/dc/dcmitype/StillImage"/>
    <dc:date>2024-02-05T14:30:40.611755</dc:date>
    <dc:format>image/svg+xml</dc:format>
    <dc:creator>
     <cc:Agent>
      <dc:title>Matplotlib v3.8.2, https://matplotlib.org/</dc:title>
     </cc:Agent>
    </dc:creator>
   </cc:Work>
  </rdf:RDF>
 </metadata>
 <defs>
  <style type="text/css">*{stroke-linejoin: round; stroke-linecap: butt}</style>
 </defs>
 <g id="figure_1">
  <g id="patch_1">
   <path d="M 0 325.079996 
L 387.597394 325.079996 
L 387.597394 0 
L 0 0 
z
" style="fill: #ffffff"/>
  </g>
  <g id="axes_1">
   <g id="line2d_1">
    <path d="M 106.827864 76.092799 
L 343.233261 76.092799 
" clip-path="url(#pae8d4cae58)" style="fill: none; stroke: #000000; stroke-width: 2; stroke-linecap: square"/>
   </g>
   <g id="line2d_2">
    <path d="M 106.827864 122.446798 
L 343.233261 122.446798 
" clip-path="url(#pae8d4cae58)" style="fill: none; stroke: #000000; stroke-width: 2; stroke-linecap: square"/>
   </g>
   <g id="line2d_3">
    <path d="M 106.827864 168.800798 
L 343.233261 168.800798 
" clip-path="url(#pae8d4cae58)" style="fill: none; stroke: #000000; stroke-width: 2; stroke-linecap: square"/>
   </g>
   <g id="line2d_4">
    <path d="M 106.827864 215.154797 
L 343.233261 215.154797 
" clip-path="url(#pae8d4cae58)" style="fill: none; stroke: #000000; stroke-width: 2; stroke-linecap: square"/>
   </g>
   <g id="line2d_5">
    <path d="M 116.098664 266.144196 
L 120.734064 256.873397 
" clip-path="url(#pae8d4cae58)" style="fill: none; stroke: #778899; stroke-width: 1.5; stroke-linecap: square"/>
   </g>
   <g id="line2d_6">
    <path d="M 106.827864 260.002292 
L 343.233261 260.002292 
" clip-path="url(#pae8d4cae58)" style="fill: none; stroke: #778899; stroke-width: 2; stroke-linecap: square"/>
   </g>
   <g id="line2d_7">
    <path d="M 106.827864 263.015302 
L 343.233261 263.015302 
" clip-path="url(#pae8d4cae58)" style="fill: none; stroke: #778899; stroke-width: 2; stroke-linecap: square"/>
   </g>
   <g id="patch_2">
    <path d="M 264.895002 250.963262 
L 276.947042 250.963262 
L 270.921022 259.654637 
z
" clip-path="url(#pae8d4cae58)" style="fill: #778899"/>
   </g>
   <g id="patch_3">
    <path d="M 311.249001 250.963262 
L 323.301041 250.963262 
L 317.275021 259.654637 
z
" clip-path="url(#pae8d4cae58)" style="fill: #778899"/>
   </g>
   <g id="patch_4">
    <path d="M 102.192464 52.915799 
L -1056.65752 52.915799 
L -1056.65752 331.039796 
L 102.192464 331.039796 
z
" clip-path="url(#pae8d4cae58)" style="fill: #ffffff; stroke: #ffffff; stroke-width: 1.5; stroke-linejoin: miter"/>
   </g>
   <g id="line2d_8">
    <path d="M 178.213023 168.800798 
L 178.213023 76.092799 
" clip-path="url(#pae8d4cae58)" style="fill: none; stroke: #6fa4ff; stroke-width: 2; stroke-linecap: square"/>
   </g>
   <g id="line2d_9">
    <path d="M 272.427527 168.800798 
L 272.427527 250.963262 
" clip-path="url(#pae8d4cae58)" style="fill: none; stroke: #778899; stroke-width: 2; stroke-linecap: square"/>
   </g>
   <g id="line2d_10">
    <path d="M 269.414517 168.800798 
L 269.414517 250.963262 
" clip-path="url(#pae8d4cae58)" style="fill: none; stroke: #778899; stroke-width: 2; stroke-linecap: square"/>
   </g>
   <g id="line2d_11">
    <path d="M 318.781526 215.154797 
L 318.781526 250.963262 
" clip-path="url(#pae8d4cae58)" style="fill: none; stroke: #778899; stroke-width: 2; stroke-linecap: square"/>
   </g>
   <g id="line2d_12">
    <path d="M 315.768516 215.154797 
L 315.768516 250.963262 
" clip-path="url(#pae8d4cae58)" style="fill: none; stroke: #778899; stroke-width: 2; stroke-linecap: square"/>
   </g>
   <g id="patch_5">
    <path d="M 215.527993 99.269799 
L 233.606052 99.269799 
L 233.606052 52.915799 
L 215.527993 52.915799 
z
" clip-path="url(#pae8d4cae58)" style="fill: #bdbdbd; opacity: 0.6"/>
   </g>
   <g id="patch_6">
    <path d="M 215.527993 145.623798 
L 233.606052 145.623798 
L 233.606052 99.269799 
L 215.527993 99.269799 
z
" clip-path="url(#pae8d4cae58)" style="fill: #bdbdbd; opacity: 0.6"/>
   </g>
   <g id="patch_7">
    <path d="M 215.527993 191.977797 
L 233.606052 191.977797 
L 233.606052 145.623798 
L 215.527993 145.623798 
z
" clip-path="url(#pae8d4cae58)" style="fill: #bdbdbd; opacity: 0.6"/>
   </g>
   <g id="patch_8">
    <path d="M 215.527993 238.331797 
L 233.606052 238.331797 
L 233.606052 191.977797 
L 215.527993 191.977797 
z
" clip-path="url(#pae8d4cae58)" style="fill: #bdbdbd; opacity: 0.6"/>
   </g>
   <g id="patch_9">
    <path d="M 116.793974 91.157849 
L 146.924074 91.157849 
L 146.924074 61.027749 
L 116.793974 61.027749 
z
" clip-path="url(#pae8d4cae58)" style="fill: #6fa4ff; stroke: #6fa4ff; stroke-width: 1.5; stroke-linejoin: miter"/>
   </g>
   <g id="patch_10">
    <path d="M 116.793974 137.511848 
L 146.924074 137.511848 
L 146.924074 107.381749 
L 116.793974 107.381749 
z
" clip-path="url(#pae8d4cae58)" style="fill: #6fa4ff; stroke: #6fa4ff; stroke-width: 1.5; stroke-linejoin: miter"/>
   </g>
   <g id="patch_11">
    <path d="M 178.213023 80.612314 
C 179.411613 80.612314 180.561272 80.136109 181.408803 79.288579 
C 182.256334 78.441048 182.732538 77.291388 182.732538 76.092799 
C 182.732538 74.89421 182.256334 73.74455 181.408803 72.897019 
C 180.561272 72.049489 179.411613 71.573284 178.213023 71.573284 
C 177.014434 71.573284 175.864774 72.049489 175.017244 72.897019 
C 174.169713 73.74455 173.693508 74.89421 173.693508 76.092799 
C 173.693508 77.291388 174.169713 78.441048 175.017244 79.288579 
C 175.864774 80.136109 177.014434 80.612314 178.213023 80.612314 
z
" clip-path="url(#pae8d4cae58)" style="fill: #6fa4ff; stroke: #6fa4ff; stroke-width: 1.5; stroke-linejoin: miter"/>
   </g>
   <g id="patch_12">
    <path d="M 178.213023 179.346333 
C 181.009732 179.346333 183.692271 178.235189 185.669842 176.257617 
C 187.647414 174.280045 188.758558 171.597506 188.758558 168.800798 
C 188.758558 166.004089 187.647414 163.32155 185.669842 161.343979 
C 183.692271 159.366407 181.009732 158.255263 178.213023 158.255263 
C 175.416315 158.255263 172.733776 159.366407 170.756204 161.343979 
C 168.778632 163.32155 167.667488 166.004089 167.667488 168.800798 
C 167.667488 171.597506 168.778632 174.280045 170.756204 176.257617 
C 172.733776 178.235189 175.416315 179.346333 178.213023 179.346333 
z
" clip-path="url(#pae8d4cae58)" style="fill: #6fa4ff; stroke: #6fa4ff; stroke-width: 2; stroke-linejoin: miter"/>
   </g>
   <g id="patch_13">
    <path d="M 255.855972 183.865848 
L 285.986072 183.865848 
L 285.986072 153.735748 
L 255.855972 153.735748 
z
" clip-path="url(#pae8d4cae58)" style="stroke: #000000; stroke-width: 1.5; stroke-linejoin: miter"/>
   </g>
   <g id="patch_14">
    <path d="M 281.466557 173.320313 
C 281.466557 170.524536 280.354754 167.840406 278.377841 165.863493 
C 276.400928 163.886581 273.716799 162.774778 270.921022 162.774778 
C 268.125245 162.774778 265.441116 163.886581 263.464203 165.863493 
C 261.48729 167.840406 260.375487 170.524536 260.375487 173.320313 
" clip-path="url(#pae8d4cae58)" style="fill: none; stroke: #ffffff; stroke-width: 2; stroke-linejoin: miter"/>
   </g>
   <g id="line2d_13">
    <path d="M 270.921022 173.320313 
L 281.466557 162.774778 
" clip-path="url(#pae8d4cae58)" style="fill: none; stroke: #ffffff; stroke-width: 2; stroke-linecap: square"/>
   </g>
   <g id="patch_15">
    <path d="M 302.209972 230.219847 
L 332.340071 230.219847 
L 332.340071 200.089747 
L 302.209972 200.089747 
z
" clip-path="url(#pae8d4cae58)" style="stroke: #000000; stroke-width: 1.5; stroke-linejoin: miter"/>
   </g>
   <g id="patch_16">
    <path d="M 327.820556 219.674312 
C 327.820556 216.878535 326.708754 214.194406 324.731841 212.217493 
C 322.754928 210.24058 320.070798 209.128777 317.275021 209.128777 
C 314.479244 209.128777 311.795115 210.24058 309.818202 212.217493 
C 307.841289 214.194406 306.729487 216.878535 306.729487 219.674312 
" clip-path="url(#pae8d4cae58)" style="fill: none; stroke: #ffffff; stroke-width: 2; stroke-linejoin: miter"/>
   </g>
   <g id="line2d_14">
    <path d="M 317.275021 219.674312 
L 327.820556 209.128777 
" clip-path="url(#pae8d4cae58)" style="fill: none; stroke: #ffffff; stroke-width: 2; stroke-linecap: square"/>
   </g>
   <g id="line2d_15">
    <path d="M 178.213023 174.826818 
L 178.213023 162.774778 
" clip-path="url(#pae8d4cae58)" style="fill: none; stroke: #ffffff; stroke-width: 2; stroke-linecap: square"/>
   </g>
   <g id="line2d_16">
    <path d="M 172.187003 168.800798 
L 184.239043 168.800798 
" clip-path="url(#pae8d4cae58)" style="fill: none; stroke: #ffffff; stroke-width: 2; stroke-linecap: square"/>
   </g>
   <g id="text_1">
    <g clip-path="url(#pae8d4cae58)">
     <!-- ${q}_{0}$ -->
     <g transform="translate(79.519564 80.543776) scale(0.1625 -0.1625)">
      <defs>
       <path id="DejaVuSans-Oblique-71" d="M 2669 525 
Q 2438 222 2123 65 
Q 1809 -91 1428 -91 
Q 897 -91 595 267 
Q 294 625 294 1253 
Q 294 1759 480 2231 
Q 666 2703 1013 3078 
Q 1238 3322 1530 3453 
Q 1822 3584 2144 3584 
Q 2531 3584 2781 3431 
Q 3031 3278 3144 2969 
L 3244 3494 
L 3822 3494 
L 2888 -1319 
L 2309 -1319 
L 2669 525 
z
M 891 1338 
Q 891 875 1084 633 
Q 1278 391 1644 391 
Q 2188 391 2572 911 
Q 2956 1431 2956 2175 
Q 2956 2625 2757 2864 
Q 2559 3103 2188 3103 
Q 1916 3103 1684 2976 
Q 1453 2850 1281 2606 
Q 1100 2350 995 2006 
Q 891 1663 891 1338 
z
" transform="scale(0.015625)"/>
       <path id="DejaVuSans-30" d="M 2034 4250 
Q 1547 4250 1301 3770 
Q 1056 3291 1056 2328 
Q 1056 1369 1301 889 
Q 1547 409 2034 409 
Q 2525 409 2770 889 
Q 3016 1369 3016 2328 
Q 3016 3291 2770 3770 
Q 2525 4250 2034 4250 
z
M 2034 4750 
Q 2819 4750 3233 4129 
Q 3647 3509 3647 2328 
Q 3647 1150 3233 529 
Q 2819 -91 2034 -91 
Q 1250 -91 836 529 
Q 422 1150 422 2328 
Q 422 3509 836 4129 
Q 1250 4750 2034 4750 
z
" transform="scale(0.015625)"/>
      </defs>
      <use xlink:href="#DejaVuSans-Oblique-71"/>
      <use xlink:href="#DejaVuSans-30" transform="translate(63.476562 -16.40625) scale(0.7)"/>
     </g>
    </g>
   </g>
   <g id="text_2">
    <g clip-path="url(#pae8d4cae58)">
     <!-- ${q}_{1}$ -->
     <g transform="translate(79.519564 126.897775) scale(0.1625 -0.1625)">
      <defs>
       <path id="DejaVuSans-31" d="M 794 531 
L 1825 531 
L 1825 4091 
L 703 3866 
L 703 4441 
L 1819 4666 
L 2450 4666 
L 2450 531 
L 3481 531 
L 3481 0 
L 794 0 
L 794 531 
z
" transform="scale(0.015625)"/>
      </defs>
      <use xlink:href="#DejaVuSans-Oblique-71"/>
      <use xlink:href="#DejaVuSans-31" transform="translate(63.476562 -16.40625) scale(0.7)"/>
     </g>
    </g>
   </g>
   <g id="text_3">
    <g clip-path="url(#pae8d4cae58)">
     <!-- ${q}_{2}$ -->
     <g transform="translate(79.519564 173.251774) scale(0.1625 -0.1625)">
      <defs>
       <path id="DejaVuSans-32" d="M 1228 531 
L 3431 531 
L 3431 0 
L 469 0 
L 469 531 
Q 828 903 1448 1529 
Q 2069 2156 2228 2338 
Q 2531 2678 2651 2914 
Q 2772 3150 2772 3378 
Q 2772 3750 2511 3984 
Q 2250 4219 1831 4219 
Q 1534 4219 1204 4116 
Q 875 4013 500 3803 
L 500 4441 
Q 881 4594 1212 4672 
Q 1544 4750 1819 4750 
Q 2544 4750 2975 4387 
Q 3406 4025 3406 3419 
Q 3406 3131 3298 2873 
Q 3191 2616 2906 2266 
Q 2828 2175 2409 1742 
Q 1991 1309 1228 531 
z
" transform="scale(0.015625)"/>
      </defs>
      <use xlink:href="#DejaVuSans-Oblique-71"/>
      <use xlink:href="#DejaVuSans-32" transform="translate(63.476562 -16.40625) scale(0.7)"/>
     </g>
    </g>
   </g>
   <g id="text_4">
    <g clip-path="url(#pae8d4cae58)">
     <!-- ${q}_{3}$ -->
     <g transform="translate(79.519564 219.605774) scale(0.1625 -0.1625)">
      <defs>
       <path id="DejaVuSans-33" d="M 2597 2516 
Q 3050 2419 3304 2112 
Q 3559 1806 3559 1356 
Q 3559 666 3084 287 
Q 2609 -91 1734 -91 
Q 1441 -91 1130 -33 
Q 819 25 488 141 
L 488 750 
Q 750 597 1062 519 
Q 1375 441 1716 441 
Q 2309 441 2620 675 
Q 2931 909 2931 1356 
Q 2931 1769 2642 2001 
Q 2353 2234 1838 2234 
L 1294 2234 
L 1294 2753 
L 1863 2753 
Q 2328 2753 2575 2939 
Q 2822 3125 2822 3475 
Q 2822 3834 2567 4026 
Q 2313 4219 1838 4219 
Q 1578 4219 1281 4162 
Q 984 4106 628 3988 
L 628 4550 
Q 988 4650 1302 4700 
Q 1616 4750 1894 4750 
Q 2613 4750 3031 4423 
Q 3450 4097 3450 3541 
Q 3450 3153 3228 2886 
Q 3006 2619 2597 2516 
z
" transform="scale(0.015625)"/>
      </defs>
      <use xlink:href="#DejaVuSans-Oblique-71"/>
      <use xlink:href="#DejaVuSans-33" transform="translate(63.476562 -16.40625) scale(0.7)"/>
     </g>
    </g>
   </g>
   <g id="text_5">
    <g clip-path="url(#pae8d4cae58)">
     <!-- 4 -->
     <g transform="translate(111.463264 254.710522) scale(0.104 -0.104)">
      <defs>
       <path id="DejaVuSans-34" d="M 2419 4116 
L 825 1625 
L 2419 1625 
L 2419 4116 
z
M 2253 4666 
L 3047 4666 
L 3047 1625 
L 3713 1625 
L 3713 1100 
L 3047 1100 
L 3047 0 
L 2419 0 
L 2419 1100 
L 313 1100 
L 313 1709 
L 2253 4666 
z
" transform="scale(0.015625)"/>
      </defs>
      <use xlink:href="#DejaVuSans-34"/>
     </g>
    </g>
   </g>
   <g id="text_6">
    <g clip-path="url(#pae8d4cae58)">
     <!-- c -->
     <g transform="translate(88.622103 265.992781) scale(0.1625 -0.1625)">
      <defs>
       <path id="DejaVuSans-63" d="M 3122 3366 
L 3122 2828 
Q 2878 2963 2633 3030 
Q 2388 3097 2138 3097 
Q 1578 3097 1268 2742 
Q 959 2388 959 1747 
Q 959 1106 1268 751 
Q 1578 397 2138 397 
Q 2388 397 2633 464 
Q 2878 531 3122 666 
L 3122 134 
Q 2881 22 2623 -34 
Q 2366 -91 2075 -91 
Q 1284 -91 818 406 
Q 353 903 353 1747 
Q 353 2603 823 3093 
Q 1294 3584 2113 3584 
Q 2378 3584 2631 3529 
Q 2884 3475 3122 3366 
z
" transform="scale(0.015625)"/>
      </defs>
      <use xlink:href="#DejaVuSans-63"/>
     </g>
    </g>
   </g>
   <g id="text_7">
    <g clip-path="url(#pae8d4cae58)">
     <!-- H -->
     <g transform="translate(126.970821 79.679986) scale(0.13 -0.13)">
      <defs>
       <path id="DejaVuSans-48" d="M 628 4666 
L 1259 4666 
L 1259 2753 
L 3553 2753 
L 3553 4666 
L 4184 4666 
L 4184 0 
L 3553 0 
L 3553 2222 
L 1259 2222 
L 1259 0 
L 628 0 
L 628 4666 
z
" transform="scale(0.015625)"/>
      </defs>
      <use xlink:href="#DejaVuSans-48"/>
     </g>
    </g>
   </g>
   <g id="text_8">
    <g clip-path="url(#pae8d4cae58)">
     <!-- H -->
     <g transform="translate(126.970821 126.033986) scale(0.13 -0.13)">
      <use xlink:href="#DejaVuSans-48"/>
     </g>
    </g>
   </g>
   <g id="line2d_17">
    <path d="M 224.567023 52.915799 
L 224.567023 99.269799 
" clip-path="url(#pae8d4cae58)" style="fill: none; stroke-dasharray: 3.7,1.6; stroke-dashoffset: 0; stroke: #000000"/>
   </g>
   <g id="line2d_18">
    <path d="M 224.567023 99.269799 
L 224.567023 145.623798 
" clip-path="url(#pae8d4cae58)" style="fill: none; stroke-dasharray: 3.7,1.6; stroke-dashoffset: 0; stroke: #000000"/>
   </g>
   <g id="line2d_19">
    <path d="M 224.567023 145.623798 
L 224.567023 191.977797 
" clip-path="url(#pae8d4cae58)" style="fill: none; stroke-dasharray: 3.7,1.6; stroke-dashoffset: 0; stroke: #000000"/>
   </g>
   <g id="line2d_20">
    <path d="M 224.567023 191.977797 
L 224.567023 238.331797 
" clip-path="url(#pae8d4cae58)" style="fill: none; stroke-dasharray: 3.7,1.6; stroke-dashoffset: 0; stroke: #000000"/>
   </g>
   <g id="text_9">
    <g clip-path="url(#pae8d4cae58)">
     <!-- 0 -->
     <g transform="translate(282.509522 254.710522) scale(0.104 -0.104)">
      <use xlink:href="#DejaVuSans-30"/>
     </g>
    </g>
   </g>
   <g id="text_10">
    <g clip-path="url(#pae8d4cae58)">
     <!-- 1 -->
     <g transform="translate(328.863521 254.710522) scale(0.104 -0.104)">
      <use xlink:href="#DejaVuSans-31"/>
     </g>
    </g>
   </g>
  </g>
 </g>
 <defs>
  <clipPath id="pae8d4cae58">
   <rect x="49.418668" y="39.009599" width="298.449993" height="250.311597"/>
  </clipPath>
 </defs>
</svg>
