<?xml version="1.0" encoding="utf-8" standalone="no"?>
<!DOCTYPE svg PUBLIC "-//W3C//DTD SVG 1.1//EN"
  "http://www.w3.org/Graphics/SVG/1.1/DTD/svg11.dtd">
<svg xmlns:xlink="http://www.w3.org/1999/xlink" width="1170.197383pt" height="325.079996pt" viewBox="0 0 1170.197383 325.079996" xmlns="http://www.w3.org/2000/svg" version="1.1">
 <metadata>
  <rdf:RDF xmlns:dc="http://purl.org/dc/elements/1.1/" xmlns:cc="http://creativecommons.org/ns#" xmlns:rdf="http://www.w3.org/1999/02/22-rdf-syntax-ns#">
   <cc:Work>
    <dc:type rdf:resource="http://purl.org/dc/dcmitype/StillImage"/>
    <dc:date>2024-02-05T14:30:41.082654</dc:date>
    <dc:format>image/svg+xml</dc:format>
    <dc:creator>
     <cc:Agent>
      <dc:title>Matplotlib v3.8.2, https://matplotlib.org/</dc:title>
     </cc:Agent>
    </dc:creator>
   </cc:Work>
  </rdf:RDF>
 </metadata>
 <defs>
  <style type="text/css">*{stroke-linejoin: round; stroke-linecap: butt}</style>
 </defs>
 <g id="figure_1">
  <g id="patch_1">
   <path d="M 0 325.079996 
L 1170.197383 325.079996 
L 1170.197383 0 
L 0 0 
z
" style="fill: #ffffff"/>
  </g>
  <g id="axes_1">
   <g id="line2d_1">
    <path d="M 206.609363 76.092799 
L 1045.616752 76.092799 
" clip-path="url(#pee0cf1081a)" style="fill: none; stroke: #000000; stroke-width: 2; stroke-linecap: square"/>
   </g>
   <g id="line2d_2">
    <path d="M 206.609363 122.446798 
L 1045.616752 122.446798 
" clip-path="url(#pee0cf1081a)" style="fill: none; stroke: #000000; stroke-width: 2; stroke-linecap: square"/>
   </g>
   <g id="line2d_3">
    <path d="M 206.609363 168.800798 
L 1045.616752 168.800798 
" clip-path="url(#pee0cf1081a)" style="fill: none; stroke: #000000; stroke-width: 2; stroke-linecap: square"/>
   </g>
   <g id="line2d_4">
    <path d="M 206.609363 215.154797 
L 1045.616752 215.154797 
" clip-path="url(#pee0cf1081a)" style="fill: none; stroke: #000000; stroke-width: 2; stroke-linecap: square"/>
   </g>
   <g id="line2d_5">
    <path d="M 215.880163 266.144196 
L 220.515563 256.873397 
" clip-path="url(#pee0cf1081a)" style="fill: none; stroke: #778899; stroke-width: 1.5; stroke-linecap: square"/>
   </g>
   <g id="line2d_6">
    <path d="M 206.609363 260.002292 
L 1045.616752 260.002292 
" clip-path="url(#pee0cf1081a)" style="fill: none; stroke: #778899; stroke-width: 2; stroke-linecap: square"/>
   </g>
   <g id="line2d_7">
    <path d="M 206.609363 263.015302 
L 1045.616752 263.015302 
" clip-path="url(#pee0cf1081a)" style="fill: none; stroke: #778899; stroke-width: 2; stroke-linecap: square"/>
   </g>
   <g id="patch_2">
    <path d="M 967.278493 250.963262 
L 979.330533 250.963262 
L 973.304513 259.654637 
z
" clip-path="url(#pee0cf1081a)" style="fill: #778899"/>
   </g>
   <g id="patch_3">
    <path d="M 1013.632492 250.963262 
L 1025.684532 250.963262 
L 1019.658512 259.654637 
z
" clip-path="url(#pee0cf1081a)" style="fill: #778899"/>
   </g>
   <g id="patch_4">
    <path d="M 201.973963 52.915799 
L -956.876022 52.915799 
L -956.876022 331.039796 
L 201.973963 331.039796 
z
" clip-path="url(#pee0cf1081a)" style="fill: #ffffff; stroke: #ffffff; stroke-width: 1.5; stroke-linejoin: miter"/>
   </g>
   <g id="line2d_8">
    <path d="M 277.994522 168.800798 
L 277.994522 76.092799 
" clip-path="url(#pee0cf1081a)" style="fill: none; stroke: #6fa4ff; stroke-width: 2; stroke-linecap: square"/>
   </g>
   <g id="line2d_9">
    <path d="M 370.702521 215.154797 
L 370.702521 122.446798 
" clip-path="url(#pee0cf1081a)" style="fill: none; stroke: #6fa4ff; stroke-width: 2; stroke-linecap: square"/>
   </g>
   <g id="line2d_10">
    <path d="M 509.764519 168.800798 
L 509.764519 76.092799 
" clip-path="url(#pee0cf1081a)" style="fill: none; stroke: #bb8bff; stroke-width: 2; stroke-linecap: square"/>
   </g>
   <g id="line2d_11">
    <path d="M 648.826517 168.800798 
L 648.826517 76.092799 
" clip-path="url(#pee0cf1081a)" style="fill: none; stroke: #6fa4ff; stroke-width: 2; stroke-linecap: square"/>
   </g>
   <g id="line2d_12">
    <path d="M 741.534516 215.154797 
L 741.534516 122.446798 
" clip-path="url(#pee0cf1081a)" style="fill: none; stroke: #6fa4ff; stroke-width: 2; stroke-linecap: square"/>
   </g>
   <g id="line2d_13">
    <path d="M 880.596514 168.800798 
L 880.596514 76.092799 
" clip-path="url(#pee0cf1081a)" style="fill: none; stroke: #bb8bff; stroke-width: 2; stroke-linecap: square"/>
   </g>
   <g id="line2d_14">
    <path d="M 974.811018 168.800798 
L 974.811018 250.963262 
" clip-path="url(#pee0cf1081a)" style="fill: none; stroke: #778899; stroke-width: 2; stroke-linecap: square"/>
   </g>
   <g id="line2d_15">
    <path d="M 971.798008 168.800798 
L 971.798008 250.963262 
" clip-path="url(#pee0cf1081a)" style="fill: none; stroke: #778899; stroke-width: 2; stroke-linecap: square"/>
   </g>
   <g id="line2d_16">
    <path d="M 1021.165017 215.154797 
L 1021.165017 250.963262 
" clip-path="url(#pee0cf1081a)" style="fill: none; stroke: #778899; stroke-width: 2; stroke-linecap: square"/>
   </g>
   <g id="line2d_17">
    <path d="M 1018.152007 215.154797 
L 1018.152007 250.963262 
" clip-path="url(#pee0cf1081a)" style="fill: none; stroke: #778899; stroke-width: 2; stroke-linecap: square"/>
   </g>
   <g id="patch_5">
    <path d="M 315.309491 99.269799 
L 333.387551 99.269799 
L 333.387551 52.915799 
L 315.309491 52.915799 
z
" clip-path="url(#pee0cf1081a)" style="fill: #bdbdbd; opacity: 0.6"/>
   </g>
   <g id="patch_6">
    <path d="M 315.309491 145.623798 
L 333.387551 145.623798 
L 333.387551 99.269799 
L 315.309491 99.269799 
z
" clip-path="url(#pee0cf1081a)" style="fill: #bdbdbd; opacity: 0.6"/>
   </g>
   <g id="patch_7">
    <path d="M 315.309491 191.977797 
L 333.387551 191.977797 
L 333.387551 145.623798 
L 315.309491 145.623798 
z
" clip-path="url(#pee0cf1081a)" style="fill: #bdbdbd; opacity: 0.6"/>
   </g>
   <g id="patch_8">
    <path d="M 315.309491 238.331797 
L 333.387551 238.331797 
L 333.387551 191.977797 
L 315.309491 191.977797 
z
" clip-path="url(#pee0cf1081a)" style="fill: #bdbdbd; opacity: 0.6"/>
   </g>
   <g id="patch_9">
    <path d="M 408.01749 99.269799 
L 426.09555 99.269799 
L 426.09555 52.915799 
L 408.01749 52.915799 
z
" clip-path="url(#pee0cf1081a)" style="fill: #bdbdbd; opacity: 0.6"/>
   </g>
   <g id="patch_10">
    <path d="M 408.01749 145.623798 
L 426.09555 145.623798 
L 426.09555 99.269799 
L 408.01749 99.269799 
z
" clip-path="url(#pee0cf1081a)" style="fill: #bdbdbd; opacity: 0.6"/>
   </g>
   <g id="patch_11">
    <path d="M 408.01749 191.977797 
L 426.09555 191.977797 
L 426.09555 145.623798 
L 408.01749 145.623798 
z
" clip-path="url(#pee0cf1081a)" style="fill: #bdbdbd; opacity: 0.6"/>
   </g>
   <g id="patch_12">
    <path d="M 408.01749 238.331797 
L 426.09555 238.331797 
L 426.09555 191.977797 
L 408.01749 191.977797 
z
" clip-path="url(#pee0cf1081a)" style="fill: #bdbdbd; opacity: 0.6"/>
   </g>
   <g id="patch_13">
    <path d="M 547.079488 99.269799 
L 565.157548 99.269799 
L 565.157548 52.915799 
L 547.079488 52.915799 
z
" clip-path="url(#pee0cf1081a)" style="fill: #bdbdbd; opacity: 0.6"/>
   </g>
   <g id="patch_14">
    <path d="M 547.079488 145.623798 
L 565.157548 145.623798 
L 565.157548 99.269799 
L 547.079488 99.269799 
z
" clip-path="url(#pee0cf1081a)" style="fill: #bdbdbd; opacity: 0.6"/>
   </g>
   <g id="patch_15">
    <path d="M 547.079488 191.977797 
L 565.157548 191.977797 
L 565.157548 145.623798 
L 547.079488 145.623798 
z
" clip-path="url(#pee0cf1081a)" style="fill: #bdbdbd; opacity: 0.6"/>
   </g>
   <g id="patch_16">
    <path d="M 547.079488 238.331797 
L 565.157548 238.331797 
L 565.157548 191.977797 
L 547.079488 191.977797 
z
" clip-path="url(#pee0cf1081a)" style="fill: #bdbdbd; opacity: 0.6"/>
   </g>
   <g id="patch_17">
    <path d="M 686.141486 99.269799 
L 704.219546 99.269799 
L 704.219546 52.915799 
L 686.141486 52.915799 
z
" clip-path="url(#pee0cf1081a)" style="fill: #bdbdbd; opacity: 0.6"/>
   </g>
   <g id="patch_18">
    <path d="M 686.141486 145.623798 
L 704.219546 145.623798 
L 704.219546 99.269799 
L 686.141486 99.269799 
z
" clip-path="url(#pee0cf1081a)" style="fill: #bdbdbd; opacity: 0.6"/>
   </g>
   <g id="patch_19">
    <path d="M 686.141486 191.977797 
L 704.219546 191.977797 
L 704.219546 145.623798 
L 686.141486 145.623798 
z
" clip-path="url(#pee0cf1081a)" style="fill: #bdbdbd; opacity: 0.6"/>
   </g>
   <g id="patch_20">
    <path d="M 686.141486 238.331797 
L 704.219546 238.331797 
L 704.219546 191.977797 
L 686.141486 191.977797 
z
" clip-path="url(#pee0cf1081a)" style="fill: #bdbdbd; opacity: 0.6"/>
   </g>
   <g id="patch_21">
    <path d="M 778.849485 99.269799 
L 796.927545 99.269799 
L 796.927545 52.915799 
L 778.849485 52.915799 
z
" clip-path="url(#pee0cf1081a)" style="fill: #bdbdbd; opacity: 0.6"/>
   </g>
   <g id="patch_22">
    <path d="M 778.849485 145.623798 
L 796.927545 145.623798 
L 796.927545 99.269799 
L 778.849485 99.269799 
z
" clip-path="url(#pee0cf1081a)" style="fill: #bdbdbd; opacity: 0.6"/>
   </g>
   <g id="patch_23">
    <path d="M 778.849485 191.977797 
L 796.927545 191.977797 
L 796.927545 145.623798 
L 778.849485 145.623798 
z
" clip-path="url(#pee0cf1081a)" style="fill: #bdbdbd; opacity: 0.6"/>
   </g>
   <g id="patch_24">
    <path d="M 778.849485 238.331797 
L 796.927545 238.331797 
L 796.927545 191.977797 
L 778.849485 191.977797 
z
" clip-path="url(#pee0cf1081a)" style="fill: #bdbdbd; opacity: 0.6"/>
   </g>
   <g id="patch_25">
    <path d="M 917.911483 99.269799 
L 935.989543 99.269799 
L 935.989543 52.915799 
L 917.911483 52.915799 
z
" clip-path="url(#pee0cf1081a)" style="fill: #bdbdbd; opacity: 0.6"/>
   </g>
   <g id="patch_26">
    <path d="M 917.911483 145.623798 
L 935.989543 145.623798 
L 935.989543 99.269799 
L 917.911483 99.269799 
z
" clip-path="url(#pee0cf1081a)" style="fill: #bdbdbd; opacity: 0.6"/>
   </g>
   <g id="patch_27">
    <path d="M 917.911483 191.977797 
L 935.989543 191.977797 
L 935.989543 145.623798 
L 917.911483 145.623798 
z
" clip-path="url(#pee0cf1081a)" style="fill: #bdbdbd; opacity: 0.6"/>
   </g>
   <g id="patch_28">
    <path d="M 917.911483 238.331797 
L 935.989543 238.331797 
L 935.989543 191.977797 
L 917.911483 191.977797 
z
" clip-path="url(#pee0cf1081a)" style="fill: #bdbdbd; opacity: 0.6"/>
   </g>
   <g id="patch_29">
    <path d="M 216.575473 91.157849 
L 246.705572 91.157849 
L 246.705572 61.027749 
L 216.575473 61.027749 
z
" clip-path="url(#pee0cf1081a)" style="fill: #6fa4ff; stroke: #6fa4ff; stroke-width: 1.5; stroke-linejoin: miter"/>
   </g>
   <g id="patch_30">
    <path d="M 216.575473 137.511848 
L 246.705572 137.511848 
L 246.705572 107.381749 
L 216.575473 107.381749 
z
" clip-path="url(#pee0cf1081a)" style="fill: #6fa4ff; stroke: #6fa4ff; stroke-width: 1.5; stroke-linejoin: miter"/>
   </g>
   <g id="patch_31">
    <path d="M 277.994522 80.612314 
C 279.193111 80.612314 280.342771 80.136109 281.190302 79.288579 
C 282.037832 78.441048 282.514037 77.291388 282.514037 76.092799 
C 282.514037 74.89421 282.037832 73.74455 281.190302 72.897019 
C 280.342771 72.049489 279.193111 71.573284 277.994522 71.573284 
C 276.795933 71.573284 275.646273 72.049489 274.798742 72.897019 
C 273.951212 73.74455 273.475007 74.89421 273.475007 76.092799 
C 273.475007 77.291388 273.951212 78.441048 274.798742 79.288579 
C 275.646273 80.136109 276.795933 80.612314 277.994522 80.612314 
z
" clip-path="url(#pee0cf1081a)" style="fill: #6fa4ff; stroke: #6fa4ff; stroke-width: 1.5; stroke-linejoin: miter"/>
   </g>
   <g id="patch_32">
    <path d="M 277.994522 179.346333 
C 280.79123 179.346333 283.47377 178.235189 285.451341 176.257617 
C 287.428913 174.280045 288.540057 171.597506 288.540057 168.800798 
C 288.540057 166.004089 287.428913 163.32155 285.451341 161.343979 
C 283.47377 159.366407 280.79123 158.255263 277.994522 158.255263 
C 275.197813 158.255263 272.515274 159.366407 270.537703 161.343979 
C 268.560131 163.32155 267.448987 166.004089 267.448987 168.800798 
C 267.448987 171.597506 268.560131 174.280045 270.537703 176.257617 
C 272.515274 178.235189 275.197813 179.346333 277.994522 179.346333 
z
" clip-path="url(#pee0cf1081a)" style="fill: #6fa4ff; stroke: #6fa4ff; stroke-width: 2; stroke-linejoin: miter"/>
   </g>
   <g id="patch_33">
    <path d="M 370.702521 126.966313 
C 371.90111 126.966313 373.05077 126.490109 373.8983 125.642578 
C 374.745831 124.795047 375.222036 123.645388 375.222036 122.446798 
C 375.222036 121.248209 374.745831 120.098549 373.8983 119.251019 
C 373.05077 118.403488 371.90111 117.927283 370.702521 117.927283 
C 369.503931 117.927283 368.354272 118.403488 367.506741 119.251019 
C 366.65921 120.098549 366.183006 121.248209 366.183006 122.446798 
C 366.183006 123.645388 366.65921 124.795047 367.506741 125.642578 
C 368.354272 126.490109 369.503931 126.966313 370.702521 126.966313 
z
" clip-path="url(#pee0cf1081a)" style="fill: #6fa4ff; stroke: #6fa4ff; stroke-width: 1.5; stroke-linejoin: miter"/>
   </g>
   <g id="patch_34">
    <path d="M 370.702521 225.700332 
C 373.499229 225.700332 376.181768 224.589188 378.15934 222.611616 
C 380.136911 220.634045 381.248056 217.951506 381.248056 215.154797 
C 381.248056 212.358089 380.136911 209.67555 378.15934 207.697978 
C 376.181768 205.720406 373.499229 204.609262 370.702521 204.609262 
C 367.905812 204.609262 365.223273 205.720406 363.245701 207.697978 
C 361.26813 209.67555 360.156986 212.358089 360.156986 215.154797 
C 360.156986 217.951506 361.26813 220.634045 363.245701 222.611616 
C 365.223273 224.589188 367.905812 225.700332 370.702521 225.700332 
z
" clip-path="url(#pee0cf1081a)" style="fill: #6fa4ff; stroke: #6fa4ff; stroke-width: 2; stroke-linejoin: miter"/>
   </g>
   <g id="patch_35">
    <path d="M 355.637471 91.157849 
L 385.76757 91.157849 
L 385.76757 61.027749 
L 355.637471 61.027749 
z
" clip-path="url(#pee0cf1081a)" style="fill: #05bab6; stroke: #05bab6; stroke-width: 1.5; stroke-linejoin: miter"/>
   </g>
   <g id="patch_36">
    <path d="M 448.34547 137.511848 
L 478.475569 137.511848 
L 478.475569 107.381749 
L 448.34547 107.381749 
z
" clip-path="url(#pee0cf1081a)" style="fill: #05bab6; stroke: #05bab6; stroke-width: 1.5; stroke-linejoin: miter"/>
   </g>
   <g id="patch_37">
    <path d="M 509.764519 80.612314 
C 510.963108 80.612314 512.112768 80.136109 512.960298 79.288579 
C 513.807829 78.441048 514.284034 77.291388 514.284034 76.092799 
C 514.284034 74.89421 513.807829 73.74455 512.960298 72.897019 
C 512.112768 72.049489 510.963108 71.573284 509.764519 71.573284 
C 508.565929 71.573284 507.41627 72.049489 506.568739 72.897019 
C 505.721208 73.74455 505.245004 74.89421 505.245004 76.092799 
C 505.245004 77.291388 505.721208 78.441048 506.568739 79.288579 
C 507.41627 80.136109 508.565929 80.612314 509.764519 80.612314 
z
" clip-path="url(#pee0cf1081a)" style="fill: #bb8bff; stroke: #bb8bff; stroke-width: 1.5; stroke-linejoin: miter"/>
   </g>
   <g id="patch_38">
    <path d="M 509.764519 126.966313 
C 510.963108 126.966313 512.112768 126.490109 512.960298 125.642578 
C 513.807829 124.795047 514.284034 123.645388 514.284034 122.446798 
C 514.284034 121.248209 513.807829 120.098549 512.960298 119.251019 
C 512.112768 118.403488 510.963108 117.927283 509.764519 117.927283 
C 508.565929 117.927283 507.41627 118.403488 506.568739 119.251019 
C 505.721208 120.098549 505.245004 121.248209 505.245004 122.446798 
C 505.245004 123.645388 505.721208 124.795047 506.568739 125.642578 
C 507.41627 126.490109 508.565929 126.966313 509.764519 126.966313 
z
" clip-path="url(#pee0cf1081a)" style="fill: #bb8bff; stroke: #bb8bff; stroke-width: 1.5; stroke-linejoin: miter"/>
   </g>
   <g id="patch_39">
    <path d="M 509.764519 179.346333 
C 512.561227 179.346333 515.243766 178.235189 517.221338 176.257617 
C 519.19891 174.280045 520.310054 171.597506 520.310054 168.800798 
C 520.310054 166.004089 519.19891 163.32155 517.221338 161.343979 
C 515.243766 159.366407 512.561227 158.255263 509.764519 158.255263 
C 506.96781 158.255263 504.285271 159.366407 502.3077 161.343979 
C 500.330128 163.32155 499.218984 166.004089 499.218984 168.800798 
C 499.218984 171.597506 500.330128 174.280045 502.3077 176.257617 
C 504.285271 178.235189 506.96781 179.346333 509.764519 179.346333 
z
" clip-path="url(#pee0cf1081a)" style="fill: #bb8bff; stroke: #bb8bff; stroke-width: 2; stroke-linejoin: miter"/>
   </g>
   <g id="patch_40">
    <path d="M 587.407468 91.157849 
L 617.537567 91.157849 
L 617.537567 61.027749 
L 587.407468 61.027749 
z
" clip-path="url(#pee0cf1081a)" style="fill: #6fa4ff; stroke: #6fa4ff; stroke-width: 1.5; stroke-linejoin: miter"/>
   </g>
   <g id="patch_41">
    <path d="M 587.407468 137.511848 
L 617.537567 137.511848 
L 617.537567 107.381749 
L 587.407468 107.381749 
z
" clip-path="url(#pee0cf1081a)" style="fill: #6fa4ff; stroke: #6fa4ff; stroke-width: 1.5; stroke-linejoin: miter"/>
   </g>
   <g id="patch_42">
    <path d="M 648.826517 80.612314 
C 650.025106 80.612314 651.174766 80.136109 652.022297 79.288579 
C 652.869827 78.441048 653.346032 77.291388 653.346032 76.092799 
C 653.346032 74.89421 652.869827 73.74455 652.022297 72.897019 
C 651.174766 72.049489 650.025106 71.573284 648.826517 71.573284 
C 647.627928 71.573284 646.478268 72.049489 645.630737 72.897019 
C 644.783207 73.74455 644.307002 74.89421 644.307002 76.092799 
C 644.307002 77.291388 644.783207 78.441048 645.630737 79.288579 
C 646.478268 80.136109 647.627928 80.612314 648.826517 80.612314 
z
" clip-path="url(#pee0cf1081a)" style="fill: #6fa4ff; stroke: #6fa4ff; stroke-width: 1.5; stroke-linejoin: miter"/>
   </g>
   <g id="patch_43">
    <path d="M 648.826517 179.346333 
C 651.623226 179.346333 654.305765 178.235189 656.283336 176.257617 
C 658.260908 174.280045 659.372052 171.597506 659.372052 168.800798 
C 659.372052 166.004089 658.260908 163.32155 656.283336 161.343979 
C 654.305765 159.366407 651.623226 158.255263 648.826517 158.255263 
C 646.029808 158.255263 643.347269 159.366407 641.369698 161.343979 
C 639.392126 163.32155 638.280982 166.004089 638.280982 168.800798 
C 638.280982 171.597506 639.392126 174.280045 641.369698 176.257617 
C 643.347269 178.235189 646.029808 179.346333 648.826517 179.346333 
z
" clip-path="url(#pee0cf1081a)" style="fill: #6fa4ff; stroke: #6fa4ff; stroke-width: 2; stroke-linejoin: miter"/>
   </g>
   <g id="patch_44">
    <path d="M 741.534516 126.966313 
C 742.733105 126.966313 743.882765 126.490109 744.730295 125.642578 
C 745.577826 124.795047 746.054031 123.645388 746.054031 122.446798 
C 746.054031 121.248209 745.577826 120.098549 744.730295 119.251019 
C 743.882765 118.403488 742.733105 117.927283 741.534516 117.927283 
C 740.335926 117.927283 739.186267 118.403488 738.338736 119.251019 
C 737.491205 120.098549 737.015001 121.248209 737.015001 122.446798 
C 737.015001 123.645388 737.491205 124.795047 738.338736 125.642578 
C 739.186267 126.490109 740.335926 126.966313 741.534516 126.966313 
z
" clip-path="url(#pee0cf1081a)" style="fill: #6fa4ff; stroke: #6fa4ff; stroke-width: 1.5; stroke-linejoin: miter"/>
   </g>
   <g id="patch_45">
    <path d="M 741.534516 225.700332 
C 744.331224 225.700332 747.013763 224.589188 748.991335 222.611616 
C 750.968907 220.634045 752.080051 217.951506 752.080051 215.154797 
C 752.080051 212.358089 750.968907 209.67555 748.991335 207.697978 
C 747.013763 205.720406 744.331224 204.609262 741.534516 204.609262 
C 738.737807 204.609262 736.055268 205.720406 734.077697 207.697978 
C 732.100125 209.67555 730.988981 212.358089 730.988981 215.154797 
C 730.988981 217.951506 732.100125 220.634045 734.077697 222.611616 
C 736.055268 224.589188 738.737807 225.700332 741.534516 225.700332 
z
" clip-path="url(#pee0cf1081a)" style="fill: #6fa4ff; stroke: #6fa4ff; stroke-width: 2; stroke-linejoin: miter"/>
   </g>
   <g id="patch_46">
    <path d="M 726.469466 91.157849 
L 756.599566 91.157849 
L 756.599566 61.027749 
L 726.469466 61.027749 
z
" clip-path="url(#pee0cf1081a)" style="fill: #05bab6; stroke: #05bab6; stroke-width: 1.5; stroke-linejoin: miter"/>
   </g>
   <g id="patch_47">
    <path d="M 819.177465 137.511848 
L 849.307564 137.511848 
L 849.307564 107.381749 
L 819.177465 107.381749 
z
" clip-path="url(#pee0cf1081a)" style="fill: #05bab6; stroke: #05bab6; stroke-width: 1.5; stroke-linejoin: miter"/>
   </g>
   <g id="patch_48">
    <path d="M 880.596514 80.612314 
C 881.795103 80.612314 882.944763 80.136109 883.792294 79.288579 
C 884.639824 78.441048 885.116029 77.291388 885.116029 76.092799 
C 885.116029 74.89421 884.639824 73.74455 883.792294 72.897019 
C 882.944763 72.049489 881.795103 71.573284 880.596514 71.573284 
C 879.397925 71.573284 878.248265 72.049489 877.400734 72.897019 
C 876.553204 73.74455 876.076999 74.89421 876.076999 76.092799 
C 876.076999 77.291388 876.553204 78.441048 877.400734 79.288579 
C 878.248265 80.136109 879.397925 80.612314 880.596514 80.612314 
z
" clip-path="url(#pee0cf1081a)" style="fill: #bb8bff; stroke: #bb8bff; stroke-width: 1.5; stroke-linejoin: miter"/>
   </g>
   <g id="patch_49">
    <path d="M 880.596514 126.966313 
C 881.795103 126.966313 882.944763 126.490109 883.792294 125.642578 
C 884.639824 124.795047 885.116029 123.645388 885.116029 122.446798 
C 885.116029 121.248209 884.639824 120.098549 883.792294 119.251019 
C 882.944763 118.403488 881.795103 117.927283 880.596514 117.927283 
C 879.397925 117.927283 878.248265 118.403488 877.400734 119.251019 
C 876.553204 120.098549 876.076999 121.248209 876.076999 122.446798 
C 876.076999 123.645388 876.553204 124.795047 877.400734 125.642578 
C 878.248265 126.490109 879.397925 126.966313 880.596514 126.966313 
z
" clip-path="url(#pee0cf1081a)" style="fill: #bb8bff; stroke: #bb8bff; stroke-width: 1.5; stroke-linejoin: miter"/>
   </g>
   <g id="patch_50">
    <path d="M 880.596514 179.346333 
C 883.393222 179.346333 886.075762 178.235189 888.053333 176.257617 
C 890.030905 174.280045 891.142049 171.597506 891.142049 168.800798 
C 891.142049 166.004089 890.030905 163.32155 888.053333 161.343979 
C 886.075762 159.366407 883.393222 158.255263 880.596514 158.255263 
C 877.799805 158.255263 875.117266 159.366407 873.139695 161.343979 
C 871.162123 163.32155 870.050979 166.004089 870.050979 168.800798 
C 870.050979 171.597506 871.162123 174.280045 873.139695 176.257617 
C 875.117266 178.235189 877.799805 179.346333 880.596514 179.346333 
z
" clip-path="url(#pee0cf1081a)" style="fill: #bb8bff; stroke: #bb8bff; stroke-width: 2; stroke-linejoin: miter"/>
   </g>
   <g id="patch_51">
    <path d="M 958.239463 183.865848 
L 988.369562 183.865848 
L 988.369562 153.735748 
L 958.239463 153.735748 
z
" clip-path="url(#pee0cf1081a)" style="stroke: #000000; stroke-width: 1.5; stroke-linejoin: miter"/>
   </g>
   <g id="patch_52">
    <path d="M 983.850048 173.320313 
C 983.850048 170.524536 982.738245 167.840406 980.761332 165.863493 
C 978.784419 163.886581 976.10029 162.774778 973.304513 162.774778 
C 970.508736 162.774778 967.824606 163.886581 965.847693 165.863493 
C 963.870781 167.840406 962.758978 170.524536 962.758978 173.320313 
" clip-path="url(#pee0cf1081a)" style="fill: none; stroke: #ffffff; stroke-width: 2; stroke-linejoin: miter"/>
   </g>
   <g id="line2d_18">
    <path d="M 973.304513 173.320313 
L 983.850048 162.774778 
" clip-path="url(#pee0cf1081a)" style="fill: none; stroke: #ffffff; stroke-width: 2; stroke-linecap: square"/>
   </g>
   <g id="patch_53">
    <path d="M 1004.593462 230.219847 
L 1034.723562 230.219847 
L 1034.723562 200.089747 
L 1004.593462 200.089747 
z
" clip-path="url(#pee0cf1081a)" style="stroke: #000000; stroke-width: 1.5; stroke-linejoin: miter"/>
   </g>
   <g id="patch_54">
    <path d="M 1030.204047 219.674312 
C 1030.204047 216.878535 1029.092244 214.194406 1027.115331 212.217493 
C 1025.138418 210.24058 1022.454289 209.128777 1019.658512 209.128777 
C 1016.862735 209.128777 1014.178606 210.24058 1012.201693 212.217493 
C 1010.22478 214.194406 1009.112977 216.878535 1009.112977 219.674312 
" clip-path="url(#pee0cf1081a)" style="fill: none; stroke: #ffffff; stroke-width: 2; stroke-linejoin: miter"/>
   </g>
   <g id="line2d_19">
    <path d="M 1019.658512 219.674312 
L 1030.204047 209.128777 
" clip-path="url(#pee0cf1081a)" style="fill: none; stroke: #ffffff; stroke-width: 2; stroke-linecap: square"/>
   </g>
   <g id="line2d_20">
    <path d="M 277.994522 174.826818 
L 277.994522 162.774778 
" clip-path="url(#pee0cf1081a)" style="fill: none; stroke: #ffffff; stroke-width: 2; stroke-linecap: square"/>
   </g>
   <g id="line2d_21">
    <path d="M 271.968502 168.800798 
L 284.020542 168.800798 
" clip-path="url(#pee0cf1081a)" style="fill: none; stroke: #ffffff; stroke-width: 2; stroke-linecap: square"/>
   </g>
   <g id="line2d_22">
    <path d="M 370.702521 221.180817 
L 370.702521 209.128777 
" clip-path="url(#pee0cf1081a)" style="fill: none; stroke: #ffffff; stroke-width: 2; stroke-linecap: square"/>
   </g>
   <g id="line2d_23">
    <path d="M 364.676501 215.154797 
L 376.728541 215.154797 
" clip-path="url(#pee0cf1081a)" style="fill: none; stroke: #ffffff; stroke-width: 2; stroke-linecap: square"/>
   </g>
   <g id="line2d_24">
    <path d="M 509.764519 174.826818 
L 509.764519 162.774778 
" clip-path="url(#pee0cf1081a)" style="fill: none; stroke: #ffffff; stroke-width: 2; stroke-linecap: square"/>
   </g>
   <g id="line2d_25">
    <path d="M 503.738499 168.800798 
L 515.790539 168.800798 
" clip-path="url(#pee0cf1081a)" style="fill: none; stroke: #ffffff; stroke-width: 2; stroke-linecap: square"/>
   </g>
   <g id="line2d_26">
    <path d="M 648.826517 174.826818 
L 648.826517 162.774778 
" clip-path="url(#pee0cf1081a)" style="fill: none; stroke: #ffffff; stroke-width: 2; stroke-linecap: square"/>
   </g>
   <g id="line2d_27">
    <path d="M 642.800497 168.800798 
L 654.852537 168.800798 
" clip-path="url(#pee0cf1081a)" style="fill: none; stroke: #ffffff; stroke-width: 2; stroke-linecap: square"/>
   </g>
   <g id="line2d_28">
    <path d="M 741.534516 221.180817 
L 741.534516 209.128777 
" clip-path="url(#pee0cf1081a)" style="fill: none; stroke: #ffffff; stroke-width: 2; stroke-linecap: square"/>
   </g>
   <g id="line2d_29">
    <path d="M 735.508496 215.154797 
L 747.560536 215.154797 
" clip-path="url(#pee0cf1081a)" style="fill: none; stroke: #ffffff; stroke-width: 2; stroke-linecap: square"/>
   </g>
   <g id="line2d_30">
    <path d="M 880.596514 174.826818 
L 880.596514 162.774778 
" clip-path="url(#pee0cf1081a)" style="fill: none; stroke: #ffffff; stroke-width: 2; stroke-linecap: square"/>
   </g>
   <g id="line2d_31">
    <path d="M 874.570494 168.800798 
L 886.622534 168.800798 
" clip-path="url(#pee0cf1081a)" style="fill: none; stroke: #ffffff; stroke-width: 2; stroke-linecap: square"/>
   </g>
   <g id="text_1">
    <g clip-path="url(#pee0cf1081a)">
     <!-- ${q}_{0}$ -->
     <g transform="translate(179.301063 80.543776) scale(0.1625 -0.1625)">
      <defs>
       <path id="DejaVuSans-Oblique-71" d="M 2669 525 
Q 2438 222 2123 65 
Q 1809 -91 1428 -91 
Q 897 -91 595 267 
Q 294 625 294 1253 
Q 294 1759 480 2231 
Q 666 2703 1013 3078 
Q 1238 3322 1530 3453 
Q 1822 3584 2144 3584 
Q 2531 3584 2781 3431 
Q 3031 3278 3144 2969 
L 3244 3494 
L 3822 3494 
L 2888 -1319 
L 2309 -1319 
L 2669 525 
z
M 891 1338 
Q 891 875 1084 633 
Q 1278 391 1644 391 
Q 2188 391 2572 911 
Q 2956 1431 2956 2175 
Q 2956 2625 2757 2864 
Q 2559 3103 2188 3103 
Q 1916 3103 1684 2976 
Q 1453 2850 1281 2606 
Q 1100 2350 995 2006 
Q 891 1663 891 1338 
z
" transform="scale(0.015625)"/>
       <path id="DejaVuSans-30" d="M 2034 4250 
Q 1547 4250 1301 3770 
Q 1056 3291 1056 2328 
Q 1056 1369 1301 889 
Q 1547 409 2034 409 
Q 2525 409 2770 889 
Q 3016 1369 3016 2328 
Q 3016 3291 2770 3770 
Q 2525 4250 2034 4250 
z
M 2034 4750 
Q 2819 4750 3233 4129 
Q 3647 3509 3647 2328 
Q 3647 1150 3233 529 
Q 2819 -91 2034 -91 
Q 1250 -91 836 529 
Q 422 1150 422 2328 
Q 422 3509 836 4129 
Q 1250 4750 2034 4750 
z
" transform="scale(0.015625)"/>
      </defs>
      <use xlink:href="#DejaVuSans-Oblique-71"/>
      <use xlink:href="#DejaVuSans-30" transform="translate(63.476562 -16.40625) scale(0.7)"/>
     </g>
    </g>
   </g>
   <g id="text_2">
    <g clip-path="url(#pee0cf1081a)">
     <!-- ${q}_{1}$ -->
     <g transform="translate(179.301063 126.897775) scale(0.1625 -0.1625)">
      <defs>
       <path id="DejaVuSans-31" d="M 794 531 
L 1825 531 
L 1825 4091 
L 703 3866 
L 703 4441 
L 1819 4666 
L 2450 4666 
L 2450 531 
L 3481 531 
L 3481 0 
L 794 0 
L 794 531 
z
" transform="scale(0.015625)"/>
      </defs>
      <use xlink:href="#DejaVuSans-Oblique-71"/>
      <use xlink:href="#DejaVuSans-31" transform="translate(63.476562 -16.40625) scale(0.7)"/>
     </g>
    </g>
   </g>
   <g id="text_3">
    <g clip-path="url(#pee0cf1081a)">
     <!-- ${q}_{2}$ -->
     <g transform="translate(179.301063 173.251774) scale(0.1625 -0.1625)">
      <defs>
       <path id="DejaVuSans-32" d="M 1228 531 
L 3431 531 
L 3431 0 
L 469 0 
L 469 531 
Q 828 903 1448 1529 
Q 2069 2156 2228 2338 
Q 2531 2678 2651 2914 
Q 2772 3150 2772 3378 
Q 2772 3750 2511 3984 
Q 2250 4219 1831 4219 
Q 1534 4219 1204 4116 
Q 875 4013 500 3803 
L 500 4441 
Q 881 4594 1212 4672 
Q 1544 4750 1819 4750 
Q 2544 4750 2975 4387 
Q 3406 4025 3406 3419 
Q 3406 3131 3298 2873 
Q 3191 2616 2906 2266 
Q 2828 2175 2409 1742 
Q 1991 1309 1228 531 
z
" transform="scale(0.015625)"/>
      </defs>
      <use xlink:href="#DejaVuSans-Oblique-71"/>
      <use xlink:href="#DejaVuSans-32" transform="translate(63.476562 -16.40625) scale(0.7)"/>
     </g>
    </g>
   </g>
   <g id="text_4">
    <g clip-path="url(#pee0cf1081a)">
     <!-- ${q}_{3}$ -->
     <g transform="translate(179.301063 219.605774) scale(0.1625 -0.1625)">
      <defs>
       <path id="DejaVuSans-33" d="M 2597 2516 
Q 3050 2419 3304 2112 
Q 3559 1806 3559 1356 
Q 3559 666 3084 287 
Q 2609 -91 1734 -91 
Q 1441 -91 1130 -33 
Q 819 25 488 141 
L 488 750 
Q 750 597 1062 519 
Q 1375 441 1716 441 
Q 2309 441 2620 675 
Q 2931 909 2931 1356 
Q 2931 1769 2642 2001 
Q 2353 2234 1838 2234 
L 1294 2234 
L 1294 2753 
L 1863 2753 
Q 2328 2753 2575 2939 
Q 2822 3125 2822 3475 
Q 2822 3834 2567 4026 
Q 2313 4219 1838 4219 
Q 1578 4219 1281 4162 
Q 984 4106 628 3988 
L 628 4550 
Q 988 4650 1302 4700 
Q 1616 4750 1894 4750 
Q 2613 4750 3031 4423 
Q 3450 4097 3450 3541 
Q 3450 3153 3228 2886 
Q 3006 2619 2597 2516 
z
" transform="scale(0.015625)"/>
      </defs>
      <use xlink:href="#DejaVuSans-Oblique-71"/>
      <use xlink:href="#DejaVuSans-33" transform="translate(63.476562 -16.40625) scale(0.7)"/>
     </g>
    </g>
   </g>
   <g id="text_5">
    <g clip-path="url(#pee0cf1081a)">
     <!-- 4 -->
     <g transform="translate(211.244763 254.710522) scale(0.104 -0.104)">
      <defs>
       <path id="DejaVuSans-34" d="M 2419 4116 
L 825 1625 
L 2419 1625 
L 2419 4116 
z
M 2253 4666 
L 3047 4666 
L 3047 1625 
L 3713 1625 
L 3713 1100 
L 3047 1100 
L 3047 0 
L 2419 0 
L 2419 1100 
L 313 1100 
L 313 1709 
L 2253 4666 
z
" transform="scale(0.015625)"/>
      </defs>
      <use xlink:href="#DejaVuSans-34"/>
     </g>
    </g>
   </g>
   <g id="text_6">
    <g clip-path="url(#pee0cf1081a)">
     <!-- c -->
     <g transform="translate(188.403602 265.992781) scale(0.1625 -0.1625)">
      <defs>
       <path id="DejaVuSans-63" d="M 3122 3366 
L 3122 2828 
Q 2878 2963 2633 3030 
Q 2388 3097 2138 3097 
Q 1578 3097 1268 2742 
Q 959 2388 959 1747 
Q 959 1106 1268 751 
Q 1578 397 2138 397 
Q 2388 397 2633 464 
Q 2878 531 3122 666 
L 3122 134 
Q 2881 22 2623 -34 
Q 2366 -91 2075 -91 
Q 1284 -91 818 406 
Q 353 903 353 1747 
Q 353 2603 823 3093 
Q 1294 3584 2113 3584 
Q 2378 3584 2631 3529 
Q 2884 3475 3122 3366 
z
" transform="scale(0.015625)"/>
      </defs>
      <use xlink:href="#DejaVuSans-63"/>
     </g>
    </g>
   </g>
   <g id="text_7">
    <g clip-path="url(#pee0cf1081a)">
     <!-- H -->
     <g transform="translate(226.752319 79.679986) scale(0.13 -0.13)">
      <defs>
       <path id="DejaVuSans-48" d="M 628 4666 
L 1259 4666 
L 1259 2753 
L 3553 2753 
L 3553 4666 
L 4184 4666 
L 4184 0 
L 3553 0 
L 3553 2222 
L 1259 2222 
L 1259 0 
L 628 0 
L 628 4666 
z
" transform="scale(0.015625)"/>
      </defs>
      <use xlink:href="#DejaVuSans-48"/>
     </g>
    </g>
   </g>
   <g id="text_8">
    <g clip-path="url(#pee0cf1081a)">
     <!-- H -->
     <g transform="translate(226.752319 126.033986) scale(0.13 -0.13)">
      <use xlink:href="#DejaVuSans-48"/>
     </g>
    </g>
   </g>
   <g id="line2d_32">
    <path d="M 324.348521 52.915799 
L 324.348521 99.269799 
" clip-path="url(#pee0cf1081a)" style="fill: none; stroke-dasharray: 3.7,1.6; stroke-dashoffset: 0; stroke: #000000"/>
   </g>
   <g id="line2d_33">
    <path d="M 324.348521 99.269799 
L 324.348521 145.623798 
" clip-path="url(#pee0cf1081a)" style="fill: none; stroke-dasharray: 3.7,1.6; stroke-dashoffset: 0; stroke: #000000"/>
   </g>
   <g id="line2d_34">
    <path d="M 324.348521 145.623798 
L 324.348521 191.977797 
" clip-path="url(#pee0cf1081a)" style="fill: none; stroke-dasharray: 3.7,1.6; stroke-dashoffset: 0; stroke: #000000"/>
   </g>
   <g id="line2d_35">
    <path d="M 324.348521 191.977797 
L 324.348521 238.331797 
" clip-path="url(#pee0cf1081a)" style="fill: none; stroke-dasharray: 3.7,1.6; stroke-dashoffset: 0; stroke: #000000"/>
   </g>
   <g id="text_9">
    <g clip-path="url(#pee0cf1081a)">
     <!-- X -->
     <g transform="translate(366.250021 79.679986) scale(0.13 -0.13)">
      <defs>
       <path id="DejaVuSans-58" d="M 403 4666 
L 1081 4666 
L 2241 2931 
L 3406 4666 
L 4084 4666 
L 2584 2425 
L 4184 0 
L 3506 0 
L 2194 1984 
L 872 0 
L 191 0 
L 1856 2491 
L 403 4666 
z
" transform="scale(0.015625)"/>
      </defs>
      <use xlink:href="#DejaVuSans-58"/>
     </g>
    </g>
   </g>
   <g id="line2d_36">
    <path d="M 417.05652 52.915799 
L 417.05652 99.269799 
" clip-path="url(#pee0cf1081a)" style="fill: none; stroke-dasharray: 3.7,1.6; stroke-dashoffset: 0; stroke: #000000"/>
   </g>
   <g id="line2d_37">
    <path d="M 417.05652 99.269799 
L 417.05652 145.623798 
" clip-path="url(#pee0cf1081a)" style="fill: none; stroke-dasharray: 3.7,1.6; stroke-dashoffset: 0; stroke: #000000"/>
   </g>
   <g id="line2d_38">
    <path d="M 417.05652 145.623798 
L 417.05652 191.977797 
" clip-path="url(#pee0cf1081a)" style="fill: none; stroke-dasharray: 3.7,1.6; stroke-dashoffset: 0; stroke: #000000"/>
   </g>
   <g id="line2d_39">
    <path d="M 417.05652 191.977797 
L 417.05652 238.331797 
" clip-path="url(#pee0cf1081a)" style="fill: none; stroke-dasharray: 3.7,1.6; stroke-dashoffset: 0; stroke: #000000"/>
   </g>
   <g id="text_10">
    <g clip-path="url(#pee0cf1081a)">
     <!-- X -->
     <g transform="translate(458.958019 126.033986) scale(0.13 -0.13)">
      <use xlink:href="#DejaVuSans-58"/>
     </g>
    </g>
   </g>
   <g id="line2d_40">
    <path d="M 556.118518 52.915799 
L 556.118518 99.269799 
" clip-path="url(#pee0cf1081a)" style="fill: none; stroke-dasharray: 3.7,1.6; stroke-dashoffset: 0; stroke: #000000"/>
   </g>
   <g id="line2d_41">
    <path d="M 556.118518 99.269799 
L 556.118518 145.623798 
" clip-path="url(#pee0cf1081a)" style="fill: none; stroke-dasharray: 3.7,1.6; stroke-dashoffset: 0; stroke: #000000"/>
   </g>
   <g id="line2d_42">
    <path d="M 556.118518 145.623798 
L 556.118518 191.977797 
" clip-path="url(#pee0cf1081a)" style="fill: none; stroke-dasharray: 3.7,1.6; stroke-dashoffset: 0; stroke: #000000"/>
   </g>
   <g id="line2d_43">
    <path d="M 556.118518 191.977797 
L 556.118518 238.331797 
" clip-path="url(#pee0cf1081a)" style="fill: none; stroke-dasharray: 3.7,1.6; stroke-dashoffset: 0; stroke: #000000"/>
   </g>
   <g id="text_11">
    <g clip-path="url(#pee0cf1081a)">
     <!-- H -->
     <g transform="translate(597.584314 79.679986) scale(0.13 -0.13)">
      <use xlink:href="#DejaVuSans-48"/>
     </g>
    </g>
   </g>
   <g id="text_12">
    <g clip-path="url(#pee0cf1081a)">
     <!-- H -->
     <g transform="translate(597.584314 126.033986) scale(0.13 -0.13)">
      <use xlink:href="#DejaVuSans-48"/>
     </g>
    </g>
   </g>
   <g id="line2d_44">
    <path d="M 695.180516 52.915799 
L 695.180516 99.269799 
" clip-path="url(#pee0cf1081a)" style="fill: none; stroke-dasharray: 3.7,1.6; stroke-dashoffset: 0; stroke: #000000"/>
   </g>
   <g id="line2d_45">
    <path d="M 695.180516 99.269799 
L 695.180516 145.623798 
" clip-path="url(#pee0cf1081a)" style="fill: none; stroke-dasharray: 3.7,1.6; stroke-dashoffset: 0; stroke: #000000"/>
   </g>
   <g id="line2d_46">
    <path d="M 695.180516 145.623798 
L 695.180516 191.977797 
" clip-path="url(#pee0cf1081a)" style="fill: none; stroke-dasharray: 3.7,1.6; stroke-dashoffset: 0; stroke: #000000"/>
   </g>
   <g id="line2d_47">
    <path d="M 695.180516 191.977797 
L 695.180516 238.331797 
" clip-path="url(#pee0cf1081a)" style="fill: none; stroke-dasharray: 3.7,1.6; stroke-dashoffset: 0; stroke: #000000"/>
   </g>
   <g id="text_13">
    <g clip-path="url(#pee0cf1081a)">
     <!-- X -->
     <g transform="translate(737.082016 79.679986) scale(0.13 -0.13)">
      <use xlink:href="#DejaVuSans-58"/>
     </g>
    </g>
   </g>
   <g id="line2d_48">
    <path d="M 787.888515 52.915799 
L 787.888515 99.269799 
" clip-path="url(#pee0cf1081a)" style="fill: none; stroke-dasharray: 3.7,1.6; stroke-dashoffset: 0; stroke: #000000"/>
   </g>
   <g id="line2d_49">
    <path d="M 787.888515 99.269799 
L 787.888515 145.623798 
" clip-path="url(#pee0cf1081a)" style="fill: none; stroke-dasharray: 3.7,1.6; stroke-dashoffset: 0; stroke: #000000"/>
   </g>
   <g id="line2d_50">
    <path d="M 787.888515 145.623798 
L 787.888515 191.977797 
" clip-path="url(#pee0cf1081a)" style="fill: none; stroke-dasharray: 3.7,1.6; stroke-dashoffset: 0; stroke: #000000"/>
   </g>
   <g id="line2d_51">
    <path d="M 787.888515 191.977797 
L 787.888515 238.331797 
" clip-path="url(#pee0cf1081a)" style="fill: none; stroke-dasharray: 3.7,1.6; stroke-dashoffset: 0; stroke: #000000"/>
   </g>
   <g id="text_14">
    <g clip-path="url(#pee0cf1081a)">
     <!-- X -->
     <g transform="translate(829.790015 126.033986) scale(0.13 -0.13)">
      <use xlink:href="#DejaVuSans-58"/>
     </g>
    </g>
   </g>
   <g id="line2d_52">
    <path d="M 926.950513 52.915799 
L 926.950513 99.269799 
" clip-path="url(#pee0cf1081a)" style="fill: none; stroke-dasharray: 3.7,1.6; stroke-dashoffset: 0; stroke: #000000"/>
   </g>
   <g id="line2d_53">
    <path d="M 926.950513 99.269799 
L 926.950513 145.623798 
" clip-path="url(#pee0cf1081a)" style="fill: none; stroke-dasharray: 3.7,1.6; stroke-dashoffset: 0; stroke: #000000"/>
   </g>
   <g id="line2d_54">
    <path d="M 926.950513 145.623798 
L 926.950513 191.977797 
" clip-path="url(#pee0cf1081a)" style="fill: none; stroke-dasharray: 3.7,1.6; stroke-dashoffset: 0; stroke: #000000"/>
   </g>
   <g id="line2d_55">
    <path d="M 926.950513 191.977797 
L 926.950513 238.331797 
" clip-path="url(#pee0cf1081a)" style="fill: none; stroke-dasharray: 3.7,1.6; stroke-dashoffset: 0; stroke: #000000"/>
   </g>
   <g id="text_15">
    <g clip-path="url(#pee0cf1081a)">
     <!-- 0 -->
     <g transform="translate(984.893013 254.710522) scale(0.104 -0.104)">
      <use xlink:href="#DejaVuSans-30"/>
     </g>
    </g>
   </g>
   <g id="text_16">
    <g clip-path="url(#pee0cf1081a)">
     <!-- 1 -->
     <g transform="translate(1031.247012 254.710522) scale(0.104 -0.104)">
      <use xlink:href="#DejaVuSans-31"/>
     </g>
    </g>
   </g>
  </g>
 </g>
 <defs>
  <clipPath id="pee0cf1081a">
   <rect x="149.200166" y="39.009599" width="901.051985" height="250.311597"/>
  </clipPath>
 </defs>
</svg>
